<?xml version="1.0" encoding="utf-8"?>
<!-- Generator: Adobe Illustrator 15.0.0, SVG Export Plug-In . SVG Version: 6.00 Build 0)  -->
<!DOCTYPE svg PUBLIC "-//W3C//DTD SVG 1.1//EN" "http://www.w3.org/Graphics/SVG/1.1/DTD/svg11.dtd">
<svg version="1.1" id="Layer_1" xmlns="http://www.w3.org/2000/svg" xmlns:xlink="http://www.w3.org/1999/xlink" x="0px" y="0px"
	 width="155px" height="108px" viewBox="0 0 155 108" enable-background="new 0 0 155 108" xml:space="preserve">
<g>
	<polygon fill="none" points="9.334,81.392 129.482,81.392 143.433,67.479 23.501,67.479 	"/>
	<polygon fill="none" points="9.35,40.871 129.205,40.871 143.442,26.608 23.697,26.608 	"/>
	<path fill="#FFEC00" d="M146.321,26.608V0H6.489v26.608h14.36L6.501,40.871H6.489v0.012L6.48,40.892l0.009,0.009v26.579h14.168
		L6.497,81.386l0.007,0.006H6.489V108h139.832V81.392H132.35l13.95-13.912h0.021V40.871h-14.25l14.238-14.263H146.321z
		 M129.482,81.392H9.334l14.167-13.912h119.931L129.482,81.392z M129.205,40.871H9.35l14.348-14.263h119.745L129.205,40.871z"/>
</g>
<rect x="-1104.233" y="-18.868" fill="#FFED00" width="338.297" height="59.173"/>
<rect x="-1132.701" y="80.074" fill="#FFED00" width="400.259" height="59.174"/>
<g>
	<path fill="#1D1D1B" d="M41.899,7.015v14.484H39.21V10.607l-4.584,5.496l-4.585-5.516v10.912h-2.689V7.015h3.105l4.169,5.181
		l4.168-5.181H41.899z"/>
	<path fill="#1D1D1B" d="M51.855,7.015h2.689v14.484h-2.689V7.015z"/>
	<path fill="#1D1D1B" d="M67.21,7.015v11.952h5.398v2.532H64.5V7.015H67.21z"/>
	<path fill="#1D1D1B" d="M84.223,7.015v11.952h5.397v2.532h-8.106V7.015H84.223z"/>
	<path fill="#1D1D1B" d="M106.997,7.015v2.492h-5.782v3.359h5.585v2.492h-5.585v3.648h5.98v2.492h-8.67V7.015H106.997z"/>
	<path fill="#1D1D1B" d="M121.501,6.996c3.052,0,4.521,1.864,4.521,4.401c0,2.116-1.045,3.761-3.179,4.242l3.833,5.86h-3.148
		l-3.713-5.701h-1.026v5.701h-2.67V6.996H121.501z M121.384,13.188c1.319,0,1.947-0.808,1.947-1.791c0-1.003-0.847-1.79-1.929-1.79
		h-2.596v3.581H121.384z"/>
	<path fill="#1D1D1B" d="M34.603,47.171c2.221,0,4.006,1.779,4.006,3.977c0,1.162-0.479,2.201-1.275,2.916
		c1.129,0.729,1.861,1.997,1.861,3.446c0,2.299-1.865,4.145-4.165,4.145h-6.583V47.171H34.603z M33.872,52.97
		c1.065,0,1.908-0.584,1.908-1.604c0-1.04-0.846-1.604-1.908-1.604h-2.656v3.208H33.872z M34.419,59.045
		c1.082,0,1.947-0.672,1.947-1.732c0-1.039-0.866-1.731-1.947-1.731h-3.203v3.465L34.419,59.045L34.419,59.045z"/>
	<path fill="#1D1D1B" d="M53.492,47.151c3.052,0,4.521,1.864,4.521,4.401c0,2.116-1.044,3.763-3.178,4.242l3.833,5.858H55.52
		l-3.713-5.7H50.78v5.7h-2.67V47.151H53.492z M53.375,53.343c1.32,0,1.948-0.808,1.948-1.791c0-1.003-0.846-1.79-1.928-1.79h-2.597
		v3.581H53.375z"/>
	<path fill="#1D1D1B" d="M75.672,47.171l5.665,14.483h-2.83l-1.311-3.338h-5.903l-1.311,3.338h-2.83l5.665-14.483H75.672z
		 M74.255,50.475l-1.905,5.152h3.79L74.255,50.475z"/>
	<path fill="#1D1D1B" d="M93.354,47.171l6.619,10.256V47.171h2.688v14.483h-3.104l-6.619-10.276v10.276h-2.689V47.171H93.354z"/>
	<path fill="#1D1D1B" d="M118.075,47.171c4.098,0,7.487,3.268,7.487,7.242c0,3.974-3.391,7.241-7.487,7.241h-5.455V47.171H118.075z
		 M118.075,59.025c2.663,0,4.778-2.131,4.778-4.612c0-2.481-2.115-4.612-4.778-4.612h-2.767v9.225H118.075L118.075,59.025z"/>
	<path fill="#1D1D1B" d="M21.791,95.199c-1.487-0.521-3.327-1.514-3.327-3.75c0-2.701,2.032-4.367,4.375-4.309
		c1.281,0.039,2.659,0.567,3.833,1.739l-1.617,1.813c-0.815-0.733-1.594-1.024-2.217-0.983c-0.969,0.041-1.605,0.791-1.605,1.64
		c0,0.94,0.627,1.327,1.8,1.733l1.169,0.388c1.472,0.432,3.328,1.786,3.328,4.209c0,2.618-2.112,4.331-4.68,4.297
		c-1.571-0.035-3.3-0.709-4.818-2.216l1.616-1.911c1.159,1.186,2.288,1.616,3.199,1.596c1.233-0.006,2.07-0.844,2.07-1.766
		c0-1.13-0.981-1.724-1.967-2.056L21.791,95.199z"/>
	<path fill="#1D1D1B" d="M44.908,87.328v2.49h-5.782v3.358h5.584v2.492h-5.584v3.647h5.98v2.492h-8.67v-14.48H44.908z"/>
	<path fill="#1D1D1B" d="M59.411,87.309c3.052,0,4.521,1.863,4.521,4.4c0,2.115-1.044,3.762-3.178,4.242l3.833,5.859h-3.148
		l-3.713-5.701h-1.027v5.701h-2.67V87.307L59.411,87.309z M59.294,93.5c1.32,0,1.948-0.809,1.948-1.791
		c0-1.002-0.846-1.791-1.928-1.791h-2.597V93.5H59.294z"/>
	<path fill="#1D1D1B" d="M84.725,87.328l-5.621,14.482h-2.895l-5.621-14.482h2.77l4.289,10.824l4.289-10.824H84.725z"/>
	<path fill="#1D1D1B" d="M93.62,87.328h2.688v14.482H93.62V87.328z"/>
	<path fill="#1D1D1B" d="M117.982,100.381c-1.268,1.018-2.877,1.617-4.635,1.617c-4.098,0-7.486-3.271-7.486-7.428
		c0-4.158,3.39-7.43,7.486-7.43c1.76,0,3.373,0.602,4.635,1.635l-1.854,1.854c-0.804-0.555-1.779-0.857-2.781-0.857
		c-2.662,0-4.777,2.136-4.777,4.799c0,2.662,2.115,4.816,4.777,4.816c1.002,0,1.977-0.32,2.779-0.875L117.982,100.381z"/>
	<path fill="#1D1D1B" d="M135.372,87.328v2.49h-5.782v3.358h5.585v2.492h-5.585v3.647h5.98v2.492h-8.67v-14.48H135.372z"/>
</g>
</svg>
