<?xml version="1.0" encoding="utf-8"?>
<!-- Generator: Adobe Illustrator 15.0.0, SVG Export Plug-In . SVG Version: 6.00 Build 0)  -->
<!DOCTYPE svg PUBLIC "-//W3C//DTD SVG 1.1//EN" "http://www.w3.org/Graphics/SVG/1.1/DTD/svg11.dtd">
<svg version="1.1" id="Layer_1" xmlns="http://www.w3.org/2000/svg" xmlns:xlink="http://www.w3.org/1999/xlink" x="0px" y="0px"
	 width="220px" height="28px" viewBox="0 0 220 28" enable-background="new 0 0 220 28" xml:space="preserve">
<g>
	<path fill="#FFFFFF" d="M50.514,3.591h-3.155V10.3h-1.743V2.061h6.639V10.3h-1.742V3.591z"/>
	<path fill="#FFFFFF" d="M56.14,2.061h5.309v1.53h-3.566v1.788h3.236v1.531h-3.236v1.86h3.625v1.53H56.14V2.061z"/>
	<path fill="#FFFFFF" d="M65.156,2.143c0.354-0.063,0.746-0.112,1.177-0.147c0.432-0.035,0.864-0.053,1.295-0.053
		c0.439,0,0.883,0.034,1.331,0.1c0.447,0.067,0.848,0.201,1.206,0.401c0.357,0.2,0.649,0.479,0.877,0.835
		c0.228,0.357,0.342,0.831,0.342,1.419c0,0.518-0.099,0.959-0.295,1.324c-0.195,0.365-0.457,0.662-0.782,0.889
		C69.98,7.138,69.61,7.305,69.194,7.41c-0.416,0.107-0.844,0.159-1.283,0.159c-0.04,0-0.107,0-0.2,0
		c-0.095,0-0.194-0.001-0.301-0.006c-0.105-0.003-0.206-0.009-0.299-0.017c-0.095-0.007-0.165-0.016-0.211-0.023V10.3h-1.743V2.143z
		 M67.746,3.473c-0.165,0-0.324,0.004-0.476,0.012c-0.153,0.009-0.277,0.023-0.371,0.047v2.45c0.031,0.007,0.082,0.016,0.152,0.023
		c0.071,0.007,0.146,0.013,0.225,0.018c0.078,0.004,0.15,0.007,0.218,0.012c0.065,0.004,0.12,0.006,0.159,0.006
		c0.226,0,0.454-0.016,0.682-0.046c0.228-0.032,0.431-0.098,0.607-0.2c0.177-0.102,0.32-0.242,0.429-0.419
		c0.11-0.177,0.165-0.413,0.165-0.711c0-0.251-0.051-0.454-0.153-0.607c-0.102-0.153-0.238-0.271-0.406-0.359
		c-0.169-0.086-0.362-0.145-0.577-0.177C68.184,3.489,67.966,3.473,67.746,3.473z"/>
	<path fill="#FFFFFF" d="M74.808,2.061h5.309v1.53h-3.566v1.788h3.237v1.531h-3.237v1.86h3.625v1.53h-5.368V2.061z"/>
	<path fill="#FFFFFF" d="M89.063,5.756l0.095-1.046H89.1l-0.602,1.06L85.12,10.3h-1.295V2.061h1.743v4.437L85.45,7.592h0.07
		l0.636-1.095L89.5,2.061h1.306V10.3h-1.743V5.756z M86.521,0c0.04,0.244,0.14,0.416,0.305,0.518
		c0.165,0.103,0.381,0.153,0.648,0.153c0.565,0,0.883-0.219,0.953-0.66l1.425,0.201c-0.095,0.51-0.341,0.876-0.742,1.1
		c-0.401,0.225-0.95,0.335-1.648,0.335c-0.346,0-0.664-0.021-0.953-0.064c-0.291-0.044-0.546-0.12-0.767-0.229
		c-0.219-0.111-0.397-0.254-0.534-0.431c-0.139-0.176-0.226-0.401-0.266-0.676L86.521,0z"/>
	<path fill="#FFFFFF" d="M101.035,3.591h-2.613V10.3H96.68V3.591h-2.613v-1.53h6.968V3.591z"/>
	<path fill="#FFFFFF" d="M109.532,5.756l0.095-1.046h-0.059l-0.601,1.06l-3.378,4.531h-1.295V2.061h1.743v4.437l-0.119,1.095h0.07
		l0.636-1.095l3.343-4.437h1.307V10.3h-1.743V5.756z"/>
	<path fill="#FFFFFF" d="M122.964,6.816h-0.459V10.3h-1.742V2.061h1.742v3.625l0.412-0.177l2.472-3.448h1.989l-2.613,3.448
		l-0.683,0.448l0.706,0.47l2.99,3.873h-2.155L122.964,6.816z"/>
	<path fill="#FFFFFF" d="M142.268,9.947c-0.26,0.181-0.6,0.312-1.024,0.394c-0.423,0.083-0.858,0.124-1.307,0.124
		c-0.525,0-1.029-0.079-1.513-0.235c-0.482-0.158-0.91-0.409-1.282-0.753c-0.373-0.346-0.669-0.79-0.89-1.332
		c-0.219-0.542-0.328-1.195-0.328-1.965c0-0.801,0.124-1.473,0.377-2.019c0.251-0.546,0.572-0.986,0.965-1.318
		c0.393-0.334,0.827-0.575,1.306-0.724c0.479-0.149,0.949-0.223,1.412-0.223c0.511,0,0.94,0.03,1.289,0.093
		c0.351,0.062,0.638,0.137,0.865,0.223l-0.341,1.46c-0.196-0.086-0.425-0.149-0.688-0.188c-0.265-0.039-0.596-0.058-0.996-0.058
		c-0.354,0-0.673,0.057-0.959,0.171c-0.286,0.114-0.531,0.284-0.735,0.512c-0.205,0.228-0.364,0.514-0.478,0.858
		c-0.114,0.346-0.17,0.75-0.17,1.213c0,0.407,0.05,0.781,0.152,1.118c0.102,0.337,0.255,0.628,0.46,0.87
		c0.204,0.244,0.463,0.432,0.776,0.566c0.313,0.133,0.679,0.2,1.095,0.2c0.384,0,0.708-0.037,0.971-0.107
		c0.263-0.07,0.496-0.16,0.701-0.27L142.268,9.947z"/>
	<path fill="#FFFFFF" d="M149.578,8.547h-2.777l-0.672,1.753h-1.741l3.225-8.299h1.283l3.237,8.299h-1.848L149.578,8.547z
		 M147.284,7.169h1.883l-0.637-1.718l-0.281-1.306h-0.059l-0.283,1.318L147.284,7.169z"/>
	<path fill="#FFFFFF" d="M160.489,5.756l0.095-1.046h-0.059l-0.602,1.06l-3.378,4.531h-1.295V2.061h1.743v4.437l-0.118,1.095h0.07
		l0.637-1.095l3.343-4.437h1.307V10.3h-1.743V5.756z M157.947,0c0.04,0.244,0.141,0.416,0.306,0.518
		c0.165,0.103,0.381,0.153,0.647,0.153c0.565,0,0.884-0.219,0.954-0.66l1.425,0.201c-0.096,0.51-0.342,0.876-0.742,1.1
		c-0.401,0.225-0.95,0.335-1.648,0.335c-0.346,0-0.664-0.021-0.953-0.064c-0.29-0.044-0.546-0.12-0.766-0.229
		c-0.22-0.111-0.397-0.254-0.535-0.431c-0.139-0.176-0.226-0.401-0.266-0.676L157.947,0z"/>
	<path fill="#FFFFFF" d="M172.46,3.591h-2.613V10.3h-1.739V3.591h-2.614v-1.53h6.967V3.591z"/>
	<path fill="#FFFFFF" d="M178.171,5.651l0.26,1.048h0.082l0.198-1.095l1.343-3.543h1.825l-2.392,5.731
		c-0.178,0.441-0.358,0.82-0.54,1.143c-0.181,0.321-0.373,0.59-0.578,0.806c-0.204,0.216-0.429,0.376-0.68,0.483
		c-0.254,0.105-0.543,0.157-0.873,0.157c-0.283,0-0.505-0.014-0.672-0.046c-0.163-0.031-0.348-0.109-0.552-0.235l0.436-1.401
		c0.148,0.072,0.283,0.114,0.405,0.13c0.123,0.016,0.248,0.023,0.383,0.023c0.408,0,0.691-0.274,0.847-0.823l-3.354-5.968h2.049
		L178.171,5.651z"/>
</g>
<path fill-rule="evenodd" clip-rule="evenodd" fill="#FFFFFF" d="M214.743,15.732c-0.68-0.658-1.448-1.232-2.172-1.842
	c-0.062,0.946-0.129,1.892-0.187,2.842c-0.047,0.824-0.082,1.653-0.123,2.485c-0.692-0.523-1.357-1.068-2.07-1.555
	c-0.429-0.292-0.919-0.484-1.381-0.72c-0.128,0.444-0.373,0.896-0.356,1.329c0.111,2.691-0.528,2.205-2.379,2.237
	c-0.21,0.006-0.421,0.006-0.631,0.006c-56.08,0-121.162-0.016-177.24,0.022c-1.774,0-3.117-0.441-4.496-1.637
	c-6.585-5.682-16.22-5.445-22.54,0.404c-1.57,1.455-1.563,1.854,0.054,3.299c6.498,5.82,15.837,5.994,22.565,0.282
	c1.336-1.135,2.625-1.519,4.311-1.519c28.072,0.038,56.148,0.028,84.225,0.028c28.005,0,65.011-0.003,93.015,0.01
	c0.952,0.005,2.076-0.098,2.792,0.356c0.435,0.278,0.201,1.547,0.341,2.36c0.044,0.305,0.223,0.743,0.45,0.819
	c0.219,0.081,0.625-0.152,0.858-0.359c0.581-0.502,1.095-1.079,1.649-1.604c0.195-0.181,0.452-0.283,0.675-0.422
	c0.093,0.297,0.257,0.596,0.269,0.896c0.031,1.257,0.003,2.514,0.02,3.768c0.012,0.244,0.135,0.487,0.211,0.723
	c0.23-0.12,0.502-0.206,0.68-0.377c1.985-1.966,3.938-3.963,5.947-5.909c0.59-0.575,0.546-0.948-0.029-1.497
	C217.689,18.709,216.244,17.189,214.743,15.732 M22.952,22.356c-2.52,2.126-5.452,3.363-8.716,3.688
	c-4.271,0.422-8.111-0.827-11.495-3.463c-0.293-0.231-0.471-0.618-0.705-0.933c0.38-0.084,0.761-0.205,1.147-0.242
	c0.41-0.044,0.832-0.01,1.25-0.01c0.351,0,0.696-0.008,1.05,0.001c1.403,0.034,1.393,0.026,0.704,1.277
	c-0.118,0.209-0.105,0.484-0.146,0.73c0.292-0.056,0.663-0.018,0.869-0.186c0.588-0.479,1.062-1.108,1.68-1.551
	c0.283-0.206,0.772-0.118,1.174-0.157c-0.127,0.315-0.251,0.64-0.384,0.957c-0.026,0.062-0.123,0.1-0.133,0.153
	c-0.045,0.291-0.067,0.583-0.102,0.869c0.245-0.059,0.542-0.056,0.72-0.202c0.429-0.349,0.778-0.806,1.211-1.148
	c0.367-0.286,0.796-0.51,1.229-0.689c0.15-0.068,0.384,0.081,0.579,0.134c-0.049,0.178-0.062,0.384-0.163,0.523
	c-0.202,0.286-0.482,0.511-0.66,0.805c-0.077,0.122-0.043,0.428,0.051,0.515c0.12,0.102,0.434,0.147,0.539,0.061
	c0.439-0.339,0.823-0.748,1.241-1.112c0.365-0.317,0.724-0.651,1.14-0.881c0.199-0.106,0.527,0.023,0.796,0.049
	c-0.056,0.229-0.073,0.474-0.172,0.677c-0.089,0.182-0.323,0.294-0.404,0.475c-0.091,0.218-0.091,0.479-0.131,0.72
	c0.296-0.048,0.676,0.006,0.875-0.157c0.545-0.43,0.967-1.025,1.533-1.421c0.352-0.241,0.87-0.241,1.319-0.356
	c-0.156,0.377-0.334,0.746-0.45,1.135c-0.08,0.272-0.08,0.579-0.112,0.873c0.292-0.109,0.667-0.146,0.863-0.349
	c0.984-1.006,1.902-2.087,3.537-1.73c0.236,0.053,0.457,0.187,0.685,0.283C23.232,21.914,23.142,22.196,22.952,22.356
	 M21.952,20.492c-1.328,0.108-1.863-1.054-2.717-1.718c-0.273-0.218-0.671-0.276-1.014-0.404c0.099,0.346,0.197,0.7,0.302,1.047
	c0.104,0.331,0.224,0.659,0.336,0.991c-0.385-0.073-0.867-0.038-1.15-0.251c-0.611-0.453-1.099-1.064-1.692-1.551
	c-0.207-0.171-0.574-0.159-0.87-0.227c0.05,0.286,0.059,0.586,0.164,0.849c0.07,0.178,0.315,0.286,0.412,0.464
	c0.105,0.203,0.128,0.451,0.184,0.685c-0.263,0.011-0.618,0.13-0.782,0.011c-0.717-0.531-1.361-1.174-2.079-1.698
	c-0.266-0.187-0.671-0.166-1.016-0.239c0.105,0.286,0.199,0.586,0.332,0.861c0.159,0.343,0.356,0.663,0.534,0.999
	c-0.448-0.055-1.001,0.034-1.33-0.193c-0.626-0.428-1.091-1.069-1.686-1.553c-0.193-0.153-0.566-0.086-0.855-0.121
	c0.055,0.24,0.09,0.488,0.178,0.72c0.045,0.121,0.206,0.19,0.27,0.312c0.152,0.272,0.27,0.561,0.403,0.842
	C9.479,20.3,8.973,20.433,8.711,20.24c-0.717-0.536-1.32-1.228-2.009-1.809c-0.137-0.111-0.473-0.035-0.69,0.032
	c-0.054,0.018-0.06,0.381,0.013,0.538c0.216,0.465,0.48,0.9,0.721,1.354c-0.543,0.05-1.086,0.105-1.629,0.151
	c-0.211,0.017-0.422,0.006-0.63,0.006c-0.004,0.032-0.004,0.063-0.01,0.095c-0.807-0.109-1.618-0.22-2.425-0.332
	c0.594-0.604,1.105-1.336,1.798-1.797c5.749-3.886,13.356-3.596,18.712,0.685c0.356,0.286,0.614,0.694,0.919,1.048
	C22.971,20.311,22.468,20.452,21.952,20.492 M211.179,21.846c-0.324,0.257-0.581,0.604-0.899,0.861
	c-0.192,0.159-0.461,0.224-0.701,0.334c-0.081-0.243-0.222-0.473-0.239-0.72c-0.044-0.481-0.015-0.971-0.015-1.455
	c-0.046-0.01-0.09-0.012-0.14-0.021c0.154-0.701,0.307-1.396,0.458-2.094c0.52,0.433,1.025,0.892,1.568,1.293
	C212.072,20.678,211.929,21.24,211.179,21.846 M217.929,21.599c-1.25,1.199-2.455,2.445-3.685,3.659
	c-0.356,0.353-0.832,0.479-0.841-0.185c-0.053-2.768-0.032-5.535-0.015-8.306c0-0.174,0.169-0.344,0.28-0.539
	c0.216,0.127,0.42,0.203,0.555,0.34c1.235,1.211,2.446,2.454,3.69,3.658C218.419,20.716,218.439,21.1,217.929,21.599"/>
</svg>
