<?xml version="1.0" encoding="utf-8"?>
<!-- Generator: Adobe Illustrator 15.0.0, SVG Export Plug-In . SVG Version: 6.00 Build 0)  -->
<!DOCTYPE svg PUBLIC "-//W3C//DTD SVG 1.1//EN" "http://www.w3.org/Graphics/SVG/1.1/DTD/svg11.dtd">
<svg version="1.1" id="Layer_1" xmlns="http://www.w3.org/2000/svg" xmlns:xlink="http://www.w3.org/1999/xlink" x="0px" y="0px"
	 width="220px" height="28px" viewBox="0 0 220 28" enable-background="new 0 0 220 28" xml:space="preserve">
<g>
	<path fill="#FFFFFF" d="M214.743,15.732c-0.681-0.658-1.448-1.232-2.173-1.842c-0.062,0.946-0.129,1.892-0.187,2.842
		c-0.047,0.824-0.082,1.652-0.122,2.484c-0.693-0.523-1.357-1.068-2.07-1.555c-0.43-0.292-0.92-0.484-1.381-0.721
		c-0.129,0.444-0.373,0.896-0.356,1.33c0.11,2.69-0.528,2.205-2.379,2.236c-0.21,0.006-0.421,0.006-0.632,0.006
		c-56.08,0-121.161-0.016-177.239,0.022c-1.774,0-3.117-0.441-4.496-1.638c-6.585-5.682-16.22-5.444-22.54,0.404
		c-1.57,1.455-1.563,1.854,0.054,3.299c6.498,5.82,15.837,5.994,22.565,0.282c1.336-1.135,2.625-1.519,4.311-1.519
		c28.072,0.037,56.148,0.027,84.225,0.027c28.005,0,65.011-0.002,93.015,0.01c0.952,0.006,2.076-0.098,2.792,0.356
		c0.435,0.278,0.201,1.548,0.341,2.36c0.045,0.305,0.223,0.742,0.45,0.818c0.22,0.082,0.625-0.151,0.858-0.358
		c0.58-0.502,1.095-1.079,1.648-1.604c0.195-0.181,0.452-0.283,0.676-0.422c0.092,0.297,0.256,0.596,0.269,0.896
		c0.03,1.257,0.003,2.514,0.021,3.768c0.012,0.244,0.135,0.487,0.211,0.723c0.229-0.119,0.502-0.205,0.68-0.377
		c1.984-1.965,3.938-3.963,5.947-5.908c0.59-0.575,0.545-0.948-0.029-1.497C217.689,18.709,216.244,17.189,214.743,15.732
		 M22.952,22.355c-2.52,2.127-5.452,3.363-8.716,3.688c-4.271,0.422-8.111-0.827-11.495-3.463c-0.293-0.231-0.471-0.618-0.705-0.933
		c0.38-0.084,0.761-0.205,1.147-0.242c0.41-0.045,0.832-0.01,1.25-0.01c0.351,0,0.696-0.008,1.05,0
		c1.403,0.035,1.393,0.026,0.704,1.277c-0.118,0.209-0.105,0.484-0.146,0.73c0.292-0.057,0.663-0.019,0.869-0.187
		c0.588-0.479,1.062-1.108,1.68-1.551c0.283-0.206,0.772-0.118,1.174-0.157c-0.127,0.315-0.251,0.641-0.384,0.957
		c-0.026,0.062-0.123,0.1-0.133,0.153c-0.045,0.291-0.067,0.583-0.102,0.869c0.245-0.06,0.542-0.056,0.72-0.202
		c0.429-0.35,0.778-0.807,1.211-1.148c0.367-0.285,0.796-0.51,1.229-0.688c0.15-0.068,0.384,0.081,0.579,0.134
		c-0.049,0.178-0.062,0.384-0.163,0.523c-0.202,0.285-0.482,0.511-0.66,0.805c-0.077,0.122-0.043,0.428,0.051,0.515
		c0.12,0.103,0.434,0.147,0.539,0.062c0.439-0.34,0.823-0.748,1.241-1.112c0.365-0.317,0.724-0.651,1.14-0.881
		c0.199-0.106,0.527,0.022,0.796,0.049c-0.056,0.229-0.073,0.474-0.172,0.677c-0.089,0.182-0.323,0.295-0.404,0.475
		c-0.091,0.219-0.091,0.479-0.131,0.721c0.296-0.048,0.676,0.006,0.875-0.157c0.545-0.43,0.967-1.024,1.533-1.421
		c0.352-0.24,0.87-0.24,1.319-0.355c-0.156,0.377-0.334,0.746-0.45,1.135c-0.08,0.271-0.08,0.578-0.112,0.873
		c0.292-0.109,0.667-0.146,0.863-0.35c0.984-1.006,1.902-2.086,3.537-1.729c0.236,0.053,0.457,0.187,0.685,0.282
		C23.232,21.914,23.142,22.195,22.952,22.355 M21.952,20.492c-1.328,0.107-1.863-1.055-2.717-1.719
		c-0.273-0.217-0.671-0.275-1.014-0.403c0.099,0.346,0.197,0.7,0.302,1.047c0.104,0.331,0.224,0.659,0.336,0.991
		c-0.385-0.073-0.867-0.038-1.15-0.251c-0.611-0.453-1.099-1.064-1.692-1.552c-0.207-0.17-0.574-0.158-0.87-0.227
		c0.05,0.286,0.059,0.586,0.164,0.85c0.07,0.178,0.315,0.285,0.412,0.463c0.105,0.203,0.128,0.451,0.184,0.686
		c-0.263,0.012-0.618,0.13-0.782,0.012c-0.717-0.531-1.361-1.175-2.079-1.699c-0.266-0.187-0.671-0.166-1.016-0.238
		c0.105,0.285,0.199,0.586,0.332,0.861c0.159,0.343,0.356,0.662,0.534,0.998c-0.448-0.055-1.001,0.034-1.33-0.192
		c-0.626-0.429-1.091-1.069-1.686-1.554c-0.193-0.152-0.566-0.086-0.855-0.121c0.055,0.24,0.09,0.488,0.178,0.721
		c0.045,0.121,0.206,0.189,0.27,0.312c0.152,0.271,0.27,0.561,0.403,0.842C9.479,20.3,8.973,20.434,8.711,20.24
		c-0.717-0.536-1.32-1.229-2.009-1.809c-0.137-0.111-0.473-0.035-0.69,0.031c-0.054,0.018-0.06,0.381,0.013,0.538
		c0.216,0.465,0.48,0.899,0.721,1.354c-0.543,0.05-1.086,0.104-1.629,0.15c-0.211,0.018-0.422,0.006-0.63,0.006
		c-0.004,0.032-0.004,0.063-0.01,0.096c-0.807-0.109-1.618-0.221-2.425-0.332c0.594-0.604,1.105-1.336,1.798-1.797
		c5.749-3.887,13.356-3.597,18.712,0.685c0.356,0.286,0.614,0.694,0.919,1.048C22.971,20.311,22.468,20.452,21.952,20.492
		 M211.18,21.846c-0.324,0.258-0.582,0.604-0.9,0.861c-0.191,0.159-0.461,0.225-0.7,0.334c-0.081-0.243-0.222-0.473-0.239-0.721
		c-0.044-0.48-0.015-0.971-0.015-1.454c-0.046-0.011-0.091-0.013-0.14-0.021c0.153-0.7,0.307-1.396,0.457-2.094
		c0.521,0.433,1.025,0.892,1.568,1.293C212.072,20.678,211.93,21.24,211.18,21.846 M217.93,21.6
		c-1.25,1.198-2.455,2.444-3.686,3.658c-0.355,0.354-0.832,0.479-0.842-0.185c-0.053-2.769-0.031-5.535-0.014-8.306
		c0-0.175,0.168-0.345,0.279-0.539c0.216,0.127,0.42,0.203,0.555,0.34c1.235,1.211,2.446,2.453,3.69,3.658
		C218.419,20.716,218.439,21.1,217.93,21.6"/>
	<g>
		<path fill="#FFFFFF" d="M66.385,3.843h-2.684v6.89h-1.789v-6.89h-2.684V2.271h7.156V3.843z"/>
		<path fill="#FFFFFF" d="M68.669,6.502c0-0.692,0.089-1.313,0.266-1.861s0.433-1.01,0.768-1.384
			c0.334-0.375,0.743-0.661,1.227-0.858c0.484-0.197,1.032-0.296,1.644-0.296c0.653,0,1.223,0.106,1.71,0.32
			c0.487,0.213,0.895,0.514,1.221,0.9c0.327,0.387,0.572,0.851,0.737,1.39c0.165,0.54,0.248,1.137,0.248,1.789
			c0,0.693-0.091,1.313-0.272,1.861c-0.182,0.549-0.441,1.01-0.78,1.384c-0.338,0.375-0.75,0.661-1.233,0.858
			s-1.027,0.297-1.632,0.297c-0.653,0-1.223-0.107-1.71-0.32c-0.487-0.214-0.895-0.515-1.221-0.901s-0.57-0.85-0.731-1.39
			S68.669,7.155,68.669,6.502z M70.567,6.502c0,0.419,0.04,0.802,0.121,1.148s0.202,0.645,0.363,0.895s0.369,0.443,0.623,0.58
			s0.554,0.205,0.9,0.205c0.637,0,1.132-0.217,1.487-0.652s0.532-1.16,0.532-2.176c0-0.402-0.036-0.777-0.109-1.124
			c-0.072-0.347-0.191-0.646-0.356-0.9s-0.375-0.451-0.628-0.593c-0.254-0.141-0.562-0.211-0.925-0.211
			c-0.628,0-1.12,0.226-1.475,0.677S70.567,5.519,70.567,6.502z"/>
		<path fill="#FFFFFF" d="M92.396,6.49l0.194-1.753h-0.073l-0.58,1.33l-1.958,3.154h-0.556l-2.079-3.167l-0.568-1.306h-0.072
			l0.254,1.729v4.255h-1.692V2.271h1.62l2.442,3.904l0.459,0.931h0.061l0.399-0.955l2.333-3.88h1.607v8.461h-1.789V6.49z"/>
		<path fill="#FFFFFF" d="M102.477,8.932h-2.853l-0.689,1.801h-1.789l3.312-8.521h1.317l3.324,8.521h-1.898L102.477,8.932z
			 M100.12,7.518h1.934l-0.653-1.765l-0.29-1.342h-0.061l-0.29,1.354L100.12,7.518z"/>
		<path fill="#FFFFFF" d="M108.727,3.238h-0.967V2.271h3.723v0.967h-0.967v6.527h0.967v0.967h-3.723V9.766h0.967V3.238z"/>
		<path fill="#FFFFFF" d="M117.211,6.32l-0.725-1.269h-0.061l0.193,1.281v4.399h-1.692V2.211h1.294l3.492,4.509l0.689,1.232h0.072
			l-0.193-1.244V2.271h1.692v8.521h-1.294L117.211,6.32z"/>
		<path fill="#FFFFFF" d="M135.197,8.412c0-0.25-0.104-0.447-0.313-0.593c-0.21-0.145-0.47-0.277-0.78-0.398
			s-0.646-0.242-1.009-0.363c-0.363-0.12-0.699-0.281-1.01-0.483c-0.311-0.201-0.57-0.455-0.779-0.761
			c-0.21-0.307-0.314-0.705-0.314-1.197c0-0.419,0.074-0.787,0.224-1.105s0.358-0.58,0.629-0.786c0.27-0.205,0.596-0.36,0.979-0.465
			c0.383-0.105,0.804-0.157,1.264-0.157c0.531,0,1.037,0.046,1.517,0.139s0.872,0.224,1.179,0.393l-0.568,1.499
			c-0.097-0.056-0.22-0.114-0.368-0.175c-0.149-0.061-0.32-0.113-0.515-0.157c-0.193-0.044-0.398-0.081-0.616-0.109
			c-0.218-0.027-0.439-0.042-0.665-0.042c-0.402,0-0.715,0.07-0.937,0.212c-0.222,0.141-0.332,0.336-0.332,0.586
			s0.104,0.449,0.314,0.599c0.209,0.148,0.469,0.286,0.779,0.41c0.311,0.126,0.646,0.25,1.01,0.375
			c0.362,0.125,0.698,0.286,1.009,0.483c0.311,0.198,0.57,0.445,0.779,0.743c0.21,0.299,0.314,0.682,0.314,1.148
			c0,0.468-0.08,0.871-0.241,1.209c-0.161,0.339-0.39,0.618-0.684,0.84s-0.646,0.385-1.058,0.49
			c-0.411,0.104-0.862,0.157-1.354,0.157c-0.33,0-0.643-0.019-0.937-0.055c-0.295-0.036-0.566-0.081-0.816-0.133
			c-0.25-0.053-0.469-0.109-0.658-0.17c-0.189-0.06-0.341-0.118-0.453-0.175l0.592-1.511c0.089,0.048,0.212,0.101,0.369,0.157
			c0.156,0.056,0.332,0.11,0.525,0.163s0.4,0.095,0.622,0.127s0.445,0.048,0.671,0.048c0.532,0,0.938-0.076,1.215-0.229
			C135.059,8.972,135.197,8.734,135.197,8.412z"/>
		<path fill="#FFFFFF" d="M141.023,3.238h-0.967V2.271h3.723v0.967h-0.967v6.527h0.967v0.967h-3.723V9.766h0.967V3.238z"/>
		<path fill="#FFFFFF" d="M153.739,3.843h-2.684v6.89h-1.789v-6.89h-2.683V2.271h7.155V3.843z"/>
		<path fill="#FFFFFF" d="M156.846,2.271h5.451v1.571h-3.663V5.68h3.324v1.572h-3.324v1.909h3.724v1.571h-5.512V2.271z"/>
	</g>
</g>
</svg>
