<?xml version="1.0" encoding="utf-8"?>
<!-- Generator: Adobe Illustrator 15.0.0, SVG Export Plug-In . SVG Version: 6.00 Build 0)  -->
<!DOCTYPE svg PUBLIC "-//W3C//DTD SVG 1.1//EN" "http://www.w3.org/Graphics/SVG/1.1/DTD/svg11.dtd">
<svg version="1.1" id="Layer_1" xmlns="http://www.w3.org/2000/svg" xmlns:xlink="http://www.w3.org/1999/xlink" x="0px" y="0px"
	 width="12px" height="159px" viewBox="0 0 12 159" enable-background="new 0 0 12 159" xml:space="preserve">
<g>
	<path fill="#FFFFFF" d="M8.584,0.261c0,1.855-1.155,2.796-2.378,3.792c-1.28,1.042-2.728,2.222-2.728,4.524
		c0,2.303,1.448,3.483,2.728,4.524c1.223,0.996,2.378,1.938,2.378,3.792c0,1.854-1.155,2.793-2.378,3.79
		c-1.28,1.04-2.728,2.219-2.728,4.521c0,2.303,1.448,3.481,2.728,4.522c1.223,0.996,2.378,1.937,2.378,3.792
		c0,1.854-1.154,2.793-2.378,3.789c-1.28,1.04-2.728,2.22-2.728,4.521s1.448,3.48,2.728,4.52c1.224,0.996,2.378,1.935,2.378,3.788
		c0,1.854-1.155,2.794-2.378,3.79c-1.28,1.04-2.728,2.22-2.728,4.521c0,2.302,1.448,3.48,2.728,4.521
		c1.223,0.996,2.378,1.937,2.378,3.79c0,1.854-1.154,2.794-2.378,3.789c-1.28,1.041-2.728,2.22-2.728,4.521
		c0,2.302,1.448,3.48,2.728,4.521c1.223,0.996,2.378,1.936,2.378,3.79c0,1.854-1.154,2.794-2.378,3.79
		c-1.28,1.04-2.728,2.219-2.728,4.521c0,2.301,1.448,3.479,2.728,4.52c1.224,0.995,2.378,1.936,2.378,3.788
		c0,1.854-1.155,2.793-2.378,3.789c-1.28,1.041-2.728,2.221-2.728,4.521c0,2.302,1.448,3.48,2.728,4.521
		c1.224,0.995,2.378,1.935,2.378,3.789c0,1.853-1.154,2.793-2.378,3.788c-1.28,1.04-2.728,2.22-2.728,4.52
		c0,2.301,1.448,3.479,2.728,4.521c1.224,0.995,2.378,1.933,2.378,3.787c0,1.853-1.154,2.793-2.378,3.788
		c-1.28,1.04-2.728,2.219-2.728,4.521c0,2.301,1.448,3.48,2.728,4.52c1.224,0.995,2.378,1.937,2.378,3.79s-1.154,2.794-2.378,3.787
		c-1.28,1.041-2.728,2.221-2.728,4.521c0,0.261,0.214,0.474,0.479,0.474c0.264,0,0.479-0.213,0.479-0.474
		c0-1.854,1.155-2.794,2.379-3.789c1.278-1.041,2.728-2.22,2.728-4.52c0-2.301-1.45-3.481-2.728-4.521
		c-1.225-0.995-2.379-1.936-2.379-3.788c0-1.854,1.155-2.793,2.379-3.789c1.278-1.04,2.728-2.218,2.728-4.52
		c0-2.301-1.45-3.479-2.728-4.52c-1.225-0.994-2.379-1.935-2.379-3.788s1.154-2.794,2.379-3.788c1.278-1.04,2.728-2.22,2.728-4.52
		c0-2.302-1.45-3.48-2.728-4.521c-1.225-0.995-2.379-1.935-2.379-3.789c0-1.854,1.154-2.793,2.379-3.788
		c1.278-1.041,2.728-2.22,2.728-4.521c0-2.3-1.45-3.479-2.728-4.52c-1.225-0.995-2.379-1.936-2.379-3.788
		c0-1.854,1.154-2.794,2.379-3.79c1.278-1.039,2.728-2.219,2.728-4.521c0-2.301-1.45-3.48-2.728-4.521
		c-1.224-0.996-2.379-1.936-2.379-3.79s1.154-2.794,2.379-3.789c1.278-1.041,2.728-2.22,2.728-4.521c0-2.302-1.45-3.48-2.728-4.521
		c-1.224-0.994-2.379-1.936-2.379-3.789c0-1.854,1.154-2.794,2.379-3.789c1.278-1.042,2.728-2.221,2.728-4.522
		c0-2.301-1.45-3.479-2.728-4.521c-1.225-0.994-2.379-1.935-2.379-3.788c0-1.854,1.155-2.794,2.379-3.79
		c1.278-1.04,2.728-2.219,2.728-4.521c0-2.302-1.45-3.482-2.728-4.522c-1.225-0.997-2.379-1.936-2.379-3.792
		c0-1.854,1.155-2.794,2.379-3.789c1.278-1.041,2.728-2.221,2.728-4.521c0-2.303-1.45-3.483-2.728-4.524
		c-1.224-0.996-2.379-1.936-2.379-3.792c0-1.855,1.155-2.797,2.379-3.792c1.278-1.04,2.728-2.221,2.728-4.523
		c0-0.262-0.215-0.474-0.479-0.474C8.799-0.213,8.584,0,8.584,0.261"/>
	<path fill="#FFFFFF" d="M6.911,143.909c0.903,0.894,2.412,0.292,3.16-0.447c0.748-0.74,1.817-3.933,1.54-4.205
		c-0.273-0.271-3.501,0.785-4.249,1.526C6.614,141.522,5.971,142.979,6.911,143.909"/>
	<path fill="#FFFFFF" d="M6.911,110.532c0.903,0.895,2.412,0.294,3.16-0.445c0.748-0.741,1.817-3.933,1.54-4.205
		c-0.273-0.271-3.501,0.784-4.249,1.525C6.614,108.147,5.971,109.604,6.911,110.532"/>
	<path fill="#FFFFFF" d="M5.15,115.742c-0.749-0.739-3.975-1.795-4.25-1.523c-0.274,0.271,0.793,3.464,1.542,4.204
		c0.747,0.74,2.22,1.376,3.16,0.446C6.504,117.975,5.896,116.483,5.15,115.742"/>
	<path fill="#FFFFFF" d="M6.911,93.846c0.903,0.894,2.412,0.292,3.16-0.447c0.748-0.74,1.817-3.933,1.54-4.205
		c-0.273-0.271-3.501,0.786-4.249,1.525C6.614,91.459,5.971,92.916,6.911,93.846"/>
	<path fill="#FFFFFF" d="M5.15,99.055c-0.749-0.74-3.975-1.796-4.25-1.524c-0.274,0.271,0.793,3.464,1.542,4.205
		c0.747,0.739,2.22,1.376,3.16,0.446C6.504,101.287,5.896,99.795,5.15,99.055"/>
	<path fill="#FFFFFF" d="M6.911,77.158c0.903,0.893,2.412,0.293,3.16-0.447c0.748-0.74,1.817-3.933,1.54-4.205
		c-0.273-0.272-3.501,0.785-4.249,1.525C6.614,74.771,5.971,76.229,6.911,77.158"/>
	<path fill="#FFFFFF" d="M5.15,82.367c-0.749-0.739-3.975-1.797-4.25-1.525c-0.274,0.273,0.793,3.465,1.542,4.206
		c0.747,0.738,2.22,1.375,3.16,0.446C6.504,84.6,5.896,83.107,5.15,82.367"/>
	<path fill="#FFFFFF" d="M6.911,60.47c0.903,0.895,2.412,0.293,3.16-0.446s1.817-3.932,1.54-4.205
		c-0.273-0.272-3.501,0.785-4.249,1.524C6.614,58.084,5.971,59.541,6.911,60.47"/>
	<path fill="#FFFFFF" d="M5.15,65.68c-0.749-0.741-3.975-1.796-4.25-1.525c-0.274,0.271,0.793,3.464,1.542,4.205
		c0.747,0.739,2.22,1.375,3.16,0.446C6.504,67.913,5.896,66.419,5.15,65.68"/>
	<path fill="#FFFFFF" d="M6.911,43.783c0.903,0.894,2.412,0.293,3.16-0.447c0.748-0.74,1.817-3.932,1.54-4.204
		c-0.273-0.271-3.501,0.784-4.249,1.524C6.614,41.396,5.971,42.853,6.911,43.783"/>
	<path fill="#FFFFFF" d="M5.15,48.992c-0.749-0.74-3.975-1.796-4.25-1.525c-0.274,0.271,0.793,3.465,1.542,4.205
		c0.747,0.739,2.22,1.376,3.16,0.446C6.504,51.225,5.896,49.732,5.15,48.992"/>
	<path fill="#FFFFFF" d="M5.15,149.118c-0.749-0.74-3.975-1.796-4.25-1.524c-0.274,0.271,0.793,3.464,1.542,4.205
		c0.747,0.739,2.22,1.375,3.16,0.446C6.504,151.35,5.896,149.858,5.15,149.118"/>
	<path fill="#FFFFFF" d="M6.911,10.408c0.903,0.893,2.412,0.292,3.16-0.448c0.748-0.739,1.817-3.932,1.54-4.204
		C11.338,5.484,8.11,6.541,7.362,7.282C6.614,8.021,5.971,9.477,6.911,10.408"/>
	<path fill="#FFFFFF" d="M5.15,15.617c-0.749-0.74-3.975-1.797-4.25-1.525c-0.274,0.271,0.793,3.464,1.542,4.205
		c0.747,0.74,2.22,1.377,3.16,0.446C6.504,17.85,5.896,16.356,5.15,15.617"/>
	<path fill="#FFFFFF" d="M6.911,27.095c0.903,0.895,2.412,0.293,3.16-0.446c0.748-0.741,1.817-3.933,1.54-4.205
		c-0.273-0.271-3.501,0.784-4.249,1.524C6.614,24.709,5.971,26.165,6.911,27.095"/>
	<path fill="#FFFFFF" d="M5.15,32.304c-0.749-0.74-3.975-1.797-4.25-1.524c-0.274,0.271,0.793,3.464,1.542,4.203
		c0.747,0.741,2.22,1.377,3.16,0.448C6.504,34.537,5.896,33.044,5.15,32.304"/>
	<path fill="#FFFFFF" d="M6.911,127.221c0.903,0.894,2.412,0.293,3.16-0.447c0.748-0.739,1.817-3.932,1.54-4.203
		c-0.273-0.273-3.501,0.784-4.249,1.525C6.614,124.834,5.971,126.291,6.911,127.221"/>
	<path fill="#FFFFFF" d="M5.15,132.431c-0.749-0.739-3.975-1.797-4.25-1.525c-0.274,0.271,0.793,3.466,1.542,4.205
		c0.747,0.739,2.22,1.376,3.16,0.446C6.504,134.663,5.896,133.171,5.15,132.431"/>
</g>
</svg>
