<?xml version="1.0" encoding="utf-8"?>
<!-- Generator: Adobe Illustrator 15.0.0, SVG Export Plug-In . SVG Version: 6.00 Build 0)  -->
<!DOCTYPE svg PUBLIC "-//W3C//DTD SVG 1.1//EN" "http://www.w3.org/Graphics/SVG/1.1/DTD/svg11.dtd">
<svg version="1.1" id="Layer_1" xmlns="http://www.w3.org/2000/svg" xmlns:xlink="http://www.w3.org/1999/xlink" x="0px" y="0px"
	 width="19px" height="19px" viewBox="0 0 19 19" enable-background="new 0 0 19 19" xml:space="preserve">
<g>
	<path fill="#2BAAE2" d="M18.463,11.554c0.135-0.615,0.207-1.253,0.207-1.909c0-4.91-3.983-8.891-8.894-8.891
		c-0.518,0-1.026,0.044-1.521,0.13C7.462,0.383,6.521,0.093,5.513,0.093c-2.848,0-5.157,2.31-5.157,5.156
		c0,0.954,0.259,1.843,0.709,2.609C0.947,8.436,0.885,9.033,0.885,9.645c0,4.911,3.98,8.892,8.892,8.892
		c0.557,0,1.101-0.052,1.629-0.148C12.131,18.779,12.961,19,13.842,19C16.691,19,19,16.691,19,13.844
		C19,13.021,18.806,12.243,18.463,11.554"/>
	<path fill="#FFFFFF" d="M7.108,3.801L7.108,3.801C6.361,4.077,5.781,4.48,5.383,4.999C4.982,5.521,4.779,6.126,4.779,6.798
		c0,0.705,0.194,1.305,0.575,1.782C5.73,9.05,6.244,9.427,6.882,9.698c0.623,0.266,1.408,0.5,2.33,0.699
		c0.679,0.141,1.228,0.277,1.631,0.403c0.388,0.12,0.707,0.296,0.948,0.522c0.232,0.217,0.344,0.492,0.344,0.845
		c0,0.443-0.215,0.806-0.657,1.109c-0.453,0.31-1.056,0.465-1.791,0.465c-0.534,0-0.969-0.076-1.292-0.229
		c-0.32-0.151-0.572-0.345-0.746-0.575c-0.182-0.24-0.354-0.546-0.511-0.907c-0.141-0.331-0.317-0.587-0.521-0.762
		c-0.214-0.182-0.478-0.272-0.784-0.272c-0.372,0-0.684,0.117-0.927,0.345c-0.246,0.232-0.371,0.515-0.371,0.841
		c0,0.521,0.191,1.062,0.569,1.607c0.375,0.539,0.867,0.977,1.464,1.299c0.835,0.443,1.906,0.667,3.184,0.667
		c1.065,0,1.998-0.165,2.777-0.488c0.789-0.327,1.396-0.789,1.809-1.37c0.413-0.585,0.622-1.253,0.622-1.985
		c0-0.611-0.123-1.139-0.363-1.565c-0.238-0.425-0.576-0.781-1.002-1.058c-0.417-0.272-0.929-0.506-1.52-0.695
		c-0.585-0.188-1.247-0.36-1.967-0.515C9.54,7.946,9.125,7.844,8.878,7.775c-0.242-0.067-0.482-0.16-0.716-0.278
		C7.937,7.385,7.759,7.25,7.632,7.096C7.513,6.95,7.455,6.78,7.455,6.578c0-0.33,0.181-0.609,0.551-0.853
		c0.385-0.251,0.903-0.38,1.541-0.38c0.687,0,1.186,0.115,1.484,0.342c0.309,0.234,0.576,0.566,0.797,0.987
		c0.192,0.33,0.366,0.56,0.532,0.706c0.179,0.159,0.437,0.239,0.766,0.239c0.361,0,0.67-0.128,0.913-0.381
		c0.242-0.251,0.365-0.54,0.365-0.857c0-0.33-0.095-0.672-0.278-1.015c-0.183-0.339-0.474-0.667-0.865-0.972
		c-0.388-0.303-0.883-0.55-1.468-0.732C11.21,3.48,10.512,3.389,9.718,3.389C8.724,3.389,7.846,3.528,7.108,3.801z"/>
</g>
</svg>
