<?xml version="1.0" encoding="utf-8"?>
<!-- Generator: Adobe Illustrator 15.0.0, SVG Export Plug-In . SVG Version: 6.00 Build 0)  -->
<!DOCTYPE svg PUBLIC "-//W3C//DTD SVG 1.1//EN" "http://www.w3.org/Graphics/SVG/1.1/DTD/svg11.dtd">
<svg version="1.1" id="Layer_1" xmlns="http://www.w3.org/2000/svg" xmlns:xlink="http://www.w3.org/1999/xlink" x="0px" y="0px"
	 width="70px" height="60px" viewBox="0 0 70 60" enable-background="new 0 0 70 60" xml:space="preserve">
<g>
	<path fill="#FFFFFF" d="M36,3.384l12.647,6.262v12.793L36.41,16.769l-0.521-0.24l-0.52,0.236l-12.458,5.686V9.657L36,3.384
		 M36.008,2l-14.34,6.873v15.514l14.219-6.489l14.005,6.489V8.873L36.008,2L36.008,2z"/>
</g>
<g>
	<path fill="#FFFFFF" d="M6.278,46.05c0,0.207-0.029,0.413-0.087,0.615c-0.062,0.204-0.156,0.394-0.282,0.568
		c-0.13,0.177-0.295,0.327-0.502,0.456c-0.208,0.128-0.46,0.219-0.755,0.275v0.071c0.262,0.023,0.512,0.084,0.742,0.18
		c0.23,0.096,0.435,0.229,0.606,0.4c0.172,0.171,0.305,0.379,0.405,0.623c0.101,0.243,0.149,0.528,0.149,0.855
		c0,0.439-0.1,0.813-0.305,1.125c-0.204,0.311-0.47,0.566-0.793,0.767c-0.328,0.199-0.704,0.347-1.128,0.441
		c-0.421,0.096-0.852,0.145-1.293,0.145c-0.143,0-0.331,0-0.567,0c-0.237,0-0.486-0.006-0.755-0.018
		c-0.266-0.013-0.538-0.031-0.813-0.054c-0.275-0.024-0.525-0.06-0.749-0.108v-8.259c0.168-0.023,0.356-0.048,0.57-0.071
		c0.21-0.023,0.438-0.043,0.68-0.06c0.243-0.017,0.493-0.027,0.749-0.035c0.256-0.009,0.512-0.014,0.768-0.014
		c0.415,0,0.82,0.031,1.218,0.091c0.399,0.061,0.758,0.167,1.079,0.322c0.318,0.156,0.577,0.37,0.771,0.641
		C6.181,45.279,6.278,45.626,6.278,46.05z M2.448,47.569c0.12,0,0.262-0.002,0.428-0.007c0.162-0.003,0.301-0.013,0.412-0.029
		c0.333-0.104,0.619-0.246,0.849-0.424c0.233-0.181,0.347-0.427,0.347-0.737c0-0.208-0.042-0.375-0.13-0.503S4.146,45.643,4,45.569
		c-0.149-0.071-0.314-0.118-0.496-0.143c-0.185-0.023-0.373-0.035-0.563-0.035c-0.233,0-0.444,0.003-0.635,0.012
		c-0.191,0.008-0.344,0.019-0.454,0.035v2.131H2.448z M3.012,51.136c0.224,0,0.438-0.02,0.642-0.061
		c0.201-0.039,0.382-0.105,0.538-0.196c0.156-0.092,0.279-0.207,0.37-0.348c0.094-0.14,0.139-0.313,0.139-0.521
		c0-0.256-0.055-0.458-0.168-0.61c-0.11-0.151-0.256-0.265-0.438-0.341c-0.178-0.076-0.379-0.125-0.596-0.144
		c-0.22-0.02-0.44-0.029-0.664-0.029H1.852v2.178C1.9,51.08,1.969,51.092,2.059,51.1c0.094,0.008,0.195,0.015,0.308,0.018
		c0.11,0.005,0.224,0.009,0.34,0.014C2.824,51.134,2.924,51.136,3.012,51.136z"/>
	<path fill="#FFFFFF" d="M19.6,48.993H16.25v3.459h-1.773v-8.378h1.773v3.363H19.6v-3.363h1.772v8.378H19.6V48.993z"/>
	<path fill="#FFFFFF" d="M29.104,50.669h-2.826l-0.684,1.783h-1.769l3.279-8.438h1.303l3.292,8.438H29.82L29.104,50.669z
		 M26.768,49.269h1.915l-0.645-1.746l-0.288-1.329h-0.059l-0.289,1.34L26.768,49.269z"/>
	<path fill="#FFFFFF" d="M35.268,44.074v2.586c0,0.462,0.104,0.818,0.311,1.064c0.208,0.248,0.547,0.371,1.018,0.371
		c0.337,0,0.651-0.034,0.945-0.103c0.295-0.066,0.525-0.168,0.694-0.304v-3.615h1.772v8.378h-1.772v-3.351
		c-0.214,0.12-0.516,0.229-0.904,0.329c-0.386,0.099-0.843,0.149-1.371,0.149c-0.366,0-0.7-0.046-1.004-0.138
		c-0.301-0.091-0.561-0.233-0.778-0.425c-0.214-0.191-0.382-0.435-0.502-0.73c-0.12-0.295-0.178-0.646-0.178-1.054v-3.159H35.268z"
		/>
	<path fill="#FFFFFF" d="M47.74,50.669h-2.826l-0.684,1.783h-1.769l3.279-8.438h1.303l3.292,8.438h-1.88L47.74,50.669z
		 M45.404,49.269h1.915l-0.646-1.746l-0.288-1.329h-0.059l-0.288,1.34L45.404,49.269z"/>
	<path fill="#FFFFFF" d="M57.192,45.63h-1.925c-0.042,0.758-0.084,1.443-0.126,2.053c-0.046,0.61-0.104,1.16-0.179,1.646
		c-0.077,0.485-0.178,0.92-0.308,1.298c-0.126,0.379-0.285,0.713-0.477,0.999c-0.129,0.185-0.271,0.336-0.428,0.455
		c-0.155,0.12-0.314,0.214-0.482,0.282c-0.169,0.066-0.331,0.115-0.492,0.143c-0.159,0.027-0.305,0.042-0.441,0.042
		c-0.207,0-0.369-0.016-0.485-0.047c-0.117-0.032-0.24-0.081-0.376-0.145l0.19-1.483c0.088,0.032,0.191,0.047,0.312,0.047
		c0.136,0,0.272-0.031,0.408-0.096c0.133-0.063,0.253-0.167,0.356-0.312c0.13-0.175,0.243-0.426,0.344-0.753
		c0.097-0.327,0.182-0.752,0.249-1.275c0.068-0.521,0.123-1.146,0.169-1.873c0.042-0.726,0.074-1.571,0.091-2.537h5.372v8.378
		h-1.772V45.63z"/>
	<path fill="#FFFFFF" d="M61.897,48.265c0-0.688,0.088-1.302,0.263-1.845c0.175-0.542,0.432-0.999,0.762-1.37
		s0.735-0.654,1.215-0.85c0.477-0.195,1.021-0.293,1.627-0.293c0.645,0,1.212,0.105,1.695,0.316
		c0.482,0.212,0.884,0.509,1.208,0.893c0.321,0.382,0.564,0.841,0.729,1.375c0.162,0.535,0.246,1.127,0.246,1.773
		c0,0.685-0.091,1.299-0.269,1.842c-0.182,0.543-0.438,1-0.774,1.371c-0.334,0.371-0.742,0.654-1.219,0.849
		c-0.479,0.196-1.018,0.293-1.617,0.293c-0.645,0-1.212-0.105-1.694-0.315c-0.483-0.213-0.885-0.509-1.209-0.893
		c-0.321-0.383-0.563-0.842-0.723-1.376C61.979,49.5,61.897,48.909,61.897,48.265z M63.777,48.265c0,0.414,0.039,0.794,0.12,1.136
		c0.077,0.343,0.197,0.638,0.359,0.886c0.159,0.248,0.363,0.439,0.616,0.575c0.249,0.135,0.547,0.203,0.891,0.203
		c0.629,0,1.121-0.216,1.472-0.646c0.353-0.432,0.527-1.149,0.527-2.153c0-0.4-0.035-0.771-0.106-1.113
		c-0.074-0.344-0.191-0.642-0.354-0.893c-0.165-0.252-0.372-0.447-0.622-0.587c-0.253-0.14-0.558-0.209-0.917-0.209
		c-0.622,0-1.108,0.224-1.461,0.671C63.952,46.581,63.777,47.29,63.777,48.265z"/>
</g>
<g>
	<rect y="56.443" fill="#FFFFFF" width="69.406" height="0.829"/>
</g>
</svg>
