<?xml version="1.0" encoding="utf-8"?>
<!-- Generator: Adobe Illustrator 15.0.0, SVG Export Plug-In . SVG Version: 6.00 Build 0)  -->
<!DOCTYPE svg PUBLIC "-//W3C//DTD SVG 1.1//EN" "http://www.w3.org/Graphics/SVG/1.1/DTD/svg11.dtd">
<svg version="1.1" id="Layer_1" xmlns="http://www.w3.org/2000/svg" xmlns:xlink="http://www.w3.org/1999/xlink" x="0px" y="0px"
	 width="154px" height="107px" viewBox="0 0 154 107" enable-background="new 0 0 154 107" xml:space="preserve">
<g>
	<path d="M41.995,33.254v0.477H30.887V16.807h10.896v0.477H31.364v7.558h9.128v0.476h-9.128v7.938H41.995z"/>
	<path d="M51.292,33.612c1.271,0,2.319-0.237,3.146-0.715c0.826-0.476,1.487-1.095,1.979-1.857c0.49-0.764,0.837-1.63,1.026-2.6
		c0.189-0.969,0.286-1.947,0.286-2.932v-8.701h0.475v8.701c0,1.128-0.113,2.208-0.342,3.241c-0.234,1.034-0.617,1.944-1.156,2.731
		c-0.544,0.785-1.256,1.416-2.137,1.895c-0.88,0.477-1.974,0.715-3.276,0.715c-1.334,0-2.446-0.249-3.336-0.74
		c-0.891-0.492-1.604-1.144-2.135-1.953c-0.533-0.812-0.912-1.729-1.132-2.755c-0.221-1.024-0.331-2.07-0.331-3.134v-8.701h0.474
		v8.701c0,1.033,0.1,2.033,0.297,3.003c0.198,0.97,0.544,1.833,1.036,2.586c0.492,0.755,1.158,1.362,1.993,1.824
		C48.989,33.382,50.034,33.612,51.292,33.612z"/>
	<path d="M76.299,25.674v8.057H75.82v-2.883c-0.81,0.954-1.739,1.691-2.788,2.216c-1.047,0.525-2.151,0.788-3.312,0.788
		c-1.179,0-2.252-0.251-3.231-0.751c-0.979-0.501-1.822-1.157-2.529-1.967s-1.253-1.728-1.645-2.754
		c-0.387-1.024-0.58-2.062-0.58-3.11c0-1.097,0.188-2.162,0.572-3.194c0.382-1.034,0.906-1.951,1.583-2.754
		c0.673-0.803,1.485-1.442,2.433-1.919c0.945-0.477,1.984-0.716,3.112-0.716c0.87,0,1.653,0.093,2.337,0.275
		c0.68,0.183,1.283,0.438,1.807,0.763c0.527,0.324,0.977,0.714,1.351,1.167c0.373,0.454,0.693,0.951,0.965,1.49l-0.452,0.144
		c-0.652-1.192-1.487-2.051-2.507-2.576c-1.014-0.523-2.18-0.784-3.5-0.784c-1.113,0-2.117,0.234-3.004,0.702
		c-0.891,0.469-1.651,1.084-2.281,1.847c-0.625,0.763-1.107,1.63-1.438,2.6c-0.333,0.969-0.502,1.954-0.502,2.955
		c0,1.065,0.196,2.086,0.585,3.063c0.387,0.978,0.922,1.839,1.609,2.586c0.681,0.748,1.478,1.344,2.383,1.788
		c0.909,0.445,1.885,0.668,2.934,0.668c0.54,0,1.138-0.083,1.787-0.251c0.652-0.167,1.271-0.406,1.858-0.715
		c0.589-0.31,1.105-0.682,1.55-1.119c0.446-0.437,0.75-0.926,0.904-1.467v-3.671h-3.976v-0.477H76.299z"/>
	<path d="M91.343,33.254v0.477H80.234V16.807h10.891v0.477H80.711v7.558h9.131v0.476h-9.131v7.938H91.343z"/>
	<path d="M94.391,17.737v15.995h-0.474V16.807h0.357l12.943,16.233V16.831h0.477v16.9h-0.546L94.391,17.737z"/>
	<path d="M123.166,33.254v0.477h-11.108V16.807h10.894v0.477h-10.419v7.558h9.135v0.476h-9.135v7.938H123.166z"/>
</g>
<g>
	<path d="M46.856,62.35V46.467l-7.51,12.542h-0.382l-7.511-12.542V62.35h-0.477V45.417h0.382l7.793,13.019l7.798-13.019h0.383V62.35
		H46.856z"/>
	<path d="M54.558,62.35V45.441h0.477V62.35H54.558z"/>
	<path d="M61.951,62.35V45.417h0.476V61.87h10.635v0.479H61.951z"/>
	<path d="M78.475,62.35V45.417h0.476V61.87h10.635v0.479H78.475z"/>
	<path d="M106.063,61.87v0.479H94.954V45.417h10.896v0.477H95.428v7.56h9.133v0.478h-9.133v7.939H106.063z"/>
	<path d="M111.521,62.35V45.417h6.895c0.683,0,1.315,0.147,1.906,0.442c0.588,0.295,1.093,0.683,1.514,1.167
		c0.42,0.486,0.751,1.034,0.992,1.646c0.236,0.611,0.355,1.235,0.355,1.871c0,0.653-0.104,1.282-0.312,1.885
		c-0.206,0.604-0.501,1.14-0.884,1.608c-0.378,0.47-0.837,0.854-1.367,1.146c-0.534,0.296-1.119,0.463-1.753,0.513l4.293,6.655
		h-0.574l-4.292-6.655h-6.293v6.655H111.521z M112.002,55.217h6.578c0.637,0,1.211-0.134,1.719-0.404
		c0.508-0.271,0.94-0.626,1.301-1.062c0.354-0.436,0.632-0.931,0.822-1.489c0.193-0.557,0.282-1.131,0.282-1.718
		c0-0.602-0.11-1.183-0.333-1.74c-0.221-0.557-0.526-1.049-0.919-1.479c-0.388-0.429-0.843-0.774-1.367-1.037
		c-0.523-0.262-1.084-0.394-1.669-0.394h-6.414V55.217z"/>
</g>
<g>
	<path d="M30.857,90.784V73.855h5.436c1.336,0,2.502,0.22,3.496,0.665c0.99,0.447,1.818,1.052,2.479,1.812
		c0.657,0.763,1.152,1.658,1.477,2.682c0.328,1.026,0.49,2.119,0.49,3.28c0,1.284-0.189,2.45-0.562,3.492
		c-0.374,1.04-0.9,1.933-1.584,2.671c-0.684,0.737-1.521,1.312-2.501,1.715c-0.988,0.409-2.085,0.611-3.294,0.611H30.857z
		 M43.758,82.295c-0.018-1.194-0.19-2.276-0.526-3.255c-0.333-0.978-0.814-1.818-1.442-2.517c-0.628-0.699-1.402-1.239-2.324-1.622
		c-0.923-0.381-1.98-0.574-3.172-0.574h-4.959v15.978h4.959c1.224,0,2.299-0.197,3.222-0.596c0.92-0.398,1.692-0.955,2.311-1.67
		c0.619-0.716,1.089-1.56,1.406-2.54C43.549,84.525,43.727,83.454,43.758,82.295z"/>
	<path d="M60.975,90.305v0.479H49.863V73.855h10.896v0.472H50.338v7.561h9.134v0.479h-9.134v7.938H60.975z"/>
	<path d="M64.886,88.278l0.355-0.311c0.778,0.812,1.689,1.424,2.731,1.835c1.042,0.415,2.108,0.62,3.206,0.62
		c0.65,0,1.321-0.067,2.004-0.212c0.682-0.143,1.301-0.372,1.858-0.693c0.556-0.318,1.015-0.731,1.372-1.239
		c0.358-0.51,0.536-1.131,0.536-1.858c0-0.812-0.187-1.468-0.56-1.967c-0.376-0.502-0.85-0.896-1.431-1.184
		c-0.583-0.284-1.217-0.475-1.911-0.569c-0.688-0.097-1.352-0.146-1.989-0.146c-0.76,0-1.502-0.067-2.218-0.214
		c-0.715-0.142-1.346-0.382-1.895-0.726c-0.549-0.341-0.99-0.802-1.322-1.372c-0.333-0.573-0.5-1.288-0.5-2.146
		c0-0.81,0.18-1.496,0.535-2.05c0.36-0.556,0.822-1.006,1.396-1.347c0.571-0.341,1.204-0.591,1.895-0.739
		c0.692-0.152,1.372-0.224,2.038-0.224c0.703,0,1.316,0.048,1.85,0.151c0.53,0.104,1.007,0.257,1.431,0.456
		c0.418,0.199,0.792,0.442,1.106,0.737c0.319,0.294,0.612,0.632,0.887,1.015l-0.457,0.191c-0.27-0.398-0.587-0.736-0.952-1.004
		c-0.369-0.271-0.765-0.483-1.194-0.646c-0.43-0.158-0.869-0.269-1.325-0.333c-0.45-0.062-0.9-0.095-1.346-0.095
		c-0.666,0-1.318,0.068-1.953,0.203c-0.637,0.137-1.206,0.354-1.705,0.657c-0.502,0.303-0.912,0.704-1.229,1.2
		c-0.319,0.502-0.484,1.109-0.501,1.825c0,0.812,0.164,1.475,0.488,1.988c0.328,0.518,0.748,0.924,1.267,1.218
		c0.515,0.295,1.098,0.498,1.752,0.607c0.649,0.112,1.301,0.169,1.953,0.169c0.763,0,1.526,0.061,2.277,0.191
		c0.756,0.126,1.439,0.354,2.052,0.678c0.612,0.325,1.104,0.773,1.479,1.336c0.371,0.564,0.56,1.277,0.56,2.136
		c0,0.841-0.198,1.542-0.598,2.11c-0.396,0.562-0.905,1.024-1.526,1.381c-0.618,0.36-1.295,0.611-2.024,0.766
		c-0.734,0.148-1.431,0.225-2.099,0.225c-1.4,0-2.617-0.259-3.661-0.776C66.479,89.609,65.599,88.993,64.886,88.278z"/>
	<path d="M82.91,90.784V73.878h0.479v16.906H82.91z"/>
	<path d="M103.251,82.723v8.062h-0.479v-2.885c-0.81,0.953-1.738,1.689-2.787,2.215c-1.048,0.523-2.155,0.787-3.313,0.787
		c-1.179,0-2.252-0.252-3.233-0.75c-0.975-0.501-1.82-1.158-2.524-1.971c-0.707-0.81-1.258-1.728-1.648-2.754
		c-0.386-1.026-0.581-2.061-0.581-3.109c0-1.098,0.19-2.162,0.568-3.194c0.383-1.033,0.912-1.95,1.589-2.755
		c0.673-0.801,1.484-1.441,2.433-1.916c0.943-0.48,1.981-0.715,3.111-0.715c0.871,0,1.651,0.092,2.337,0.271
		c0.68,0.182,1.285,0.439,1.81,0.765c0.528,0.324,0.975,0.716,1.35,1.166c0.371,0.457,0.693,0.949,0.966,1.489l-0.453,0.144
		c-0.653-1.192-1.486-2.049-2.506-2.573c-1.018-0.525-2.185-0.788-3.503-0.788c-1.114,0-2.117,0.237-3.004,0.705
		C92.49,75.386,91.731,76,91.1,76.763c-0.625,0.76-1.104,1.629-1.442,2.597c-0.333,0.972-0.5,1.954-0.5,2.958
		c0,1.067,0.193,2.083,0.585,3.064c0.39,0.979,0.925,1.841,1.611,2.586c0.68,0.749,1.476,1.343,2.383,1.791
		c0.906,0.442,1.885,0.664,2.935,0.664c0.539,0,1.135-0.085,1.786-0.25c0.655-0.167,1.275-0.403,1.859-0.714
		c0.591-0.309,1.105-0.685,1.554-1.121c0.442-0.436,0.747-0.925,0.901-1.465v-3.671h-3.978v-0.479H103.251z"/>
	<path d="M109.64,74.785v15.999h-0.474V73.855h0.356l12.948,16.236V73.878h0.474v16.906h-0.546L109.64,74.785z"/>
</g>
<g>
	<path d="M0,107V-0.122h5.513v1.657H2.079v103.81h3.434V107H0z"/>
</g>
<g>
	<path d="M148.488,107v-1.655h3.435V1.535h-3.435v-1.657H154V107H148.488z"/>
</g>
</svg>
