<?xml version="1.0" encoding="utf-8"?>
<!-- Generator: Adobe Illustrator 15.0.0, SVG Export Plug-In . SVG Version: 6.00 Build 0)  -->
<!DOCTYPE svg PUBLIC "-//W3C//DTD SVG 1.1//EN" "http://www.w3.org/Graphics/SVG/1.1/DTD/svg11.dtd">
<svg version="1.1" id="Layer_1" xmlns="http://www.w3.org/2000/svg" xmlns:xlink="http://www.w3.org/1999/xlink" x="0px" y="0px"
	 width="73px" height="12px" viewBox="0 0 73 12" enable-background="new 0 0 73 12" xml:space="preserve">
<g>
	<path fill="#FFFFFF" d="M10.167,5.394c0,2.014-1.638,3.652-3.651,3.652c-1.569,0-2.848-1.275-2.848-2.848
		c0-1.213,0.989-2.202,2.204-2.202c0.93,0,1.688,0.758,1.688,1.688c0,0.207,0.166,0.371,0.371,0.371s0.371-0.164,0.371-0.371
		c0-1.337-1.089-2.428-2.429-2.428c-1.622,0-2.943,1.321-2.943,2.942c0,1.977,1.61,3.587,3.587,3.587c2.42,0,4.39-1.97,4.39-4.391
		c0-1.983-1.081-3.716-2.682-4.654h7.153c2.566,0,4.654,2.088,4.654,4.654c0,2.014-1.638,3.652-3.649,3.652
		c-1.569,0-2.848-1.275-2.848-2.848c0-1.213,0.99-2.202,2.204-2.202c0.93,0,1.688,0.758,1.688,1.688
		c0,0.207,0.166,0.371,0.371,0.371c0.203,0,0.369-0.164,0.369-0.371c0-1.337-1.09-2.428-2.427-2.428
		c-1.622,0-2.943,1.321-2.943,2.942c0,1.977,1.608,3.587,3.587,3.587c2.42,0,4.39-1.97,4.39-4.391c0-1.983-1.081-3.716-2.682-4.654
		h7.151c2.568,0,4.656,2.088,4.656,4.654c0,2.014-1.638,3.652-3.651,3.652c-1.569,0-2.846-1.275-2.846-2.848
		c0-1.213,0.987-2.202,2.202-2.202c0.933,0,1.69,0.758,1.69,1.688c0,0.207,0.166,0.371,0.371,0.371c0.203,0,0.371-0.164,0.371-0.371
		c0-1.337-1.092-2.428-2.431-2.428c-1.62,0-2.941,1.321-2.941,2.942c0,1.977,1.608,3.587,3.585,3.587c2.42,0,4.392-1.97,4.392-4.391
		c0-1.983-1.08-3.716-2.682-4.654h7.154c2.565,0,4.653,2.088,4.653,4.654c0,2.014-1.638,3.652-3.65,3.652
		c-1.569,0-2.846-1.275-2.846-2.848c0-1.213,0.987-2.202,2.202-2.202c0.933,0,1.689,0.758,1.689,1.688
		c0,0.207,0.167,0.371,0.371,0.371c0.202,0,0.368-0.164,0.368-0.371c0-1.337-1.087-2.428-2.429-2.428
		c-1.622,0-2.941,1.321-2.941,2.942c0,1.977,1.608,3.587,3.585,3.587c2.423,0,4.39-1.97,4.39-4.391c0-1.983-1.078-3.716-2.679-4.654
		h7.153c2.565,0,4.653,2.088,4.653,4.654c0,2.014-1.638,3.652-3.65,3.652c-1.569,0-2.846-1.275-2.846-2.848
		c0-1.213,0.987-2.202,2.202-2.202c0.933,0,1.688,0.758,1.688,1.688c0,0.207,0.169,0.371,0.371,0.371
		c0.205,0,0.371-0.164,0.371-0.371c0-1.337-1.09-2.428-2.43-2.428c-1.622,0-2.941,1.321-2.941,2.942
		c0,1.977,1.608,3.587,3.585,3.587c2.42,0,4.39-1.97,4.39-4.391c0-1.983-1.08-3.716-2.682-4.654h7.154
		c2.567,0,4.656,2.088,4.656,4.654c0,2.014-1.638,3.652-3.651,3.652c-1.569,0-2.846-1.275-2.846-2.848
		c0-1.213,0.987-2.202,2.202-2.202c0.933,0,1.69,0.758,1.69,1.688c0,0.207,0.163,0.371,0.368,0.371s0.371-0.164,0.371-0.371
		c0-1.337-1.09-2.428-2.43-2.428c-1.622,0-2.941,1.321-2.941,2.942c0,1.977,1.608,3.587,3.585,3.587c2.42,0,4.391-1.97,4.391-4.391
		c0-1.983-1.081-3.716-2.683-4.654h7.156c2.565,0,4.654,2.088,4.654,4.654c0,2.014-1.641,3.652-3.651,3.652
		c-1.567,0-2.846-1.275-2.846-2.848c0-1.213,0.99-2.202,2.202-2.202c0.931,0,1.688,0.758,1.688,1.688
		c0,0.207,0.166,0.371,0.371,0.371s0.371-0.164,0.371-0.371c0-1.337-1.09-2.428-2.43-2.428c-1.624,0-2.943,1.321-2.943,2.942
		c0,1.977,1.61,3.587,3.587,3.587c2.421,0,4.391-1.97,4.391-4.391c0-1.983-1.081-3.716-2.683-4.654h5.348V0H0.266v0.74h5.245
		C8.077,0.74,10.167,2.829,10.167,5.394"/>
	<path fill="#FFFFFF" d="M0.246,11.799h72.528c0.135,0,0.246-0.109,0.246-0.246s-0.111-0.246-0.246-0.246H0.246
		C0.109,11.307,0,11.416,0,11.553S0.109,11.799,0.246,11.799"/>
	<path fill="#FFFFFF" d="M10.877,9.33c0,0.496,0.403,0.898,0.899,0.898c0.498,0,0.903-0.402,0.903-0.898
		c0-0.498-0.405-0.902-0.903-0.902C11.28,8.428,10.877,8.832,10.877,9.33"/>
	<path fill="#FFFFFF" d="M20.745,9.33c0,0.496,0.402,0.898,0.898,0.898c0.498,0,0.903-0.402,0.903-0.898
		c0-0.498-0.405-0.902-0.903-0.902C21.147,8.428,20.745,8.832,20.745,9.33"/>
	<path fill="#FFFFFF" d="M30.609,9.33c0,0.496,0.405,0.898,0.903,0.898c0.496,0,0.899-0.402,0.899-0.898
		c0-0.498-0.403-0.902-0.899-0.902C31.014,8.428,30.609,8.832,30.609,9.33"/>
	<path fill="#FFFFFF" d="M40.477,9.33c0,0.496,0.405,0.898,0.9,0.898c0.499,0,0.901-0.402,0.901-0.898
		c0-0.498-0.402-0.902-0.901-0.902C40.882,8.428,40.477,8.832,40.477,9.33"/>
	<path fill="#FFFFFF" d="M50.344,9.33c0,0.496,0.405,0.898,0.901,0.898c0.498,0,0.9-0.402,0.9-0.898c0-0.498-0.402-0.902-0.9-0.902
		C50.749,8.428,50.344,8.832,50.344,9.33"/>
	<path fill="#FFFFFF" d="M60.211,9.33c0,0.496,0.405,0.898,0.901,0.898c0.498,0,0.9-0.402,0.9-0.898c0-0.498-0.402-0.902-0.9-0.902
		C60.616,8.428,60.211,8.832,60.211,9.33"/>
</g>
</svg>
