<?xml version="1.0" encoding="utf-8"?>
<!-- Generator: Adobe Illustrator 15.0.0, SVG Export Plug-In . SVG Version: 6.00 Build 0)  -->
<!DOCTYPE svg PUBLIC "-//W3C//DTD SVG 1.1//EN" "http://www.w3.org/Graphics/SVG/1.1/DTD/svg11.dtd">
<svg version="1.1" id="Layer_1" xmlns="http://www.w3.org/2000/svg" xmlns:xlink="http://www.w3.org/1999/xlink" x="0px" y="0px"
	 width="96px" height="14px" viewBox="0 0 96 14" enable-background="new 0 0 96 14" xml:space="preserve">
<g>
	<path fill="#FFFFFF" d="M95.561,7.432H58.774c-0.246,0-0.442-0.191-0.442-0.426c0-0.237,0.196-0.428,0.442-0.428h36.786
		C95.802,6.577,96,6.769,96,7.005C96,7.24,95.802,7.432,95.561,7.432"/>
	<path fill="#FFFFFF" d="M37.228,7.432H0.438C0.197,7.432,0,7.24,0,7.005c0-0.237,0.197-0.428,0.438-0.428h36.79
		c0.241,0,0.438,0.191,0.438,0.428C37.666,7.24,37.469,7.432,37.228,7.432"/>
	<path fill="#FFFFFF" d="M86.789,4.016H61.402c-0.24,0-0.437-0.189-0.437-0.426c0-0.235,0.196-0.426,0.437-0.426h25.387
		c0.243,0,0.44,0.191,0.44,0.426C87.229,3.826,87.032,4.016,86.789,4.016"/>
	<path fill="#FFFFFF" d="M34.598,4.016H9.211c-0.244,0-0.439-0.189-0.439-0.426c0-0.235,0.196-0.426,0.439-0.426h25.387
		c0.242,0,0.437,0.191,0.437,0.426C35.034,3.826,34.84,4.016,34.598,4.016"/>
	<path fill="#FFFFFF" d="M78.016,10.846H61.402c-0.24,0-0.437-0.191-0.437-0.426c0-0.235,0.196-0.427,0.437-0.427h16.613
		c0.244,0,0.44,0.191,0.44,0.427C78.456,10.654,78.26,10.846,78.016,10.846"/>
	<path fill="#FFFFFF" d="M34.598,10.846H17.984c-0.244,0-0.442-0.191-0.442-0.426c0-0.235,0.198-0.427,0.442-0.427h16.613
		c0.242,0,0.437,0.191,0.437,0.427C35.034,10.654,34.84,10.846,34.598,10.846"/>
	<path fill="#FFFFFF" d="M54.36,9.968c-0.077,0-0.154-0.017-0.224-0.057l-4.454-2.538c-0.133-0.077-0.215-0.217-0.215-0.368
		c0-0.153,0.082-0.292,0.215-0.37l4.454-2.538c0.14-0.078,0.308-0.078,0.445,0l4.456,2.538c0.135,0.078,0.215,0.217,0.215,0.37
		c0,0.151-0.08,0.292-0.215,0.368l-4.456,2.538C54.514,9.951,54.438,9.968,54.36,9.968 M50.774,7.005l3.586,2.042l3.589-2.042
		L54.36,4.961L50.774,7.005z"/>
	<path fill="#FFFFFF" d="M48,5.931c-0.079,0-0.153-0.02-0.225-0.059l-4.451-2.538c-0.135-0.077-0.219-0.217-0.219-0.37
		c0-0.151,0.084-0.292,0.219-0.368l4.451-2.538c0.14-0.079,0.309-0.079,0.445,0l4.455,2.538c0.135,0.077,0.218,0.217,0.218,0.368
		c0,0.153-0.083,0.293-0.218,0.37l-4.455,2.538C48.153,5.911,48.075,5.931,48,5.931 M44.414,2.964L48,5.009l3.587-2.044L48,0.922
		L44.414,2.964z"/>
	<path fill="#FFFFFF" d="M48,14.009c-0.079,0-0.153-0.019-0.225-0.059l-4.451-2.538c-0.135-0.076-0.219-0.217-0.219-0.367
		c0-0.153,0.084-0.294,0.219-0.37l4.451-2.54c0.14-0.076,0.309-0.076,0.445,0l4.455,2.54c0.135,0.076,0.218,0.217,0.218,0.37
		c0,0.15-0.083,0.291-0.218,0.367l-4.455,2.538C48.153,13.99,48.075,14.009,48,14.009 M44.414,11.045L48,13.087l3.587-2.042
		L48,8.999L44.414,11.045z"/>
	<path fill="#FFFFFF" d="M41.638,9.968c-0.077,0-0.154-0.017-0.221-0.057L36.96,7.374c-0.133-0.077-0.215-0.217-0.215-0.368
		c0-0.153,0.082-0.292,0.215-0.37l4.457-2.538c0.137-0.078,0.305-0.078,0.444,0l4.455,2.538c0.133,0.078,0.215,0.217,0.215,0.37
		c0,0.151-0.083,0.292-0.215,0.368l-4.455,2.538C41.792,9.951,41.715,9.968,41.638,9.968 M38.05,7.005l3.588,2.042l3.586-2.042
		l-3.586-2.044L38.05,7.005z"/>
</g>
</svg>
