<?xml version="1.0" encoding="utf-8"?>
<!-- Generator: Adobe Illustrator 15.0.0, SVG Export Plug-In . SVG Version: 6.00 Build 0)  -->
<!DOCTYPE svg PUBLIC "-//W3C//DTD SVG 1.1//EN" "http://www.w3.org/Graphics/SVG/1.1/DTD/svg11.dtd">
<svg version="1.1" id="Layer_1" xmlns="http://www.w3.org/2000/svg" xmlns:xlink="http://www.w3.org/1999/xlink" x="0px" y="0px"
	 width="68px" height="29px" viewBox="0 0 68 29" enable-background="new 0 0 68 29" xml:space="preserve">
<path fill="#FFFFFF" d="M33.869,28.832l0.15,0.099l0.149-0.099c3.994-2.629,6.379-7.049,6.379-11.823
	c0-4.726-2.338-9.103-6.258-11.741V0h-0.544v5.268c-3.92,2.638-6.257,7.015-6.257,11.741C27.489,21.783,29.874,26.203,33.869,28.832
	 M34.29,5.929c2.265,1.613,3.945,3.843,4.878,6.38L34.29,7.431V5.929z M34.29,7.945l5.135,5.133
	c0.219,0.727,0.379,1.475,0.474,2.237L34.29,9.707V7.945z M34.29,10.22l5.666,5.667c0.031,0.37,0.048,0.744,0.048,1.122
	c0,0.225-0.007,0.447-0.019,0.67l-5.695-5.695V10.22z M34.29,12.497l5.663,5.662c-0.043,0.522-0.117,1.036-0.219,1.544L34.29,14.26
	V12.497z M34.29,14.772l5.353,5.353c-0.108,0.463-0.24,0.919-0.396,1.367l-4.956-4.956V14.772z M34.29,17.049l4.819,4.818
	c-0.16,0.418-0.339,0.826-0.538,1.225l-4.281-4.28V17.049z M34.29,19.325l4.105,4.105c-0.202,0.377-0.423,0.744-0.66,1.103
	l-3.445-3.445V19.325z M34.29,21.601l3.213,3.213l0.131-0.131c-0.271,0.396-0.564,0.78-0.878,1.147l-2.466-2.467V21.601z
	 M34.29,23.877l2.228,2.227c-0.277,0.308-0.57,0.604-0.877,0.887l-1.351-1.35V23.877z M34.29,26.153l1.082,1.08
	c-0.345,0.301-0.705,0.586-1.082,0.854V26.153z M33.746,28.088c-0.376-0.269-0.737-0.554-1.08-0.854l1.08-1.08V28.088z
	 M33.746,25.641l-1.35,1.35c-0.307-0.282-0.6-0.579-0.876-0.887l2.226-2.227V25.641z M33.746,23.363l-2.465,2.467
	c-0.273-0.319-0.529-0.651-0.771-0.992l3.236-3.237V23.363z M33.746,21.088l-3.444,3.445c-0.237-0.358-0.458-0.726-0.661-1.103
	l4.105-4.105V21.088z M33.746,18.812l-4.279,4.28c-0.2-0.398-0.379-0.808-0.54-1.225l4.818-4.818V18.812z M33.746,16.536
	l-4.955,4.956c-0.157-0.448-0.288-0.903-0.397-1.367l5.352-5.353V16.536z M33.746,14.26l-5.443,5.443
	c-0.103-0.508-0.176-1.021-0.219-1.544l5.663-5.662V14.26z M33.746,5.929v1.502l-4.876,4.878
	C29.802,9.771,31.482,7.542,33.746,5.929 M28.612,13.079l5.134-5.133v1.762l-5.607,5.608C28.234,14.553,28.393,13.805,28.612,13.079
	 M33.746,10.22v1.764l-5.694,5.695c-0.011-0.223-0.019-0.445-0.019-0.67c0-0.378,0.018-0.752,0.048-1.122L33.746,10.22z"/>
<path fill="#FFFFFF" d="M4.833,21.841l0.114,0.074l0.113-0.074c3.025-1.991,4.833-5.34,4.833-8.957c0-3.58-1.771-6.896-4.74-8.894V0
	H4.74v3.99C1.771,5.989,0,9.304,0,12.884C0,16.501,1.807,19.85,4.833,21.841 M5.152,4.491c1.715,1.222,2.989,2.911,3.695,4.833
	L5.152,5.629V4.491z M5.152,6.019l3.89,3.889c0.166,0.55,0.287,1.117,0.359,1.694L5.152,7.353V6.019z M5.152,7.742l4.292,4.292
	c0.024,0.28,0.036,0.564,0.036,0.85c0,0.17-0.005,0.339-0.014,0.507L5.152,9.078V7.742z M5.152,9.467l4.29,4.289
	c-0.033,0.396-0.089,0.785-0.166,1.169l-4.124-4.124V9.467z M5.152,11.19l4.055,4.055c-0.082,0.351-0.182,0.696-0.3,1.035
	l-3.754-3.754V11.19z M5.152,12.915l3.651,3.65c-0.122,0.316-0.257,0.626-0.408,0.928L5.152,14.25V12.915z M5.152,14.639l3.11,3.11
	c-0.153,0.285-0.32,0.563-0.5,0.835l-2.61-2.609V14.639z M5.152,16.362l2.434,2.435l0.099-0.1c-0.206,0.301-0.427,0.591-0.665,0.869
	l-1.868-1.868V16.362z M5.152,18.087l1.688,1.687c-0.21,0.233-0.432,0.458-0.665,0.672l-1.023-1.022V18.087z M5.152,19.812
	l0.82,0.818c-0.261,0.228-0.534,0.443-0.82,0.647V19.812z M4.74,21.277c-0.285-0.204-0.559-0.42-0.818-0.647l0.818-0.818V21.277z
	 M4.74,19.423l-1.022,1.022c-0.232-0.214-0.454-0.438-0.664-0.672l1.686-1.687V19.423z M4.74,17.698l-1.868,1.868
	c-0.207-0.242-0.401-0.493-0.583-0.751l2.451-2.453V17.698z M4.74,15.975l-2.609,2.609c-0.18-0.271-0.348-0.55-0.501-0.835
	l3.11-3.11V15.975z M4.74,14.25l-3.241,3.242c-0.151-0.302-0.288-0.611-0.409-0.928l3.65-3.65V14.25z M4.74,12.526L0.986,16.28
	c-0.119-0.339-0.218-0.684-0.301-1.035L4.74,11.19V12.526z M4.74,10.802l-4.124,4.124c-0.078-0.385-0.133-0.774-0.166-1.169
	l4.29-4.289V10.802z M4.74,4.491v1.138L1.046,9.324C1.752,7.402,3.025,5.713,4.74,4.491 M0.851,9.907L4.74,6.019v1.334l-4.248,4.249
	C0.564,11.024,0.685,10.458,0.851,9.907 M4.74,7.742v1.336l-4.313,4.314c-0.008-0.168-0.014-0.337-0.014-0.507
	c0-0.286,0.013-0.57,0.037-0.85L4.74,7.742z"/>
<path fill="#FFFFFF" d="M62.94,21.841l0.113,0.074l0.113-0.074C66.192,19.85,68,16.501,68,12.884c0-3.58-1.771-6.896-4.74-8.894V0
	h-0.412v3.99c-2.97,1.999-4.739,5.314-4.739,8.894C58.108,16.501,59.915,19.85,62.94,21.841 M63.26,4.491
	c1.716,1.222,2.989,2.911,3.695,4.833L63.26,5.629V4.491z M63.26,6.019l3.89,3.889c0.166,0.55,0.287,1.117,0.359,1.694L63.26,7.353
	V6.019z M63.26,7.742l4.292,4.292c0.023,0.28,0.036,0.564,0.036,0.85c0,0.17-0.005,0.339-0.014,0.507L63.26,9.078V7.742z
	 M63.26,9.467l4.29,4.289c-0.033,0.396-0.089,0.785-0.166,1.169l-4.124-4.124V9.467z M63.26,11.19l4.055,4.055
	c-0.082,0.351-0.183,0.696-0.3,1.035l-3.755-3.754V11.19z M63.26,12.915l3.651,3.65c-0.122,0.316-0.258,0.626-0.408,0.928
	L63.26,14.25V12.915z M63.26,14.639l3.11,3.11c-0.153,0.285-0.32,0.563-0.5,0.835l-2.61-2.609V14.639z M63.26,16.362l2.434,2.435
	l0.099-0.1c-0.205,0.301-0.427,0.591-0.664,0.869l-1.868-1.868V16.362z M63.26,18.087l1.688,1.687
	c-0.21,0.233-0.433,0.458-0.665,0.672l-1.022-1.022V18.087z M63.26,19.812l0.819,0.818c-0.261,0.228-0.533,0.443-0.819,0.647V19.812
	z M62.848,21.277c-0.285-0.204-0.559-0.42-0.817-0.647l0.817-0.818V21.277z M62.848,19.423l-1.022,1.022
	c-0.232-0.214-0.454-0.438-0.664-0.672l1.687-1.687V19.423z M62.848,17.698l-1.868,1.868c-0.206-0.242-0.4-0.493-0.583-0.751
	l2.451-2.453V17.698z M62.848,15.975l-2.608,2.609c-0.181-0.271-0.348-0.55-0.502-0.835l3.11-3.11V15.975z M62.848,14.25
	l-3.241,3.242c-0.151-0.302-0.287-0.611-0.408-0.928l3.649-3.65V14.25z M62.848,12.526l-3.753,3.754
	c-0.119-0.339-0.219-0.684-0.301-1.035l4.054-4.055V12.526z M62.848,10.802l-4.124,4.124c-0.077-0.385-0.133-0.774-0.166-1.169
	l4.29-4.289V10.802z M62.848,4.491v1.138l-3.694,3.695C59.86,7.402,61.133,5.713,62.848,4.491 M58.959,9.907l3.889-3.889v1.334
	l-4.247,4.249C58.672,11.024,58.792,10.458,58.959,9.907 M62.848,7.742v1.336l-4.313,4.314c-0.008-0.168-0.014-0.337-0.014-0.507
	c0-0.286,0.013-0.57,0.036-0.85L62.848,7.742z"/>
</svg>
