<?xml version="1.0" encoding="utf-8"?>
<!-- Generator: Adobe Illustrator 15.0.0, SVG Export Plug-In . SVG Version: 6.00 Build 0)  -->
<!DOCTYPE svg PUBLIC "-//W3C//DTD SVG 1.1//EN" "http://www.w3.org/Graphics/SVG/1.1/DTD/svg11.dtd">
<svg version="1.1" id="Layer_1" xmlns="http://www.w3.org/2000/svg" xmlns:xlink="http://www.w3.org/1999/xlink" x="0px" y="0px"
	 width="42px" height="34px" viewBox="0 0 42 34" enable-background="new 0 0 42 34" xml:space="preserve">
<g>
	<polygon fill="none" points="0.853,24.302 36.724,24.302 40.889,20.147 5.082,20.147 	"/>
	<polygon fill="none" points="0.857,12.204 36.641,12.204 40.891,7.944 5.14,7.944 	"/>
	<path fill="#FFEC00" d="M41.75,7.944V0H0.002v7.944h4.287l-4.283,4.259H0.002v0.004L0,12.21l0.002,0.002v7.936h4.231L0.004,24.3
		l0.002,0.002H0.002v7.944H41.75v-7.944h-4.169l4.165-4.154h0.004v-7.944h-4.253l4.251-4.259H41.75z M36.724,24.302H0.853
		l4.229-4.154h35.807L36.724,24.302z M36.641,12.204H0.857L5.14,7.944h35.753L36.641,12.204z"/>
</g>
<g>
	<path fill="#1D1D1B" d="M10.575,2.095v4.324H9.772v-3.25L8.403,4.808L7.034,3.162v3.257H6.232V2.095h0.925l1.245,1.547l1.245-1.547
		H10.575z"/>
	<path fill="#1D1D1B" d="M13.547,2.095h0.803v4.324h-0.803V2.095z"/>
	<path fill="#1D1D1B" d="M18.131,2.095v3.569h1.611v0.754h-2.421V2.095H18.131z"/>
	<path fill="#1D1D1B" d="M23.211,2.095v3.569h1.611v0.754h-2.421V2.095H23.211z"/>
	<path fill="#1D1D1B" d="M30.012,2.095v0.744h-1.727v1.002h1.666v0.746h-1.666v1.088h1.784v0.744h-2.588V2.095H30.012z"/>
	<path fill="#1D1D1B" d="M34.342,2.089c0.91,0,1.35,0.557,1.35,1.313c0,0.634-0.313,1.125-0.949,1.268l1.144,1.749h-0.94
		l-1.107-1.701h-0.307v1.701h-0.797v-4.33H34.342z M34.305,3.938c0.395,0,0.583-0.242,0.583-0.536c0-0.298-0.253-0.534-0.576-0.534
		h-0.775v1.069H34.305z"/>
	<path fill="#1D1D1B" d="M8.396,14.084c0.664,0,1.195,0.531,1.195,1.187c0,0.347-0.142,0.658-0.379,0.872
		c0.336,0.216,0.555,0.595,0.555,1.028c0,0.686-0.557,1.236-1.243,1.236H6.558v-4.324H8.396z M8.178,15.815
		c0.319,0,0.57-0.175,0.57-0.48c0-0.308-0.253-0.478-0.57-0.478H7.385v0.958H8.178z M8.34,17.63c0.324,0,0.583-0.202,0.583-0.519
		c0-0.311-0.259-0.517-0.583-0.517H7.385v1.035H8.34L8.34,17.63z"/>
	<path fill="#1D1D1B" d="M14.035,14.078c0.913,0,1.35,0.557,1.35,1.313c0,0.632-0.311,1.125-0.947,1.266l1.144,1.75h-0.94
		l-1.108-1.704h-0.308v1.704h-0.797v-4.33H14.035z M14.001,15.927c0.394,0,0.581-0.242,0.581-0.536c0-0.298-0.25-0.534-0.574-0.534
		h-0.775v1.069H14.001z"/>
	<path fill="#1D1D1B" d="M20.658,14.084l1.692,4.324h-0.846l-0.39-0.997h-1.763l-0.392,0.997h-0.844l1.69-4.324H20.658z
		 M20.235,15.07l-0.57,1.539h1.133L20.235,15.07z"/>
	<path fill="#1D1D1B" d="M25.937,14.084l1.978,3.062v-3.062h0.801v4.324H27.79l-1.978-3.068v3.068h-0.802v-4.324H25.937z"/>
	<path fill="#1D1D1B" d="M33.317,14.084c1.224,0,2.236,0.975,2.236,2.162s-1.013,2.162-2.236,2.162h-1.628v-4.324H33.317z
		 M33.317,17.624c0.797,0,1.427-0.637,1.427-1.378s-0.63-1.377-1.427-1.377h-0.825v2.755H33.317L33.317,17.624z"/>
	<path fill="#1D1D1B" d="M4.572,28.424c-0.443-0.156-0.994-0.452-0.994-1.12c0-0.806,0.606-1.303,1.307-1.286
		c0.381,0.011,0.793,0.17,1.144,0.519l-0.484,0.54c-0.242-0.219-0.476-0.304-0.66-0.291c-0.289,0.011-0.48,0.235-0.48,0.488
		c0,0.28,0.187,0.396,0.538,0.519l0.349,0.115c0.439,0.129,0.992,0.534,0.992,1.258c0,0.78-0.63,1.292-1.397,1.281
		c-0.469-0.011-0.985-0.21-1.438-0.662l0.482-0.569c0.345,0.354,0.683,0.481,0.955,0.478c0.369-0.002,0.617-0.253,0.617-0.529
		c0-0.336-0.292-0.515-0.587-0.612L4.572,28.424z"/>
	<path fill="#1D1D1B" d="M11.473,26.073v0.744H9.746v1.002h1.669v0.744H9.746v1.088h1.787v0.743h-2.59v-4.321H11.473L11.473,26.073z
		"/>
	<path fill="#1D1D1B" d="M15.803,26.067c0.913,0,1.35,0.557,1.35,1.315c0,0.63-0.311,1.122-0.949,1.266l1.146,1.749h-0.94
		l-1.11-1.701h-0.307v1.701h-0.797v-4.33H15.803z M15.769,27.916c0.394,0,0.581-0.242,0.581-0.533c0-0.3-0.25-0.536-0.574-0.536H15
		v1.069H15.769z"/>
	<path fill="#1D1D1B" d="M23.361,26.073l-1.68,4.324h-0.863l-1.678-4.324h0.827l1.279,3.231l1.282-3.231H23.361z"/>
	<path fill="#1D1D1B" d="M26.016,26.073h0.804v4.324h-0.804V26.073z"/>
	<path fill="#1D1D1B" d="M33.289,29.971c-0.377,0.305-0.856,0.482-1.382,0.482c-1.226,0-2.236-0.978-2.236-2.218
		s1.014-2.218,2.236-2.218c0.525,0,1.007,0.181,1.382,0.489l-0.553,0.553c-0.239-0.165-0.531-0.255-0.829-0.255
		c-0.795,0-1.427,0.636-1.427,1.431s0.632,1.438,1.427,1.438c0.298,0,0.59-0.094,0.829-0.259L33.289,29.971z"/>
	<path fill="#1D1D1B" d="M38.482,26.073v0.744h-1.727v1.002h1.667v0.744h-1.667v1.088h1.785v0.743h-2.589v-4.321H38.482
		L38.482,26.073z"/>
</g>
</svg>
