<?xml version="1.0" encoding="utf-8"?>
<!-- Generator: Adobe Illustrator 15.0.0, SVG Export Plug-In . SVG Version: 6.00 Build 0)  -->
<!DOCTYPE svg PUBLIC "-//W3C//DTD SVG 1.1//EN" "http://www.w3.org/Graphics/SVG/1.1/DTD/svg11.dtd">
<svg version="1.1" id="Layer_1" xmlns="http://www.w3.org/2000/svg" xmlns:xlink="http://www.w3.org/1999/xlink" x="0px" y="0px"
	 width="247px" height="187px" viewBox="0 0 247 187" enable-background="new 0 0 247 187" xml:space="preserve">
<g>
	<path fill="#FFFFFF" d="M187.581,10.091c0.207,0.072,0.344,0.211,0.33,0.492C187.711,10.51,187.574,10.373,187.581,10.091z"/>
	<path fill="#FFFFFF" d="M186.459,11.508c0,0.07,0.062,0.123,0.131,0.123h0.015c0.082-0.005,0.13-0.07,0.13-0.146
		c-0.021-0.19-0.044-0.358-0.161-0.516l-0.021-0.032l-0.032-0.015c-0.044-0.014-0.085-0.032-0.12-0.052
		c-0.077-0.029-0.153,0.005-0.186,0.076c-0.029,0.067,0,0.153,0.076,0.182c0.017,0.009,0.047,0.022,0.075,0.038
		C186.42,11.25,186.436,11.35,186.459,11.508z"/>
	<path fill="#FFFFFF" d="M185.733,11.411c-0.328-0.467-0.443-0.962-0.748-1.406c-0.044-0.067-0.029-0.155,0.039-0.199
		c0.066-0.048,0.152-0.03,0.199,0.038c0.343,0.501,0.457,1.006,0.742,1.405c0.049,0.062,0.035,0.146-0.032,0.198
		c-0.024,0.016-0.062,0.021-0.086,0.021C185.805,11.47,185.761,11.448,185.733,11.411z"/>
	<path fill="#FFFFFF" d="M185.934,8.768"/>
	<path fill="#FFFFFF" d="M185.27,8.938c0.288,0.144,0.64,0.363,0.33,0.66C185.375,9.486,185.29,9.24,185.27,8.938z"/>
	<path fill="#FFFFFF" d="M184.114,7.943c-0.083-0.197-0.174-0.375-0.335-0.497C183.756,7.666,184.046,8.357,184.114,7.943z"/>
	<path fill="#FFFFFF" d="M189.23,8.439c0.215,0.281,0.566,0.434,0.505,0.985C189.475,9.196,189.311,8.858,189.23,8.439z"/>
	<path fill="#FFFFFF" d="M189.562,10.091c0.197-0.027,0.145-0.299,0.173-0.494c0.88,0,0.667,1.966,1.482,1.482
		c0.466,0.305,0.695,0.847,0.834,1.491c2.135,2.282,2.344,7.317,2.467,11.067c-0.337,0.434-1.125,0.264-1.98,0.495
		c-1.006,0.282-2.65,1.369-2.976,0.167c-0.199,0.077-0.34,0.209-0.332,0.491c-0.639-0.405-1.525-0.558-1.649-1.482
		c-0.238-0.09-0.513-1.231,0.169-1.156c-0.106-1.645-0.089-3.322-0.33-4.794c-0.181-1.077-0.782-2.153-0.991-3.136
		c-0.138-0.623-0.105-1.256-0.167-1.324c-0.442-0.437-0.505-1.229-0.662-1.488l0.248-0.086l-0.087-0.245
		c0.364-0.03,0.53,0.138,0.501,0.498c0.139,0.03,0.153-0.067,0.167-0.167l0.168,0.086l0.155-0.086
		c0.123,0.152,0.306,0.25,0.495,0.328l0.253-0.078l0.081-0.25c0.238,0.42,1.14,0.182,1.322,0.663l0.207,0.199l0.291-0.032v0.167
		l-0.252-0.088l-0.077,0.25h-0.169c0.137,0.575-0.761,0.709,0,0.991c0.025-0.778,0.243,0.179,0.659,0v-0.663l0.249,0.082l0.087-0.25
		c0.327-0.079-0.459-0.405-0.497-0.657l-0.19-0.252l-0.308,0.09c-0.304-0.528-0.855-1.215,0-1.159l0.191,0.238l0.307-0.076
		c0.044,0.211,0.327,0.167,0.334,0c-0.167-0.002-0.134-0.203-0.173-0.333l0.083-0.249L189.562,10.091z"/>
	<path fill="#FFFFFF" d="M187.295,11.699c-0.114-0.54-0.285-1.021-0.561-1.505c-0.048-0.102-0.015-0.234,0.084-0.288
		c0.106-0.055,0.23-0.018,0.285,0.082c0.295,0.522,0.481,1.053,0.602,1.628c0.023,0.115-0.047,0.224-0.161,0.25
		c-0.015,0.003-0.028,0.003-0.044,0.003C187.4,11.869,187.315,11.801,187.295,11.699z"/>
	<path fill="#FFFFFF" d="M189.058,12.532c-0.138-0.023-0.228-0.162-0.199-0.295c0.03-0.142,0.06-0.309,0.105-0.473
		c0.028-0.142,0.177-0.226,0.308-0.192c0.136,0.04,0.221,0.183,0.183,0.318c-0.032,0.14-0.062,0.299-0.091,0.437
		c-0.023,0.121-0.133,0.209-0.253,0.209C189.095,12.536,189.081,12.536,189.058,12.532z"/>
	<path fill="#FFFFFF" d="M189.087,10.669c-0.084-0.032-0.184-0.061-0.282-0.086c-0.104-0.029-0.191-0.049-0.291-0.096l-0.075-0.04
		l-0.008-0.092c-0.016-0.052-0.023-0.1-0.03-0.152c-0.014-0.098,0.048-0.188,0.145-0.2c0.099-0.02,0.19,0.046,0.205,0.141
		c0.003,0.02,0.003,0.038,0.003,0.059c0.038,0.015,0.088,0.029,0.136,0.041c0.093,0.027,0.206,0.05,0.327,0.091
		c0.095,0.038,0.139,0.144,0.105,0.229c-0.034,0.075-0.099,0.114-0.172,0.114C189.131,10.678,189.11,10.675,189.087,10.669z"/>
	<path fill="#FFFFFF" d="M188.968,10.678c-0.089-0.1-0.089-0.256,0.014-0.358c0.105-0.108,0.241-0.17,0.352-0.2
		c0.121-0.023,0.213-0.023,0.288-0.032c0.145-0.015,0.262,0.091,0.277,0.229c0.013,0.132-0.087,0.254-0.225,0.276
		c-0.111,0.006-0.182,0.008-0.224,0.015c-0.043,0.015-0.059,0.022-0.124,0.079c-0.042,0.044-0.11,0.067-0.177,0.067
		C189.087,10.754,189.018,10.731,188.968,10.678z"/>
	<path fill="#FFFFFF" d="M189.05,11.25c-0.132-0.03-0.224-0.161-0.197-0.297c0.026-0.155,0.044-0.299,0.044-0.422v-0.023
		c0-0.138,0.115-0.253,0.253-0.258c0.138,0,0.258,0.113,0.258,0.246v0.035c0,0.186-0.03,0.358-0.062,0.514
		c-0.02,0.12-0.123,0.212-0.251,0.212C189.087,11.256,189.07,11.256,189.05,11.25z"/>
	<path fill="#FFFFFF" d="M189.707,13.092c-0.223-0.222-0.443-0.439-0.664-0.659c-0.062-0.062-0.062-0.159,0-0.221
		c0.059-0.056,0.166-0.056,0.221,0c0.221,0.221,0.44,0.443,0.657,0.667c0.059,0.052,0.059,0.149,0,0.213
		c-0.029,0.03-0.065,0.042-0.109,0.042C189.78,13.133,189.738,13.122,189.707,13.092z"/>
	<path fill="#FFFFFF" d="M74.715,12.251c0.2,0.075,0.332,0.22,0.323,0.501C74.837,12.675,74.7,12.536,74.715,12.251z"/>
	<path fill="#FFFFFF" d="M73.579,13.67c0.012,0.071,0.067,0.129,0.136,0.129h0.017c0.077-0.009,0.136-0.077,0.129-0.152
		c-0.014-0.185-0.052-0.353-0.161-0.514l-0.02-0.035l-0.039-0.015c-0.039-0.015-0.077-0.032-0.118-0.046
		c-0.067-0.029-0.152,0-0.176,0.076c-0.035,0.068,0,0.153,0.071,0.182c0.022,0.008,0.046,0.018,0.076,0.033
		C73.548,13.41,73.564,13.512,73.579,13.67z"/>
	<path fill="#FFFFFF" d="M72.855,13.58c-0.324-0.467-0.429-0.969-0.744-1.412c-0.041-0.062-0.023-0.149,0.039-0.193
		c0.067-0.047,0.158-0.032,0.196,0.032c0.346,0.501,0.461,1.012,0.748,1.403c0.048,0.065,0.027,0.155-0.028,0.199
		c-0.029,0.024-0.062,0.03-0.091,0.03C72.931,13.638,72.89,13.618,72.855,13.58z"/>
	<path fill="#FFFFFF" d="M73.057,10.936"/>
	<path fill="#FFFFFF" d="M72.4,11.097c0.291,0.153,0.637,0.373,0.328,0.667C72.512,11.649,72.423,11.402,72.4,11.097z"/>
	<path fill="#FFFFFF" d="M71.241,10.105c-0.083-0.19-0.174-0.375-0.329-0.495C70.882,9.835,71.168,10.521,71.241,10.105z"/>
	<path fill="#FFFFFF" d="M76.364,10.601c0.214,0.288,0.559,0.439,0.49,0.992C76.596,11.358,76.435,11.021,76.364,10.601z"/>
	<path fill="#FFFFFF" d="M76.693,12.251c0.2-0.018,0.14-0.296,0.161-0.487c0.893,0,0.675,1.962,1.49,1.48
		c0.466,0.312,0.696,0.852,0.83,1.489c2.134,2.283,2.348,7.324,2.483,11.073c-0.349,0.429-1.135,0.261-1.986,0.497
		c-1.013,0.275-2.656,1.358-2.978,0.161c-0.203,0.076-0.335,0.21-0.329,0.501c-0.646-0.416-1.531-0.563-1.649-1.49
		c-0.243-0.091-0.516-1.229,0.167-1.156c-0.114-1.644-0.091-3.318-0.335-4.792c-0.181-1.083-0.786-2.154-0.99-3.14
		c-0.138-0.619-0.107-1.258-0.172-1.326c-0.439-0.434-0.5-1.229-0.656-1.481l0.247-0.085l-0.082-0.25
		c0.364-0.025,0.525,0.136,0.492,0.497c0.142,0.029,0.163-0.062,0.172-0.162l0.167,0.082l0.167-0.082
		c0.115,0.152,0.293,0.249,0.489,0.329l0.244-0.08l0.091-0.249c0.232,0.425,1.139,0.182,1.314,0.657l0.205,0.206l0.296-0.044v0.167
		l-0.249-0.08l-0.085,0.247h-0.167c0.139,0.581-0.754,0.71,0,0.992c0.024-0.772,0.244,0.182,0.664,0v-0.664l0.252,0.082l0.076-0.243
		c0.338-0.091-0.458-0.406-0.49-0.664l-0.196-0.246l-0.306,0.085c-0.299-0.526-0.842-1.209,0-1.16l0.197,0.253l0.304-0.085
		c0.036,0.211,0.323,0.167,0.323,0c-0.152-0.009-0.124-0.205-0.161-0.331l0.085-0.25L76.693,12.251z"/>
	<path fill="#FFFFFF" d="M74.425,13.867c-0.112-0.546-0.287-1.027-0.558-1.507c-0.059-0.104-0.02-0.229,0.076-0.286
		c0.103-0.055,0.232-0.023,0.291,0.082c0.284,0.519,0.481,1.048,0.599,1.629c0.026,0.109-0.048,0.222-0.162,0.247
		c-0.017,0-0.029,0.005-0.046,0.005C74.533,14.037,74.442,13.97,74.425,13.867z"/>
	<path fill="#FFFFFF" d="M76.185,14.7c-0.131-0.029-0.223-0.161-0.199-0.301c0.029-0.138,0.059-0.303,0.1-0.475
		c0.036-0.133,0.176-0.22,0.317-0.182c0.131,0.035,0.223,0.173,0.178,0.316c-0.037,0.141-0.061,0.299-0.091,0.432
		c-0.026,0.127-0.132,0.214-0.255,0.214C76.227,14.703,76.211,14.703,76.185,14.7z"/>
	<path fill="#FFFFFF" d="M76.214,12.836c-0.085-0.038-0.191-0.06-0.285-0.09c-0.099-0.029-0.19-0.047-0.287-0.091l-0.077-0.044
		l-0.015-0.094c-0.002-0.046-0.01-0.094-0.022-0.152c-0.018-0.091,0.05-0.185,0.143-0.2c0.105-0.021,0.191,0.047,0.206,0.145
		c0.005,0.017,0.005,0.041,0.005,0.061c0.039,0.015,0.086,0.027,0.132,0.039c0.094,0.024,0.214,0.041,0.335,0.093
		c0.085,0.034,0.131,0.139,0.094,0.229c-0.03,0.067-0.094,0.109-0.161,0.109C76.261,12.84,76.234,12.84,76.214,12.836z"/>
	<path fill="#FFFFFF" d="M76.1,12.84c-0.101-0.103-0.091-0.261,0.006-0.353c0.108-0.108,0.243-0.178,0.357-0.199
		c0.117-0.03,0.208-0.03,0.285-0.038c0.144-0.009,0.266,0.09,0.276,0.222c0.015,0.144-0.08,0.265-0.217,0.279
		c-0.114,0.009-0.182,0.018-0.227,0.025c-0.041,0.006-0.061,0.015-0.125,0.077c-0.049,0.044-0.105,0.067-0.173,0.067
		C76.214,12.922,76.153,12.894,76.1,12.84z"/>
	<path fill="#FFFFFF" d="M76.182,13.418c-0.137-0.023-0.233-0.161-0.205-0.296c0.022-0.162,0.046-0.299,0.046-0.428v-0.019
		c0-0.144,0.114-0.257,0.253-0.257c0.137-0.006,0.257,0.104,0.257,0.245v0.031c0,0.191-0.029,0.358-0.055,0.516
		c-0.023,0.124-0.129,0.208-0.252,0.208C76.211,13.418,76.197,13.418,76.182,13.418z"/>
	<path fill="#FFFFFF" d="M76.833,15.252c-0.223-0.213-0.437-0.438-0.66-0.664c-0.064-0.05-0.064-0.152,0-0.217
		c0.056-0.047,0.156-0.047,0.214,0c0.223,0.229,0.443,0.446,0.661,0.667c0.064,0.061,0.064,0.158,0,0.213
		c-0.027,0.035-0.071,0.047-0.103,0.047C76.901,15.299,76.864,15.287,76.833,15.252z"/>
	<path fill="#FFFFFF" d="M66.086,48.356c0.002-0.203,0.275-0.121,0.209-0.397c-0.104,0-0.207-0.006-0.3-0.006
		C66.004,48.106,65.95,48.327,66.086,48.356z"/>
	<path fill="#FFFFFF" d="M62.729,51.853c-0.059,0.271-0.423,0.238-0.404,0.596C62.535,52.384,62.946,52.009,62.729,51.853z"/>
	<path fill="#FFFFFF" d="M66.604,47.152"/>
	<path fill="#FFFFFF" d="M65.17,49.655c0.093-0.58,0.727-0.609,0.818-1.196c-0.32-0.056-0.398,0.213-0.604-0.004
		c0.1,0.643-0.443,0.622-0.713,0.895C65.126,49.169,64.802,49.755,65.17,49.655z"/>
	<path fill="#FFFFFF" d="M71.537,47.305c0.217,0.023,0.324-0.076,0.309-0.299C71.623,46.988,71.522,47.087,71.537,47.305z"/>
	<path fill="#FFFFFF" d="M71.332,48.212c0.019-0.725,0.065-0.853,0.208-1.505c-0.419,0.015-0.461,0.405-0.804,0.49v-0.405
		c-0.479-0.105-0.562,0.71-0.809,0.496c-0.229,0.067-0.203-0.299-0.497-0.405c0.129-0.305,0.811-0.586,0.611-0.901
		c-0.784,0.696-1.712,1.794-2.442,2.199c0.092-0.596,1.092-0.788,0.922-1.313c-0.464,0.314-0.822,0.728-1.518,0.793
		c0.006,0.637-0.56,0.994-0.917,0.903c-0.082,0.319-0.082,0.2,0.093,0.402c-0.696,0.099-0.696,0.912-1.215,1.195
		c0.235-0.398-0.184-0.4-0.396-0.611c-0.399,0.297-0.155,0.64-0.214,0.91c-0.798,0.502-1.204,1.412-1.838,2.092
		c-0.182,0.188,0.065,0.183,0,0.503c-0.63,0.519-0.736,1.422-1.029,2.101c-0.288,0.656-0.807,1.19-0.716,1.81
		c-0.291-0.091-0.272,0.137-0.504,0.097c0.268,0.88-0.375,1.447-0.634,2.101c-0.161,0-0.044-0.279-0.197-0.303
		c-0.214,0.291-0.261,0.748-0.414,1.106c0.373,0.077,0.182-0.429,0.412-0.496c0.056,1.115-0.335,1.763-0.632,2.505
		c-0.061-0.237,0.136-0.728-0.092-0.809c-0.095,0.296-0.095,0.311,0,0.61c-0.482,0.529-0.664,1.352-0.834,2.188
		c-1.265-0.19-2.735-0.249-4.396-0.077c-0.733-4.312-1.98-12.896-1.98-21.61c0-1.995,0.056-4.048,0.176-6.15
		c0.426-7.559,2.099-15.897,3.671-22.283c0.783-3.198,1.546-5.918,2.11-7.828c0.284-0.949,0.519-1.702,0.666-2.222
		c0.167-0.504-0.094-0.833-0.634-0.927c-1.271,0.176-4.155,1.271-5.661,1.975c-0.742,0.359-1.206,1.242-1.443,2.294
		c-1.863,6.755-4.583,18.063-5.202,28.623c-0.125,2.233-0.176,4.411-0.176,6.517c0.002,9.653,1.255,18.354,2.133,23.23
		c-1.323,0.514-2.711,1.156-4.175,1.979c-0.508,0.283-0.491,0.404-0.537,0.494c0.182,0.47,0.091,0.658,0.971,0.384
		c0.511-0.161,2.184-0.537,4.123-0.832c0.114,0.571,0.208,1.044,0.284,1.387c0.126,0.522,0.443,0.614,0.983,0.57l5.231-2.239
		c1.329,0.167,2.644,0.487,3.492,0.853c0.114,0.328,0.32,0.561,0.672,0.561c1.458,0,4.237-1.104,5.472-1.79
		c0.284-0.592,0.155-0.592,0.199-1.397c0.153-3.148,1.168-4.236,1.932-6.857c0.193,0.035,0.193-0.132,0.299-0.193
		c0.404-1.241,0.827-2.442,1.346-3.512c0.306-0.643,1.021-1.15,0.822-1.907c0.213-0.123,0.399-0.271,0.606-0.397
		c-0.111-0.865,0.44-0.284,0.218-1.108c0.428-0.261,0.672-0.734,0.712-1.392c0.415-0.259,1.09-0.792,0.924-1.305
		c-0.038,0.306-0.161,0.513-0.414,0.599C70.257,48.608,70.936,48.564,71.332,48.212z"/>
	<path fill="#FFFFFF" d="M61.168,56.765c0.081-0.185,0.137-0.405,0.31-0.501C61.648,56.316,61.52,56.911,61.168,56.765z"/>
	<path fill="#FFFFFF" d="M61.886,55.87c-0.105-0.066-0.105-0.241-0.306-0.211c0.098-0.171,0.374-0.161,0.412-0.399
		C62.334,55.458,61.816,55.622,61.886,55.87z"/>
	<path fill="#FFFFFF" d="M67.491,48.672c-0.176-0.07-0.008-0.179,0.003-0.299C67.676,48.455,67.51,48.559,67.491,48.672z"/>
	<path fill="#FFFFFF" d="M68.515,47.878c0.124-0.17,0.212-0.391,0.499-0.391C68.978,47.746,68.75,47.822,68.515,47.878z"/>
	<path fill="#FFFFFF" d="M69.318,47.893c0.168-0.297-0.674-0.676,0.006-0.805c0.006,0.291,0.03,0.562,0.396,0.506
		C69.636,47.739,69.639,47.982,69.318,47.893z"/>
	<path fill="#FFFFFF" d="M192.288,51.856c-0.141,0.182-0.245,0.42-0.278,0.632h0.414c0-0.015,0.002-0.027,0.009-0.03
		C192.461,52.176,192.424,51.967,192.288,51.856z"/>
	<polygon fill="#FFFFFF" points="86.598,49 86.264,48.993 86.261,49.35 86.592,49.359 	"/>
	<path fill="#FFFFFF" d="M83.759,54.888c1.083-3.621,1.833-3.274,2.986-5.17c-1.3-0.375-0.919,1.14-1.995,1.016
		c0.103-0.163,0.399-0.649-0.152-0.534c-0.608,0.863-1.359,2.077-2.192,2.605c-0.358-1.607,1.889-2.509,1.575-4.043
		c-0.299,1.141-1.637,1.81-1.71,2.624c-0.299,0.487-0.91,0.754-1.338,1.212c-0.391,0.399-0.124,0.695-0.364,1.229
		c-0.1,0.232-0.481,0.205-0.667,0.519c-0.069,0.108-0.117,0.214-0.161,0.313c-0.006,0.015-0.006,0.03-0.006,0.03s0-0.015,0.006-0.03
		l0,0l0,0c0.047-0.132,0.04-0.319,0-0.466l0,0c-0.009-0.047-0.029-0.09-0.043-0.124l-0.003-0.011
		c-0.015-0.033-0.035-0.062-0.059-0.085h-0.003c-0.021-0.019-0.043-0.03-0.067-0.019h-0.006c-0.023,0-0.041,0.019-0.065,0.042v0.011
		c-0.034,0.033-0.049,0.08-0.082,0.147c0.542,0.068-0.648,0.534-0.009,0.705c0.002-0.027,0.018-0.062,0.041-0.092
		c0.009-0.01,0.024-0.025,0.049-0.04c0.003,0,0.003-0.007,0.012-0.015c0.053-0.023,0.126-0.032,0.22-0.021
		c-0.094,0.249-0.137,0.443-0.229,0.557c-0.332,0.403-0.947,0.039-0.343,0.526c-0.496-0.145-0.551,0.49-0.947,0.475
		c-1.782-6.99,1.473-21.86,2.708-24.984c0.252-0.678,0.065-0.825-0.049-0.884c-1.382-0.681-6.028,0.071-6.295,0.992
		c-1.792,5.492-2.863,15.804-2.863,15.804c-0.59,6.795,0.287,15.7,1.978,20.833c0.124,0.305,0.398,0.428,0.563,0.434
		c1.528,0.062,4.66-0.872,5.851-1.854c0.543-3.569,2.14-8.381,2.853-9.715l0.807-1.537c-0.029-0.012-0.047-0.03-0.077-0.04
		C83.286,55.078,82.834,54.858,83.759,54.888z"/>
	<path fill="#FFFFFF" d="M80.527,55.604c0.062-0.365,0.453-0.343,0.511-0.701C81.279,54.368,81.179,55.996,80.527,55.604z"/>
	<path fill="#FFFFFF" d="M82.215,53.688c-0.457,0.143-0.404,0.872-1.006,0.857c0.03-0.817,0.792-0.804,0.701-1.75
		C82.757,52.687,81.613,53.543,82.215,53.688z"/>
	<path fill="#FFFFFF" d="M197.521,46.982c0.305-0.772-0.263,0.024-0.491,0.182c0.047-0.115,0.401-0.686,0-0.722
		c-0.177,0.607-0.504,0.015-0.992,0.364c-0.255,0.872-0.194,1.124-0.154,1.59c-0.33,0.062-0.33-0.231-0.503-0.352
		c-0.398,0.41-0.056,0.781-0.322,1.068c-0.021-0.215-0.053-0.414-0.335-0.353c-0.132,0.496,0.235,0.458,0.174,0.885
		c-0.688-0.275-0.983,0.408-1.335,0.667c-0.014,0.12-0.101,0.253-0.159,0.399h0.009c-0.009,0.012-0.019,0.021-0.025,0.03
		c-0.039,0.123-0.068,0.251-0.01,0.387c-0.105,0.023-0.141-0.03-0.164-0.105c-0.138,0.258-0.246,0.557-0.29,0.93
		c-0.091-0.021-0.167-0.044-0.209-0.097c-0.085,0.206-0.176,0.414-0.281,0.602c0,0,0,0.015,0,0.03h-0.009
		c-0.097,0.155-0.199,0.291-0.337,0.399c0.026,0.571-0.837,0.818-0.802,1.542c-0.64-0.93,0.736-1.576,0.818-2.659
		c0.082,0.015,0.138,0.039,0.185,0.085c0.098-0.123,0.207-0.223,0.329-0.293c0.012-0.112,0.059-0.229,0.139-0.319
		c-0.004-0.174-0.2-0.138-0.323-0.176c0.015-0.344,0.319-0.374,0.657-0.365c0.076-0.093,0.152-0.191,0.211-0.293
		c-0.105-0.013-0.229-0.076-0.378-0.235c0.243-0.205,0.416-0.205,0.653,0c-0.457-1.426,1.677-3.008,0.986-4.084
		c-0.363,1.396-1.2,2.159-1.969,2.67v0.709c-0.49,0-0.557,0.459-0.986,0.529c0.183,0.743-0.371,0.642-0.488,0.886
		c-0.251,0.505-0.376,1.329-0.654,1.949c-0.286,0.634-0.558,1.42-1.154,1.781c0.115-1.18,0.792-1.752,0.992-2.843
		c-0.734-0.017-0.767,0.957-1.245,1.209c0.165-8.09,1.16-15.429,4.138-23.884c0.191-0.559-0.021-0.763-0.173-0.846
		c-2.08-1.109-6.622,1.151-7.005,2.404c-1.129,3.752-2.077,8.729-2.663,12.212c-0.745,0.642-2.195,1.892-2.866,1.816
		c0.434-0.458-0.312-0.259-0.327-0.717c0.355-0.334,1.236-1.02,0.825-1.595c-0.872,0.903-1.359,2.207-2.636,2.664
		c-0.018-0.335-0.103-0.596-0.322-0.716c0.015,0.906-0.871,0.839-0.985,1.602c0.543,0.522,0.713-0.564,0.985-0.182
		c-0.411,0.35-0.924,1.273-1.643,0.704c-0.054,0.425-0.26,0.672-0.165,1.256c-0.19,0.141-0.438,0.232-0.824,0.171
		c-0.543,1.48-1.453,2.567-2.294,3.726c0.205,0.757-0.426,1.537-0.657,1.239l-0.291,0.997c-0.278-3.335-0.473-7.284-0.473-11.75
		c0-1.993,0.048-4.05,0.171-6.148c0.425-7.559,2.098-15.891,3.67-22.285c0.79-3.198,1.546-5.919,2.109-7.82
		c0.289-0.958,0.517-1.716,0.672-2.224c0.158-0.505-0.093-0.839-0.634-0.937c-1.259,0.173-4.055,1.236-5.577,1.952
		c-0.616,0.279-1.165,0.86-1.409,1.866c-1.866,6.696-4.691,18.283-5.324,29.081c0,0.037,0,0.085,0,0.123
		c-0.778,0.688-1.671,1.382-2.23,1.365c-0.068,1.041-0.969,1.19-1.314,1.948c-0.036-0.314,0.17-0.886-0.321-0.716
		c0.124,0.961-0.815,0.783-0.491,1.96c-1.096,0.941-1.6,2.523-2.797,3.368c0.464,0.229-0.071,0.843-0.323,0.887
		c-0.211-0.441,0.367-0.857,0-0.887c-0.618,0.69-0.992,1.65-1.475,2.477c0.046,0.616,0.559,1.091,0,1.425
		c-0.863-0.128,0.58-0.639-0.333-0.709c-0.665,1.529-1.646,2.712-1.972,4.613l-0.335,1.535c-0.293-3.269-0.496-6.943-0.496-10.874
		c0-1.993,0.054-4.05,0.169-6.148c0.43-7.559,2.104-15.891,3.679-22.285c0.786-3.198,1.55-5.919,2.109-7.82
		c0.278-0.958,0.508-1.716,0.67-2.224c0.161-0.505-0.098-0.839-0.641-0.937c-1.309,0.182-4.324,1.34-5.792,2.054
		c-0.807,0.353-1.13,1.57-1.288,2.16c-1.872,6.746-4.604,18.099-5.223,28.686c-0.124,2.229-0.185,4.413-0.185,6.514
		c0.008,5.56,0.41,10.571,0.9,14.685c0.115,1.071,0.238,2.145,0.375,3.208c0.177,1.385,0.397,2.772,0.626,4.154
		c0.123,0.751,0.411,2.246,0.78,3.307c0.015,0.03,0.021,0.067,0.023,0.094c0.006,0.012,0.021,0.02,0.023,0.023
		c0.12,0.32,0.24,0.593,0.372,0.778c0.201,0.305,0.64,0.312,0.74,0.305c1.591,0.152,4.207-0.689,5.172-1.758l0.229-1.029
		c2.45-11.894,7.362-21.344,9.173-24.026c0,0.083-0.002,0.177-0.002,0.259c0.002,12.321,1.871,22.213,2.552,25.386
		c0.028,0.105,0.197,0.434,0.501,0.677c0.138,0.138,0.281,0.191,0.42,0.209c0.146,0.052,0.31,0.073,0.49,0.059
		c0.231,0.014,0.476-0.023,0.739-0.111c1.749-0.305,3.424-1.424,3.836-1.568c1.995-7.338,7.303-18.368,9.058-20.213
		c0.04-0.299,0.104-0.714,0.19-1.239l-0.109,1.154c-0.025,0.023-0.059,0.062-0.081,0.084c-0.048,0.326-0.078,0.507-0.078,0.507
		c-0.791,6.822-0.104,15.66,1.896,21.102c0.038,0.109,0.15,0.262,0.493,0.374c1.18-0.012,4.359-0.854,5.574-1.875
		c0.333-1.772,0.667-4.651,1.889-8.198c0.809-2.069,1.431-3.765,2.344-5.596c1.094-2.597,2.975-5.288,3.935-7.446
		C198.322,45.848,198.168,46.677,197.521,46.982z"/>
	<path fill="#FFFFFF" d="M155.089,50.175c0-0.047-0.026-0.514,0-0.529C155.499,49.406,155.074,51.067,155.089,50.175z"/>
	<path fill="#FFFFFF" d="M156.074,52.13c-0.561-0.34,0.281-0.625,0.168-1.062C156.706,51.298,156.109,51.853,156.074,52.13z"/>
	<path fill="#FFFFFF" d="M156.734,50.175c0.003-0.311,0.37-1.549,0.975-1.778C157.292,48.893,157.34,49.891,156.734,50.175z"/>
	<path fill="#FFFFFF" d="M157.517,53.792c-0.559-0.334,0.274-0.621,0.165-1.065C158.144,52.956,157.554,53.515,157.517,53.792z"/>
	<path fill="#FFFFFF" d="M157.882,48.045c-0.449-0.161,0.229-0.552,0-1.062C158.624,46.977,157.935,47.807,157.882,48.045z"/>
	<path fill="#FFFFFF" d="M158.366,46.442c-0.076-0.551,0.449-0.461,0.501-0.873C159.097,45.601,158.783,46.516,158.366,46.442z"/>
	<path fill="#FFFFFF" d="M159.32,49.708c-0.453-0.161,0.229-0.555,0-1.068C160.065,48.641,159.374,49.465,159.32,49.708z"/>
	<path fill="#FFFFFF" d="M159.354,44.683"/>
	<path fill="#FFFFFF" d="M159.812,48.112c-0.076-0.555,0.438-0.472,0.497-0.883C160.531,47.258,160.221,48.183,159.812,48.112z"/>
	<path fill="#FFFFFF" d="M160.344,43.614c-0.313-0.029-0.033-0.313,0-0.358C160.928,42.517,160.265,43.605,160.344,43.614z"/>
	<path fill="#FFFFFF" d="M160.792,46.343"/>
	<path fill="#FFFFFF" d="M161.326,42.189"/>
	<path fill="#FFFFFF" d="M161.778,45.272c-0.318-0.023-0.032-0.314,0-0.353C162.371,44.174,161.711,45.266,161.778,45.272z"/>
	<path fill="#FFFFFF" d="M162.762,43.852"/>
	<path fill="#FFFFFF" d="M164.449,38.649c-0.229-0.053-0.138-0.45-0.167-0.707C164.663,37.986,164.663,38.409,164.449,38.649z"/>
	<path fill="#FFFFFF" d="M177.366,49.294c0.313-0.319-0.191-0.525,0.172-0.898c0.186,0.035,0.088,0.188,0,0.188
		c0.004,0.164,0.2,0.131,0.324,0.176C177.689,48.922,177.807,49.412,177.366,49.294z"/>
	<path fill="#FFFFFF" d="M178.519,47.516c-0.186-0.034-0.091-0.182,0-0.182c0.052-0.352-0.032-0.551-0.322-0.528
		c0.146-0.426,0.657-0.473,1.146-0.528C179.25,46.886,178.86,47.177,178.519,47.516z"/>
	<path fill="#FFFFFF" d="M179.343,45.569c-0.091-0.632,0.58-0.441,0.491-1.069C180.971,44.643,180.176,46.167,179.343,45.569z"/>
	<path fill="#FFFFFF" d="M190.95,54.972c0.076-0.223,0.215-0.369,0.496-0.358C191.376,54.831,191.236,54.978,190.95,54.972z"/>
	<path fill="#FFFFFF" d="M85.528,65.375c0.023,0.049,0.046,0.059,0.059,0.059c-0.012-0.024-0.042-0.059-0.064-0.085
		C85.522,65.359,85.522,65.375,85.528,65.375z"/>
	<path fill="#FFFFFF" d="M193.377,50.066c0.017,0.117-0.015,0.229-0.076,0.343c0.093,0,0.179-0.038,0.262-0.097
		C193.576,50.22,193.532,50.127,193.377,50.066z"/>
	<path fill="#FFFFFF" d="M140.775,51.308c-0.36-0.033-0.525,0.143-0.489,0.531C140.644,51.871,140.808,51.695,140.775,51.308z"/>
	<path fill="#FFFFFF" d="M191.996,52.572c0.001-0.021,0.001-0.059,0.014-0.084h-0.073C191.959,52.513,191.975,52.551,191.996,52.572
		z"/>
	<path fill="#FFFFFF" d="M143.234,48.641"/>
	<path fill="#FFFFFF" d="M85.164,64.293v-0.187c-0.092,0-0.109-0.07-0.182-0.088C84.988,64.16,84.973,64.327,85.164,64.293z"/>
	<path fill="#FFFFFF" d="M123.603,47.191c0.076,0.005,0.157,0.005,0.234,0.011l0.015-0.011
		C123.837,47.202,123.603,47.191,123.603,47.191z"/>
	<path fill="#FFFFFF" d="M145.532,50.236c-0.064-0.422,0.299-0.381,0.165-0.881c-0.905,0.596-1.613,1.269-2.296,1.415
		c-0.272-1.009,1.268-0.982,0.657-1.77c-0.669,0.522-0.982,1.427-1.811,1.77c0.191-0.458,1.412-1.06,0.658-1.415
		c-0.467,0.377-0.896,0.806-1.144,1.415c-0.323,0.056-0.33-0.238-0.497-0.352c-0.223,0.877-0.714,2.368-1.474,1.597
		c-2.957,3.042-5.201,6.561-7.059,9.935c-2.36-3.999-2.465-10.203-1.535-16.204c4.261-0.912,8.281-2.863,10.479-4.852
		c1.382-1.268,3.908-3.94,3.529-7.908c-0.1-1.039-0.384-1.919-1.077-3.025c-2.042-3.322-4.354-4.231-5.445-4.765
		c-4.684-2.307-10.754-3.031-16.695-2.178c-0.658,0.098-3.191,0.702-5.376,1.236c0.663-3.795,1.466-7.439,2.253-10.607
		c0.787-3.198,1.544-5.919,2.107-7.82c0.282-0.958,0.51-1.716,0.673-2.224c0.155-0.505-0.101-0.839-0.641-0.937
		c-1.239,0.168-3.993,1.213-5.526,1.922c-0.982,0.484-1.182,1.55-1.32,2.042c-1.349,4.809-3.245,12.095-4.447,19.786
		c-2.256,0.869-4.507,1.772-6.494,2.858c-0.954,0.52-2.072,1.44-3.002,1.725c-0.381,0.114-0.786,0.077-1.176,0.183
		c-1.734,0.466-2.327,0.947-3.254,2.197c-0.862,1.156-2.588,3.268-3.322,4.393c-1.123,1.743-2.083,3.453-2.035,5.651
		c0.035,2.3,1.648,3.154,3.08,4.446c-0.249,0.59-0.977,0.727-1.363,0.727c0.182,0.273-0.649,0.317-0.634,0.725
		c-0.466,0.083-0.657,0.429-0.904,0.731c-0.596,0.132-1.083,0.737-1.092,1.17c-0.525-0.014-0.495,0.532-0.907,0.64
		c-0.329,0.971-1.232,1.368-1.452,2.453c-0.159-0.009-0.276,0.015-0.364,0.086c-0.117,0.701-0.637,1.354-0.989,2.089
		c-0.669,1.367-0.854,2.828-1.189,4.081c0.265,0.406-0.038,1.13,0,1.726c0.021,0.215,0.244,0.144,0.28,0.273
		c0.05,0.213-0.417,0.228-0.188,0.451c0.188,0.086,0.322,0.215,0.366,0.45c-0.084,0.193-0.008,0.418,0.092,0.636
		c0.143,0.317,0.352,0.61,0.176,0.725v-0.085c-0.024-0.084-0.176-0.466-0.268-0.184c0.092,0.315,0.268,0.556,0.45,0.786
		c-0.006-0.065-0.006-0.229,0.006-0.241c0.134-0.14,0.155,0.329,0.059,0.326c0.22,0.284,0.431,0.582,0.487,1.033
		c0.604,0.237,0.845,0.845,1.541,0.998c-0.161,0.458,0.025,0.062,0.266,0.276c0.218,0.167,0.062,0.281,0.368,0.458
		c1.951,0.804,4.082,1.276,6.17,1.08c5.865-0.546,12.013-4.539,12.893-7.187c1.173-3.515,0.084-6.082-0.977-8.209
		c-1.653-3.315-8.43-9.695-10.255-12.984c-1.338-2.412,1.291-4.712,2.932-6.25c3.101-2.901,7.368-5.055,10.417-6.273
		c-0.33,2.397-0.587,4.814-0.726,7.192c-0.124,2.229-0.185,4.413-0.185,6.514c0.009,12.778,2.022,22.939,2.626,25.714l0.033,0.207
		c0.716,0.968,5.208-0.399,6.384-1.706c0.519-2.13,1.077-4.23,1.682-6.267c1.258-4.187,3.993-10.886,5.387-12.527
		c-0.387,1.499-0.558,5.238-0.549,5.308c0.193,5.247,1.611,11.593,4.058,14.818c0.74,0.66,1.731,1.547,3.182,1.32
		c1.604-0.246,4.044-0.725,5.354-1.672c1.499-5.897,6.25-14.169,8.858-16.505c0.671-0.043,0.766-0.71,0.985-1.239
		C145.898,49.456,145.938,50.083,145.532,50.236L145.532,50.236z M98.223,52.139c2.251,2.334,4.599,9.562,2.031,13.144
		c-0.771,1.092-2.705,1.693-4.469,1.494c-2.426-0.267-4.255-1.115-5.451-2.758c-0.505-0.698-0.995-1.951-1.183-3.09
		c-0.144-0.909-0.108-1.871,0-2.72c0.435-3.16,2.419-6.015,4.085-8.066c-0.311-0.417,0.627-0.906,0.185-0.906
		c0.15-0.299,0.455-0.443,0.625-0.733c-0.075-0.211-0.22,0.258-0.538,0.094c0.004-0.232,0.392-0.1,0.271-0.456
		c-0.199,0.025-0.429,0.371-0.271,0c0.071-0.064,0.247-0.139,0.271,0C95.312,48.966,96.718,50.57,98.223,52.139L98.223,52.139z
		 M125.058,45.715c-0.006,0.023-0.32,1.306-0.326,1.334c-0.376,0.171-0.638,0.167-0.895,0.152l-0.427,0.506
		c-0.024-0.173,0.075-0.364,0.192-0.517c-0.238,0-0.482,0.029-0.805,0.266c-0.083-0.055-0.159-0.129-0.159-0.266
		c0.35-0.344,1.229-1.024,0.815-1.599c-0.862,0.904-1.351,2.208-2.625,2.666c-0.024-0.334-0.11-0.598-0.33-0.712
		c0.021,0.909-0.876,0.827-0.979,1.599c0.543,0.525,0.708-0.56,0.979-0.179c-0.404,0.337-0.924,1.264-1.634,0.708
		c-0.053,0.417-0.26,0.668-0.167,1.244c-0.193,0.15-0.443,0.234-0.826,0.175c-0.26,0.726-0.618,1.35-1.002,1.937
		c-0.343,0.433-0.655,0.887-0.963,1.344c-0.077,0.103-0.15,0.203-0.226,0.314c-0.384-3.68-0.672-7.972-0.672-12.608
		c0-1.993,0.059-4.05,0.183-6.148c0.168-3.116,0.565-6.361,1.067-9.559l1.737-0.455c5.108-1.191,11.057-0.684,15.426,1.271
		c-0.095,0.067-0.205,0.147-0.3,0.272C128.52,33.397,125.685,42.875,125.058,45.715L125.058,45.715z M138.043,30.548
		c1.57,1.931,2.289,5.399,0.998,8.163c-0.006,0.018-0.062,0.128-0.084,0.176c-1.227,2.163-3.575,4.378-7.406,4.842
		c1.224-6.345,3.488-12.134,5.277-14.426C137.283,29.695,137.691,30.104,138.043,30.548z"/>
	<path fill="#FFFFFF" d="M117.153,55.468c-0.558-0.334,0.284-0.625,0.164-1.067C117.79,54.64,117.199,55.193,117.153,55.468z"/>
	<path fill="#FFFFFF" d="M118.042,55.183c0-0.059-0.032-0.519,0-0.534C118.446,54.411,118.024,56.07,118.042,55.183z"/>
	<path fill="#FFFFFF" d="M117.813,53.515c0-0.118,0.052-0.377,0.159-0.657l0.541-0.576
		C118.344,52.766,118.238,53.314,117.813,53.515z"/>
	<path fill="#FFFFFF" d="M118.59,57.132c-0.557-0.335,0.285-0.625,0.167-1.068C119.23,56.299,118.63,56.855,118.59,57.132z"/>
	<path fill="#FFFFFF" d="M118.819,53.267c0.308-0.311-0.19-0.516,0.161-0.883c0.19,0.036,0.098,0.173,0,0.173
		c0.008,0.177,0.207,0.144,0.335,0.182C119.139,52.903,119.262,53.391,118.819,53.267z"/>
	<path fill="#FFFFFF" d="M120.395,53.044c-0.447-0.157,0.228-0.546,0-1.053C121.139,51.979,120.454,52.804,120.395,53.044z"/>
	<path fill="#FFFFFF" d="M119.966,51.495c-0.179-0.039-0.084-0.176,0-0.176c0.059-0.358-0.032-0.555-0.328-0.531
		c0.152-0.432,0.664-0.469,1.159-0.531C120.7,50.864,120.31,51.151,119.966,51.495z"/>
	<path fill="#FFFFFF" d="M120.891,51.451c-0.08-0.55,0.439-0.473,0.493-0.88C121.615,50.598,121.293,51.519,120.891,51.451z"/>
	<path fill="#FFFFFF" d="M120.797,49.547c-0.097-0.631,0.572-0.44,0.48-1.068C122.422,48.626,121.621,50.152,120.797,49.547z"/>
	<path fill="#FFFFFF" d="M121.874,49.68"/>
	<path fill="#FFFFFF" d="M122.86,48.611c-0.306-0.026-0.03-0.313,0-0.346c0.008-0.015,0.008-0.015,0.014-0.021
		c0.106-0.076,0.185-0.147,0.218-0.199C123.05,48.183,122.814,48.608,122.86,48.611z"/>
	<path fill="#FFFFFF" d="M142.578,51.48c-0.122-0.487,0.328-0.358,0.328-0.71C143.126,50.686,142.981,51.651,142.578,51.48z"/>
</g>
<g>
	<path fill="#FFFFFF" d="M37.736,93.708c0.387,1.095,0.578,2.323,0.578,3.687c0,2.418-0.609,4.815-1.84,7.188
		c-1.804,3.418-3.903,6.497-6.291,9.227c-3.902,4.441-8.036,6.846-12.395,7.192c-1.968,0.172-3.552-0.302-4.746-1.427
		c-0.773,1.425-1.881,3.395-3.316,5.907c-1.438,2.514-2.487,4.255-3.17,5.214c-1.259,1.919-2.533,3.45-3.822,4.598
		c-0.42,0.355-0.841,0.54-1.262,0.544c-0.387,0-0.711-0.163-0.969-0.497c-0.741-1.194-0.741-3.019,0-5.469
		c0.098-0.331,0.31-0.444,0.63-0.344c0.193,0.077,0.32,0.261,0.387,0.545c-0.066,1.78,0.097,2.799,0.484,3.057
		c0.163,0.111,0.472-0.04,0.921-0.466c1.678-1.602,3.178-3.508,4.503-5.723c1.612-2.689,3.21-5.493,4.793-8.406
		c-0.647-1.106-0.84-2.523-0.582-4.257c0.162-1.109,0.717-2.197,1.669-3.246c0.951-1.053,1.977-1.572,3.076-1.572
		c0.225,0.01,0.401,0.027,0.532,0.05c1.128-2.265,2.837-5.671,5.128-10.229c0.841-1.753,2.178-4.354,4.019-7.811
		c-2.061,0.538-4.695,1.738-7.888,3.6c-2.843,1.665-4.827,3.344-5.955,5.02c-0.714,1.066-0.972,1.781-0.776,2.15
		c0,0.193-0.081,0.327-0.241,0.407c-0.163,0.11-0.274,0.109-0.339-0.017c-0.325-0.749-0.182-1.711,0.434-2.897
		c0.874-1.753,2.825-3.602,5.858-5.547c4.102-2.617,7.521-4.285,10.263-5.012c1.452-2.32,2.677-3.717,3.68-4.193
		c0.388-0.16,0.626-0.09,0.723,0.227c0.102,0.281-0.042,0.539-0.434,0.768c-0.84,0.65-1.647,1.629-2.417,2.926
		c1.192-0.203,2.399-0.178,3.627,0.072C35.054,89.465,36.766,91.043,37.736,93.708z M16.188,110.976
		c-0.769,0.07-1.469,0.487-2.077,1.272c-0.616,0.775-0.937,1.573-0.968,2.381c0,0.387,0.093,0.943,0.292,1.669L16.188,110.976z
		 M35.555,103.132c0.709-1.675,1.065-3.302,1.065-4.886c0-1.677-0.401-3.126-1.208-4.346c-1.065-1.617-2.44-2.564-4.118-2.833
		c-0.999-0.173-2.145-0.167-3.436,0.008c-0.097,0.169-0.258,0.504-0.483,1.009c-2.326,5.107-5.36,11.104-9.102,17.982
		c0.838,0.542,1.482,1.369,1.938,2.488c0.129,0.315,0.047,0.582-0.247,0.801c-0.286,0.218-0.586,0.131-0.893-0.262
		c-0.31-0.393-0.798-0.965-1.478-1.709l-3.386,6.155c0.967,0.976,2.467,1.442,4.503,1.396c2.612-0.065,5.654-1.731,9.121-4.983
		C31.303,110.692,33.876,107.092,35.555,103.132z"/>
	<path fill="#FFFFFF" d="M53.173,124.825c-1.901,1.895-3.645,3.403-5.228,4.538c-1.225,0.876-2.436,1.365-3.627,1.467
		c-1.229,0.107-2.067-0.073-2.517-0.548c-0.875-0.879-0.904-2.119-0.099-3.723c-1.16,1.294-2.515,2.493-4.064,3.595
		c-1.677,1.149-3.083,1.802-4.211,1.969c-0.874,0.14-1.572-0.075-2.083-0.643c-0.451-0.474-0.611-1.01-0.485-1.604
		c0.225-1.146,1.276-3.049,3.146-5.693c1.131-1.523,2.276-3.04,3.437-4.561c0.586-0.759,1.082-1.034,1.5-0.813
		c0.132,0.088,0.197,0.181,0.197,0.274c0,0.031-0.34,0.498-1.015,1.397c-0.776,0.97-1.552,1.927-2.324,2.869
		c-1.261,1.72-2.211,3.417-2.855,5.086c-0.065,0.135-0.1,0.268-0.1,0.398c0,0.937,0.632,1.328,1.887,1.188
		c1.808-0.219,3.937-1.668,6.392-4.337c2.062-2.467,4.134-4.955,6.195-7.464c0.162-0.204,0.369-0.317,0.627-0.346
		c0.549-0.046,0.824,0.155,0.824,0.603c0,0.102-0.031,0.202-0.093,0.301c-0.39,0.514-1.131,1.446-2.231,2.795
		c-1.385,1.695-2.486,3.434-3.287,5.206c-0.1,0.237-0.149,0.512-0.149,0.833c0,1.222,0.63,1.775,1.889,1.667
		c0.903-0.077,1.679-0.324,2.323-0.729c2.356-1.482,4.177-2.823,5.474-4.018c0.126-0.112,0.27-0.125,0.436-0.043
		C53.322,124.569,53.336,124.685,53.173,124.825z"/>
	<path fill="#FFFFFF" d="M70.505,123.315c-2.192,2.194-4.001,3.802-5.422,4.826c-2.45,1.796-4.633,2.73-6.533,2.799
		c-1.1,0.033-1.859-0.11-2.277-0.431c-0.644-0.489-0.858-1.246-0.626-2.268c0.418-1.908,2.061-4.342,4.935-7.303
		c-0.452-1.287-0.58-2.468-0.389-3.55c-1.253,1.302-3.501,3.645-6.728,7.022c-0.225,0.249-0.386,0.215-0.483-0.1
		c0-0.129,0.032-0.277,0.097-0.444c0.386-0.391,2.019-2.145,4.894-5.269c0.967-1.088,2.093-2.312,3.386-3.686
		c0.611-0.767,1.143-0.908,1.595-0.43c0.355,0.388,0.213,0.98-0.435,1.781c-0.358,0.451-0.532,0.933-0.532,1.45
		c0,0.353,0.114,0.884,0.337,1.591c0.227,0.709,0.338,1.252,0.338,1.642c0,0.577-0.143,0.962-0.435,1.15
		c-0.968,0.637-1.92,1.612-2.853,2.938c-0.937,1.323-1.469,2.377-1.601,3.167c-0.132,0.719,0.258,1.043,1.166,0.962
		c1.964-0.171,3.776-0.796,5.42-1.878c2.484-1.641,4.371-3.062,5.663-4.271c0.125-0.106,0.274-0.12,0.435-0.038
		C70.649,123.058,70.667,123.17,70.505,123.315z"/>
	<path fill="#FFFFFF" d="M89.387,121.174c-1.388,1.545-3.214,2.978-5.468,4.303c-0.842,0.499-2.216,1.052-4.116,1.67
		c-2.103,0.668-3.823,1.061-5.187,1.181c-4.225,0.367-6.256-0.808-6.094-3.534c0.031-0.65,0.274-1.331,0.724-2.05
		c1.39-2.251,3.753-4.412,7.094-6.478c3.339-2.068,6.205-3.077,8.595-3.028c0.127,0.09,0.286,0.207,0.485,0.35
		c0.093,0.086,0.111,0.217,0.045,0.386l-0.143,0.447c-0.102,0.137-0.261,0.36-0.485,0.671c-0.131,0.108-0.519,0.471-1.161,1.072
		c-3.522,2.033-7.571,4.13-12.155,6.313c-0.449,0.433-0.808,1.125-1.065,2.085c0.229,1.54,1.757,2.282,4.597,2.224
		c0.84-0.008,2.188-0.248,4.046-0.718c1.852-0.474,3.184-0.908,3.994-1.306c2.194-1.103,4.063-2.411,5.612-3.914
		c0.165-0.173,0.359-0.192,0.583-0.05C89.513,120.874,89.547,121.002,89.387,121.174z M83.771,114.697
		c0-0.16-0.418-0.156-1.26,0.009c-4.034,1.357-7.345,3.437-9.924,6.246c3.84-1.819,7.229-3.586,10.167-5.299
		C83.43,115.113,83.771,114.796,83.771,114.697z"/>
	<path fill="#FFFFFF" d="M151.931,75.961c0.098,0.314-0.017,0.515-0.34,0.607c-2.81,0.535-5.436,2.186-7.892,4.952
		c1.971,0.475,3.036,1.641,3.196,3.496c0,0.713-0.275,1.335-0.825,1.864c-1.19,0.879-2.159,1.351-2.9,1.417
		c-0.452,0.036-0.919,0-1.407-0.119c-1.48-0.389-1.981-1.491-1.498-3.308c0.16-0.405,0.418-0.975,0.775-1.71
		c-1.517,0.062-2.731,0.367-3.633,0.892c-7.327,4.29-10.99,8.614-10.99,12.968c0,0.874,0.165,1.727,0.485,2.573
		c2.485-1.539,4.824-2.505,7.02-2.891c2.035-0.373,3.438,0.057,4.214,1.276c0.287,0.366,0.384,0.874,0.287,1.526
		c-0.126,0.527-0.372,0.984-0.723,1.368c-1.55,1.756-3.52,2.731-5.908,2.94c-2.29,0.199-4.113-0.416-5.467-1.844
		c-4.65,3.019-8.522,6.631-11.622,10.843c-1.55,2.139-2.324,4.396-2.324,6.785c0,1.868,0.55,3.502,1.647,4.892
		c0.904,0.854,2.547,1.179,4.937,0.972c0.61-0.052,1.128-0.146,1.552-0.283c3.873-1.338,7.455-3.313,10.746-5.925
		c1.162-0.907,4.036-3.548,8.614-7.918c0.16-0.241,0.418-0.277,0.776-0.118c0.132,0.314,0.114,0.57-0.049,0.782
		c-8.424,9.775-16.153,14.97-23.188,15.583c-1.034,0.087-2.131-0.03-3.292-0.366c-1.16-0.338-1.905-0.693-2.227-1.088
		c-1.292-1.663-1.936-3.543-1.936-5.641c0-4.869,2.76-9.631,8.28-14.28c3.066-2.592,5.451-4.461,7.164-5.611
		c-0.452-0.894-0.679-1.908-0.679-3.041c0-2.352,0.805-4.637,2.42-6.84c2.358-3.241,5.601-5.93,9.73-8.067
		c1.743-0.894,3.551-1.326,5.427-1.298c2.221-2.55,5.11-4.4,8.662-5.55C151.542,75.621,151.866,75.676,151.931,75.961z
		 M135.957,99.482c-0.098-0.446-0.294-0.686-0.583-0.727c-1.645-0.308-3.261-0.05-4.839,0.766c-0.58,0.274-1.499,0.794-2.766,1.545
		c1.106,0.939,2.407,1.34,3.927,1.206c1.419-0.123,2.71-0.702,3.872-1.741C135.859,100.247,135.985,99.896,135.957,99.482z
		 M145.202,84.487c-0.482-0.796-1.418-1.231-2.808-1.299l-0.051,0.045c-0.449,0.656-0.678,1.354-0.678,2.096
		c0,0.87,0.453,1.363,1.358,1.477c0.711,0.069,1.402-0.267,2.085-1.001C145.427,85.354,145.46,84.917,145.202,84.487z"/>
	<path fill="#FFFFFF" d="M157.325,114.788c-1.065,1.059-3.035,2.441-5.903,4.146c-1.458,0.866-3.41,1.685-5.861,2.444
		c-2.683,0.816-4.893,1.254-6.629,1.309c-1.357,0.022-2.489-0.201-3.392-0.67c-1.033-0.556-1.485-1.452-1.354-2.69
		c0.228-1.988,1.519-4.021,3.871-6.097c4.393-3.871,7.939-5.926,10.648-6.165c0.55-0.045,1.068-0.045,1.552,0.012
		c0.776,0.093,1.165,0.336,1.165,0.719c0.517-0.461,0.818-0.695,0.916-0.703c0.32-0.033,0.388,0.153,0.191,0.559
		c-0.163,0.178-0.465,0.534-0.916,1.075c-0.455,0.54-1.117,1.394-1.984,2.568c-0.556,0.787-1.066,1.209-1.552,1.252
		c-0.065,0.001-0.113-0.009-0.143-0.041c-0.163-0.274,0.177-0.868,1.013-1.784c0.484-0.684,0.76-1.29,0.826-1.812
		c0.065-0.615-0.196-0.904-0.776-0.851c-1.578,0.135-3.111,0.712-4.595,1.713c-3.91,2.615-6.494,5.412-7.747,8.409
		c-0.099,0.199-0.146,0.446-0.146,0.738c0,1.524,1.065,2.256,3.196,2.205c3.646-0.067,7.259-1,10.843-2.81
		c1.968-0.989,3.116-1.574,3.437-1.766c1.096-0.618,2.049-1.304,2.856-2.06c0.126-0.107,0.27-0.121,0.434-0.039
		C157.468,114.53,157.482,114.642,157.325,114.788z"/>
	<path fill="#FFFFFF" d="M175.914,112.527c-0.096,0.17-0.146,0.259-0.146,0.259s-0.191,0.178-0.583,0.529
		c-1.578,1.24-2.97,1.972-4.16,2.206c-1.067,0.19-1.646,0.29-1.744,0.298c-0.452-0.021-0.74-0.065-0.871-0.117
		c-3.39,3.461-6.71,5.332-9.973,5.615c-0.97,0.083-1.889-0.026-2.761-0.34c-0.58-0.205-0.95-0.705-1.111-1.495
		c-0.16-0.728-0.132-1.442,0.094-2.141c0.683-2.126,2.343-4.364,4.991-6.729c1.967-1.788,4.194-3.11,6.679-3.978
		c0.516-0.395,1.11-0.627,1.792-0.687c1.837-0.163,3.002,0.467,3.484,1.875c0.096,0.317,0.144,0.811,0.144,1.486
		c0,1.419-0.775,3.184-2.319,5.287c0.577,0.014,1.062-0.012,1.447-0.077c1.098-0.197,2.39-0.858,3.873-1.99l0.727-0.449
		c0.227-0.146,0.373-0.145,0.438,0.009C176.012,112.212,176.012,112.356,175.914,112.527z M166.911,115.108
		c-1.712-0.659-2.566-2.085-2.566-4.278c0-0.776,0.21-1.602,0.628-2.477c-1.452,0.708-2.826,1.602-4.114,2.684
		c-1.291,1.084-2.405,2.276-3.342,3.582c-0.58,0.829-0.968,1.803-1.159,2.913c-0.065,0.425,0.052,0.833,0.36,1.226
		c0.307,0.393,0.75,0.599,1.331,0.609c0.389-0.002,0.776-0.02,1.164-0.052c1.481-0.131,2.934-0.643,4.355-1.542
		C164.149,117.397,165.262,116.514,166.911,115.108z M170.591,109.361c0-0.483-0.15-0.92-0.438-1.318
		c-0.513-0.694-1.194-1.007-2.032-0.933c-1.517,0.132-2.276,1.314-2.276,3.543c0,1.773,0.694,2.934,2.08,3.492
		C169.699,111.961,170.591,110.364,170.591,109.361z"/>
	<path fill="#FFFFFF" d="M203.116,72.294c-0.06,2.425-1.886,6.134-5.47,11.127c-2.095,2.926-6.486,7.911-13.166,14.948l-3.388,3.588
		c-0.806,1.331-1.714,2.848-2.712,4.543c-1.84,3.778-2.89,6.562-3.146,8.362c-0.258,1.893,0.384,2.775,1.934,2.639
		c0.936-0.082,1.716-0.329,2.324-0.737c2.069-1.344,3.923-2.792,5.57-4.359c0.129-0.104,0.274-0.12,0.435-0.034
		c0.193,0.076,0.209,0.185,0.048,0.331c-2.45,2.441-4.225,4.067-5.324,4.869c-1.229,0.886-2.438,1.379-3.633,1.479
		c-1.774,0.159-2.743-0.562-2.903-2.163c-0.26-2.815,0.95-6.601,3.633-11.353c2.096-3.862,5.127-9.149,9.099-15.857
		c4.485-6.748,9.537-12.806,15.153-18.168c0.419-0.393,0.822-0.478,1.212-0.252C203.006,71.397,203.116,71.745,203.116,72.294z
		 M201.716,74.06c0-0.451-0.243-0.416-0.725,0.116c-3.586,3.019-7.896,8.37-12.925,16.035c-2.26,3.492-4.118,6.529-5.567,9.11
		c0.322-0.354,0.789-0.864,1.4-1.526c2.26-2.425,4.502-4.832,6.729-7.226c2.485-2.764,4.569-5.32,6.245-7.661
		c1.681-2.343,2.677-3.771,3-4.281C200.908,76.925,201.523,75.4,201.716,74.06z"/>
	<path fill="#FFFFFF" d="M204.134,110.059c-0.095,0.17-0.143,0.252-0.143,0.252s-0.193,0.183-0.585,0.537
		c-1.58,1.233-2.97,1.972-4.159,2.205c-1.068,0.19-1.65,0.291-1.744,0.3c-0.456-0.025-0.742-0.067-0.873-0.117
		c-3.388,3.461-6.712,5.328-9.972,5.615c-0.97,0.083-1.887-0.032-2.762-0.343c-0.58-0.202-0.95-0.704-1.11-1.5
		c-0.163-0.726-0.129-1.436,0.095-2.136c0.682-2.126,2.343-4.368,4.987-6.73c1.966-1.783,4.197-3.108,6.683-3.975
		c0.512-0.395,1.111-0.626,1.792-0.687c1.836-0.164,2.998,0.461,3.482,1.869c0.1,0.319,0.146,0.815,0.146,1.491
		c0,1.422-0.774,3.184-2.325,5.289c0.583,0.015,1.068-0.012,1.451-0.083c1.1-0.191,2.39-0.854,3.875-1.985l0.727-0.447
		c0.224-0.147,0.367-0.145,0.435,0.007C204.234,109.745,204.234,109.888,204.134,110.059z M195.129,112.638
		c-1.709-0.656-2.562-2.082-2.562-4.278c0-0.772,0.208-1.598,0.625-2.476c-1.45,0.71-2.825,1.603-4.115,2.684
		c-1.292,1.082-2.402,2.276-3.339,3.585c-0.583,0.825-0.967,1.795-1.162,2.913c-0.063,0.424,0.058,0.832,0.364,1.224
		c0.306,0.394,0.748,0.598,1.331,0.61c0.387-0.004,0.772-0.021,1.161-0.052c1.483-0.131,2.935-0.645,4.358-1.543
		C192.368,114.931,193.479,114.04,195.129,112.638z M198.811,106.894c0-0.485-0.148-0.919-0.438-1.317
		c-0.512-0.695-1.194-1.009-2.029-0.934c-1.517,0.133-2.278,1.31-2.278,3.536c0,1.776,0.695,2.942,2.08,3.498
		C197.921,109.487,198.811,107.893,198.811,106.894z"/>
	<path fill="#FFFFFF" d="M225.917,108.445c0.126,0.055,0.097,0.166-0.099,0.35c-2.226,2.225-4.017,3.851-5.374,4.869
		c-0.384,0.299-2.257,1.767-5.612,4.415c-4.808,11.781-10.407,23.481-16.801,35.113c-2.612,4.812-5.213,9.639-7.79,14.48
		c-3.165,5.376-6.404,9.708-9.73,13.001c-0.905,0.886-1.774,1.366-2.615,1.44c-0.869,0.077-1.485-0.352-1.837-1.295
		c-0.226-1.884,0.091-4.073,0.968-6.567c3.261-9.519,7.532-18.685,12.826-27.508c6.811-11.309,14.729-21.04,23.769-29.189
		c0.872-2.333,1.967-5.125,3.293-8.372c-4.229,3.563-8.473,5.55-12.733,5.956c-0.709,0.061-1.373-0.057-1.982-0.358
		c-0.747-0.356-1.117-0.854-1.117-1.5c0-1.419,0.968-2.907,2.903-4.47c4.035-3.253,10.476-6.369,19.317-9.333
		c0.131-0.046,0.244,0.01,0.34,0.161c0,0.291-0.065,0.44-0.191,0.451c-8.037,2.866-14.029,5.859-17.959,8.979
		c-0.551,0.436-0.988,0.999-1.311,1.688c-0.321,0.69-0.435,1.226-0.34,1.607c0.16,0.698,0.728,0.983,1.698,0.866
		c4.839-0.619,9.308-3.51,13.406-8.679c0.13-0.173,0.256-0.36,0.387-0.566c0.258-0.312,0.469-0.474,0.629-0.494
		c0.1,0.028,0.181,0.055,0.245,0.082c0.61,0.367,0.61,0.958,0,1.791c-0.162,0.211-0.58,0.759-1.261,1.656
		c-0.807,2.333-1.822,5.162-3.048,8.501c1.192-0.559,2.45-1.314,3.771-2.269c2.683-1.946,4.667-3.524,5.958-4.734
		C225.721,108.41,225.818,108.392,225.917,108.445z M212.413,120.133c-2.424,2.467-4.861,4.954-7.312,7.463
		c-2.777,2.952-5.193,5.921-7.26,8.913c-11.59,16.857-18.223,30.365-19.897,40.519c-0.034,0.261-0.048,0.486-0.048,0.678
		c0,0.872,0.355,1.276,1.065,1.217c0.55-0.049,1.099-0.286,1.646-0.724c5.975-6.787,11.745-15.695,17.332-26.738
		C199.132,149.13,203.957,138.685,212.413,120.133z"/>
	<path fill="#FFFFFF" d="M244.459,106.824c0.127,0.052,0.095,0.168-0.103,0.345c-1.16,1.168-2.952,2.794-5.371,4.878
		c-2.707,2.334-6.195,5.118-10.456,8.368c-3.192,5.571-6.052,10.325-8.568,14.259c-4.42,6.901-8.407,11.755-11.954,14.546
		c-1.006,0.703-1.812,1.081-2.421,1.138c-1.455,0.126-2.212-0.502-2.276-1.887c-0.066-1.839,0.711-4.115,2.323-6.834
		c0.875-1.494,3.066-4.334,6.585-8.516c2.771-3.341,6.697-6.941,11.76-10.81c0.939-0.729,2.308-1.784,4.118-3.165
		c1.642-2.824,4.18-7.045,7.597-12.67c-3.937,4.119-7.306,6.369-10.115,6.738c-0.615,0.089-1.11-0.036-1.499-0.375
		c-0.387-0.335-0.55-0.768-0.485-1.288c0.127-1.204,0.919-3.032,2.372-5.482c1.064-1.804,2.032-3.244,2.904-4.321
		c0.325-0.418,0.693-0.772,1.111-1.067c0.265-0.184,0.532-0.239,0.825-0.166c0.033,0.092,0.076,0.2,0.145,0.325
		c0.131,0.347,0,0.808-0.385,1.39c-0.971,1.405-1.696,2.503-2.179,3.29c-1.226,1.98-2.081,3.667-2.568,5.063
		c-0.098,0.235-0.098,0.477,0,0.729c0.099,0.25,0.293,0.356,0.584,0.334c2.968-0.387,7.307-4.188,13.018-11.4
		c0.163-0.211,0.343-0.322,0.533-0.34c0.324-0.026,0.484,0.12,0.484,0.443c0,0.132-0.051,0.263-0.144,0.4
		c-2.485,4.026-5.889,9.663-10.217,16.918c2.262-1.651,4.956-3.63,8.089-5.937c2.612-1.905,4.612-3.52,6-4.837
		C244.265,106.793,244.356,106.762,244.459,106.824z M226.402,121.959c-0.52,0.4-1.231,0.944-2.134,1.639
		c-4.743,3.547-8.423,6.885-11.033,10.017c-1.774,2.088-3.616,4.577-5.522,7.454c-1.418,2.127-2.127,3.978-2.127,5.561
		c0,0.353,0.047,0.653,0.143,0.902c0.098,0.255,0.354,0.376,0.779,0.372c0.445-0.007,0.853-0.157,1.205-0.446
		c3.423-2.56,7.134-6.937,11.137-13.125C221.011,131.013,223.528,126.887,226.402,121.959z"/>
</g>
</svg>
