<?xml version="1.0" encoding="utf-8"?>
<!-- Generator: Adobe Illustrator 15.0.0, SVG Export Plug-In . SVG Version: 6.00 Build 0)  -->
<!DOCTYPE svg PUBLIC "-//W3C//DTD SVG 1.1//EN" "http://www.w3.org/Graphics/SVG/1.1/DTD/svg11.dtd">
<svg version="1.1" id="Layer_1" xmlns="http://www.w3.org/2000/svg" xmlns:xlink="http://www.w3.org/1999/xlink" x="0px" y="0px"
	 width="40px" height="31px" viewBox="0 0 40 31" enable-background="new 0 0 40 31" xml:space="preserve">
<g>
	<polygon fill="none" points="0.817,23.281 35.184,23.281 39.174,19.302 4.869,19.302 	"/>
	<polygon fill="none" points="0.822,11.691 35.104,11.691 39.177,7.611 4.925,7.611 	"/>
	<path fill="#FFFFFF" d="M8.381,14.693c0-0.298-0.242-0.458-0.545-0.458h-0.76v0.917h0.76C8.14,15.151,8.381,14.984,8.381,14.693z"
		/>
	<path fill="#FFFFFF" d="M13.42,14.235h-0.743v1.023h0.737c0.378,0,0.557-0.23,0.557-0.513
		C13.971,14.459,13.729,14.235,13.42,14.235z"/>
	<polygon fill="#FFFFFF" points="19.387,14.438 18.842,15.912 19.925,15.912 	"/>
	<path fill="#FFFFFF" d="M7.993,15.899H7.076v0.992l0.917-0.001c0.309,0,0.557-0.193,0.557-0.495
		C8.549,16.098,8.302,15.899,7.993,15.899z"/>
	<path fill="#FFFFFF" d="M31.921,14.245H31.13v2.639h0.791c0.762,0,1.367-0.609,1.367-1.319S32.683,14.245,31.921,14.245z"/>
	<path fill="#FFFFFF" d="M15.665,26.233c0-0.288-0.243-0.513-0.552-0.513H14.37v1.023h0.737
		C15.485,26.744,15.665,26.514,15.665,26.233z"/>
	<path fill="#FFFFFF" d="M33.424,3.26c0-0.287-0.241-0.511-0.551-0.511H32.13v1.023h0.737C33.244,3.772,33.424,3.542,33.424,3.26z"
		/>
	<path fill="#FFFFFF" d="M40,7.611V0H0.003v7.611H4.11l-4.104,4.081H0.003v0.003L0,11.697l0.003,0.002v7.603h4.052L0.006,23.28
		l0.001,0.001H0.003v7.611H40v-7.611h-3.996l3.99-3.979H40v-7.61h-4.076l4.072-4.081H40z M31.361,2.001H32.9
		c0.873,0,1.293,0.533,1.293,1.258c0,0.606-0.298,1.076-0.909,1.214l1.097,1.676h-0.9l-1.062-1.63h-0.292v1.63h-0.765V2.001z
		 M26.329,2.007h2.423V2.72h-1.653v0.961h1.598v0.713h-1.598v1.043h1.71v0.713h-2.479V2.007z M21.463,2.007h0.774v3.419h1.544v0.723
		h-2.318V2.007z M16.597,2.007h0.774v3.419h1.544v0.723h-2.318V2.007z M12.979,2.007h0.769v4.143h-0.769V2.007z M5.971,2.007h0.888
		l1.192,1.482l1.193-1.482h0.887v4.143H9.362V3.034L8.051,4.606L6.74,3.028v3.121H5.971V2.007z M4.684,29.17
		c-0.45-0.011-0.945-0.203-1.379-0.636l0.463-0.545c0.331,0.339,0.654,0.462,0.915,0.456c0.353-0.001,0.593-0.241,0.593-0.505
		c0-0.324-0.281-0.493-0.563-0.589l-0.333-0.12c-0.425-0.15-0.951-0.434-0.951-1.073c0-0.772,0.581-1.249,1.251-1.233
		c0.367,0.012,0.761,0.163,1.096,0.498L5.314,25.94c-0.233-0.208-0.457-0.292-0.634-0.28c-0.277,0.011-0.459,0.227-0.459,0.47
		c0,0.269,0.18,0.379,0.515,0.495l0.335,0.111c0.42,0.124,0.952,0.51,0.952,1.204C6.022,28.688,5.418,29.179,4.684,29.17z
		 M11.049,29.12h-2.48v-4.141h2.423v0.713H9.338v0.959h1.598v0.713H9.338v1.043h1.711V29.12z M15.721,29.121l-1.062-1.63h-0.293
		v1.63h-0.765v-4.147h1.541c0.873,0,1.293,0.532,1.293,1.26c0,0.604-0.299,1.075-0.909,1.212l1.096,1.676H15.721z M20.773,29.121
		h-0.827l-1.608-4.142h0.792l1.227,3.096l1.228-3.096h0.798L20.773,29.121z M25.694,29.121h-0.768v-4.142h0.768V29.121z
		 M30.569,28.429c0.286,0,0.564-0.091,0.794-0.251l0.531,0.536c-0.364,0.291-0.823,0.462-1.325,0.462
		c-1.173,0-2.143-0.936-2.143-2.124c0-1.19,0.97-2.127,2.143-2.127c0.503,0,0.964,0.174,1.325,0.468l-0.531,0.531
		c-0.229-0.158-0.508-0.245-0.794-0.245c-0.763,0-1.367,0.61-1.367,1.373C29.202,27.812,29.807,28.429,30.569,28.429z
		 M36.868,24.979v0.713h-1.653v0.959h1.598v0.713h-1.598v1.043h1.71v0.713h-2.479v-4.141H36.868z M39.174,19.302L39.174,19.302
		l-3.99,3.979H0.817l4.052-3.979H39.174z M9.359,16.45c0,0.658-0.534,1.186-1.192,1.186H6.284v-4.143h1.761
		c0.635,0,1.146,0.509,1.146,1.137c0,0.333-0.137,0.63-0.365,0.834C9.149,15.673,9.359,16.035,9.359,16.45z M14.928,17.636h-0.9
		l-1.062-1.632h-0.293v1.632h-0.765v-4.148h1.541c0.873,0,1.293,0.533,1.293,1.258c0,0.605-0.299,1.077-0.909,1.214L14.928,17.636z
		 M17.354,17.636l1.621-4.143h0.817l1.62,4.143h-0.809l-0.375-0.955H18.54l-0.375,0.955H17.354z M23.963,17.636v-4.143h0.887
		l1.894,2.933v-2.933h0.769v4.143h-0.888l-1.894-2.939v2.939H23.963z M30.36,17.636v-4.143h1.561c1.172,0,2.142,0.935,2.142,2.071
		c0,1.137-0.971,2.071-2.142,2.071H30.36z M35.104,11.691H0.822l4.104-4.081h34.251L35.104,11.691z"/>
	<polygon fill="#FFFFFF" points="39.175,19.302 39.174,19.302 35.184,23.281 	"/>
</g>
</svg>
