<?xml version="1.0" encoding="utf-8"?>
<!-- Generator: Adobe Illustrator 15.0.0, SVG Export Plug-In . SVG Version: 6.00 Build 0)  -->
<!DOCTYPE svg PUBLIC "-//W3C//DTD SVG 1.1//EN" "http://www.w3.org/Graphics/SVG/1.1/DTD/svg11.dtd">
<svg version="1.1" id="Layer_1" xmlns="http://www.w3.org/2000/svg" xmlns:xlink="http://www.w3.org/1999/xlink" x="0px" y="0px"
	 width="143px" height="58px" viewBox="0 0 143 58" enable-background="new 0 0 143 58" xml:space="preserve">
<g>
	<path fill="#FFFFFF" d="M132.875,23.229c0.006,0.004,0.013,0.007,0.02,0.011C132.951,23.274,132.919,23.254,132.875,23.229z"/>
	<path fill="#FFFFFF" d="M129.51,27.946c0.003,0.002,0.009,0.005,0.013,0.007c0.008,0.004,0.016,0.009,0.022,0.014
		C129.531,27.959,129.519,27.952,129.51,27.946z"/>
	<path fill="#FFFFFF" d="M129.51,27.946C129.49,27.935,129.496,27.938,129.51,27.946L129.51,27.946z"/>
	<path fill="#FFFFFF" d="M132.863,23.222C132.819,23.196,132.785,23.175,132.863,23.222L132.863,23.222z"/>
	<path fill="#FFFFFF" d="M107.37,29.74c-0.323,0.061-0.836,0.266-0.854-0.291c-0.009-0.333,0.604-0.72,0.706-1.09
		c0.147-0.541,0.35-0.898,0.624-1.379c0.218-0.385,0.169-0.816,0.396-1.181c0.014-0.03,0.042-0.071,0.086-0.124
		c5.607,1.495,11.216,3.397,16.468,5.871c-0.889,0.036-1.819-0.257-2.719-0.285c-1.008-0.034-2.029-0.151-3.033-0.252
		c-1.945-0.192-3.883-0.609-5.844-0.646c-0.907-0.016-1.919-0.207-2.816-0.361C109.529,29.854,108.228,29.576,107.37,29.74z"/>
	<path fill="#FFFFFF" d="M19.724,7.853c0.004-0.002,0.009-0.004,0.015-0.006C19.752,7.84,19.75,7.841,19.724,7.853z"/>
	<path fill="#FFFFFF" d="M19.707,7.862c0.006-0.004,0.01-0.005,0.015-0.009c0.001,0,0.002,0,0.002,0
		C19.718,7.857,19.712,7.858,19.707,7.862z"/>
	<path fill="#FFFFFF" d="M21.346,10.195C21.409,10.164,21.385,10.175,21.346,10.195L21.346,10.195z"/>
	<path fill="#FFFFFF" d="M21.308,10.213c0.005-0.002,0.01-0.006,0.016-0.008C21.278,10.227,21.243,10.243,21.308,10.213z"/>
	<path fill="#FFFFFF" d="M59.489,10.809c-0.026-0.089-0.201-0.541-0.237-0.62c-0.022-0.044-0.078-0.121-0.121-0.154
		c-0.042-0.033-0.091-0.038-0.129-0.034c-0.058,0.005-0.104,0.045-0.113,0.056c-0.045,0.04-0.064,0.143-0.079,0.217
		c-0.035,0.149-0.064,0.252-0.085,0.346c-0.02,0.092-0.021,0.192-0.04,0.304c-0.024,0.168-0.06,0.198-0.053,0.27
		c0.003,0.028,0.01,0.109,0.043,0.152c0.054,0.069,0.131,0.071,0.189,0.065c0.078-0.007,0.154-0.013,0.23-0.02
		c0.335-0.03,0.42-0.065,0.472-0.132c0.052-0.077,0.026-0.149,0.001-0.219C59.542,10.962,59.515,10.886,59.489,10.809z"/>
	<path fill="#FFFFFF" d="M34.536,15.226c-0.043-0.082-0.299-0.494-0.351-0.565c-0.031-0.04-0.101-0.104-0.148-0.129
		c-0.049-0.025-0.098-0.02-0.136-0.009c-0.058,0.015-0.095,0.064-0.103,0.075c-0.037,0.047-0.039,0.151-0.039,0.228
		c-0.007,0.154-0.018,0.26-0.021,0.356c-0.003,0.095,0.014,0.195,0.016,0.307c0.008,0.168-0.022,0.206-0.003,0.276
		c0.007,0.026,0.03,0.105,0.07,0.141c0.068,0.058,0.144,0.044,0.201,0.029c0.076-0.021,0.15-0.042,0.227-0.063
		c0.329-0.091,0.407-0.14,0.447-0.217c0.036-0.085-0.001-0.151-0.04-0.215C34.616,15.369,34.576,15.297,34.536,15.226z"/>
	<path fill="#FFFFFF" d="M19.722,7.854c0.006-0.002,0.012-0.004,0.017-0.007c-0.005,0.002-0.01,0.004-0.015,0.006
		C19.724,7.854,19.723,7.854,19.722,7.854z"/>
	<path fill="#FFFFFF" d="M19.653,7.886c0.01-0.004,0.02-0.009,0.03-0.013C19.642,7.892,19.611,7.907,19.653,7.886z"/>
	<path fill="#FFFFFF" d="M68.142,10.475c-0.036-0.298,0.006-0.592,0.002-0.783c0.002-0.317-0.078-0.427-0.369-0.42
		c-0.076,0.002-0.149,0.004-0.224,0.005c-0.117,0.004-0.175-0.022-0.281,0.071c-0.075,0.067-0.094,0.122-0.1,0.205
		c-0.004,0.19-0.008,0.382-0.013,0.574c-0.006,0.09-0.034,0.192-0.05,0.284c-0.023,0.164-0.016,0.438-0.059,0.594
		c-0.018,0.064-0.036,0.119-0.052,0.183c-0.008,0.054-0.017,0.1-0.034,0.156c-0.061,0.203,0.007,0.246,0.076,0.271
		c0.037,0.018,0.125,0.042,0.172,0.041c0.201-0.005,0.402-0.011,0.603-0.016c0.077-0.002,0.237-0.051,0.284-0.116
		c0.046-0.056,0.052-0.229,0.051-0.293c-0.002-0.085-0.003-0.17-0.006-0.254C68.14,10.831,68.176,10.712,68.142,10.475z"/>
	<path fill="#FFFFFF" d="M109.618,15.04c-0.151-0.14-0.488-0.368-0.699-0.425c-0.046-0.013-0.153-0.035-0.216-0.032
		c-0.082,0.004-0.227,0.041-0.334,0.059c-0.106,0.017-0.237,0.009-0.343,0.057c-0.104,0.046-0.242,0.171-0.303,0.248
		c-0.061,0.069-0.192,0.26-0.214,0.33c-0.057,0.211-0.025,0.314-0.008,0.357c0.155,0.437,0.15,0.446,0.315,0.614
		c0.08,0.08,0.201,0.188,0.437,0.252c0.103,0.029,0.259,0.052,0.362,0.073c0.162,0.037,0.308,0.095,0.52-0.005
		c0.116-0.053,0.421-0.229,0.519-0.316c0.101-0.095,0.167-0.217,0.191-0.305c0.055-0.184,0.028-0.409-0.002-0.513
		C109.798,15.241,109.709,15.121,109.618,15.04z"/>
	<path fill="#FFFFFF" d="M133.881,16.225c1.095,0.421,2.296,0.942,3.304,1.538c0.504,0.297,1.053,0.515,1.584,0.765
		c0.053-0.821-0.162-1.63-0.915-2.082c-0.994-0.599-2.137-1.309-3.232-1.682c-1.367-0.464-2.693-1.195-4.029-1.76
		c-1.247-0.526-2.503-1.029-3.735-1.581c-1.321-0.591-2.799-0.958-4.164-1.434c-1.277-0.444-2.53-0.961-3.819-1.372
		c-0.748-0.235-1.544-0.383-2.27-0.671c-0.635-0.251-1.352-0.253-1.958-0.542c-1.254-0.595-2.65-0.543-3.929-1.032
		c-1.302-0.497-2.891-0.823-4.276-1.033c-1.338-0.202-2.62-0.759-3.978-0.818c-0.78-0.033-1.545-0.396-2.311-0.533
		c-0.66-0.119-1.344-0.198-2.01-0.308c-1.324-0.22-2.685-0.423-4.018-0.607c-1.46-0.202-2.925-0.276-4.37-0.55
		c-0.681-0.13-1.364,0.002-2.029-0.142c-0.654-0.143-1.348-0.252-2.021-0.245c-0.799,0.01-1.589,0.005-2.367-0.181
		c-0.645-0.154-1.369-0.008-2.034-0.077c-1.346-0.139-2.753-0.006-4.065-0.217c-0.733-0.119-1.621,0.012-2.376,0.001
		c-0.677-0.008-1.36-0.019-2.037-0.019c-1.364,0-2.667-0.033-4.05-0.023c-1.442,0.008-2.994-0.139-4.418,0.074
		c-1.362,0.204-2.706,0.044-4.07,0.163C54.646,2.348,49.022,2.792,43.439,3.71c-2.783,0.46-5.549,1.098-8.304,1.701
		c-2.752,0.603-5.475,1.411-8.234,2c-0.746,0.159-1.529,0.479-2.264,0.702c-0.647,0.196-1.317,0.338-1.959,0.543
		c-1.292,0.416-2.553,0.93-3.821,1.385c-2.684,0.959-5.213,2.085-7.819,3.222c-1.352,0.59-2.743,1.034-3.971,1.885
		c-1.033,0.716-2.078,1.099-2.14,2.387c0.348-0.163,0.721-0.271,1.05-0.473c1.027-0.63,2.215-1.05,3.311-1.555
		c1.146-0.53,2.341-0.986,3.517-1.444c0.311-0.12,3.305-1.095,3.305-1.121c0,0.228-2.487,1.25-2.806,1.385
		c-1.05,0.444-2.005,1.108-3.033,1.604c-1.773,0.856-3.479,1.963-5.148,3.03c0.128,0.476,0.312,0.936,0.522,1.384
		c0.809-0.413,1.618-0.824,2.437-1.212c-0.046,0.023-0.085,0.041,0.01-0.004c0.097-0.045,0.059-0.028,0.011-0.005
		c0.88-0.411,9.597-4.081,9.675-3.82c0.047,0.16-3.111,1.485-3.452,1.664c-1.207,0.635-2.371,1.412-3.608,1.981
		c-1.225,0.565-2.391,1.379-3.538,2.086c-0.181,0.112-0.52,0.408-0.844,0.618c0.075,0.132,0.152,0.265,0.229,0.396
		c0.156,0.268,0.322,0.532,0.489,0.793c0.177-0.083,0.352-0.168,0.527-0.25c0.72-0.337,1.43-0.695,2.148-1.035
		c-0.042,0.019-0.011,0.004,0.03-0.014c-0.01,0.004-0.02,0.009-0.03,0.014c0.01-0.004,0.019-0.009,0.037-0.017
		c0.017-0.008,0.023-0.012,0.033-0.016c-0.005,0.002-0.01,0.004-0.017,0.007c0.006-0.003,0.013-0.005,0.02-0.008
		c0.026-0.013,0.027-0.013,0.013-0.008c3.109-1.465,6.251-2.878,9.546-3.901c0.148,0.027-0.809,0.506-0.902,0.539
		c-0.435,0.155-0.811,0.417-1.238,0.589c-0.728,0.29-1.456,0.706-2.149,1.074c-1.412,0.749-2.814,1.526-4.19,2.34
		C10.1,22.619,9.321,23.1,8.548,23.582c-0.213,0.132-0.439,0.344-0.652,0.494c0.262,0.37,0.529,0.735,0.8,1.097
		c0.169-0.093,0.34-0.182,0.519-0.26c0.737-0.319,1.445-0.688,2.17-1.033c-0.064,0.031-0.03,0.014,0.016-0.007
		c-0.006,0.002-0.011,0.004-0.016,0.007c0.007-0.003,0.01-0.004,0.021-0.01c0.009-0.004,0.011-0.004,0.018-0.007
		c0.04-0.019,0.063-0.03,0,0c-0.004,0.002-0.008,0.003-0.013,0.005c1.666-0.786,3.349-1.534,5.055-2.233
		c0.414-0.17,4.591-1.638,4.593-1.632c0.033,0.303-1.936,0.901-2.201,1.067c-0.67,0.417-1.437,0.722-2.137,1.095
		c-1.414,0.75-2.8,1.546-4.177,2.362c-0.788,0.468-1.555,0.953-2.331,1.435c-0.208,0.129-0.419,0.252-0.628,0.376
		c0.3,0.387,0.606,0.767,0.915,1.142c0.129-0.056,0.256-0.114,0.382-0.178c0.719-0.363,1.433-0.723,2.16-1.068
		c-0.047,0.021-0.081,0.038,0.014-0.007c0.07-0.034,0.067-0.032,0.043-0.021c1.651-0.779,3.311-1.548,5.006-2.238
		c0.454-0.187,4.598-1.513,4.6-1.624c-0.005,0.315-1.896,0.93-2.199,1.08c-0.717,0.356-1.432,0.716-2.14,1.092
		c-1.417,0.751-2.801,1.543-4.177,2.362c-0.786,0.464-1.563,0.938-2.338,1.421c-0.145,0.09-0.287,0.184-0.43,0.275
		c0.101,0.118,0.2,0.236,0.306,0.354c0.221,0.25,0.426,0.521,0.635,0.787c3.845-1.939,7.82-3.754,11.942-5.025
		c0.008,0.001,0.008,0.003,0.007,0.006c0.029,0.062-1.006,0.593-1.205,0.685c-0.626,0.287-1.243,0.563-1.862,0.876
		c-1.124,0.569-2.229,1.162-3.315,1.799c-1.1,0.646-2.218,1.246-3.305,1.913c-0.439,0.268-0.87,0.544-1.303,0.82
		c0.368,0.431,0.836,1.042,1.202,0.854c2.498-1.279,4.995-2.625,7.658-3.554c2.65-0.925,5.236-1.974,7.92-2.792
		c2.681-0.815,5.396-1.529,8.121-2.121c5.463-1.183,10.99-2.182,16.562-2.779c5.492-0.582,11.05-0.798,16.562-0.798
		c4.202,0,8.386,0.071,12.575,0.399c1.118,0.088,2.232,0.235,3.354,0.303c0.944,0.057,2.098,0.106,3.011,0.348
		c1.941,0.515,4.035,0.375,5.992,0.854c2.714,0.664,5.554,0.876,8.238,1.66c2.693,0.787,5.421,1.388,8.103,2.204
		c1.347,0.412,2.918,0.641,4.169,1.32c1.176,0.639,2.56,0.815,3.771,1.431c0.714,0.362,1.479,0.494,2.185,0.873
		c0.592,0.316,1.218,0.572,1.82,0.867c1.161,0.565,2.443,1.009,3.532,1.701c0.466,0.297,0.474,0.174,0.88-0.197
		c0.087-0.078,0.165-0.158,0.246-0.237c-0.044-0.029-0.093-0.062-0.149-0.097c-0.478-0.295-0.935-0.667-1.44-0.909
		c-0.978-0.467-2.094-1.065-2.979-1.692c-0.484-0.342-5.772-3.097-5.853-2.966c0.289-0.477,5.584,2.06,6.195,2.289
		c1.778,0.667,3.498,1.536,5.198,2.391c0.308-0.277,0.631-0.541,0.939-0.806c0.101-0.084,0.199-0.18,0.299-0.269
		c-0.03-0.021-0.06-0.044-0.094-0.066c-0.581-0.365-1.195-0.673-1.783-1.026c-0.015-0.009-0.021-0.013-0.029-0.018
		c-1.562-0.936-3.123-1.841-4.733-2.698c-0.417-0.221-4.38-2.092-4.351-2.167c0.202-0.53,9.535,3.822,12.002,5.011
		c0.359-0.367,0.705-0.746,1.031-1.124c-0.101-0.057-0.201-0.115-0.299-0.182c-0.632-0.431-1.307-0.8-1.962-1.192
		c0.009,0.006,0.02,0.012,0.027,0.017c-0.008-0.004-0.014-0.008-0.027-0.017c-1.568-0.94-3.146-1.86-4.764-2.719
		c-0.416-0.222-4.256-2.241-4.358-2.118c0.213-0.254,2.04,0.633,2.357,0.717c0.76,0.199,1.533,0.562,2.26,0.86
		c1.492,0.611,2.964,1.282,4.425,1.962c0.733,0.34,1.478,0.656,2.205,1.01c0.257,0.125,0.76,0.291,1.102,0.508
		c0.296-0.352,0.597-0.705,0.893-1.06c-0.14-0.093-0.282-0.185-0.431-0.265c-0.692-0.382-1.331-0.85-2.005-1.257
		c-0.009-0.004-0.013-0.006-0.024-0.013c-0.003-0.002-0.003-0.002-0.007-0.005v0.001c-1.566-0.94-3.171-1.802-4.785-2.662
		c-0.401-0.212-4.234-2.308-4.334-2.159c0.229-0.342,4.145,1.389,4.613,1.581c1.493,0.608,2.974,1.265,4.433,1.944
		c0.84,0.391,1.647,0.832,2.477,1.241c0.326,0.16,0.652,0.307,0.979,0.464c0.294-0.38,0.579-0.766,0.849-1.163
		c-0.172-0.124-0.343-0.244-0.537-0.341c-0.711-0.352-1.356-0.849-2.034-1.257c0.047,0.029,0.095,0.058-0.001-0.001
		c-0.097-0.057-0.053-0.03-0.003,0c-0.8-0.479-8.997-5.075-9.135-4.825c0.297-0.542,8.226,3.164,9.046,3.546
		c0.839,0.391,1.665,0.792,2.496,1.204c0.306,0.151,0.611,0.299,0.915,0.45c0.233-0.428,0.438-0.873,0.612-1.332
		c-0.814-0.49-2.135-1.259-2.305-1.361c-0.092-0.055-0.056-0.033-0.011-0.005c-0.812-0.486-8.997-5.07-9.098-4.86
		C127.224,13.303,133.255,15.984,133.881,16.225z M29.965,19.822c-0.084,0.112-0.229,0.167-0.32,0.197
		c-0.037,0.012-0.064,0.021-0.101,0.032c-0.056,0.018-0.113,0.027-0.168,0.045c-0.277,0.081-0.384,0.096-0.528,0.152
		c-0.207,0.081-0.413,0.161-0.62,0.242c-0.207,0.078-0.332,0.073-0.426,0.037c-0.118-0.047-0.157-0.13-0.178-0.191
		c-0.047-0.144-0.093-0.289-0.14-0.434c-0.035-0.104-0.096-0.218-0.129-0.285c-0.011-0.033-0.02-0.059-0.032-0.094
		c-0.01-0.025-0.01-0.055-0.017-0.082c-0.003-0.008-0.01-0.025-0.014-0.035c-0.02-0.059-0.034-0.132-0.055-0.191
		c-0.039-0.143-0.104-0.273-0.143-0.415c-0.021-0.073-0.043-0.145-0.064-0.218c-0.062-0.21-0.168-0.186-0.205-0.171
		c-0.038,0.013-0.082,0.065-0.149,0.165c-0.095,0.148-0.076,0.142-0.148,0.262c-0.026,0.045-0.053,0.089-0.079,0.133
		c-0.182,0.312-0.22,0.375-0.286,0.397c-0.101,0.035-0.227,0-0.296-0.015c-0.06-0.011-0.119-0.022-0.179-0.035
		c-0.054-0.009-0.116-0.035-0.36-0.163c-0.073-0.032-0.143-0.076-0.253-0.036c-0.045,0.015-0.135,0.057-0.086,0.194
		c0.01,0.026,0.047,0.1,0.069,0.131c0.021,0.03,0.04,0.053,0.058,0.105c0.055,0.148,0.108,0.297,0.163,0.445
		c0.049,0.136,0.064,0.151,0.136,0.348c0.084,0.231-0.014,0.103,0.056,0.271c0.064,0.156,0.127,0.31,0.19,0.465
		c0.041,0.111,0,0.252-0.209,0.326c-0.177,0.06-0.354,0.119-0.531,0.181c-0.055,0.019-0.106,0.047-0.161,0.067
		c-0.027,0.01-0.055,0.02-0.082,0.03c-0.037,0.013-0.063,0.022-0.1,0.036c-0.073,0.026-0.14,0.041-0.214,0.068
		c-0.081,0.029-0.163,0.059-0.244,0.088c-0.155,0.058-0.187,0.08-0.352,0.14c-0.145,0.054-0.273,0.072-0.419-0.01
		c-0.118-0.063-0.186-0.183-0.232-0.303c-0.062-0.163-0.096-0.383-0.145-0.54c-0.022-0.077-0.045-0.152-0.067-0.228
		c-0.064-0.22-0.091-0.347-0.141-0.473c-0.048-0.129-0.123-0.266-0.178-0.382c-0.036-0.094-0.091-0.209-0.16-0.388
		c-0.15-0.393-0.142-0.454-0.262-0.798c-0.049-0.127-0.094-0.247-0.144-0.375c-0.023-0.06-0.046-0.119-0.069-0.179
		c-0.022-0.059-0.041-0.11-0.065-0.171c-0.022-0.059-0.038-0.13-0.062-0.19c-0.019-0.051-0.042-0.111-0.062-0.162
		c-0.185-0.456-0.132-0.233-0.301-0.619c-0.027-0.061-0.053-0.123-0.08-0.184c-0.088-0.2-0.1-0.431-0.017-0.558
		c0.059-0.101,0.211-0.186,0.348-0.227c0.167-0.052,0.335-0.104,0.504-0.156c0.241-0.077,0.336-0.083,0.587-0.192
		c0.138-0.06,0.241-0.106,0.365-0.15c0.237-0.084,0.359-0.08,0.485-0.026c0.139,0.057,0.235,0.147,0.368,0.247
		c0.147,0.113,0.289,0.18,0.567,0.304c0.238,0.101,0.219,0.107,0.284,0.142c0.038,0.017,0.166,0.079,0.223,0.088
		c0.046,0.013,0.113,0.018,0.15,0.006c0.15-0.052,0.266-0.39,0.367-0.772c0.021-0.063,0.107-0.401,0.201-0.625
		c0.124-0.291,0.262-0.356,0.367-0.391c0.019-0.006,0.039-0.014,0.058-0.02c0.194-0.054,0.07-0.013,0.312-0.083
		c0.057-0.019,0.115-0.037,0.172-0.056c0.066-0.022,0.141-0.057,0.208-0.079c0.028-0.008,0.047-0.016,0.076-0.025
		c0.216-0.076,0.43-0.152,0.646-0.228c0.256-0.092,0.474-0.074,0.578-0.011c0.056,0.04,0.127,0.131,0.146,0.193
		c0.006,0.016,0.009,0.026,0.015,0.042c0.032,0.134,0.04,0.188,0.055,0.271c0.018,0.076,0.036,0.154,0.053,0.231
		c0.028,0.099,0.057,0.198,0.084,0.297c0.004,0.01,0.021,0.062,0.03,0.086c0.021,0.072,0.05,0.129,0.073,0.198
		c0.008,0.025,0.014,0.043,0.023,0.069c0.05,0.147,0.101,0.293,0.151,0.44c0.096,0.266,0.148,0.556,0.226,0.827
		c0.058,0.211,0.122,0.411,0.199,0.617c0.151,0.439,0.187,0.514,0.259,0.71c0.033,0.066,0.052,0.127,0.075,0.198
		c0.044,0.137,0.083,0.287,0.138,0.424c0.065,0.171,0.131,0.341,0.197,0.512C30.014,19.471,30.056,19.698,29.965,19.822z
		 M39.624,9.467c0.017-0.06,0.035-0.072,0.104-0.088c0.068-0.016,0.068-0.016,0.109-0.015c0.02-0.005,0.039-0.009,0.061-0.005
		c0.022,0.005,0.054,0.007,0.073,0.002c0.053-0.008,0.106-0.016,0.159-0.025c0.081-0.008,0.161-0.063,0.417-0.119
		c0.059-0.013,0.107-0.033,0.173-0.011c0.044,0.018,0.071,0.042,0.098,0.072c0.092,0.092,0.153,0.181,0.702,0.063
		c0.177-0.037,0.417-0.114,0.444-0.129c0.076-0.024,0.11-0.061,0.137-0.084c0.075-0.081-0.004-0.063,0.041-0.148
		c0.009-0.017,0.02-0.035,0.03-0.053c0.038-0.062,0.087-0.073,0.136-0.083c0.02-0.003,0.049-0.01,0.068-0.015
		c0.099-0.02,0.201-0.021,0.309-0.043c0.091-0.021,0.183-0.043,0.274-0.065c0.077-0.021,0.155-0.043,0.232-0.065
		c0.136-0.036,0.172,0.04,0.181,0.084c0.004,0.019,0.009,0.044,0.012,0.063c0.038,0.289,0.028,0.393-0.018,0.523
		c-0.154,0.458-0.427,0.559-0.757,0.682c-0.225,0.093-0.412,0.178-0.879,0.275c-0.507,0.107-0.943,0.12-1.18,0.115
		c-0.194-0.003-0.345-0.037-0.638-0.287c-0.063-0.061-0.233-0.218-0.302-0.511C39.601,9.547,39.611,9.507,39.624,9.467z
		 M38.26,17.401c-0.026,0.091-0.066,0.167-0.323,0.241c-0.028,0.007-0.047,0.012-0.075,0.018c-0.037,0.01-0.076,0.01-0.113,0.02
		c-0.038,0.01-0.064,0.017-0.102,0.026c-0.188,0.045-0.377,0.091-0.567,0.137c-0.392,0.091-0.629,0.201-0.747,0.204
		c-0.071,0-0.195-0.023-0.327-0.178c-0.038-0.043-0.077-0.085-0.115-0.129c-0.084-0.09-0.157-0.175-0.33-0.186
		c-0.245-0.019-0.434,0.127-0.689,0.179c-0.107,0.022-0.214,0.045-0.32,0.069c-0.197,0.045-0.228,0.044-0.283,0.06
		c-0.084,0.023-0.192,0.064-0.229,0.149c-0.006,0.011-0.003,0.021-0.01,0.032c-0.007,0.012-0.011,0.031-0.018,0.043
		c-0.025,0.095-0.051,0.191-0.076,0.287c-0.042,0.163-0.045,0.221-0.075,0.258c-0.027,0.045-0.108,0.106-0.152,0.129
		c-0.043,0.022-0.092,0.026-0.137,0.039c-0.316,0.082-0.061,0.036-0.429,0.143c-0.065,0.018-0.129,0.037-0.193,0.056
		c-0.183,0.047-0.366,0.094-0.549,0.143c-0.213,0.054-0.469,0.169-0.669,0.077c-0.093-0.04-0.195-0.141-0.253-0.333
		c-0.028-0.087-0.037-0.18-0.034-0.268c0.007-0.107,0.028-0.17,0.021-0.357c-0.006-0.113-0.022-0.298-0.009-0.655
		c0-0.163,0.013-0.318,0.021-0.396c0.005-0.183-0.003-0.21,0.01-0.537c0.009-0.307,0.019-0.548,0-0.78
		c-0.025-0.287-0.078-0.394-0.037-0.91c0.009-0.12,0.019-0.241,0.028-0.36c0.013-0.194-0.013-0.669,0.006-1.027
		c0.001-0.067,0.025-0.301,0.166-0.465c0.108-0.126,0.27-0.182,0.459-0.246c0.499-0.16,0.143-0.013,0.542-0.154
		c0.067-0.018,0.142-0.049,0.209-0.067c0.077-0.021,0.142-0.049,0.22-0.07c0.099-0.026,0.201-0.05,0.301-0.074
		c0.056-0.013,0.111-0.025,0.166-0.036c0.158-0.033,0.507-0.128,0.631-0.161c0.097-0.026,0.201-0.064,0.297-0.091
		c0.126-0.034,0.382-0.082,0.6-0.007c0.203,0.07,0.314,0.257,0.442,0.468c0.031,0.054,0.063,0.109,0.095,0.164
		c0.059,0.106,0.138,0.208,0.213,0.302c0.12,0.148,0.243,0.305,0.338,0.468c0.062,0.109,0.125,0.219,0.186,0.328
		c0.099,0.183,0.112,0.198,0.134,0.24c0.014,0.015,0.026,0.029,0.042,0.045c0.057,0.06,0.028,0.03,0.124,0.166
		c0.021,0.029,0.042,0.058,0.063,0.086c0.034,0.057,0.072,0.122,0.308,0.571c0.124,0.242,0.176,0.332,0.357,0.605
		c0.033,0.048,0.065,0.096,0.098,0.145c0.175,0.255,0.288,0.538,0.443,0.8c0.021,0.042,0.051,0.08,0.083,0.129
		c0.051,0.082,0.081,0.121,0.122,0.167c0.062,0.088,0.12,0.196,0.128,0.231c0.004,0.017,0.011,0.044,0.015,0.061
		C38.286,17.272,38.3,17.289,38.26,17.401z M46.104,15.709c-0.038,0.063-0.127,0.144-0.258,0.17
		c-0.246,0.043-0.492,0.087-0.739,0.132c-0.159,0.031-0.193,0.056-0.919,0.202c-0.177,0.036-0.247,0.031-0.334-0.016
		c-0.065-0.034-0.113-0.079-0.137-0.194c-0.012-0.055-0.012-0.1-0.013-0.155c-0.004-0.064-0.007-0.129-0.021-0.192
		c-0.001-0.008-0.006-0.027-0.013-0.062c-0.011-0.053-0.022-0.108-0.033-0.161c-0.014-0.047-0.027-0.094-0.04-0.141
		c-0.038-0.132-0.091-0.389-0.112-0.488c-0.019-0.089-0.018-0.182-0.037-0.271c-0.011-0.054-0.021-0.107-0.033-0.161
		c-0.043-0.206-0.146-0.269-0.202-0.257c-0.009,0.003-0.048,0.01-0.16,0.09c-0.119,0.089-0.232,0.438-0.292,0.572
		c-0.068,0.145-0.137,0.281-0.205,0.426c-0.062,0.125-0.112,0.256-0.172,0.382c-0.042,0.083-0.081,0.167-0.11,0.257
		c-0.029,0.089-0.049,0.178-0.09,0.261c-0.196,0.435-0.086,0.401-0.295,0.559c-0.074,0.063-0.109,0.079-0.425,0.15
		c-0.034,0.007-0.068,0.015-0.102,0.023c-0.111,0.025-0.244,0.045-0.348,0.06c-0.132,0.02-0.179,0.033-0.262,0.052
		c-0.059,0.013-0.118,0.026-0.178,0.04c-0.046,0.011-0.071,0.026-0.144,0.052c-0.092,0.021-0.118,0.036-0.165,0.048
		c-0.009,0.002-0.009,0.002-0.018,0.003c-0.064,0.017-0.132,0.021-0.271-0.021c-0.088-0.045-0.154-0.113-0.187-0.208
		c-0.004-0.018-0.011-0.044-0.016-0.062c-0.002-0.009-0.004-0.018-0.006-0.026c-0.006-0.028-0.002-0.056-0.01-0.083
		c-0.006-0.064-0.003-0.139-0.019-0.201c-0.011-0.063-0.022-0.126-0.035-0.188c-0.002-0.009-0.002-0.009-0.004-0.018
		c-0.039-0.159-0.075-0.31-0.113-0.469c-0.068-0.283-0.156-0.562-0.223-0.847c-0.002-0.008-0.006-0.026-0.009-0.034
		c-0.017-0.072-0.027-0.154-0.079-0.413c-0.036-0.235-0.042-0.299-0.062-0.378c-0.064-0.266-0.064-0.144-0.147-0.453
		c-0.013-0.051-0.023-0.096-0.036-0.15c-0.017-0.07-0.046-0.147-0.063-0.219c-0.03-0.125-0.046-0.279-0.082-0.43
		c-0.015-0.062-0.03-0.123-0.044-0.186c-0.103-0.386-0.222-0.63-0.272-0.879c-0.023-0.145-0.043-0.394,0.057-0.538
		c0.096-0.154,0.266-0.175,0.402-0.206c0.048-0.012,0.097-0.023,0.145-0.034c0.176-0.042,0.261-0.07,0.321-0.074
		c0.05-0.006,0.1-0.011,0.15-0.016c0.03-0.007,0.058-0.012,0.088-0.02c0.038-0.009,0.089-0.011,0.128-0.019
		c0.165-0.037,0.07-0.055,0.381-0.124c0.065-0.015,0.129-0.029,0.195-0.042c0.048-0.011,0.196-0.034,0.339,0.018
		c0.077,0.021,0.191,0.079,0.25,0.299c0.003,0.019,0.009,0.045,0.013,0.063c0.02,0.135,0.031,0.282,0.084,0.522
		c0.05,0.225,0.1,0.45,0.148,0.675c0.011,0.044,0.031,0.096,0.032,0.143c0.004,0.018-0.001,0.046,0.004,0.064
		c0.008,0.035,0.017,0.08,0.026,0.114c0.015,0.072,0.039,0.179,0.173,0.15c0.028-0.006,0.113-0.033,0.13-0.046
		c0.097-0.059,0.263-0.447,0.305-0.588c0.023-0.079,0.044-0.167,0.077-0.249c0.035-0.072,0.08-0.148,0.115-0.219
		c0.048-0.104,0.076-0.211,0.113-0.321c0.037-0.11,0.086-0.261,0.134-0.373c0.194-0.431,0.148-0.458,0.326-0.625
		c0.119-0.109,0.203-0.145,0.438-0.191c0.224-0.045,0.208-0.023,0.373-0.056c0.098-0.02,0.525-0.113,0.7-0.156
		c0.155-0.039,0.469-0.137,0.682-0.027c0.157,0.082,0.217,0.293,0.243,0.428c0.064,0.339-0.025,0.514,0.063,0.867
		c0.062,0.252,0.121,0.503,0.182,0.754c0.215,0.868,0.238,1.041,0.271,1.219c0.06,0.335,0.121,0.669,0.181,1.004
		c0.066,0.349,0.164,0.701,0.268,1.044c0.008,0.044,0.025,0.087,0.033,0.132C46.166,15.521,46.148,15.636,46.104,15.709z
		 M54.793,14.303c-0.082,0.185-0.249,0.215-0.325,0.226c-0.094,0.011-0.197,0.023-0.291,0.036c-0.413,0.051-0.499,0.046-0.595,0.048
		c-0.066,0.009-0.083,0.011-0.122,0.017c-0.075,0.01-0.15,0.019-0.225,0.029c-0.169,0.023-0.379,0.087-0.529,0.108
		c-0.123,0.017-0.301,0.042-0.381,0.017c-0.19-0.067-0.361-0.317-0.467-0.45c-0.054-0.065-0.108-0.131-0.163-0.197
		c-0.141-0.173-0.053-0.103-0.539-0.51c-0.22-0.18-0.254-0.211-0.286-0.225c-0.041-0.022-0.121-0.038-0.168-0.031
		c-0.133,0.021-0.194,0.131-0.207,0.17c-0.073,0.158-0.053,0.341-0.044,0.404c0.015,0.096,0.03,0.191,0.045,0.288
		c0.059,0.378,0.061,0.147,0.112,0.472c0.012,0.079,0.022,0.207-0.024,0.279c-0.069,0.111-0.256,0.141-0.415,0.176
		c-0.046,0.007-0.102,0.015-0.148,0.022c-0.19,0.021-0.296,0.021-0.389,0.035c-0.2,0.032-0.399,0.064-0.599,0.098
		c-0.112,0.018-0.173,0.055-0.351,0.085c-0.066,0.011-0.168,0.028-0.26-0.002c-0.183-0.061-0.239-0.265-0.262-0.398
		c-0.007-0.037-0.013-0.073-0.02-0.108c-0.061-0.406-0.034-0.42-0.068-0.616c-0.027-0.141-0.055-0.281-0.083-0.421
		c-0.022-0.135-0.046-0.269-0.069-0.403c-0.014-0.082-0.026-0.152-0.041-0.233c-0.049-0.231-0.111-0.471-0.15-0.705
		c-0.032-0.179-0.062-0.525-0.218-1.422c-0.011-0.066-0.022-0.132-0.033-0.198c-0.147-0.851-0.148-0.455-0.233-0.949
		c-0.021-0.116-0.006-0.267,0.048-0.358c0.031-0.051,0.105-0.148,0.271-0.175c0.088-0.014,0.187-0.023,0.275-0.038
		c0.049-0.007,0.107-0.018,0.156-0.025c0.063-0.01,0.124-0.021,0.187-0.03c0.106-0.02,0.204-0.043,0.309-0.07
		c0.261-0.06,0.527-0.094,0.803-0.128c0.166-0.025,0.218-0.016,0.305,0.027c0.088,0.05,0.135,0.098,0.157,0.242
		c0.001,0.01,0.001,0.009,0.003,0.018c0.001,0.009,0.003,0.017,0.003,0.027c0.014,0.09-0.013,0.113-0.003,0.166
		c0.015,0.098,0.029,0.193,0.044,0.289c0.033,0.215,0.022,0.272,0.045,0.426c0.026,0.161,0.051,0.205,0.064,0.22
		c0.042,0.076,0.118,0.11,0.174,0.102c0.107-0.016,0.17-0.117,0.228-0.199c0.232-0.358,0.212-0.437,0.277-0.539
		c0.08-0.132,0.057-0.008,0.198-0.342c0.03-0.067,0.069-0.139,0.099-0.208c0.039-0.079,0.066-0.167,0.104-0.246
		c0.031-0.059,0.103-0.188,0.166-0.234c0.045-0.034,0.113-0.053,0.159-0.069c0.174-0.043,0.333-0.056,1.009-0.148
		c0.21-0.028,0.419-0.056,0.627-0.083c0.099-0.013,0.193-0.052,0.321-0.068c0.186-0.023,0.267-0.024,0.318-0.003
		c0.054,0.021,0.141,0.092,0.16,0.247c0.011,0.071,0.011,0.246-0.279,0.769c-0.08,0.147-0.123,0.198-0.253,0.417
		c-0.169,0.289-0.266,0.532-0.393,0.76c-0.105,0.19-0.21,0.381-0.315,0.575c-0.023,0.049-0.075,0.165,0.008,0.274
		c0.294,0.301,0.288,0.247,0.474,0.479c0.142,0.175,0.24,0.326,0.372,0.447c0.043,0.041,0.086,0.072,0.13,0.112
		c0.065,0.056,0.13,0.111,0.197,0.167c0.066,0.065,0.222,0.229,0.293,0.321c0.209,0.294,0.139,0.266,0.302,0.411
		c0.064,0.056,0.032,0.024,0.151,0.138c0.153,0.147,0.361,0.278,0.384,0.468C54.833,14.152,54.815,14.246,54.793,14.303z
		 M62.707,13.621c-0.042,0.084-0.094,0.153-0.357,0.179c-0.028,0.002-0.047,0.002-0.076,0.004c-0.037,0.002-0.076-0.003-0.113-0.001
		c-0.038,0.003-0.067,0.005-0.104,0.008c-0.19,0.009-0.382,0.019-0.574,0.03c-0.396,0.019-0.647,0.085-0.762,0.066
		c-0.068-0.013-0.185-0.059-0.284-0.234c-0.03-0.048-0.06-0.098-0.088-0.147c-0.066-0.105-0.12-0.2-0.285-0.242
		c-0.234-0.063-0.445,0.047-0.701,0.05c-0.109,0.003-0.216,0.007-0.323,0.01c-0.199,0.009-0.229,0.002-0.286,0.007
		c-0.084,0.008-0.197,0.028-0.248,0.106c-0.008,0.009-0.007,0.019-0.015,0.028c-0.009,0.01-0.016,0.029-0.025,0.04
		c-0.042,0.088-0.084,0.179-0.126,0.269c-0.072,0.153-0.084,0.208-0.12,0.24c-0.035,0.039-0.125,0.083-0.17,0.099
		c-0.046,0.013-0.095,0.009-0.141,0.013c-0.321,0.023-0.064,0.023-0.441,0.062c-0.064,0.007-0.131,0.012-0.196,0.02
		c-0.186,0.014-0.372,0.026-0.557,0.041c-0.217,0.013-0.486,0.079-0.662-0.047c-0.083-0.055-0.163-0.173-0.186-0.373
		c-0.01-0.091-0.002-0.183,0.017-0.268c0.027-0.103,0.059-0.164,0.085-0.348c0.017-0.112,0.033-0.297,0.109-0.644
		c0.031-0.16,0.072-0.31,0.093-0.386c0.038-0.178,0.035-0.207,0.106-0.525c0.064-0.3,0.117-0.533,0.141-0.766
		c0.028-0.286-0.003-0.403,0.129-0.901c0.031-0.116,0.06-0.232,0.091-0.349c0.048-0.187,0.107-0.661,0.19-1.008
		c0.014-0.065,0.08-0.292,0.245-0.428c0.128-0.104,0.294-0.129,0.491-0.157C58.072,8,57.702,8.079,58.112,8.014
		c0.07-0.006,0.147-0.023,0.217-0.028c0.078-0.008,0.146-0.023,0.225-0.029c0.102-0.007,0.204-0.012,0.305-0.018
		c0.056-0.002,0.113-0.004,0.168-0.006c0.159-0.004,0.512-0.034,0.64-0.044c0.099-0.008,0.206-0.025,0.304-0.034
		c0.128-0.01,0.385-0.011,0.582,0.102c0.186,0.104,0.26,0.308,0.346,0.54c0.021,0.059,0.042,0.119,0.062,0.178
		c0.038,0.115,0.096,0.23,0.151,0.335c0.093,0.167,0.183,0.343,0.243,0.522c0.042,0.119,0.083,0.237,0.123,0.356
		c0.063,0.197,0.073,0.213,0.086,0.259c0.011,0.018,0.022,0.034,0.032,0.052c0.043,0.069,0.022,0.036,0.091,0.187
		c0.015,0.032,0.031,0.063,0.045,0.096c0.024,0.063,0.049,0.134,0.197,0.617c0.075,0.259,0.111,0.358,0.236,0.66
		c0.023,0.054,0.045,0.107,0.068,0.16c0.124,0.284,0.182,0.582,0.286,0.867c0.013,0.044,0.035,0.089,0.057,0.143
		c0.035,0.089,0.057,0.133,0.088,0.186c0.044,0.099,0.08,0.213,0.083,0.251c0,0.018,0.002,0.045,0.003,0.063
		C62.756,13.5,62.766,13.517,62.707,13.621z M70.981,14.294c-0.083,0.046-0.291,0.064-0.375,0.065c-0.233,0-0.309-0.035-0.468-0.034
		c-0.206,0.001-0.543,0.034-0.608,0.043c-0.122,0.02-0.318,0.076-0.469-0.058c-0.048-0.045-0.097-0.134-0.097-0.199
		c-0.005-0.06-0.009-0.121-0.014-0.182c-0.01-0.09-0.012-0.2-0.117-0.298c-0.105-0.108-0.218-0.105-0.332-0.104
		c-0.506,0.007-1.012,0.017-1.519,0.03c-0.179,0.005-0.36-0.052-0.508,0.026c-0.166,0.087-0.134,0.205-0.139,0.313
		c-0.004,0.058-0.007,0.116-0.013,0.175c-0.014,0.127-0.029,0.228-0.083,0.286c-0.091,0.103-0.249,0.108-0.343,0.112
		c-0.206,0.009-0.292-0.006-0.497-0.006c-0.066,0.003-0.121,0.006-0.187,0.009c-0.234,0.018-0.328,0.042-0.617,0.055
		c-0.094,0.004-0.272,0.005-0.371-0.082c-0.107-0.104-0.111-0.332-0.108-0.45c0-0.384-0.021-0.792-0.042-1.157
		c-0.015-0.308-0.065-0.324-0.053-0.826c0.003-0.119,0.01-0.174,0.074-0.241c0.063-0.068,0.131-0.071,0.226-0.075
		c0.01-0.001,0.019-0.001,0.029-0.002c0.2-0.01,0.233-0.303,0.258-0.395c0.026-0.075,0.05-0.148,0.083-0.26
		c0.06-0.185,0.078-0.405,0.099-0.579c0.042-0.348,0.065-0.468,0.128-1.017c0.005-0.092,0.001-0.191,0.006-0.283
		c0.005-0.118,0.011-0.228,0.015-0.347c0.004-0.109,0-0.21,0.004-0.32c0.004-0.127,0.014-0.154,0.018-0.283
		c0.004-0.045,0.008-0.091,0.013-0.138c0.026-0.292,0.322-0.515,0.598-0.534c0.246-0.018,0.276-0.011,0.522-0.019
		c0.335-0.013,0.678-0.052,1.013-0.061c0.148-0.002,0.307,0.041,1.646-0.01c0.463-0.016,0.473-0.036,1.014-0.05
		c0.355-0.005,0.612,0.077,0.72,0.222c0.12,0.146,0.09,0.346,0.091,0.482c0.002,0.355,0.002,0.711,0.005,1.066
		c0.002,0.573-0.007,0.619-0.025,0.855c-0.018,0.392,0.031,0.655,0.033,0.837c0,0.1,0.001,0.2,0.001,0.301s0.001,0.319,0.183,0.355
		c0.029,0.006,0.058,0.012,0.087,0.018c0.085,0.018,0.276,0.008,0.296,0.363c0.009,0.273-0.039,0.428-0.039,0.702
		c0.001,0.417,0.039,0.838,0.039,1.256C71.16,13.958,71.16,14.194,70.981,14.294z M80.813,11.077c0.077,0.151,0.112,0.2,0.195,0.379
		c0.05,0.131,0.074,0.169,0.091,0.208c0.077,0.125,0.092,0.088,0.149,0.211c0.007,0.019,0.024,0.047,0.032,0.076
		c0.031,0.076,0.073,0.161,0.106,0.236c0.124,0.274,0.139,0.312,0.203,0.472c0.13,0.302,0.077,0.126,0.27,0.478
		c0.073,0.143,0.183,0.307,0.174,0.425c-0.005,0.062-0.031,0.153-0.073,0.212c-0.085,0.104-0.248,0.127-0.37,0.119
		c-0.096-0.007-0.198-0.016-0.292-0.022c-0.433-0.041-0.215-0.043-0.581-0.069c-0.035-0.002-0.068-0.004-0.104-0.007
		c-0.122-0.009-0.182,0.024-0.456,0.006c-0.156-0.011-0.309-0.02-0.372-0.062c-0.036-0.021-0.062-0.067-0.132-0.154
		c-0.018-0.028-0.088-0.125-0.257-0.59c-0.042-0.113-0.064-0.205-0.107-0.29c-0.069-0.142-0.105-0.163-0.187-0.395
		c-0.023-0.074-0.065-0.195-0.192-0.321c-0.036-0.038-0.092-0.06-0.139-0.062c-0.133-0.008-0.207,0.088-0.238,0.124
		c-0.113,0.177-0.112,0.323-0.121,0.504c-0.005,0.093-0.01,0.188-0.016,0.281c-0.003,0.056-0.014,0.082,0.002,0.155
		c0.015,0.084,0.009-0.008,0.016,0.239c-0.003,0.063,0.003,0.127-0.009,0.182c-0.013,0.035-0.056,0.152-0.087,0.188
		c-0.091,0.094-0.278,0.083-0.44,0.085c-0.046-0.003-0.103-0.005-0.147-0.008c-0.19-0.018-0.293-0.04-0.388-0.044
		c-0.166-0.007-0.332-0.014-0.499-0.021c-0.112-0.005-0.181,0.019-0.358,0.012c-0.066-0.002-0.171-0.006-0.253-0.054
		c-0.165-0.098-0.177-0.308-0.173-0.444c0.001-0.036,0.003-0.073,0.003-0.11c0.006-0.1,0.027-0.208,0.031-0.309
		c0-0.125,0.004-0.249,0.004-0.373c0.004-0.119,0.037-0.209-0.073-0.396c-0.025-0.037-0.089-0.139-0.223-0.143
		c-0.115-0.004-0.165,0.066-0.204,0.11c-0.06,0.063-0.068,0.044-0.16,0.242c-0.073,0.162-0.122,0.224-0.171,0.294
		c-0.05,0.081-0.071,0.117-0.121,0.225c-0.133,0.297-0.122,0.243-0.222,0.441c-0.051,0.106-0.159,0.341-0.293,0.401
		c-0.067,0.034-0.22,0.031-0.379,0.027c-0.273-0.006-0.328-0.043-0.451-0.046c-0.035,0-0.07-0.001-0.104-0.001
		c-0.368-0.009-0.152,0.015-0.586,0.017c-0.094,0-0.197-0.002-0.292-0.003c-0.122-0.001-0.281-0.041-0.356-0.15
		c-0.038-0.064-0.057-0.156-0.057-0.219c0.002-0.028,0.022-0.101,0.108-0.245c0.154-0.244,0.221-0.318,0.27-0.38
		c0.105-0.125,0.174-0.29,0.292-0.516c0.108-0.198,0.147-0.243,0.226-0.397c0.119-0.226,0.117-0.144,0.205-0.27
		c0.02-0.036,0.05-0.072,0.109-0.198c0.099-0.171,0.138-0.206,0.228-0.36c0.219-0.342,0.318-0.467,0.32-0.577
		c0.001-0.054-0.017-0.082-0.044-0.126c-0.03-0.056-0.049-0.075-0.095-0.13c-0.125-0.14-0.038-0.01-0.342-0.507
		c-0.177-0.305-0.274-0.406-0.406-0.653c-0.086-0.165-0.151-0.321-0.19-0.422c-0.085-0.192-0.114-0.21-0.2-0.384
		c-0.038-0.084-0.087-0.184-0.085-0.292c0.001-0.137,0.062-0.228,0.131-0.263c0.049-0.027,0.127-0.036,0.314-0.033
		c0.128,0.002,0.229,0.031,0.326,0.033c0.069,0,0.137,0.001,0.206,0.002c0.682,0.014,0.848,0.009,1.017,0.033
		c0.058,0.01,0.118,0.021,0.164,0.05c0.05,0.028,0.127,0.103,0.155,0.131c0.076,0.103,0.007,0.109,0.137,0.359
		c0.065,0.129,0.093,0.149,0.14,0.25c0.102,0.213,0.036,0.166,0.284,0.628c0.103,0.186,0.111,0.196,0.177,0.279
		c0.037,0.046,0.121,0.169,0.229,0.172c0.058,0.002,0.126-0.042,0.158-0.122c0.011-0.019,0.023-0.063,0.038-0.226
		c0.001-0.037,0.003-0.083,0.005-0.119c0.004-0.401-0.027-0.329-0.039-0.558c0.001-0.035-0.006-0.081-0.005-0.118
		c-0.008-0.064-0.017-0.12-0.015-0.184c0.005-0.099,0.051-0.281,0.103-0.341c0.01-0.01,0.083-0.125,0.299-0.117
		c0.09,0.003,0.188,0.017,0.276,0.019c0.049,0.003,0.107,0.006,0.157,0.007c0.128,0.006,0.256,0.012,0.385,0.017
		c0.1,0.004,0.186,0,0.287-0.005c0.176-0.002,0.343,0.017,0.53,0.025c0.166,0.01,0.216,0.029,0.291,0.089
		c0.088,0.067,0.113,0.123,0.106,0.269c-0.001,0.018-0.004,0.037-0.006,0.055c-0.001,0.036-0.003,0.083-0.006,0.118
		c-0.016,0.136-0.039,0.172-0.042,0.253c-0.004,0.088-0.01,0.175-0.015,0.264c-0.012,0.218-0.034,0.272-0.042,0.426
		c-0.009,0.164,0.009,0.21,0.018,0.229c0.023,0.083,0.092,0.132,0.149,0.135c0.126,0.009,0.252-0.15,0.326-0.247
		c0.063-0.077,0.212-0.308,0.257-0.386c0.142-0.248,0.123-0.286,0.273-0.495c0.055-0.08,0.118-0.158,0.152-0.247
		c0.034-0.08,0.05-0.162,0.102-0.222c0.032-0.025,0.117-0.094,0.166-0.118c0.052-0.023,0.11-0.03,0.171-0.035
		c0.168-0.008,0.334,0.012,1.013,0.058c0.069,0.005,0.14,0.009,0.208,0.015c0.099,0.008,0.199-0.013,0.325-0.004
		c0.189,0.015,0.267,0.03,0.314,0.061c0.065,0.042,0.116,0.136,0.106,0.274c-0.009,0.107-0.065,0.204-0.111,0.283
		c-0.089,0.147-0.074,0.068-0.292,0.48c-0.216,0.405-0.364,0.548-0.634,0.904c-0.107,0.147-0.204,0.286-0.331,0.424
		c-0.021,0.025-0.042,0.042-0.064,0.068c-0.083,0.095-0.144,0.145-0.148,0.227C80.538,10.583,80.628,10.717,80.813,11.077z
		 M89.035,8.94c-0.008,0.062-0.026,0.125-0.034,0.188c-0.002,0.027-0.007,0.053-0.021,0.162c-0.009,0.066-0.017,0.134-0.026,0.199
		c-0.035,0.279,0.03,0.077-0.013,0.421c-0.023,0.171-0.084,0.254-0.149,0.311c-0.066,0.056-0.128,0.084-0.294,0.064
		c-0.097-0.012-0.19-0.042-0.288-0.054c-0.019-0.002-0.049-0.006-0.068-0.008c-0.047-0.007-0.097-0.004-0.145-0.008
		c-0.011-0.002-0.019-0.003-0.029-0.004c-0.059-0.007-0.137-0.016-0.279-0.052c-0.041-0.011-0.083-0.023-0.124-0.034
		c-0.144-0.035-0.305-0.007-0.449-0.024c-0.126-0.015-0.241-0.046-0.366-0.061c-0.116-0.013-0.283-0.012-0.307,0.196
		c-0.007,0.062-0.003,0.128,0.059,0.18c0.099,0.084,0.283,0.096,0.447,0.114c0.058,0.007,0.106,0.013,0.165,0.019
		c0.097,0.003,0.117-0.004,0.265,0.003c0.165,0.011,0.337,0.04,0.5,0.06c0.146,0.017,0.303,0.01,0.449,0.027
		c0.124,0.016,0.269,0.042,0.332,0.169c0.052,0.117,0.051,0.208,0.045,0.254c-0.015,0.166-0.029,0.333-0.043,0.499
		c-0.008,0.055-0.02,0.081-0.015,0.182c0.003,0.056,0.006,0.111-0.003,0.182c-0.019,0.145-0.055,0.196-0.129,0.241
		c-0.063,0.047-0.114,0.059-0.22,0.045c-0.066-0.007-0.123-0.014-0.19-0.023c-0.411-0.041-0.387-0.002-0.788-0.058
		c-0.146-0.021-0.292-0.041-0.439-0.061c-0.066-0.008-0.123-0.004-0.189-0.021c-0.028-0.002-0.067-0.017-0.096-0.02
		c-0.104-0.012-0.176,0.036-0.209,0.059c-0.031,0.033-0.067,0.085-0.072,0.121c-0.004,0.045,0.007,0.12,0.076,0.182
		c0.088,0.083,0.211,0.107,0.315,0.119c0.171,0.019,0.317,0.016,0.422,0.02c0.154,0.009,0.365,0.024,0.545,0.047
		c0.076,0.009,0.152,0.019,0.229,0.027c0.058,0.007,0.114,0.014,0.172,0.022c0.047,0.005,0.104,0.003,0.153,0.01
		c0.029,0.004,0.067,0.008,0.097,0.011c0.094,0.013,0.188,0.033,0.265,0.117c0.144,0.156,0.133,0.384,0.121,0.474
		c-0.036,0.271-0.025,0.061-0.046,0.279c-0.004,0.058-0.009,0.115-0.013,0.172c-0.054,0.782-0.193,0.893-0.496,0.874
		c-0.075,0-0.141-0.018-0.217-0.027c-0.24-0.039-0.154-0.046-0.268-0.061c-0.046-0.005-0.094-0.012-0.141-0.017
		c-0.272-0.033-0.004,0.026-0.314-0.002c-0.076,0-0.142-0.007-0.208-0.015c-0.046-0.006-0.096-0.002-0.141-0.007
		c-0.15-0.017-0.289-0.06-0.409-0.083c-0.082-0.02-0.18-0.021-0.264-0.03c-0.159-0.01-0.479-0.044-0.612-0.058
		c-0.259-0.031-0.519-0.06-0.779-0.09c-0.31-0.03-0.229,0.004-0.746-0.037c-0.019-0.001-0.029-0.002-0.047-0.004
		c-0.148-0.014-0.223-0.048-0.3-0.128c-0.062-0.062-0.094-0.128-0.078-0.299c0.005-0.046,0.018-0.081,0.022-0.127
		c0.015-0.072,0.022-0.144,0.03-0.216c0.039-0.332,0.08-0.663,0.121-0.995c0.015-0.164,0.057-0.297,0.068-0.432
		c0.014-0.137,0.036-0.373,0.031-0.537c0.005-0.667,0.027-0.418,0.039-0.737c0.014-0.256-0.003-0.385,0.031-0.756
		c0.033-0.371,0.051-0.251,0.087-0.542c0.006-0.036,0.023-0.226,0.026-0.262c0.005-0.189,0.009-0.378,0.014-0.567
		c0.008-0.2,0.111-0.355,0.216-0.427c0.181-0.12,0.466-0.093,0.506-0.089c0.165,0.017,0.329,0.078,0.495,0.096
		c0.237,0.022,0.494,0.031,0.77,0.059c0.127,0.014,0.255,0.036,0.382,0.05c0.059,0.007,0.127,0.014,0.188,0.021
		c0.087,0.009,0.165,0.028,0.253,0.038c0.039,0.005,0.079,0.009,0.118,0.013c0.137,0.015,0.284,0.042,0.42,0.058
		c0.139,0.016,0.288,0.014,0.425,0.031c0.059,0.007,0.119,0.013,0.178,0.021c0.461,0.046,0.297,0.01,0.503,0.035
		c0.217,0.026,0.299,0.083,0.354,0.125C89.046,8.694,89.046,8.85,89.035,8.94z M97.785,10.182c-0.014,0.071-0.065,0.237-0.504,0.645
		c-0.124,0.116-0.181,0.153-0.373,0.319c-0.251,0.223-0.418,0.423-0.609,0.602c-0.16,0.15-0.32,0.3-0.479,0.45
		c-0.037,0.039-0.122,0.134-0.077,0.264c0.188,0.376,0.198,0.323,0.304,0.6c0.08,0.21,0.126,0.385,0.215,0.541
		c0.03,0.051,0.061,0.094,0.092,0.146c0.044,0.072,0.088,0.147,0.133,0.22c0.043,0.082,0.144,0.285,0.18,0.394
		c0.109,0.346,0.052,0.296,0.161,0.485c0.045,0.073,0.023,0.032,0.103,0.177c0.1,0.186,0.258,0.375,0.221,0.562
		c-0.015,0.071-0.06,0.156-0.098,0.204c-0.139,0.15-0.309,0.128-0.382,0.113c-0.092-0.019-0.196-0.038-0.29-0.055
		c-0.409-0.078-0.491-0.111-0.582-0.137c-0.064-0.012-0.083-0.014-0.12-0.022c-0.075-0.014-0.15-0.027-0.227-0.041
		c-0.169-0.032-0.39-0.033-0.539-0.061c-0.12-0.021-0.298-0.052-0.366-0.1c-0.162-0.122-0.247-0.413-0.306-0.571
		c-0.03-0.08-0.062-0.159-0.093-0.238c-0.081-0.208-0.02-0.114-0.354-0.651c-0.156-0.239-0.179-0.278-0.203-0.301
		c-0.035-0.034-0.105-0.073-0.152-0.082c-0.134-0.021-0.225,0.066-0.249,0.099c-0.118,0.128-0.158,0.307-0.17,0.369
		c-0.014,0.096-0.029,0.192-0.045,0.288c-0.062,0.377,0.012,0.159-0.041,0.483c-0.014,0.08-0.044,0.205-0.109,0.258
		c-0.102,0.086-0.289,0.056-0.449,0.039c-0.046-0.007-0.103-0.016-0.148-0.022c-0.188-0.04-0.286-0.072-0.38-0.087
		c-0.2-0.031-0.4-0.061-0.599-0.092c-0.113-0.017-0.184,0-0.361-0.026c-0.065-0.009-0.167-0.024-0.247-0.082
		c-0.155-0.114-0.142-0.324-0.123-0.459c0.005-0.037,0.011-0.073,0.016-0.109c0.067-0.404,0.099-0.408,0.126-0.607
		c0.018-0.141,0.035-0.283,0.053-0.425c0.02-0.136,0.039-0.269,0.059-0.405c0.013-0.081,0.021-0.153,0.033-0.234
		c0.025-0.234,0.042-0.482,0.076-0.716c0.024-0.179,0.104-0.519,0.233-1.419c0.01-0.066,0.018-0.132,0.029-0.198
		c0.123-0.856,0-0.48,0.07-0.975c0.019-0.117,0.077-0.255,0.156-0.327c0.045-0.039,0.146-0.107,0.312-0.083
		c0.088,0.012,0.186,0.036,0.273,0.049c0.049,0.007,0.108,0.016,0.156,0.023c0.063,0.009,0.125,0.019,0.186,0.028
		c0.107,0.015,0.208,0.021,0.317,0.03c0.268,0.022,0.53,0.072,0.802,0.125c0.166,0.026,0.212,0.052,0.282,0.119
		c0.068,0.075,0.099,0.134,0.075,0.278c-0.002,0.009-0.002,0.009-0.003,0.019c-0.001,0.01-0.002,0.017-0.004,0.026
		c-0.015,0.091-0.048,0.104-0.057,0.157c-0.016,0.097-0.031,0.192-0.047,0.289c-0.035,0.216-0.062,0.266-0.087,0.418
		c-0.026,0.163-0.016,0.209-0.008,0.231c0.016,0.084,0.075,0.141,0.135,0.15c0.105,0.016,0.199-0.06,0.276-0.121
		c0.334-0.27,0.339-0.35,0.432-0.428c0.117-0.099,0.059,0.01,0.295-0.265c0.049-0.056,0.109-0.111,0.158-0.167
		c0.06-0.063,0.113-0.137,0.176-0.201c0.047-0.047,0.154-0.149,0.229-0.174c0.054-0.017,0.124-0.014,0.174-0.015
		c0.179,0.013,0.334,0.048,1.009,0.169c0.208,0.038,0.417,0.076,0.624,0.114c0.098,0.018,0.2,0.009,0.327,0.033
		c0.186,0.036,0.263,0.06,0.305,0.095C97.751,9.934,97.814,10.03,97.785,10.182z M104.143,11.695
		c-0.011,0.043-0.019,0.08-0.03,0.124c-0.072,0.264-0.108,0.284-0.154,0.47c-0.017,0.074-0.035,0.148-0.052,0.22
		c-0.105,0.435-0.049,0.784-0.286,0.935c-0.097,0.062-0.187,0.058-0.291,0.034c-0.219-0.051-0.202-0.083-0.348-0.109
		c-0.1-0.017-0.198-0.034-0.301-0.05c-0.231-0.035-0.292-0.077-0.468-0.099c-0.187-0.023-0.316,0.023-0.406,0.058
		c-0.156,0.069-0.344,0.233-0.392,0.446c-0.041,0.187-0.072,0.589,0.268,0.844c0.135,0.105,0.385,0.189,0.555,0.229
		c0.115,0.008,0.546,0.054,0.631,0.063c0.029,0.006,0.048,0.011,0.076,0.017c0.037,0.009,0.241,0.077,0.312,0.233
		c0.059,0.127,0.026,0.297-0.001,0.413c-0.025,0.104-0.091,0.296-0.121,0.419c-0.021,0.083-0.04,0.165-0.06,0.248
		c-0.035,0.142-0.024,0.304-0.068,0.443c-0.011,0.037-0.017,0.063-0.025,0.098c-0.004,0.018,0,0.039-0.003,0.056
		c-0.014,0.052-0.047,0.148-0.217,0.247c-0.204,0.111-0.406,0.128-1.057-0.013c-0.037-0.009-0.065-0.015-0.104-0.023
		c-1.118-0.274-1.554-0.598-1.769-0.776c-0.223-0.187-0.311-0.271-0.522-0.705c-0.226-0.458-0.34-0.621-0.387-0.956
		c-0.044-0.353,0.012-1.206,0.083-1.554c0.097-0.465,0.276-0.707,0.339-0.805c0.419-0.63,0.624-0.782,0.801-0.903
		c0.328-0.211,0.824-0.395,1.069-0.443c0.255-0.057,0.819-0.075,1.725,0.131c0.32,0.073,1.149,0.21,1.216,0.527
		C104.161,11.54,104.169,11.588,104.143,11.695z M112.293,16.515c-0.048,0.148-0.133,0.292-0.189,0.438
		c-0.036,0.083-0.064,0.17-0.093,0.257c-0.091,0.258-0.146,0.306-0.469,0.647c-0.233,0.262-0.386,0.521-0.672,0.663
		c-0.132,0.066-0.879,0.3-1.034,0.319c-0.095,0.011-0.204,0.007-0.304,0.007c-0.161,0-0.317,0.021-0.477,0.022
		c-0.28-0.004-0.762-0.066-0.982-0.127c-1.059-0.298-1.606-0.612-1.866-0.822c-0.276-0.226-0.585-0.597-0.733-0.9
		c-0.588-1.185-0.419-0.69-0.443-1.327c-0.011-0.228-0.026-0.362,0.057-0.69c0.059-0.23,0.157-0.496,0.373-1.024
		c0.117-0.299,0.213-0.351,0.371-0.536c0.537-0.616,0.469-0.501,0.817-0.665c0.399-0.189,0.637-0.306,0.845-0.345
		c0.164-0.032,0.703-0.115,1.215-0.051c0.512,0.063,0.715,0.122,0.793,0.143c0.173,0.047,0.719,0.259,0.827,0.31
		c0.27,0.124,0.546,0.362,1.142,0.814c0.332,0.251,0.372,0.321,0.476,0.531c0.179,0.376,0.375,0.751,0.433,1.169
		C112.416,15.626,112.416,16.125,112.293,16.515z M121.148,16.836c-0.021,0.046-0.044,0.094-0.063,0.141
		c-0.04,0.073-0.056,0.058-0.095,0.161c-0.029,0.075-0.04,0.131-0.172,0.421c-0.024,0.055-0.049,0.111-0.075,0.166
		c-0.058,0.126-0.108,0.34-0.131,0.429c-0.116,0.414-0.319,0.719-0.455,1.077c-0.031,0.082-0.063,0.164-0.095,0.247
		c-0.018,0.042-0.027,0.068-0.056,0.144c-0.094,0.325-0.135,0.378-0.198,0.57c-0.034,0.101-0.068,0.199-0.104,0.301
		c-0.054,0.135-0.044,0.169-0.118,0.336c-0.076,0.167-0.071,0.158-0.108,0.251c-0.065,0.17-0.119,0.257-0.174,0.451
		c-0.063,0.191-0.008,0.076-0.062,0.241c-0.003,0.008-0.009,0.026-0.012,0.034c-0.029,0.076-0.091,0.181-0.206,0.235
		c-0.062,0.025-0.185,0.077-0.331,0.023c-0.153-0.057-0.305-0.122-0.459-0.18c-0.1-0.036-0.205-0.063-0.305-0.101
		c-0.137-0.056-0.275-0.112-0.411-0.167c-0.133-0.059-0.258-0.085-0.422-0.143c-0.173-0.061-0.209-0.104-0.245-0.203
		c-0.031-0.087-0.045-0.132,0.009-0.277c0.066-0.18,0.047-0.1,0.111-0.281c0.008-0.019,0.016-0.04,0.022-0.059
		c0.016-0.043,0.021-0.088,0.058-0.212c0.051-0.205,0.062-0.172,0.118-0.326c0.02-0.052,0.037-0.103,0.057-0.155
		c0.07-0.196-0.024-0.336-0.046-0.364c-0.136-0.172-0.209-0.141-0.302-0.172c-0.085-0.033-0.171-0.066-0.256-0.1
		c-0.164-0.065-0.271-0.026-0.345-0.051c-0.037-0.013-0.077-0.046-0.151-0.013c-0.12,0.045-0.159,0.129-0.172,0.164
		c-0.078,0.223-0.157,0.446-0.236,0.67c-0.112,0.317-0.035,0.132-0.117,0.364c-0.007,0.018-0.01,0.026-0.016,0.043
		c-0.07,0.198-0.131,0.226-0.215,0.263c-0.086,0.039-0.146,0.057-0.329,0.003c-0.027-0.009-0.064-0.021-0.092-0.03
		c-0.081-0.038-0.122-0.061-0.259-0.107c-0.228-0.077-0.459-0.153-0.687-0.229c-0.09-0.03-0.177-0.049-0.268-0.078
		c-0.046-0.016-0.093-0.03-0.138-0.046c-0.028-0.009-0.045-0.013-0.074-0.023c-0.209-0.069-0.278-0.139-0.338-0.234
		c-0.04-0.062-0.072-0.121-0.016-0.293c0.041-0.121,0.088-0.232,0.127-0.351c0.019-0.054,0.03-0.117,0.056-0.167
		c0.037-0.08,0.074-0.161,0.109-0.241c0.064-0.132,0.1-0.391,0.169-0.598c0.076-0.234,0.154-0.467,0.23-0.702
		c0.14-0.424,0.142-0.242,0.254-0.645c0.026-0.078,0.039-0.152,0.062-0.22c0.023-0.07,0.047-0.148,0.07-0.217
		c0.044-0.13,0.087-0.26,0.13-0.389c0.053-0.152,0.105-0.304,0.159-0.457c0.008-0.025,0.002-0.037,0.037-0.083
		c0.016-0.043,0.016-0.044,0.025-0.07c0.014-0.046,0.029-0.092,0.044-0.138c0.051-0.156,0.087-0.327,0.12-0.489
		c0.011-0.072,0.027-0.153,0.051-0.223c0.056-0.172,0.146-0.221,0.224-0.264c0.064-0.035,0.127-0.062,0.262-0.019
		c0.057,0.018,0.114,0.036,0.171,0.056c0.145,0.047,0.207,0.048,0.45,0.119c0.56,0.167,0.558,0.205,0.9,0.291
		c0.087,0.022,0.171,0.044,0.256,0.066c0.138,0.037,0.221,0.104,0.276,0.191c0.055,0.085,0.068,0.167,0.02,0.314
		c-0.031,0.085-0.078,0.157-0.126,0.236c-0.025,0.04-0.05,0.081-0.063,0.123c-0.009,0.023-0.017,0.045-0.024,0.068
		c-0.013,0.035-0.016,0.071-0.02,0.108c0.006,0.022-0.004,0.048-0.01,0.064c-0.007,0.019-0.012,0.035-0.018,0.053
		c-0.047,0.122-0.092,0.244-0.141,0.366c-0.014,0.043-0.065,0.161,0.056,0.297c0.112,0.127,0.249,0.165,0.396,0.225
		c0.088,0.037,0.173,0.073,0.258,0.11c0.24,0.103,0.424,0.032,0.499,0c0.112-0.047,0.122-0.072,0.219-0.338
		c0.103-0.283,0.203-0.567,0.306-0.85c0.034-0.095,0.072-0.17,0.22-0.222c0.11-0.038,0.185-0.031,0.279,0.001
		c0.066,0.028,0.13,0.054,0.197,0.081c0.085,0.031,0.09,0.052,0.282,0.112c0.292,0.085,0.283,0.083,0.381,0.139
		c0.093,0.042,0.066,0.023,0.238,0.085c0.069,0.027,0.141,0.051,0.209,0.078c0.104,0.038,0.275,0.071,0.381,0.111
		c0.151,0.056,0.23,0.164,0.259,0.232C121.157,16.585,121.206,16.71,121.148,16.836z"/>
	<path fill="#FFFFFF" d="M36.091,29.643c0.061-0.119,0.127-0.247,0,0.001c-0.11,0.213-0.057,0.112-0.001,0
		c-0.176,0.34-0.469,0.132-0.744,0.076c-0.428-0.085-0.848,0.155-1.264,0.207c-0.808,0.099-1.692,0.219-2.506,0.245
		c-1.565,0.047-3.241,0.368-4.792,0.63c-1.557,0.262-3.142,0.3-4.713,0.494c-1.638,0.201-3.327,0.643-5.001,0.607
		c3.664-1.79,7.532-3.191,11.403-4.456c1.973-0.644,3.952-1.272,5.95-1.808c0.22,0.26,0.18,0.487,0.239,0.794
		c0.082,0.423,0.346,0.848,0.517,1.243C35.412,28.214,36.361,29.116,36.091,29.643z"/>
	<path fill="#FFFFFF" d="M32.301,31.842c-0.919,0.122-1.868,0.858-2.749,1.161c-3.849,1.317-7.416,3.259-11.233,4.656
		c-0.955,0.351-1.823,0.894-2.767,1.271c-0.951,0.381-1.911,0.679-2.857,1.06c-1.988,0.796-3.893,1.728-5.865,2.56
		c-0.013,0.004,0.166-0.071,0.198-0.086c-0.014,0.008-0.069,0.03-0.198,0.086c-2.149,0.9-4.589,2.346-6.315,4.018
		c-0.008-0.354-0.016-0.706-0.022-1.06c0.036-0.048,0.069-0.09,0.098-0.121c0.835-0.93,1.799-1.851,2.756-2.658
		c0.35-0.294,2.88-1.806,2.823-2.179c0.004,0.022-3.504,1.748-3.857,1.963c-0.099,0.062-0.054,0.034-0.005,0.003
		c-0.366,0.223-1.228,0.639-1.848,1.113c0-0.067,0-0.136,0-0.204c0.052-0.071,0.102-0.136,0.147-0.187
		c0.847-0.943,1.792-1.83,2.761-2.647c0.276-0.231,2.867-2.125,2.828-2.191c-0.132-0.231-3.517,1.739-3.877,1.961
		c-0.1,0.062-0.056,0.034-0.006,0.004c-0.38,0.229-1.236,0.64-1.853,1.111c0.001-0.086,0.002-0.171,0.003-0.255
		c0.059-0.076,0.104-0.136,0.124-0.157c-0.055,0.062-0.109,0.121,0.002-0.002c0.113-0.126,0.059-0.066,0.002-0.003
		c0.859-0.957,1.814-1.78,2.795-2.608c0.276-0.234,2.85-2.076,2.794-2.214c-0.085-0.22-4.1,2.105-4.476,2.345
		c-0.262,0.17-0.833,0.471-1.293,0.802c-0.003-0.044-0.007-0.089-0.009-0.134c0.17-0.208,0.335-0.456,0.441-0.583
		c0.513-0.608,1.119-1.193,1.737-1.699c0.637-0.521,1.24-1.07,1.89-1.573c0.24-0.184,1.366-1.111,1.604-1.29
		c0.034-0.013,0.074-0.032,0.047-0.033c-0.03,0.015-0.049,0.023-0.063,0.03c-1.516,0.674-2.941,1.445-4.341,2.342
		c-0.432,0.277-0.863,0.546-1.285,0.832c0.005-0.073,0.013-0.147,0.017-0.225c0.162-0.198,0.315-0.416,0.417-0.522
		c0.559-0.593,1.104-1.178,1.692-1.745c0.576-0.556,1.263-1.079,1.897-1.569c0.224-0.171,1.392-1.104,1.624-1.28
		c0.033-0.011,0.068-0.028,0.043-0.029c-1.518,0.669-3.037,1.439-4.432,2.335c-0.422,0.271-0.825,0.558-1.225,0.852
		c-0.004-0.101-0.006-0.203-0.012-0.305c0.166-0.199,0.315-0.395,0.376-0.453c0.564-0.552,1.118-1.223,1.746-1.693
		c0.353-0.264,3.657-2.803,3.617-2.89c-0.092-0.202-4.092,2.09-4.49,2.346c-0.437,0.279-0.864,0.576-1.286,0.881
		c0.026-0.311,0.083-0.603,0.192-0.831c0.425-0.882,1.412-1.395,2.179-1.935c1.7-1.194,3.481-2.18,5.351-3.082
		c0.467,0.598,1.007,1.241,1.545,1.77c0.587,0.577,0.958,1.277,1.606,1.793c0.596,0.475,1.03,1.245,1.57,1.802
		c0.365,0.376,0.764,0.804,1.145,1.153c0.004-0.013,0.007-0.024,0.006-0.036c0.115,0.525,0.674,0.118,1.067,0.071
		c0.493-0.062,1.006-0.064,1.501-0.099c1.004-0.069,1.958-0.393,2.975-0.435c1-0.04,1.997-0.215,2.996-0.29
		c1.008-0.074,1.952-0.414,2.979-0.431c1.038-0.018,1.967-0.307,2.98-0.412c0.976-0.103,2.046-0.104,2.996-0.329
		c0.217-0.053,1.225-0.452,1.382-0.338C33.478,31.776,32.445,31.824,32.301,31.842z"/>
	<path fill="#FFFFFF" d="M142.206,46.596c-1.887-1.827-4.474-3.35-6.925-4.339c-1.982-0.799-3.893-1.698-5.856-2.529
		c-3.855-1.632-7.927-3.007-11.687-4.889c-0.896-0.45-1.959-0.632-2.808-1.167c-0.867-0.551-2.013-0.977-2.983-1.292
		c-0.481-0.158-0.955-0.508-1.457-0.579c-0.135-0.019-1.213-0.058-0.694-0.498c0.146-0.126,1.01,0.348,1.266,0.338
		c0.61-0.027,1.076,0.134,1.667,0.197c0.985,0.108,1.964,0.206,2.941,0.311c1.063,0.115,2.203,0.057,3.246,0.261
		c2.001,0.393,4.061,0.366,6.083,0.708c1.154,0.195,2.311,0.092,3.454,0.308c0.256,0.047,0.005,0.291,0.37,0.082
		c0.225-0.129,0.385-0.343,0.54-0.539c0.485-0.619,1.159-1.102,1.736-1.632c1.203-1.111,2.472-2.189,3.546-3.431
		c0.299-0.346,0.3-0.593,0.759-0.407c0.413,0.169,0.776,0.359,1.149,0.603c0.721,0.471,1.488,0.873,2.207,1.347
		c1.17,0.771,2.514,1.565,3.349,2.717c0.172,0.234,0.201,0.637,0.198,1.029c-0.054-0.038-0.107-0.077-0.163-0.113
		c-0.979-0.656-1.923-1.32-2.939-1.923c-0.335-0.197-2.698-1.622-2.965-1.376c0.039-0.035,2.062,1.544,2.285,1.724
		c0.906,0.729,1.765,1.527,2.577,2.357c0.404,0.412,0.79,0.848,1.172,1.279c0.014,0.017,0.026,0.025,0.039,0.04
		c0.001,0.045,0.002,0.092,0.003,0.137c-1.848-1.361-3.891-2.508-5.997-3.436c-0.143,0.004,0.717,0.665,0.798,0.729
		c0.463,0.36,0.961,0.673,1.418,1.041c0.905,0.73,1.795,1.502,2.608,2.33c0.224,0.228,0.709,0.978,1.139,1.292
		c0,0.068,0,0.14-0.001,0.209c-0.044-0.031-0.088-0.063-0.126-0.097c-0.478-0.425-5.855-3.457-5.891-3.324
		c-0.075,0.273,2.002,1.53,2.273,1.748c0.898,0.724,1.783,1.524,2.588,2.35c0.29,0.295,0.763,1.066,1.199,1.314
		c0.003,0.068,0.006,0.137,0.008,0.208c-0.058-0.049-0.115-0.095-0.173-0.141c-0.486-0.388-5.838-3.516-5.901-3.319
		c-0.062,0.19,2.016,1.555,2.271,1.759c0.908,0.73,1.784,1.512,2.596,2.342c0.4,0.407,0.793,0.82,1.15,1.268
		c0.027,0.034,0.055,0.059,0.08,0.085c-0.003,0.065-0.006,0.133-0.011,0.198c-0.136-0.096-0.27-0.19-0.403-0.286
		c0.019,0.016,0.024,0.019-0.023-0.015c-0.87-0.622-1.766-1.268-2.717-1.764c-0.3-0.155-2.938-1.346-2.93-1.43
		c-0.028,0.243,0.981,0.74,1.165,0.875c0.463,0.343,0.905,0.758,1.353,1.126c0.896,0.736,1.792,1.497,2.562,2.363
		c0.272,0.306,0.571,0.601,0.842,0.911c-0.004,0.07-0.011,0.141-0.012,0.21c0,0.008,0,0.014,0,0.02
		c-0.751-0.567-1.537-1.104-2.362-1.556c-0.323-0.177-3.449-1.986-3.563-1.768c0.006-0.011,3.979,3.265,4.345,3.621
		c0.249,0.241,1.059,1.21,1.605,1.657C142.211,46.094,142.213,46.344,142.206,46.596z"/>
	<path fill="none" d="M82.008,41.879c0.186-0.132,0.274-0.354,0.274-0.682c0-0.194,0-0.79-1.394-0.79c-0.063,0-0.112,0-0.152,0.003
		v1.675c0.104,0.008,0.192,0.012,0.26,0.012C81.465,42.097,81.806,42.024,82.008,41.879z"/>
	<polygon fill="#FFFFFF" points="31.587,40.441 33.593,40.441 33.593,45.768 35.09,45.768 35.09,40.441 37.194,40.441 
		37.194,39.079 31.587,39.079 	"/>
	<path fill="#FFFFFF" d="M43.816,43.707c0-0.811-0.325-1.391-0.966-1.727c0.389-0.3,0.586-0.686,0.586-1.152
		c0-0.581-0.213-1.036-0.633-1.354c-0.403-0.307-0.959-0.459-1.65-0.459c-0.203,0-0.791,0.02-1.797,0.063l-0.18,0.008v6.681h2.12
		c0.727,0,1.332-0.184,1.797-0.544C43.573,44.851,43.816,44.341,43.816,43.707z M40.673,40.343c0.175-0.011,0.326-0.017,0.454-0.017
		c0.72,0,0.812,0.292,0.812,0.545c0,0.296-0.104,0.636-0.908,0.636c-0.099,0-0.219-0.004-0.359-0.01V40.343z M41.997,44.273
		c-0.205,0.137-0.527,0.209-0.956,0.209c-0.103,0-0.224-0.005-0.368-0.015v-1.735c0.12-0.004,0.246-0.006,0.376-0.006
		c0.602,0,0.867,0.112,0.984,0.207c0.16,0.129,0.238,0.336,0.238,0.633C42.272,43.919,42.182,44.15,41.997,44.273z"/>
	<path fill="#FFFFFF" d="M50.729,39.865c-0.518-0.599-1.263-0.903-2.216-0.903c-0.884,0-1.6,0.339-2.128,1.009
		c-0.519,0.654-0.781,1.46-0.781,2.396c0,1.057,0.24,1.91,0.712,2.538c0.484,0.644,1.192,0.97,2.108,0.97
		c0.972,0,1.739-0.32,2.276-0.955c0.532-0.624,0.8-1.482,0.8-2.553C51.499,41.3,51.24,40.458,50.729,39.865z M49.555,43.986
		c-0.259,0.345-0.63,0.513-1.131,0.513c-0.409,0-0.712-0.164-0.93-0.5c-0.232-0.355-0.349-0.905-0.349-1.632
		c0-0.642,0.124-1.152,0.367-1.518c0.231-0.348,0.558-0.515,1.001-0.515c0.973,0,1.447,0.665,1.447,2.032
		C49.959,43.086,49.824,43.631,49.555,43.986z"/>
	<path fill="#FFFFFF" d="M56.282,39.005c-0.857,0-1.513,0.198-1.953,0.584c-0.445,0.395-0.671,0.884-0.671,1.458
		c0,0.413,0.118,0.771,0.351,1.068c0.17,0.216,0.43,0.389,0.788,0.521c-0.486,0.318-0.795,0.788-0.923,1.404
		c-0.044,0.205-0.091,0.304-0.122,0.35c-0.007,0.012-0.032,0.049-0.143,0.049c-0.046,0-0.088-0.005-0.127-0.013l-0.228-0.051v1.381
		l0.146,0.033c0.093,0.02,0.23,0.03,0.421,0.03c0.396,0,0.711-0.112,0.937-0.329c0.22-0.214,0.372-0.542,0.463-1.004
		c0.095-0.472,0.264-0.817,0.501-1.028c0.234-0.207,0.574-0.312,1.014-0.312h0.074v2.622h1.489v-6.666l-0.172-0.013
		C57.447,39.034,56.827,39.005,56.282,39.005z M56.819,41.865l-0.426-0.006c-1.117-0.017-1.246-0.48-1.246-0.829
		c0-0.242,0.083-0.411,0.262-0.535c0.195-0.135,0.454-0.203,0.77-0.203c0.239,0,0.454,0.009,0.64,0.023V41.865z"/>
	<path fill="#FFFFFF" d="M70.065,39.079h-3.274l-0.03,0.149c-0.304,1.531-0.633,2.702-0.98,3.482
		c-0.326,0.736-0.652,1.326-0.968,1.754h-0.525v3.113h1.362v-1.811h3.76v1.811h1.363v-3.113h-0.707V39.079z M68.611,44.465h-2.157
		c0.281-0.443,0.543-1.001,0.783-1.663c0.279-0.765,0.494-1.582,0.642-2.428h0.732V44.465z"/>
	<polygon fill="#FFFFFF" points="77.05,44.395 74.189,44.395 74.189,42.878 76.281,42.878 76.281,41.549 74.189,41.549 
		74.189,40.441 77.102,40.441 77.102,39.079 72.693,39.079 72.693,45.768 77.05,45.768 	"/>
	<path fill="#FFFFFF" d="M80.736,43.459c0.122,0.009,0.23,0.014,0.319,0.014c2.273,0,2.75-1.283,2.75-2.36
		c0-0.717-0.265-1.253-0.787-1.594c-0.502-0.328-1.247-0.486-2.277-0.486c-0.021,0-0.082,0-1.322,0.047l-0.181,0.007v6.682h1.498
		V43.459z M80.736,40.41c0.04-0.003,0.089-0.003,0.152-0.003c1.394,0,1.394,0.596,1.394,0.79c0,0.327-0.089,0.55-0.274,0.682
		c-0.202,0.146-0.543,0.218-1.012,0.218c-0.067,0-0.156-0.004-0.26-0.012V40.41z"/>
	<path fill="#FFFFFF" d="M90.174,43.725c0-0.418-0.11-0.788-0.325-1.095c-0.147-0.209-0.339-0.381-0.572-0.516
		c0.15-0.108,0.279-0.243,0.386-0.402c0.178-0.271,0.27-0.586,0.27-0.936c0-0.57-0.209-1.023-0.619-1.345
		c-0.397-0.312-0.938-0.47-1.608-0.47c-0.568,0-1.189,0.142-1.844,0.42l-0.174,0.073l0.54,1.29l0.183-0.097
		c0.759-0.405,1.451-0.451,1.821-0.2c0.134,0.091,0.195,0.218,0.195,0.396c0,0.227-0.077,0.393-0.235,0.511
		c-0.174,0.128-0.436,0.193-0.775,0.193c-0.219,0-0.437-0.012-0.653-0.033l-0.208-0.021v1.333l0.207-0.02
		c0.172-0.016,0.385-0.025,0.628-0.025c0.422,0,0.744,0.086,0.957,0.25c0.202,0.157,0.301,0.386,0.301,0.701
		c0,0.246-0.083,0.435-0.252,0.576c-0.178,0.148-0.436,0.224-0.768,0.224c-0.494,0-0.954-0.156-1.373-0.464l-0.179-0.132
		l-0.662,1.333l0.146,0.089c0.557,0.342,1.235,0.516,2.016,0.516c0.789,0,1.424-0.19,1.885-0.566
		C89.934,44.923,90.174,44.391,90.174,43.725z"/>
	<path fill="#FFFFFF" d="M95.212,44.446c0.083,0.471,0.243,0.819,0.474,1.037c0.235,0.223,0.579,0.336,1.021,0.336
		c0.177,0,0.312-0.011,0.408-0.03l0.151-0.031v-1.393l-0.229,0.052c-0.038,0.009-0.079,0.012-0.128,0.012
		c-0.137,0-0.17-0.032-0.171-0.033c-0.001-0.002-0.055-0.067-0.121-0.388c-0.107-0.544-0.297-0.979-0.565-1.288
		c-0.166-0.19-0.366-0.35-0.601-0.473c0.217-0.107,0.408-0.245,0.572-0.418c0.28-0.294,0.465-0.647,0.548-1.05
		c0.058-0.271,0.103-0.329,0.108-0.337c0.006-0.007,0.041-0.026,0.132-0.026c0.072,0,0.122,0,0.147,0.005l0.226,0.047v-1.391
		l-0.163-0.022c-0.115-0.016-0.259-0.022-0.422-0.022c-0.444,0-0.775,0.114-0.989,0.342c-0.2,0.216-0.341,0.545-0.425,1.006
		c-0.074,0.412-0.233,0.717-0.475,0.906c-0.226,0.177-0.545,0.272-0.95,0.288v-2.495h-1.488v6.688h1.488v-2.859
		c0.396,0.021,0.708,0.136,0.929,0.342C94.936,43.482,95.112,43.888,95.212,44.446z"/>
	<path fill="#FFFFFF" d="M101.355,38.988l-2.675,6.779h1.666l0.433-1.281h1.896l0.471,1.281h1.642l-2.688-6.779H101.355z
		 M101.222,43.253l0.499-1.534l0.5,1.534H101.222z"/>
	<path fill="#FFFFFF" d="M111.019,39.089c-0.678-0.055-1.299-0.084-1.843-0.084c-0.856,0-1.514,0.198-1.953,0.584
		c-0.446,0.395-0.672,0.884-0.672,1.458c0,0.413,0.118,0.771,0.352,1.068c0.171,0.216,0.431,0.389,0.787,0.521
		c-0.483,0.318-0.795,0.788-0.922,1.404c-0.044,0.205-0.09,0.304-0.121,0.35c-0.007,0.012-0.033,0.049-0.143,0.049
		c-0.048,0-0.09-0.005-0.128-0.013l-0.229-0.052v1.381l0.146,0.034c0.092,0.02,0.23,0.03,0.422,0.03
		c0.396,0,0.711-0.112,0.937-0.329c0.22-0.213,0.37-0.54,0.463-1.004c0.095-0.472,0.263-0.817,0.501-1.028
		c0.233-0.207,0.575-0.312,1.015-0.312h0.074v2.622h1.488v-6.666L111.019,39.089z M109.711,41.865l-0.424-0.006
		c-1.117-0.017-1.247-0.48-1.247-0.829c0-0.242,0.083-0.41,0.262-0.535c0.195-0.135,0.454-0.203,0.77-0.203
		c0.24,0,0.454,0.009,0.64,0.023V41.865z"/>
	<path fill="#FFFFFF" d="M47.147,50.158v-0.695h-1.462v0.694c-0.765,0.092-1.383,0.383-1.842,0.873
		c-0.495,0.526-0.746,1.191-0.746,1.976c0,0.808,0.248,1.47,0.736,1.966c0.453,0.463,1.075,0.743,1.851,0.836v0.698h1.462v-0.697
		c0.76-0.088,1.377-0.381,1.835-0.874c0.494-0.529,0.742-1.197,0.742-1.984c0-0.804-0.246-1.462-0.731-1.96
		C48.542,50.53,47.922,50.251,47.147,50.158z M45.701,54.584c-0.347-0.08-0.616-0.238-0.82-0.478
		c-0.246-0.287-0.364-0.649-0.364-1.108c0-0.485,0.119-0.876,0.355-1.155c0.2-0.236,0.473-0.39,0.829-0.462V54.584z M47.951,54.121
		c-0.198,0.236-0.469,0.392-0.821,0.465v-3.202c0.346,0.078,0.615,0.233,0.816,0.471c0.239,0.28,0.36,0.654,0.36,1.109
		C48.305,53.45,48.187,53.84,47.951,54.121z"/>
	<path fill="#FFFFFF" d="M55.447,49.815c-0.312,1.229-0.689,2.327-1.12,3.273l-1.542-3.413h-1.671l2.347,4.721
		c-0.153,0.2-0.324,0.353-0.509,0.454c-0.209,0.116-0.485,0.176-0.819,0.176c-0.085,0-0.143-0.002-0.172-0.007l-0.218-0.034v1.439
		h0.188c0.854,0,1.554-0.217,2.082-0.642c0.522-0.422,1.046-1.168,1.602-2.283c0.542-1.087,0.998-2.292,1.356-3.588l0.066-0.236
		h-1.554L55.447,49.815z"/>
	<polygon fill="#FFFFFF" points="58.364,51.038 60.369,51.038 60.369,56.363 61.866,56.363 61.866,51.038 63.97,51.038 
		63.97,49.676 58.364,49.676 	"/>
	<path fill="#FFFFFF" d="M69.911,52.654c-0.443-0.365-1.061-0.552-1.839-0.552c-0.187,0-0.398,0.009-0.631,0.025v-1.106h2.7v-1.346
		h-4.187v6.688h2.118c0.778,0,1.397-0.189,1.84-0.563c0.454-0.383,0.682-0.899,0.682-1.539
		C70.593,53.571,70.364,53.029,69.911,52.654z M68.801,54.848c-0.178,0.152-0.495,0.23-0.94,0.23c-0.125,0-0.265-0.004-0.421-0.014
		v-1.666c0.67-0.053,1.177,0.013,1.383,0.207c0.157,0.146,0.233,0.341,0.233,0.591C69.057,54.486,68.973,54.698,68.801,54.848z"/>
	<path fill="#FFFFFF" d="M75.299,49.559c-0.886,0-1.601,0.339-2.129,1.008c-0.518,0.654-0.781,1.46-0.781,2.397
		c0,1.057,0.239,1.91,0.711,2.538c0.484,0.644,1.193,0.969,2.107,0.969c0.975,0,1.739-0.321,2.279-0.954
		c0.529-0.623,0.798-1.483,0.798-2.553c0-1.068-0.259-1.91-0.771-2.503C76.996,49.863,76.25,49.559,75.299,49.559z M76.339,54.583
		c-0.258,0.345-0.63,0.512-1.132,0.512c-0.406,0-0.709-0.163-0.929-0.498c-0.231-0.356-0.348-0.906-0.348-1.633
		c0-0.64,0.123-1.151,0.365-1.519c0.231-0.347,0.56-0.515,1.003-0.515c0.972,0,1.445,0.665,1.445,2.033
		C76.744,53.683,76.608,54.227,76.339,54.583z"/>
	<path fill="#FFFFFF" d="M82.026,49.844c-0.067,0.653-0.166,1.333-0.293,2.02c-0.125,0.685-0.273,1.285-0.44,1.791
		c-0.162,0.491-0.312,0.825-0.448,0.993c-0.128,0.159-0.249,0.262-0.358,0.303c-0.118,0.045-0.27,0.067-0.445,0.067h-0.188v1.407
		h0.188c0.477,0,0.892-0.09,1.234-0.264c0.35-0.181,0.662-0.51,0.93-0.981c0.259-0.456,0.482-1.088,0.663-1.874
		c0.169-0.726,0.3-1.5,0.386-2.302h0.862v5.359h1.479v-6.688h-3.552L82.026,49.844z"/>
	<path fill="#FFFFFF" d="M92.617,55.026c-0.137,0-0.17-0.033-0.17-0.034c-0.003-0.003-0.057-0.067-0.124-0.388
		c-0.106-0.544-0.297-0.978-0.564-1.287c-0.164-0.192-0.365-0.351-0.599-0.476c0.215-0.104,0.406-0.245,0.571-0.417
		c0.279-0.292,0.465-0.646,0.548-1.048c0.057-0.272,0.103-0.331,0.107-0.339c0.006-0.007,0.043-0.025,0.133-0.025
		c0.073,0,0.122,0,0.146,0.006l0.227,0.045v-1.39l-0.164-0.022c-0.114-0.015-0.258-0.024-0.422-0.024
		c-0.442,0-0.774,0.115-0.987,0.343c-0.201,0.217-0.341,0.545-0.426,1.008c-0.073,0.409-0.234,0.715-0.475,0.905
		c-0.225,0.176-0.544,0.272-0.952,0.287v-2.494H87.98v6.688h1.486v-2.858c0.398,0.021,0.711,0.135,0.928,0.341
		c0.249,0.235,0.427,0.639,0.525,1.199c0.083,0.469,0.243,0.817,0.474,1.034c0.236,0.223,0.58,0.337,1.021,0.337
		c0.179,0,0.312-0.01,0.41-0.029l0.15-0.031v-1.395l-0.23,0.053C92.707,55.021,92.666,55.026,92.617,55.026z"/>
	<path fill="#FFFFFF" d="M97.064,49.584l-2.675,6.779h1.666l0.431-1.279h1.898l0.471,1.279h1.641l-2.688-6.779H97.064z
		 M96.93,53.849l0.5-1.533l0.499,1.533H96.93z"/>
</g>
</svg>
