<?xml version="1.0" encoding="utf-8"?>
<!-- Generator: Adobe Illustrator 15.0.0, SVG Export Plug-In . SVG Version: 6.00 Build 0)  -->
<!DOCTYPE svg PUBLIC "-//W3C//DTD SVG 1.1//EN" "http://www.w3.org/Graphics/SVG/1.1/DTD/svg11.dtd">
<svg version="1.1" id="Layer_1" xmlns="http://www.w3.org/2000/svg" xmlns:xlink="http://www.w3.org/1999/xlink" x="0px" y="0px"
	 width="179px" height="10px" viewBox="0 0 179 10" enable-background="new 0 0 179 10" xml:space="preserve">
<path fill="#FFFFFF" d="M164.149,9.811c0-1.965-1.18-3.66-2.882-4.444h2.904c0.238,2.494,2.375,4.444,4.979,4.444
	c0-0.477-0.072-0.938-0.202-1.373h8.296V7.479h-8.694c-0.51-0.921-1.309-1.664-2.282-2.113h2.229c1.76,1.279,4.18,1.279,5.938,0H179
	V4.411h-4.566c-1.758-1.278-4.178-1.278-5.938,0h-2.156c0.931-0.445,1.698-1.167,2.197-2.056h8.707V1.4h-8.3
	c0.132-0.443,0.206-0.914,0.206-1.4c-2.59,0-4.724,1.935-4.977,4.411h-2.835c1.664-0.797,2.811-2.472,2.811-4.411
	c-2.591,0-4.722,1.935-4.975,4.411h-2.836c1.663-0.797,2.811-2.472,2.811-4.411c-2.592,0-4.722,1.935-4.977,4.411h-2.835
	C153,3.614,154.148,1.939,154.148,0c-2.593,0-4.722,1.935-4.977,4.411h-2.836c1.665-0.797,2.812-2.472,2.812-4.411
	c-2.592,0-4.724,1.935-4.976,4.411h-2.836c1.665-0.797,2.811-2.472,2.811-4.411c-2.595,0-4.722,1.935-4.976,4.411h-2.837
	c1.666-0.797,2.811-2.472,2.811-4.411c-2.591,0-4.722,1.935-4.974,4.411h-23.407v0.955h23.403c0.237,2.494,2.375,4.444,4.978,4.444
	c0-1.965-1.179-3.66-2.88-4.444h2.904c0.238,2.494,2.375,4.444,4.978,4.444c0-1.965-1.179-3.66-2.88-4.444h2.903
	c0.237,2.494,2.373,4.444,4.978,4.444c0-1.965-1.18-3.66-2.88-4.444h2.901c0.237,2.494,2.376,4.444,4.979,4.444
	c0-1.965-1.18-3.66-2.881-4.444h2.903c0.238,2.494,2.376,4.444,4.979,4.444c0-1.965-1.18-3.66-2.881-4.444h2.901
	C159.408,7.86,161.546,9.811,164.149,9.811"/>
<path fill="#FFFFFF" d="M14.852,0.002c0,1.964,1.179,3.66,2.88,4.444h-2.903c-0.237-2.495-2.376-4.444-4.978-4.444
	c0,0.477,0.072,0.938,0.202,1.374H1.756v0.957h8.694c0.509,0.921,1.309,1.665,2.282,2.114h-2.229c-1.758-1.279-4.178-1.279-5.937,0
	H0v0.955h4.566c1.759,1.277,4.179,1.277,5.937,0h2.158c-0.932,0.445-1.699,1.167-2.198,2.056H1.756v0.955h8.3
	C9.924,8.855,9.85,9.325,9.85,9.812c2.59,0,4.724-1.936,4.976-4.411h2.836c-1.665,0.797-2.811,2.472-2.811,4.411
	c2.59,0,4.721-1.936,4.974-4.411h2.835c-1.662,0.797-2.81,2.472-2.81,4.411c2.592,0,4.722-1.936,4.976-4.411h2.835
	c-1.662,0.797-2.81,2.472-2.81,4.411c2.592,0,4.722-1.936,4.976-4.411h2.835c-1.665,0.797-2.812,2.472-2.812,4.411
	c2.592,0,4.724-1.936,4.976-4.411h2.835c-1.665,0.797-2.81,2.472-2.81,4.411c2.594,0,4.721-1.936,4.976-4.411h2.836
	c-1.665,0.797-2.81,2.472-2.81,4.411c2.592,0,4.721-1.936,4.974-4.411h23.408V4.446H44.833c-0.238-2.495-2.376-4.444-4.978-4.444
	c0,1.964,1.179,3.66,2.88,4.444h-2.903c-0.24-2.495-2.376-4.444-4.978-4.444c0,1.964,1.179,3.66,2.88,4.444H34.83
	c-0.237-2.495-2.374-4.444-4.978-4.444c0,1.964,1.179,3.66,2.88,4.444H29.83c-0.237-2.495-2.375-4.444-4.978-4.444
	c0,1.964,1.179,3.66,2.88,4.444h-2.904c-0.237-2.495-2.375-4.444-4.978-4.444c0,1.964,1.18,3.66,2.88,4.444H19.83
	C19.592,1.952,17.454,0.002,14.852,0.002"/>
<ellipse fill="#FFFFFF" cx="89.54" cy="4.875" rx="3.666" ry="3.596"/>
</svg>
