<?xml version="1.0" encoding="utf-8"?>
<!-- Generator: Adobe Illustrator 15.0.0, SVG Export Plug-In . SVG Version: 6.00 Build 0)  -->
<!DOCTYPE svg PUBLIC "-//W3C//DTD SVG 1.1//EN" "http://www.w3.org/Graphics/SVG/1.1/DTD/svg11.dtd">
<svg version="1.1" id="Layer_1" xmlns="http://www.w3.org/2000/svg" xmlns:xlink="http://www.w3.org/1999/xlink" x="0px" y="0px"
	 width="134px" height="105px" viewBox="0 0 134 105" enable-background="new 0 0 134 105" xml:space="preserve">
<g>
	<path fill="#FFFFFF" d="M49.002,96.272h5.886c0.158-1.272,0.954-1.908,0.954-1.908h0.477v3.181h-7.873v-0.716
		c0-3.897,5.074-4.771,5.074-8.033c0-1.431-0.795-2.227-1.83-2.227c-0.794,0-1.272,0.239-1.272,0.239v2.544
		c0,0-0.318,0.08-0.636,0.08c-0.716,0-1.193-0.478-1.193-1.193c0-0.954,1.113-2.067,3.42-2.067c2.941,0,4.214,1.273,4.214,3.261
		C56.223,93.251,50.115,93.091,49.002,96.272z"/>
	<path fill="#FFFFFF" d="M57.827,91.978c0-3.738,2.067-5.806,4.613-5.806c2.544,0,4.611,2.067,4.611,5.806s-2.067,5.807-4.611,5.807
		C59.895,97.784,57.827,95.716,57.827,91.978z M64.269,91.978c0-4.532-0.954-5.486-1.828-5.486c-0.875,0-1.83,0.954-1.83,5.486
		c0,4.533,0.954,5.487,1.83,5.487C63.314,97.465,64.269,96.511,64.269,91.978z"/>
	<path fill="#FFFFFF" d="M72.616,96.988l1.113,0.317v0.239h-4.852v-0.239l1.113-0.317v-8.732l-1.67,1.177l-0.317-0.397l2.895-2.624
		h1.718V96.988z"/>
	<path fill="#FFFFFF" d="M80.091,94.125c0-2.307-0.843-3.181-2.227-3.181c-1.193,0-2.227,1.033-2.227,1.033l-0.319-0.238
		l0.637-5.328h4.692c0.159-1.272,0.954-1.909,0.954-1.909h0.478v3.103h-5.774l-0.43,3.657c0,0,0.955-0.716,2.307-0.716
		c3.182,0,4.613,1.432,4.613,3.579c0,2.227-1.432,3.659-4.454,3.659c-2.306,0-3.419-1.113-3.419-2.068
		c0-0.716,0.477-1.193,1.192-1.193c0.317,0,0.637,0.08,0.637,0.08v2.545c0,0,0.477,0.238,1.272,0.238
		C79.216,97.386,80.091,96.511,80.091,94.125z"/>
</g>
<g>
	<path fill="#FFFFFF" d="M103.201,7.921c0.113,0.04,0.188,0.115,0.18,0.269C103.271,8.15,103.196,8.075,103.201,7.921z"/>
	<path fill="#FFFFFF" d="M102.586,8.697c0,0.038,0.033,0.067,0.072,0.067h0.008c0.045-0.003,0.071-0.039,0.071-0.08
		c-0.012-0.104-0.024-0.196-0.089-0.283l-0.011-0.018l-0.019-0.008c-0.023-0.008-0.046-0.018-0.065-0.029
		c-0.042-0.016-0.084,0.003-0.102,0.042c-0.016,0.037,0,0.083,0.042,0.1c0.01,0.004,0.025,0.012,0.042,0.021
		C102.564,8.556,102.573,8.61,102.586,8.697z"/>
	<path fill="#FFFFFF" d="M102.188,8.644c-0.18-0.256-0.242-0.527-0.409-0.77c-0.024-0.037-0.016-0.084,0.021-0.108
		c0.036-0.026,0.083-0.017,0.108,0.021c0.188,0.274,0.251,0.551,0.406,0.77c0.027,0.034,0.02,0.08-0.017,0.109
		c-0.014,0.008-0.034,0.011-0.047,0.011C102.228,8.676,102.204,8.665,102.188,8.644z"/>
	<path fill="#FFFFFF" d="M102.299,7.196"/>
	<path fill="#FFFFFF" d="M101.935,7.29c0.158,0.079,0.351,0.199,0.181,0.361C101.993,7.59,101.946,7.455,101.935,7.29z"/>
	<path fill="#FFFFFF" d="M101.302,6.745c-0.045-0.108-0.095-0.206-0.183-0.271C101.105,6.593,101.265,6.971,101.302,6.745z"/>
	<path fill="#FFFFFF" d="M104.104,7.017c0.116,0.154,0.31,0.237,0.275,0.54C104.238,7.431,104.147,7.246,104.104,7.017z"/>
	<path fill="#FFFFFF" d="M104.286,7.921c0.107-0.015,0.078-0.164,0.094-0.271c0.482,0,0.365,1.076,0.812,0.812
		c0.255,0.167,0.381,0.464,0.456,0.816c1.17,1.25,1.284,4.007,1.352,6.061c-0.185,0.237-0.616,0.145-1.085,0.271
		c-0.551,0.154-1.451,0.75-1.629,0.092c-0.109,0.042-0.187,0.114-0.182,0.269c-0.351-0.222-0.836-0.306-0.903-0.812
		c-0.131-0.049-0.281-0.674,0.092-0.633c-0.058-0.901-0.049-1.819-0.181-2.625c-0.1-0.59-0.429-1.18-0.543-1.718
		c-0.075-0.341-0.058-0.688-0.091-0.725c-0.243-0.239-0.276-0.673-0.363-0.814l0.137-0.047l-0.048-0.134
		c0.199-0.017,0.29,0.075,0.274,0.272c0.075,0.016,0.084-0.037,0.091-0.091l0.092,0.047l0.086-0.047
		c0.067,0.083,0.167,0.137,0.271,0.18l0.139-0.043l0.045-0.137c0.13,0.23,0.624,0.1,0.724,0.363l0.113,0.109l0.159-0.018V9.19
		l-0.138-0.048l-0.042,0.137h-0.093c0.075,0.315-0.417,0.389,0,0.543c0.014-0.426,0.133,0.098,0.361,0V9.458l0.137,0.045
		l0.047-0.136c0.18-0.043-0.251-0.222-0.272-0.36l-0.104-0.138l-0.168,0.049c-0.166-0.289-0.469-0.665,0-0.634l0.105,0.13
		l0.167-0.042c0.023,0.116,0.18,0.092,0.183,0c-0.091-0.001-0.073-0.111-0.094-0.182l0.045-0.136L104.286,7.921z"/>
	<path fill="#FFFFFF" d="M103.044,8.801c-0.063-0.295-0.156-0.559-0.307-0.824c-0.026-0.056-0.009-0.128,0.046-0.158
		c0.059-0.03,0.126-0.009,0.156,0.045c0.161,0.286,0.264,0.576,0.329,0.891c0.013,0.063-0.025,0.123-0.088,0.137
		c-0.009,0.001-0.017,0.001-0.024,0.001C103.102,8.895,103.056,8.857,103.044,8.801z"/>
	<path fill="#FFFFFF" d="M104.01,9.258c-0.076-0.013-0.125-0.089-0.109-0.162c0.016-0.078,0.032-0.169,0.058-0.259
		c0.016-0.078,0.097-0.124,0.169-0.105c0.073,0.021,0.12,0.1,0.1,0.174c-0.018,0.077-0.034,0.164-0.05,0.239
		c-0.013,0.066-0.072,0.115-0.139,0.115C104.03,9.26,104.022,9.26,104.01,9.258z"/>
	<path fill="#FFFFFF" d="M104.025,8.237c-0.046-0.018-0.101-0.033-0.154-0.047c-0.058-0.016-0.105-0.027-0.159-0.053l-0.041-0.022
		l-0.005-0.05c-0.009-0.029-0.014-0.055-0.017-0.083c-0.008-0.053,0.026-0.103,0.079-0.109c0.054-0.011,0.104,0.025,0.112,0.077
		c0.001,0.011,0.001,0.021,0.001,0.032c0.021,0.008,0.049,0.016,0.074,0.022c0.052,0.015,0.114,0.027,0.18,0.05
		c0.052,0.021,0.076,0.079,0.058,0.126c-0.019,0.041-0.054,0.062-0.094,0.062C104.05,8.242,104.038,8.241,104.025,8.237z"/>
	<path fill="#FFFFFF" d="M103.96,8.242c-0.049-0.055-0.049-0.14,0.008-0.196c0.058-0.06,0.132-0.093,0.192-0.109
		c0.066-0.013,0.116-0.013,0.158-0.018c0.078-0.008,0.143,0.05,0.151,0.125c0.007,0.072-0.047,0.139-0.123,0.151
		c-0.061,0.003-0.1,0.005-0.122,0.008c-0.024,0.008-0.032,0.012-0.068,0.043c-0.023,0.024-0.061,0.037-0.097,0.037
		C104.025,8.284,103.987,8.271,103.96,8.242z"/>
	<path fill="#FFFFFF" d="M104.005,8.556c-0.072-0.016-0.122-0.088-0.107-0.163c0.014-0.084,0.023-0.164,0.023-0.231V8.149
		c0-0.076,0.063-0.139,0.139-0.142c0.075,0,0.141,0.062,0.141,0.135v0.019c0,0.102-0.016,0.196-0.033,0.281
		c-0.011,0.066-0.067,0.116-0.137,0.116C104.025,8.559,104.016,8.559,104.005,8.556z"/>
	<path fill="#FFFFFF" d="M104.364,9.564c-0.121-0.122-0.242-0.241-0.363-0.361c-0.033-0.034-0.033-0.087,0-0.121
		c0.032-0.03,0.091-0.03,0.121,0c0.121,0.121,0.241,0.243,0.359,0.365c0.032,0.028,0.032,0.082,0,0.117
		c-0.016,0.016-0.035,0.022-0.059,0.022C104.404,9.587,104.382,9.581,104.364,9.564z"/>
	<path fill="#FFFFFF" d="M41.393,9.104c0.109,0.041,0.182,0.12,0.177,0.274C41.459,9.336,41.384,9.26,41.393,9.104z"/>
	<path fill="#FFFFFF" d="M40.771,9.881c0.007,0.039,0.037,0.071,0.074,0.071h0.009c0.042-0.005,0.074-0.042,0.071-0.083
		c-0.008-0.102-0.029-0.193-0.088-0.282l-0.011-0.019L40.804,9.56c-0.021-0.008-0.042-0.017-0.064-0.025
		c-0.037-0.016-0.083,0-0.096,0.042c-0.02,0.037,0,0.083,0.039,0.1c0.013,0.004,0.025,0.009,0.042,0.018
		C40.753,9.738,40.762,9.794,40.771,9.881z"/>
	<path fill="#FFFFFF" d="M40.374,9.832c-0.177-0.255-0.235-0.531-0.407-0.773c-0.022-0.034-0.013-0.082,0.021-0.106
		c0.037-0.026,0.086-0.018,0.107,0.018c0.189,0.274,0.252,0.554,0.409,0.768c0.026,0.036,0.015,0.085-0.015,0.109
		c-0.016,0.014-0.034,0.016-0.05,0.016C40.416,9.863,40.393,9.853,40.374,9.832z"/>
	<path fill="#FFFFFF" d="M40.484,8.384"/>
	<path fill="#FFFFFF" d="M40.125,8.472c0.159,0.084,0.349,0.204,0.18,0.365C40.186,8.774,40.137,8.639,40.125,8.472z"/>
	<path fill="#FFFFFF" d="M39.49,7.929c-0.045-0.104-0.095-0.206-0.18-0.271C39.293,7.781,39.45,8.157,39.49,7.929z"/>
	<path fill="#FFFFFF" d="M42.295,8.201c0.117,0.157,0.306,0.24,0.268,0.543C42.422,8.615,42.334,8.431,42.295,8.201z"/>
	<path fill="#FFFFFF" d="M42.476,9.104c0.109-0.01,0.077-0.163,0.088-0.267c0.489,0,0.37,1.075,0.816,0.811
		c0.255,0.17,0.381,0.466,0.455,0.815c1.168,1.25,1.286,4.011,1.36,6.064c-0.191,0.235-0.622,0.143-1.088,0.272
		c-0.555,0.151-1.455,0.744-1.631,0.088c-0.111,0.042-0.184,0.115-0.18,0.274c-0.354-0.228-0.839-0.309-0.903-0.816
		c-0.133-0.05-0.283-0.673,0.091-0.633c-0.062-0.9-0.05-1.817-0.184-2.624c-0.099-0.593-0.43-1.18-0.542-1.72
		c-0.076-0.339-0.058-0.689-0.094-0.726c-0.241-0.238-0.274-0.673-0.359-0.811l0.135-0.047l-0.045-0.137
		c0.2-0.014,0.288,0.074,0.27,0.272c0.078,0.016,0.089-0.034,0.094-0.088l0.092,0.045l0.091-0.045
		c0.063,0.083,0.161,0.136,0.268,0.18l0.134-0.044l0.05-0.136c0.127,0.233,0.624,0.1,0.72,0.36l0.112,0.112l0.162-0.024v0.092
		l-0.136-0.044l-0.047,0.135h-0.091c0.076,0.318-0.413,0.389,0,0.543c0.013-0.422,0.133,0.1,0.363,0v-0.363l0.138,0.045l0.042-0.133
		c0.185-0.05-0.25-0.222-0.269-0.363l-0.107-0.135l-0.167,0.046c-0.164-0.288-0.461-0.662,0-0.635l0.108,0.138l0.167-0.047
		c0.02,0.116,0.177,0.092,0.177,0c-0.083-0.005-0.067-0.112-0.088-0.181l0.046-0.137L42.476,9.104z"/>
	<path fill="#FFFFFF" d="M41.233,9.989c-0.062-0.299-0.157-0.563-0.305-0.826c-0.032-0.057-0.011-0.125,0.042-0.156
		c0.056-0.03,0.127-0.013,0.159,0.045c0.156,0.284,0.264,0.574,0.328,0.892c0.015,0.06-0.026,0.122-0.088,0.135
		c-0.009,0-0.016,0.003-0.025,0.003C41.293,10.082,41.243,10.045,41.233,9.989z"/>
	<path fill="#FFFFFF" d="M42.197,10.445c-0.072-0.016-0.122-0.088-0.109-0.165c0.016-0.076,0.032-0.166,0.055-0.26
		c0.02-0.073,0.096-0.121,0.173-0.1c0.072,0.019,0.122,0.095,0.098,0.173c-0.021,0.077-0.033,0.164-0.05,0.236
		c-0.014,0.07-0.072,0.118-0.14,0.118C42.22,10.447,42.212,10.447,42.197,10.445z"/>
	<path fill="#FFFFFF" d="M42.213,9.424c-0.046-0.021-0.104-0.033-0.156-0.049c-0.054-0.016-0.104-0.026-0.157-0.05l-0.042-0.024
		L41.85,9.25c-0.001-0.025-0.006-0.051-0.012-0.083c-0.01-0.05,0.027-0.101,0.078-0.109c0.058-0.012,0.104,0.025,0.113,0.079
		c0.003,0.009,0.003,0.022,0.003,0.033c0.021,0.008,0.047,0.015,0.072,0.021c0.052,0.013,0.118,0.023,0.184,0.051
		c0.046,0.019,0.072,0.076,0.051,0.126c-0.016,0.037-0.051,0.059-0.088,0.059C42.239,9.426,42.225,9.426,42.213,9.424z"/>
	<path fill="#FFFFFF" d="M42.151,9.426c-0.055-0.056-0.05-0.143,0.003-0.193c0.059-0.06,0.133-0.097,0.196-0.109
		c0.064-0.016,0.114-0.016,0.156-0.021c0.079-0.005,0.146,0.049,0.151,0.122c0.008,0.079-0.044,0.145-0.119,0.153
		c-0.062,0.005-0.1,0.01-0.124,0.014c-0.022,0.003-0.033,0.008-0.069,0.042c-0.027,0.024-0.058,0.037-0.094,0.037
		C42.213,9.472,42.18,9.456,42.151,9.426z"/>
	<path fill="#FFFFFF" d="M42.196,9.743c-0.075-0.012-0.128-0.088-0.112-0.162c0.013-0.088,0.025-0.164,0.025-0.234v-0.01
		c0-0.079,0.063-0.141,0.139-0.141c0.075-0.003,0.141,0.058,0.141,0.134v0.017c0,0.104-0.016,0.196-0.03,0.283
		c-0.013,0.068-0.07,0.114-0.138,0.114C42.212,9.743,42.204,9.743,42.196,9.743z"/>
	<path fill="#FFFFFF" d="M42.552,10.747c-0.122-0.117-0.239-0.239-0.361-0.363c-0.035-0.027-0.035-0.083,0-0.119
		c0.031-0.025,0.085-0.025,0.117,0c0.123,0.125,0.243,0.244,0.362,0.365c0.035,0.033,0.035,0.086,0,0.117
		c-0.015,0.02-0.039,0.026-0.057,0.026C42.589,10.773,42.569,10.767,42.552,10.747z"/>
	<path fill="#FFFFFF" d="M36.667,28.876c0.001-0.111,0.151-0.066,0.115-0.217c-0.057,0-0.113-0.003-0.165-0.003
		C36.622,28.739,36.592,28.86,36.667,28.876z"/>
	<path fill="#FFFFFF" d="M34.829,30.791c-0.032,0.148-0.231,0.13-0.222,0.326C34.723,31.082,34.947,30.876,34.829,30.791z"/>
	<path fill="#FFFFFF" d="M36.951,28.217"/>
	<path fill="#FFFFFF" d="M36.166,29.587c0.051-0.318,0.398-0.333,0.448-0.655c-0.176-0.031-0.218,0.117-0.332-0.002
		c0.055,0.352-0.242,0.341-0.391,0.49C36.142,29.321,35.964,29.643,36.166,29.587z"/>
	<path fill="#FFFFFF" d="M39.652,28.3c0.119,0.013,0.177-0.042,0.169-0.164C39.699,28.127,39.644,28.181,39.652,28.3z"/>
	<path fill="#FFFFFF" d="M39.54,28.797c0.01-0.396,0.036-0.467,0.114-0.824c-0.229,0.008-0.252,0.222-0.44,0.269v-0.222
		c-0.262-0.058-0.308,0.389-0.443,0.272c-0.125,0.037-0.111-0.164-0.271-0.222c0.07-0.167,0.443-0.321,0.334-0.494
		c-0.43,0.381-0.938,0.982-1.337,1.205c0.05-0.326,0.598-0.431,0.505-0.719c-0.254,0.172-0.45,0.398-0.831,0.434
		c0.003,0.349-0.307,0.544-0.503,0.495c-0.044,0.175-0.044,0.11,0.051,0.22c-0.381,0.054-0.381,0.5-0.665,0.654
		c0.128-0.218-0.101-0.219-0.217-0.334c-0.219,0.163-0.085,0.35-0.117,0.498c-0.437,0.275-0.659,0.773-1.006,1.146
		c-0.1,0.103,0.036,0.1,0,0.275c-0.346,0.284-0.403,0.779-0.563,1.15c-0.158,0.359-0.442,0.652-0.393,0.991
		c-0.159-0.05-0.149,0.075-0.276,0.053c0.146,0.482-0.206,0.792-0.347,1.15c-0.088,0-0.024-0.153-0.108-0.166
		c-0.117,0.159-0.143,0.41-0.227,0.605c0.204,0.042,0.1-0.235,0.225-0.271c0.031,0.61-0.184,0.965-0.346,1.372
		c-0.034-0.13,0.074-0.398-0.051-0.443c-0.052,0.163-0.052,0.17,0,0.334c-0.264,0.29-0.363,0.74-0.457,1.199
		c-0.692-0.104-1.498-0.137-2.407-0.042c-0.402-2.361-1.084-7.062-1.084-11.834c0-1.093,0.03-2.217,0.096-3.368
		c0.233-4.14,1.149-8.706,2.01-12.203c0.429-1.751,0.847-3.241,1.155-4.287c0.156-0.52,0.284-0.932,0.365-1.217
		c0.092-0.276-0.051-0.457-0.347-0.508c-0.696,0.097-2.275,0.696-3.1,1.082c-0.406,0.196-0.66,0.68-0.791,1.256
		c-1.021,3.699-2.51,9.892-2.849,15.675c-0.069,1.223-0.097,2.415-0.097,3.569c0.001,5.286,0.688,10.051,1.168,12.722
		c-0.725,0.281-1.485,0.633-2.287,1.084c-0.278,0.155-0.269,0.221-0.294,0.271c0.1,0.257,0.05,0.36,0.531,0.21
		c0.28-0.088,1.196-0.293,2.258-0.456c0.062,0.313,0.114,0.572,0.156,0.76c0.069,0.286,0.243,0.336,0.538,0.312l2.865-1.226
		c0.728,0.091,1.448,0.267,1.913,0.467c0.062,0.18,0.175,0.307,0.368,0.307c0.799,0,2.32-0.604,2.997-0.98
		c0.156-0.325,0.085-0.325,0.109-0.765c0.083-1.725,0.64-2.32,1.058-3.755c0.106,0.019,0.106-0.072,0.164-0.106
		c0.222-0.68,0.454-1.337,0.738-1.923c0.167-0.352,0.559-0.629,0.45-1.044c0.117-0.068,0.218-0.149,0.332-0.218
		c-0.061-0.474,0.241-0.156,0.119-0.607c0.234-0.143,0.368-0.401,0.39-0.762c0.227-0.143,0.597-0.434,0.506-0.714
		c-0.021,0.167-0.088,0.281-0.227,0.328C38.951,29.014,39.323,28.99,39.54,28.797z"/>
	<path fill="#FFFFFF" d="M33.974,33.481c0.044-0.102,0.075-0.222,0.169-0.274C34.237,33.235,34.167,33.561,33.974,33.481z"/>
	<path fill="#FFFFFF" d="M34.367,32.991c-0.057-0.037-0.057-0.132-0.167-0.115c0.054-0.094,0.205-0.088,0.226-0.219
		C34.613,32.766,34.329,32.854,34.367,32.991z"/>
	<path fill="#FFFFFF" d="M37.437,29.049c-0.097-0.038-0.005-0.098,0.001-0.164C37.538,28.93,37.446,28.987,37.437,29.049z"/>
	<path fill="#FFFFFF" d="M37.997,28.614c0.067-0.093,0.116-0.213,0.273-0.213C38.25,28.542,38.125,28.583,37.997,28.614z"/>
	<path fill="#FFFFFF" d="M38.437,28.622c0.092-0.163-0.369-0.37,0.003-0.441c0.003,0.159,0.016,0.308,0.217,0.277
		C38.611,28.538,38.612,28.671,38.437,28.622z"/>
	<path fill="#FFFFFF" d="M105.778,30.792c-0.077,0.1-0.135,0.23-0.152,0.346h0.227c0-0.008,0.001-0.015,0.005-0.017
		C105.873,30.968,105.853,30.854,105.778,30.792z"/>
	<rect x="47.716" y="29.227" fill="#FFFFFF" width="0.183" height="0.195"/>
	<path fill="#FFFFFF" d="M46.345,32.453c0.593-1.982,1.004-1.793,1.636-2.832c-0.712-0.206-0.503,0.624-1.093,0.557
		c0.056-0.089,0.219-0.355-0.083-0.293c-0.333,0.473-0.744,1.138-1.2,1.427c-0.196-0.88,1.035-1.374,0.862-2.214
		c-0.164,0.625-0.896,0.991-0.936,1.437c-0.164,0.267-0.499,0.413-0.733,0.664c-0.214,0.219-0.067,0.381-0.199,0.673
		c-0.055,0.127-0.264,0.112-0.365,0.284c-0.038,0.06-0.064,0.118-0.088,0.172c-0.003,0.008-0.003,0.016-0.003,0.016
		s0-0.008,0.003-0.016l0,0l0,0c0.026-0.072,0.021-0.175,0-0.255l0,0c-0.005-0.025-0.016-0.049-0.024-0.068l-0.001-0.006
		c-0.008-0.018-0.019-0.034-0.032-0.047h-0.002c-0.011-0.01-0.024-0.016-0.037-0.01h-0.003c-0.012,0-0.022,0.01-0.035,0.023v0.006
		c-0.019,0.018-0.027,0.043-0.045,0.08c0.297,0.037-0.355,0.292-0.005,0.386c0.001-0.015,0.01-0.034,0.023-0.05
		c0.004-0.005,0.013-0.014,0.027-0.022c0.001,0,0.001-0.003,0.006-0.008c0.029-0.013,0.069-0.018,0.121-0.011
		c-0.051,0.136-0.075,0.243-0.125,0.305c-0.182,0.221-0.519,0.021-0.188,0.288c-0.272-0.079-0.302,0.269-0.519,0.26
		c-0.976-3.828,0.807-11.971,1.483-13.682c0.138-0.372,0.036-0.452-0.027-0.484c-0.756-0.373-3.301,0.039-3.447,0.543
		c-0.981,3.008-1.568,8.654-1.568,8.654c-0.323,3.721,0.157,8.598,1.083,11.409c0.067,0.167,0.218,0.234,0.309,0.238
		c0.836,0.033,2.552-0.478,3.204-1.016c0.297-1.954,1.171-4.589,1.562-5.32l0.442-0.842c-0.016-0.006-0.026-0.017-0.042-0.021
		C46.086,32.557,45.839,32.437,46.345,32.453z"/>
	<path fill="#FFFFFF" d="M44.576,32.845c0.034-0.2,0.248-0.188,0.28-0.384C44.987,32.168,44.932,33.06,44.576,32.845z"/>
	<path fill="#FFFFFF" d="M45.5,31.795c-0.25,0.078-0.222,0.478-0.551,0.469c0.017-0.447,0.434-0.44,0.384-0.958
		C45.796,31.247,45.17,31.716,45.5,31.795z"/>
	<path fill="#FFFFFF" d="M108.644,28.124c0.167-0.422-0.143,0.013-0.269,0.1c0.026-0.062,0.22-0.375,0-0.395
		c-0.096,0.333-0.275,0.008-0.543,0.199c-0.14,0.478-0.106,0.615-0.085,0.871c-0.181,0.034-0.181-0.126-0.275-0.192
		c-0.218,0.225-0.03,0.427-0.176,0.585c-0.012-0.118-0.029-0.227-0.184-0.193c-0.072,0.271,0.129,0.25,0.095,0.485
		c-0.376-0.151-0.538,0.223-0.731,0.365c-0.007,0.065-0.055,0.138-0.086,0.218h0.004c-0.004,0.006-0.01,0.012-0.014,0.017
		c-0.021,0.067-0.037,0.137-0.005,0.211c-0.059,0.013-0.077-0.016-0.09-0.058c-0.075,0.141-0.135,0.305-0.159,0.509
		c-0.05-0.012-0.092-0.024-0.114-0.053c-0.047,0.113-0.097,0.227-0.154,0.33c0,0,0,0.008,0,0.017h-0.005
		c-0.053,0.084-0.108,0.159-0.185,0.218c0.015,0.313-0.458,0.448-0.438,0.845c-0.351-0.51,0.403-0.863,0.448-1.456
		c0.044,0.008,0.075,0.021,0.101,0.046c0.054-0.067,0.113-0.122,0.181-0.161c0.006-0.061,0.032-0.125,0.075-0.175
		c-0.002-0.095-0.109-0.076-0.177-0.096c0.008-0.188,0.175-0.205,0.359-0.2c0.042-0.051,0.084-0.104,0.116-0.16
		c-0.058-0.007-0.125-0.042-0.207-0.128c0.133-0.112,0.228-0.112,0.357,0c-0.25-0.781,0.919-1.647,0.54-2.237
		c-0.198,0.765-0.656,1.182-1.078,1.462v0.389c-0.268,0-0.305,0.251-0.539,0.289c0.1,0.407-0.204,0.352-0.269,0.485
		c-0.137,0.276-0.206,0.728-0.358,1.067c-0.156,0.348-0.305,0.778-0.632,0.976c0.063-0.646,0.435-0.959,0.543-1.557
		c-0.401-0.01-0.419,0.524-0.681,0.662c0.09-4.43,0.635-8.449,2.266-13.08c0.104-0.306-0.012-0.418-0.095-0.463
		c-1.14-0.607-3.627,0.631-3.836,1.316c-0.618,2.055-1.138,4.78-1.459,6.688c-0.408,0.352-1.202,1.036-1.569,0.995
		c0.237-0.25-0.171-0.142-0.179-0.393c0.194-0.183,0.677-0.559,0.451-0.874c-0.477,0.495-0.744,1.208-1.443,1.459
		c-0.009-0.184-0.056-0.327-0.176-0.392c0.008,0.496-0.478,0.459-0.54,0.877c0.297,0.286,0.391-0.309,0.54-0.099
		c-0.226,0.191-0.506,0.697-0.9,0.385c-0.028,0.233-0.142,0.368-0.09,0.688c-0.104,0.077-0.239,0.127-0.451,0.093
		c-0.298,0.811-0.796,1.406-1.257,2.041c0.112,0.415-0.232,0.841-0.359,0.678l-0.159,0.546c-0.152-1.826-0.259-3.989-0.259-6.435
		c0-1.091,0.025-2.218,0.093-3.367c0.233-4.14,1.149-8.702,2.01-12.204c0.433-1.751,0.848-3.241,1.156-4.282
		c0.157-0.524,0.282-0.94,0.367-1.218c0.087-0.276-0.051-0.459-0.347-0.513c-0.689,0.095-2.221,0.677-3.055,1.068
		c-0.337,0.153-0.638,0.471-0.771,1.022c-1.022,3.667-2.569,10.012-2.916,15.925c0,0.021,0,0.046,0,0.067
		c-0.426,0.377-0.915,0.757-1.222,0.748c-0.037,0.57-0.53,0.651-0.719,1.066c-0.021-0.172,0.093-0.485-0.177-0.392
		c0.068,0.527-0.446,0.429-0.269,1.074c-0.601,0.516-0.876,1.382-1.532,1.845c0.254,0.125-0.038,0.461-0.177,0.485
		c-0.115-0.242,0.201-0.469,0-0.485c-0.339,0.377-0.543,0.903-0.808,1.356c0.025,0.337,0.307,0.598,0,0.781
		c-0.473-0.07,0.318-0.35-0.183-0.389c-0.364,0.837-0.9,1.485-1.079,2.526l-0.184,0.841c-0.16-1.79-0.271-3.802-0.271-5.955
		c0-1.091,0.029-2.218,0.092-3.367c0.236-4.14,1.152-8.702,2.015-12.204c0.431-1.751,0.849-3.241,1.155-4.282
		c0.152-0.524,0.278-0.94,0.367-1.218c0.088-0.276-0.054-0.459-0.351-0.513c-0.717,0.1-2.369,0.734-3.172,1.125
		c-0.441,0.193-0.619,0.86-0.705,1.183c-1.026,3.694-2.522,9.911-2.86,15.708c-0.068,1.221-0.102,2.417-0.102,3.567
		c0.005,3.044,0.226,5.789,0.493,8.042c0.063,0.586,0.131,1.175,0.205,1.756c0.097,0.758,0.218,1.518,0.344,2.275
		c0.066,0.411,0.225,1.23,0.427,1.811c0.008,0.017,0.012,0.037,0.013,0.052c0.004,0.006,0.012,0.011,0.013,0.013
		c0.066,0.175,0.132,0.324,0.204,0.426c0.109,0.167,0.351,0.171,0.405,0.167c0.871,0.083,2.305-0.378,2.832-0.963l0.126-0.563
		c1.342-6.513,4.032-11.688,5.023-13.157c0,0.045-0.002,0.097-0.002,0.142c0.002,6.747,1.025,12.165,1.398,13.902
		c0.016,0.058,0.107,0.238,0.274,0.371c0.075,0.076,0.154,0.105,0.229,0.115c0.08,0.029,0.169,0.04,0.269,0.032
		c0.126,0.008,0.26-0.013,0.405-0.061c0.958-0.167,1.875-0.78,2.1-0.858c1.093-4.019,4-10.059,4.961-11.07
		c0.021-0.164,0.057-0.391,0.104-0.678l-0.06,0.632c-0.015,0.012-0.032,0.034-0.045,0.046c-0.026,0.179-0.043,0.278-0.043,0.278
		c-0.433,3.736-0.057,8.576,1.039,11.556c0.021,0.06,0.082,0.144,0.27,0.205c0.646-0.007,2.388-0.468,3.053-1.027
		c0.183-0.97,0.365-2.547,1.034-4.489c0.443-1.133,0.783-2.062,1.283-3.064c0.6-1.422,1.63-2.896,2.155-4.078
		C109.082,27.502,108.999,27.957,108.644,28.124z"/>
	<path fill="#FFFFFF" d="M85.407,29.872c0-0.026-0.015-0.281,0-0.29C85.632,29.451,85.399,30.361,85.407,29.872z"/>
	<path fill="#FFFFFF" d="M85.946,30.942c-0.307-0.187,0.154-0.343,0.093-0.582C86.293,30.487,85.966,30.791,85.946,30.942z"/>
	<path fill="#FFFFFF" d="M86.309,29.872c0.001-0.17,0.202-0.849,0.533-0.974C86.613,29.17,86.64,29.716,86.309,29.872z"/>
	<path fill="#FFFFFF" d="M86.736,31.853c-0.306-0.183,0.15-0.34,0.091-0.583C87.08,31.395,86.757,31.701,86.736,31.853z"/>
	<path fill="#FFFFFF" d="M86.937,28.706c-0.246-0.088,0.125-0.303,0-0.582C87.343,28.12,86.966,28.575,86.937,28.706z"/>
	<path fill="#FFFFFF" d="M87.202,27.828c-0.042-0.302,0.245-0.253,0.274-0.479C87.602,27.367,87.431,27.868,87.202,27.828z"/>
	<path fill="#FFFFFF" d="M87.725,29.617c-0.248-0.088,0.125-0.304,0-0.585C88.133,29.032,87.753,29.483,87.725,29.617z"/>
	<path fill="#FFFFFF" d="M87.743,26.864"/>
	<path fill="#FFFFFF" d="M87.994,28.742c-0.042-0.304,0.239-0.259,0.272-0.483C88.388,28.274,88.217,28.781,87.994,28.742z"/>
	<path fill="#FFFFFF" d="M88.285,26.279c-0.173-0.016-0.019-0.172,0-0.196C88.604,25.678,88.241,26.274,88.285,26.279z"/>
	<path fill="#FFFFFF" d="M88.53,27.773"/>
	<path fill="#FFFFFF" d="M88.823,25.499"/>
	<path fill="#FFFFFF" d="M89.07,27.187c-0.175-0.013-0.018-0.172,0-0.193C89.396,26.586,89.033,27.184,89.07,27.187z"/>
	<path fill="#FFFFFF" d="M89.609,26.409"/>
	<path fill="#FFFFFF" d="M90.533,23.561c-0.126-0.029-0.075-0.247-0.092-0.387C90.65,23.197,90.65,23.429,90.533,23.561z"/>
	<path fill="#FFFFFF" d="M97.606,29.39c0.172-0.175-0.104-0.288,0.095-0.492c0.102,0.02,0.048,0.103,0,0.103
		c0.002,0.09,0.109,0.072,0.177,0.097C97.784,29.186,97.849,29.454,97.606,29.39z"/>
	<path fill="#FFFFFF" d="M98.237,28.416c-0.101-0.019-0.049-0.1,0-0.1c0.029-0.193-0.017-0.302-0.176-0.289
		c0.08-0.233,0.359-0.259,0.628-0.29C98.638,28.071,98.426,28.23,98.237,28.416z"/>
	<path fill="#FFFFFF" d="M98.689,27.35c-0.05-0.346,0.317-0.241,0.269-0.585C99.581,26.843,99.146,27.677,98.689,27.35z"/>
	<path fill="#FFFFFF" d="M105.046,32.499c0.042-0.122,0.117-0.202,0.271-0.196C105.279,32.422,105.202,32.502,105.046,32.499z"/>
	<path fill="#FFFFFF" d="M47.314,38.196c0.012,0.027,0.025,0.032,0.032,0.032c-0.006-0.014-0.023-0.032-0.035-0.047
		C47.311,38.188,47.311,38.196,47.314,38.196z"/>
	<path fill="#FFFFFF" d="M106.375,29.812c0.009,0.064-0.008,0.125-0.042,0.188c0.051,0,0.098-0.021,0.143-0.053
		C106.483,29.896,106.46,29.846,106.375,29.812z"/>
	<path fill="#FFFFFF" d="M77.568,30.493c-0.197-0.019-0.287,0.078-0.268,0.291C77.497,30.801,77.587,30.704,77.568,30.493z"/>
	<path fill="#FFFFFF" d="M105.618,31.185c0.001-0.011,0.001-0.032,0.008-0.046h-0.04C105.599,31.152,105.606,31.173,105.618,31.185z
		"/>
	<path fill="#FFFFFF" d="M78.915,29.032"/>
	<path fill="#FFFFFF" d="M47.114,37.604v-0.103c-0.05,0-0.059-0.039-0.1-0.049C47.018,37.53,47.01,37.622,47.114,37.604z"/>
	<path fill="#FFFFFF" d="M68.164,28.238c0.042,0.003,0.087,0.003,0.129,0.006l0.008-0.006
		C68.293,28.244,68.164,28.238,68.164,28.238z"/>
	<path fill="#FFFFFF" d="M80.174,29.905c-0.035-0.231,0.163-0.208,0.09-0.482c-0.495,0.326-0.884,0.695-1.257,0.775
		c-0.149-0.553,0.694-0.538,0.36-0.969c-0.367,0.286-0.539,0.781-0.992,0.969c0.105-0.25,0.773-0.581,0.36-0.775
		c-0.255,0.206-0.49,0.441-0.626,0.775c-0.178,0.03-0.181-0.13-0.272-0.193c-0.121,0.481-0.391,1.297-0.807,0.875
		c-1.619,1.666-2.849,3.593-3.865,5.44c-1.293-2.19-1.351-5.587-0.841-8.874c2.333-0.499,4.535-1.568,5.738-2.657
		c0.757-0.694,2.14-2.158,1.933-4.33c-0.055-0.569-0.21-1.051-0.59-1.657c-1.118-1.819-2.385-2.317-2.981-2.609
		c-2.565-1.264-5.89-1.66-9.143-1.193c-0.361,0.054-1.748,0.384-2.944,0.677c0.363-2.078,0.803-4.074,1.234-5.809
		c0.431-1.751,0.846-3.241,1.154-4.282c0.154-0.524,0.279-0.94,0.369-1.218c0.085-0.276-0.055-0.459-0.351-0.513
		c-0.678,0.092-2.187,0.664-3.026,1.052c-0.538,0.266-0.647,0.849-0.723,1.119c-0.739,2.633-1.777,6.624-2.435,10.835
		c-1.236,0.476-2.469,0.97-3.557,1.565c-0.522,0.285-1.134,0.789-1.644,0.945c-0.208,0.062-0.431,0.042-0.644,0.1
		c-0.95,0.255-1.274,0.519-1.783,1.203c-0.472,0.633-1.417,1.79-1.819,2.406c-0.615,0.954-1.141,1.891-1.115,3.095
		c0.019,1.26,0.903,1.727,1.687,2.434c-0.136,0.323-0.535,0.398-0.747,0.398c0.1,0.149-0.356,0.173-0.348,0.397
		c-0.255,0.045-0.36,0.235-0.495,0.4c-0.326,0.072-0.593,0.404-0.598,0.641c-0.288-0.007-0.271,0.291-0.497,0.351
		c-0.18,0.532-0.674,0.749-0.795,1.343c-0.087-0.005-0.151,0.008-0.199,0.047c-0.064,0.384-0.349,0.742-0.542,1.144
		c-0.367,0.749-0.468,1.549-0.651,2.234c0.145,0.223-0.021,0.62,0,0.945c0.012,0.117,0.134,0.079,0.153,0.149
		c0.027,0.117-0.229,0.125-0.103,0.248c0.103,0.047,0.176,0.118,0.2,0.246c-0.046,0.105-0.004,0.229,0.05,0.349
		c0.079,0.173,0.193,0.334,0.097,0.396v-0.046c-0.013-0.046-0.097-0.255-0.147-0.101c0.05,0.173,0.147,0.305,0.247,0.43
		c-0.003-0.035-0.003-0.125,0.003-0.132c0.073-0.077,0.084,0.18,0.032,0.179c0.121,0.155,0.236,0.318,0.267,0.565
		c0.331,0.13,0.463,0.463,0.844,0.546c-0.088,0.25,0.014,0.033,0.146,0.151c0.119,0.091,0.034,0.154,0.201,0.25
		c1.068,0.44,2.235,0.699,3.379,0.591c3.212-0.299,6.579-2.486,7.061-3.936c0.643-1.924,0.046-3.331-0.535-4.496
		c-0.905-1.815-4.616-5.31-5.616-7.11c-0.732-1.321,0.707-2.581,1.605-3.423c1.698-1.589,4.035-2.768,5.705-3.436
		c-0.181,1.313-0.322,2.637-0.397,3.939c-0.067,1.221-0.101,2.417-0.101,3.567c0.005,6.998,1.107,12.562,1.438,14.082l0.018,0.113
		c0.392,0.53,2.852-0.218,3.496-0.934c0.284-1.167,0.59-2.316,0.921-3.432c0.689-2.293,2.187-5.961,2.95-6.86
		c-0.212,0.821-0.306,2.868-0.301,2.907c0.106,2.873,0.883,6.349,2.223,8.114c0.404,0.362,0.947,0.847,1.741,0.723
		c0.879-0.135,2.215-0.397,2.933-0.916c0.821-3.229,3.423-7.759,4.852-9.038c0.367-0.024,0.419-0.389,0.54-0.679
		C80.374,29.479,80.396,29.822,80.174,29.905L80.174,29.905z M54.266,30.947c1.233,1.279,2.518,5.237,1.112,7.198
		c-0.422,0.598-1.481,0.927-2.448,0.818c-1.328-0.146-2.33-0.61-2.985-1.511c-0.276-0.382-0.545-1.068-0.648-1.692
		c-0.079-0.498-0.06-1.024,0-1.489c0.238-1.731,1.325-3.294,2.237-4.417c-0.17-0.228,0.344-0.496,0.102-0.496
		c0.082-0.164,0.249-0.243,0.342-0.402c-0.041-0.115-0.12,0.142-0.294,0.051c0.002-0.127,0.214-0.055,0.148-0.249
		c-0.109,0.013-0.235,0.203-0.148,0c0.039-0.036,0.135-0.077,0.148,0C52.672,29.21,53.442,30.088,54.266,30.947L54.266,30.947z
		 M68.961,27.43c-0.003,0.013-0.175,0.715-0.179,0.731c-0.205,0.093-0.349,0.091-0.489,0.083l-0.233,0.277
		c-0.015-0.095,0.04-0.199,0.104-0.283c-0.13,0-0.264,0.016-0.44,0.146c-0.045-0.03-0.087-0.071-0.087-0.146
		c0.191-0.188,0.673-0.561,0.446-0.876c-0.472,0.495-0.74,1.209-1.438,1.46c-0.013-0.183-0.06-0.327-0.18-0.39
		c0.012,0.498-0.48,0.453-0.537,0.875c0.297,0.288,0.388-0.307,0.537-0.098c-0.221,0.185-0.506,0.692-0.895,0.387
		c-0.029,0.228-0.143,0.366-0.091,0.682c-0.106,0.082-0.242,0.128-0.452,0.096c-0.143,0.397-0.339,0.74-0.549,1.061
		c-0.188,0.237-0.358,0.485-0.527,0.736c-0.042,0.056-0.082,0.111-0.124,0.172c-0.21-2.015-0.368-4.366-0.368-6.904
		c0-1.091,0.033-2.218,0.1-3.367c0.093-1.707,0.31-3.483,0.584-5.235l0.951-0.25c2.797-0.652,6.055-0.374,8.447,0.696
		c-0.052,0.037-0.112,0.081-0.164,0.15C70.857,20.684,69.305,25.874,68.961,27.43L68.961,27.43z M76.072,19.124
		c0.86,1.058,1.254,2.957,0.547,4.47c-0.003,0.01-0.034,0.071-0.046,0.097c-0.672,1.184-1.958,2.397-4.056,2.651
		c0.67-3.474,1.91-6.645,2.89-7.899C75.656,18.656,75.88,18.881,76.072,19.124z"/>
	<path fill="#FFFFFF" d="M64.632,32.771c-0.306-0.183,0.156-0.342,0.09-0.585C64.981,32.317,64.658,32.62,64.632,32.771z"/>
	<path fill="#FFFFFF" d="M65.119,32.615c0-0.032-0.018-0.284,0-0.292C65.341,32.192,65.11,33.1,65.119,32.615z"/>
	<path fill="#FFFFFF" d="M64.994,31.701c0-0.064,0.029-0.206,0.087-0.36l0.296-0.315C65.285,31.291,65.227,31.591,64.994,31.701z"/>
	<path fill="#FFFFFF" d="M65.42,33.682c-0.306-0.184,0.156-0.342,0.091-0.584C65.77,33.226,65.442,33.53,65.42,33.682z"/>
	<path fill="#FFFFFF" d="M65.545,31.565c0.168-0.17-0.104-0.283,0.088-0.483c0.104,0.02,0.054,0.094,0,0.094
		c0.005,0.097,0.113,0.079,0.184,0.1C65.72,31.366,65.787,31.633,65.545,31.565z"/>
	<path fill="#FFFFFF" d="M66.408,31.443c-0.244-0.086,0.125-0.299,0-0.577C66.816,30.86,66.44,31.312,66.408,31.443z"/>
	<path fill="#FFFFFF" d="M66.173,30.595c-0.098-0.021-0.046-0.097,0-0.097c0.032-0.196-0.018-0.304-0.18-0.291
		c0.083-0.236,0.363-0.257,0.635-0.291C66.575,30.25,66.361,30.407,66.173,30.595z"/>
	<path fill="#FFFFFF" d="M66.68,30.571c-0.044-0.302,0.24-0.259,0.27-0.482C67.076,30.104,66.899,30.608,66.68,30.571z"/>
	<path fill="#FFFFFF" d="M66.628,29.528c-0.053-0.346,0.313-0.241,0.264-0.585C67.518,29.023,67.079,29.859,66.628,29.528z"/>
	<path fill="#FFFFFF" d="M67.218,29.601"/>
	<path fill="#FFFFFF" d="M67.758,29.016c-0.167-0.015-0.016-0.172,0-0.19c0.005-0.008,0.005-0.008,0.008-0.011
		c0.058-0.042,0.101-0.081,0.119-0.109C67.862,28.781,67.733,29.014,67.758,29.016z"/>
	<path fill="#FFFFFF" d="M78.556,30.587c-0.066-0.267,0.18-0.196,0.18-0.389C78.855,30.152,78.776,30.68,78.556,30.587z"/>
</g>
<g>
	<path fill="#FFFFFF" d="M21.142,53.712c0.212,0.6,0.317,1.272,0.317,2.019c0,1.324-0.333,2.637-1.008,3.937
		c-0.988,1.872-2.138,3.558-3.445,5.053c-2.137,2.432-4.401,3.749-6.788,3.938c-1.078,0.095-1.945-0.165-2.599-0.781
		c-0.424,0.78-1.03,1.859-1.816,3.235c-0.788,1.377-1.362,2.33-1.736,2.855c-0.69,1.051-1.387,1.89-2.093,2.518
		c-0.23,0.194-0.461,0.295-0.691,0.298c-0.211,0-0.389-0.09-0.53-0.271c-0.406-0.654-0.406-1.654,0-2.996
		c0.053-0.181,0.169-0.242,0.345-0.188c0.106,0.042,0.176,0.143,0.212,0.298c-0.036,0.975,0.054,1.533,0.266,1.674
		c0.089,0.062,0.258-0.021,0.504-0.255c0.919-0.877,1.74-1.921,2.466-3.134c0.883-1.473,1.758-3.008,2.625-4.604
		c-0.354-0.605-0.46-1.382-0.319-2.331c0.089-0.607,0.393-1.203,0.915-1.778c0.521-0.575,1.083-0.86,1.684-0.86
		c0.124,0.005,0.22,0.015,0.292,0.027c0.618-1.24,1.554-3.105,2.808-5.602c0.461-0.96,1.193-2.385,2.201-4.277
		c-1.128,0.295-2.571,0.952-4.319,1.971c-1.557,0.912-2.644,1.832-3.261,2.75c-0.391,0.583-0.532,0.975-0.425,1.178
		c0,0.104-0.044,0.179-0.132,0.223c-0.089,0.061-0.15,0.06-0.186-0.01c-0.178-0.409-0.1-0.937,0.238-1.586
		c0.478-0.96,1.547-1.973,3.208-3.038c2.247-1.433,4.119-2.347,5.621-2.745c0.795-1.271,1.466-2.036,2.015-2.296
		c0.212-0.088,0.343-0.05,0.396,0.124c0.055,0.154-0.023,0.295-0.238,0.42c-0.46,0.356-0.902,0.893-1.323,1.603
		c0.652-0.112,1.314-0.098,1.986,0.039C19.673,51.389,20.61,52.252,21.142,53.712z M9.342,63.168
		c-0.421,0.038-0.805,0.267-1.138,0.696c-0.337,0.425-0.513,0.862-0.53,1.304c0,0.213,0.051,0.517,0.16,0.915L9.342,63.168z
		 M19.947,58.872c0.389-0.917,0.583-1.808,0.583-2.675c0-0.918-0.22-1.712-0.662-2.38c-0.583-0.886-1.337-1.404-2.255-1.552
		c-0.547-0.095-1.175-0.091-1.882,0.004c-0.053,0.093-0.141,0.276-0.265,0.553c-1.273,2.797-2.935,6.08-4.984,9.848
		c0.459,0.296,0.812,0.75,1.061,1.362c0.071,0.173,0.026,0.318-0.135,0.438c-0.157,0.119-0.321,0.071-0.489-0.144
		c-0.17-0.215-0.438-0.528-0.809-0.936l-1.854,3.371c0.53,0.534,1.351,0.79,2.466,0.765c1.43-0.036,3.097-0.948,4.995-2.729
		C17.619,63.013,19.028,61.041,19.947,58.872z"/>
	<path fill="#FFFFFF" d="M29.596,70.752c-1.041,1.038-1.996,1.864-2.863,2.485c-0.671,0.479-1.334,0.748-1.987,0.804
		c-0.672,0.059-1.132-0.04-1.378-0.301c-0.479-0.481-0.495-1.16-0.055-2.039c-0.635,0.71-1.376,1.366-2.226,1.97
		c-0.918,0.629-1.688,0.986-2.306,1.078c-0.479,0.076-0.861-0.042-1.14-0.353c-0.248-0.259-0.335-0.553-0.266-0.878
		c0.123-0.628,0.699-1.669,1.723-3.117c0.62-0.835,1.247-1.666,1.882-2.498c0.321-0.416,0.593-0.566,0.821-0.445
		c0.072,0.049,0.108,0.099,0.108,0.15c0,0.018-0.187,0.272-0.556,0.765c-0.425,0.532-0.85,1.056-1.273,1.571
		c-0.69,0.942-1.21,1.872-1.564,2.786c-0.035,0.073-0.054,0.146-0.054,0.218c0,0.513,0.346,0.728,1.034,0.65
		c0.99-0.119,2.155-0.914,3.5-2.375c1.129-1.351,2.264-2.714,3.393-4.088c0.088-0.112,0.202-0.173,0.344-0.189
		c0.301-0.024,0.451,0.085,0.451,0.331c0,0.055-0.017,0.11-0.051,0.164c-0.213,0.281-0.62,0.792-1.222,1.53
		c-0.758,0.929-1.361,1.881-1.8,2.852c-0.055,0.13-0.082,0.28-0.082,0.455c0,0.67,0.345,0.974,1.034,0.914
		c0.495-0.043,0.919-0.178,1.272-0.399c1.291-0.812,2.288-1.546,2.998-2.2c0.069-0.062,0.147-0.068,0.238-0.023
		C29.677,70.612,29.685,70.675,29.596,70.752z"/>
	<path fill="#FFFFFF" d="M39.087,69.926c-1.201,1.201-2.191,2.082-2.969,2.643c-1.342,0.983-2.537,1.495-3.578,1.533
		c-0.602,0.018-1.018-0.061-1.247-0.236c-0.353-0.269-0.47-0.683-0.343-1.241c0.229-1.046,1.128-2.378,2.702-3.999
		c-0.247-0.706-0.318-1.352-0.213-1.944c-0.686,0.713-1.917,1.995-3.684,3.846c-0.123,0.136-0.212,0.117-0.265-0.055
		c0-0.07,0.017-0.152,0.053-0.243c0.212-0.214,1.105-1.175,2.68-2.886c0.53-0.596,1.146-1.266,1.854-2.019
		c0.334-0.419,0.625-0.497,0.874-0.234c0.194,0.212,0.116,0.536-0.238,0.975c-0.196,0.247-0.292,0.511-0.292,0.795
		c0,0.192,0.062,0.483,0.185,0.871c0.124,0.388,0.185,0.686,0.185,0.898c0,0.316-0.078,0.527-0.238,0.63
		c-0.53,0.349-1.051,0.883-1.562,1.609c-0.513,0.725-0.805,1.301-0.876,1.734c-0.072,0.393,0.141,0.57,0.638,0.526
		c1.076-0.094,2.068-0.437,2.968-1.028c1.36-0.898,2.394-1.677,3.101-2.339c0.069-0.059,0.15-0.066,0.238-0.021
		C39.166,69.785,39.175,69.846,39.087,69.926z"/>
	<path fill="#FFFFFF" d="M49.427,68.753c-0.76,0.846-1.76,1.631-2.994,2.355c-0.461,0.273-1.213,0.576-2.254,0.915
		c-1.152,0.366-2.094,0.581-2.84,0.646c-2.314,0.201-3.426-0.442-3.337-1.936c0.017-0.355,0.15-0.729,0.396-1.122
		c0.761-1.232,2.055-2.416,3.885-3.548c1.829-1.133,3.398-1.685,4.707-1.658c0.07,0.05,0.157,0.113,0.266,0.191
		c0.051,0.047,0.061,0.119,0.025,0.211l-0.078,0.246c-0.056,0.075-0.143,0.197-0.266,0.366c-0.072,0.061-0.284,0.258-0.636,0.588
		c-1.929,1.113-4.146,2.262-6.656,3.457c-0.246,0.237-0.442,0.616-0.583,1.143c0.125,0.843,0.962,1.249,2.518,1.218
		c0.46-0.005,1.198-0.137,2.216-0.394c1.014-0.26,1.743-0.497,2.187-0.715c1.202-0.604,2.225-1.32,3.073-2.144
		c0.091-0.095,0.197-0.105,0.32-0.027C49.496,68.589,49.515,68.658,49.427,68.753z M46.352,65.206c0-0.088-0.229-0.086-0.689,0.005
		c-2.209,0.743-4.022,1.882-5.435,3.42c2.103-0.996,3.959-1.963,5.567-2.901C46.165,65.434,46.352,65.26,46.352,65.206z"/>
	<path fill="#FFFFFF" d="M83.678,43.994c0.053,0.171-0.009,0.282-0.187,0.333c-1.538,0.292-2.977,1.197-4.321,2.712
		c1.079,0.26,1.663,0.898,1.751,1.915c0,0.39-0.151,0.731-0.452,1.021c-0.652,0.481-1.183,0.74-1.589,0.776
		c-0.247,0.02-0.503,0-0.771-0.064c-0.811-0.213-1.085-0.817-0.82-1.812c0.088-0.222,0.229-0.534,0.425-0.937
		c-0.831,0.035-1.496,0.201-1.989,0.489c-4.013,2.349-6.019,4.717-6.019,7.102c0,0.479,0.09,0.945,0.266,1.409
		c1.36-0.843,2.642-1.371,3.844-1.583c1.114-0.204,1.883,0.031,2.308,0.699c0.157,0.2,0.21,0.479,0.157,0.835
		c-0.068,0.289-0.204,0.54-0.396,0.75c-0.849,0.961-1.928,1.496-3.235,1.61c-1.254,0.109-2.253-0.228-2.994-1.01
		c-2.547,1.652-4.667,3.631-6.364,5.938c-0.849,1.171-1.273,2.407-1.273,3.716c0,1.023,0.301,1.918,0.902,2.679
		c0.495,0.468,1.395,0.646,2.704,0.532c0.334-0.028,0.618-0.08,0.85-0.155c2.121-0.732,4.082-1.814,5.885-3.244
		c0.636-0.497,2.21-1.943,4.717-4.336c0.088-0.133,0.229-0.152,0.426-0.065c0.072,0.173,0.062,0.312-0.027,0.429
		c-4.613,5.354-8.846,8.197-12.698,8.533c-0.566,0.048-1.167-0.017-1.803-0.2c-0.635-0.185-1.043-0.38-1.22-0.596
		c-0.707-0.911-1.06-1.94-1.06-3.089c0-2.667,1.512-5.274,4.534-7.82c1.679-1.42,2.985-2.443,3.923-3.073
		c-0.248-0.489-0.372-1.045-0.372-1.665c0-1.288,0.44-2.539,1.325-3.746c1.292-1.775,3.067-3.247,5.329-4.418
		c0.954-0.489,1.944-0.726,2.972-0.711c1.216-1.396,2.798-2.409,4.743-3.039C83.465,43.807,83.642,43.837,83.678,43.994z
		 M74.93,56.874c-0.054-0.244-0.161-0.376-0.318-0.397c-0.901-0.169-1.786-0.028-2.65,0.419c-0.318,0.15-0.821,0.435-1.515,0.846
		c0.605,0.515,1.318,0.734,2.15,0.66c0.776-0.067,1.484-0.384,2.12-0.953C74.876,57.293,74.945,57.101,74.93,56.874z M79.993,48.662
		c-0.265-0.436-0.776-0.674-1.538-0.711l-0.027,0.025c-0.246,0.359-0.371,0.741-0.371,1.147c0,0.477,0.248,0.747,0.744,0.809
		c0.389,0.037,0.768-0.146,1.142-0.548C80.116,49.137,80.135,48.897,79.993,48.662z"/>
	<path fill="#FFFFFF" d="M86.632,65.256c-0.584,0.579-1.662,1.337-3.232,2.27c-0.799,0.475-1.868,0.923-3.21,1.339
		c-1.469,0.447-2.68,0.687-3.631,0.717c-0.743,0.013-1.363-0.11-1.857-0.367c-0.565-0.305-0.812-0.795-0.741-1.473
		c0.124-1.089,0.832-2.202,2.12-3.339c2.405-2.12,4.348-3.245,5.831-3.376c0.302-0.025,0.585-0.025,0.85,0.006
		c0.425,0.051,0.639,0.185,0.639,0.395c0.282-0.253,0.447-0.381,0.501-0.386c0.176-0.019,0.212,0.084,0.105,0.307
		c-0.089,0.097-0.255,0.292-0.502,0.588c-0.249,0.296-0.611,0.764-1.087,1.407c-0.305,0.431-0.584,0.661-0.85,0.685
		c-0.036,0.001-0.062-0.005-0.078-0.022c-0.089-0.149,0.097-0.475,0.555-0.977c0.266-0.375,0.416-0.707,0.452-0.992
		c0.035-0.337-0.107-0.496-0.425-0.466c-0.864,0.073-1.704,0.39-2.517,0.938c-2.141,1.433-3.556,2.964-4.242,4.605
		c-0.054,0.109-0.08,0.244-0.08,0.404c0,0.834,0.583,1.235,1.75,1.207c1.997-0.036,3.976-0.547,5.938-1.538
		c1.078-0.542,1.707-0.862,1.882-0.967c0.601-0.339,1.123-0.714,1.564-1.128c0.069-0.06,0.147-0.066,0.238-0.021
		C86.71,65.114,86.718,65.176,86.632,65.256z"/>
	<path fill="#FFFFFF" d="M96.812,64.019c-0.053,0.092-0.08,0.141-0.08,0.141s-0.104,0.097-0.319,0.29
		c-0.863,0.679-1.626,1.08-2.277,1.208c-0.585,0.104-0.902,0.159-0.955,0.163c-0.248-0.012-0.406-0.035-0.478-0.064
		c-1.856,1.896-3.675,2.92-5.462,3.075c-0.53,0.046-1.033-0.014-1.511-0.186c-0.317-0.112-0.521-0.386-0.609-0.819
		c-0.087-0.398-0.072-0.79,0.052-1.172c0.374-1.164,1.283-2.391,2.732-3.685c1.078-0.979,2.298-1.703,3.658-2.179
		c0.282-0.216,0.608-0.343,0.981-0.376c1.006-0.089,1.644,0.256,1.908,1.027c0.052,0.174,0.078,0.443,0.078,0.813
		c0,0.777-0.424,1.743-1.27,2.896c0.316,0.008,0.582-0.007,0.792-0.042c0.602-0.108,1.309-0.471,2.121-1.09l0.398-0.246
		c0.124-0.08,0.204-0.079,0.239,0.005C96.865,63.845,96.865,63.924,96.812,64.019z M91.881,65.431
		c-0.938-0.36-1.405-1.142-1.405-2.343c0-0.425,0.115-0.876,0.345-1.355c-0.796,0.387-1.548,0.876-2.254,1.469
		c-0.707,0.594-1.317,1.247-1.83,1.962c-0.317,0.454-0.529,0.987-0.635,1.596c-0.035,0.232,0.028,0.456,0.198,0.671
		c0.168,0.215,0.41,0.328,0.729,0.334c0.212-0.001,0.425-0.011,0.637-0.028c0.812-0.072,1.607-0.353,2.386-0.845
		C90.368,66.685,90.979,66.2,91.881,65.431z M93.896,62.284c0-0.265-0.082-0.504-0.24-0.722c-0.28-0.381-0.653-0.552-1.112-0.512
		c-0.83,0.073-1.247,0.721-1.247,1.94c0,0.972,0.381,1.606,1.14,1.912C93.408,63.708,93.896,62.833,93.896,62.284z"/>
	<path fill="#FFFFFF" d="M111.708,41.985c-0.032,1.328-1.033,3.359-2.995,6.094c-1.147,1.603-3.553,4.332-7.21,8.186l-1.855,1.965
		c-0.441,0.729-0.938,1.56-1.485,2.488c-1.007,2.069-1.582,3.593-1.723,4.579c-0.141,1.036,0.211,1.52,1.06,1.444
		c0.513-0.044,0.939-0.18,1.272-0.403c1.133-0.735,2.148-1.529,3.05-2.388c0.071-0.057,0.15-0.065,0.238-0.018
		c0.106,0.041,0.115,0.101,0.026,0.181c-1.342,1.337-2.313,2.228-2.915,2.667c-0.674,0.484-1.336,0.755-1.99,0.81
		c-0.972,0.087-1.502-0.309-1.59-1.185c-0.142-1.542,0.521-3.615,1.989-6.217c1.148-2.115,2.809-5.011,4.983-8.684
		c2.456-3.695,5.223-7.013,8.299-9.949c0.229-0.215,0.449-0.262,0.663-0.139C111.647,41.494,111.708,41.684,111.708,41.985z
		 M110.941,42.952c0-0.248-0.133-0.228-0.397,0.063c-1.963,1.653-4.323,4.583-7.077,8.781c-1.238,1.913-2.256,3.575-3.049,4.989
		c0.176-0.193,0.432-0.473,0.767-0.836c1.237-1.327,2.466-2.646,3.685-3.957c1.361-1.513,2.502-2.913,3.42-4.195
		c0.921-1.283,1.466-2.065,1.644-2.344C110.499,44.521,110.836,43.686,110.941,42.952z"/>
	<path fill="#FFFFFF" d="M112.265,62.666c-0.052,0.093-0.078,0.138-0.078,0.138s-0.105,0.1-0.319,0.294
		c-0.866,0.676-1.626,1.08-2.277,1.208c-0.585,0.104-0.904,0.159-0.956,0.164c-0.249-0.014-0.406-0.037-0.479-0.064
		c-1.854,1.896-3.675,2.918-5.46,3.075c-0.531,0.045-1.033-0.018-1.512-0.188c-0.318-0.111-0.521-0.386-0.608-0.821
		c-0.09-0.397-0.071-0.787,0.052-1.17c0.373-1.165,1.282-2.392,2.731-3.686c1.076-0.977,2.298-1.703,3.659-2.177
		c0.28-0.216,0.608-0.343,0.981-0.376c1.006-0.09,1.642,0.252,1.907,1.023c0.055,0.175,0.08,0.446,0.08,0.816
		c0,0.778-0.425,1.744-1.273,2.896c0.319,0.008,0.585-0.006,0.794-0.045c0.603-0.104,1.309-0.468,2.123-1.087l0.397-0.246
		c0.123-0.08,0.201-0.079,0.237,0.004C112.32,62.494,112.32,62.572,112.265,62.666z M107.334,64.078
		c-0.936-0.359-1.403-1.141-1.403-2.343c0-0.424,0.114-0.875,0.343-1.355c-0.794,0.388-1.547,0.877-2.254,1.47
		s-1.315,1.246-1.828,1.963c-0.319,0.451-0.529,0.983-0.636,1.595c-0.035,0.232,0.031,0.456,0.199,0.671
		c0.167,0.215,0.409,0.327,0.729,0.334c0.212-0.002,0.423-0.012,0.636-0.028c0.812-0.072,1.607-0.354,2.387-0.845
		C105.822,65.334,106.431,64.846,107.334,64.078z M109.351,60.933c0-0.266-0.082-0.504-0.24-0.722
		c-0.28-0.381-0.654-0.552-1.111-0.511c-0.83,0.072-1.248,0.717-1.248,1.937c0,0.972,0.381,1.61,1.14,1.915
		C108.863,62.353,109.351,61.479,109.351,60.933z"/>
	<path fill="#FFFFFF" d="M124.194,61.782c0.069,0.03,0.053,0.091-0.054,0.191c-1.219,1.219-2.2,2.108-2.943,2.667
		c-0.21,0.163-1.235,0.967-3.073,2.417c-2.633,6.452-5.699,12.859-9.2,19.229c-1.431,2.636-2.854,5.279-4.267,7.931
		c-1.733,2.944-3.507,5.316-5.328,7.119c-0.496,0.485-0.973,0.749-1.433,0.789c-0.477,0.042-0.813-0.192-1.006-0.709
		c-0.124-1.031,0.05-2.23,0.529-3.597c1.786-5.213,4.126-10.231,7.024-15.063c3.73-6.193,8.066-11.522,13.017-15.985
		c0.478-1.277,1.077-2.806,1.803-4.584c-2.315,1.951-4.64,3.038-6.973,3.261c-0.389,0.034-0.752-0.03-1.086-0.195
		c-0.409-0.195-0.611-0.468-0.611-0.822c0-0.776,0.53-1.592,1.59-2.447c2.209-1.782,5.736-3.488,10.578-5.111
		c0.072-0.024,0.134,0.006,0.187,0.089c0,0.159-0.035,0.24-0.104,0.247c-4.401,1.569-7.684,3.208-9.835,4.917
		c-0.302,0.238-0.541,0.547-0.718,0.924c-0.177,0.378-0.237,0.671-0.186,0.88c0.087,0.382,0.397,0.539,0.93,0.475
		c2.649-0.339,5.098-1.923,7.342-4.753c0.07-0.095,0.14-0.197,0.212-0.31c0.141-0.171,0.256-0.26,0.344-0.271
		c0.055,0.015,0.099,0.029,0.135,0.044c0.334,0.201,0.334,0.525,0,0.981c-0.089,0.115-0.318,0.415-0.69,0.906
		c-0.442,1.278-0.998,2.827-1.67,4.655c0.653-0.306,1.342-0.72,2.065-1.242c1.47-1.065,2.556-1.93,3.263-2.592
		C124.087,61.764,124.141,61.753,124.194,61.782z M116.799,68.183c-1.327,1.351-2.662,2.714-4.004,4.087
		c-1.521,1.616-2.844,3.242-3.976,4.881c-6.347,9.231-9.979,16.629-10.896,22.189c-0.019,0.143-0.026,0.266-0.026,0.371
		c0,0.478,0.195,0.698,0.584,0.666c0.301-0.026,0.602-0.156,0.9-0.396c3.271-3.716,6.433-8.595,9.492-14.643
		C109.526,84.062,112.168,78.343,116.799,68.183z"/>
	<path fill="#FFFFFF" d="M134.349,60.895c0.069,0.028,0.052,0.092-0.057,0.188c-0.635,0.64-1.616,1.53-2.941,2.672
		c-1.482,1.277-3.393,2.803-5.726,4.583c-1.749,3.051-3.314,5.654-4.692,7.808c-2.421,3.779-4.604,6.438-6.546,7.966
		c-0.551,0.385-0.993,0.592-1.326,0.623c-0.797,0.069-1.211-0.275-1.246-1.033c-0.037-1.007,0.39-2.253,1.272-3.742
		c0.479-0.818,1.679-2.374,3.605-4.663c1.519-1.83,3.667-3.802,6.439-5.921c0.515-0.398,1.264-0.977,2.256-1.732
		c0.898-1.547,2.288-3.858,4.16-6.938c-2.156,2.256-4.001,3.488-5.539,3.69c-0.338,0.049-0.608-0.021-0.821-0.206
		c-0.212-0.184-0.301-0.42-0.266-0.705c0.069-0.659,0.503-1.66,1.299-3.003c0.583-0.987,1.112-1.776,1.591-2.366
		c0.178-0.229,0.38-0.423,0.608-0.584c0.145-0.101,0.292-0.131,0.452-0.091c0.018,0.05,0.041,0.109,0.078,0.178
		c0.072,0.19,0,0.442-0.21,0.761c-0.532,0.771-0.929,1.371-1.193,1.802c-0.671,1.085-1.14,2.009-1.406,2.773
		c-0.054,0.129-0.054,0.261,0,0.398c0.054,0.137,0.16,0.195,0.319,0.183c1.625-0.211,4.001-2.293,7.129-6.242
		c0.09-0.116,0.188-0.177,0.292-0.187c0.178-0.015,0.266,0.065,0.266,0.243c0,0.072-0.027,0.144-0.079,0.219
		c-1.361,2.205-3.225,5.292-5.595,9.265c1.238-0.904,2.714-1.987,4.43-3.251c1.43-1.043,2.525-1.927,3.285-2.648
		C134.242,60.877,134.292,60.86,134.349,60.895z M124.46,69.183c-0.284,0.219-0.674,0.518-1.168,0.897
		c-2.598,1.942-4.613,3.771-6.042,5.485c-0.973,1.144-1.98,2.507-3.024,4.082c-0.776,1.164-1.165,2.178-1.165,3.045
		c0,0.193,0.026,0.358,0.078,0.494c0.054,0.14,0.194,0.206,0.427,0.204c0.244-0.004,0.467-0.086,0.66-0.245
		c1.874-1.401,3.907-3.798,6.099-7.187C121.508,74.141,122.887,71.882,124.46,69.183z"/>
</g>
</svg>
