<?xml version="1.0" encoding="utf-8"?>
<!-- Generator: Adobe Illustrator 15.0.0, SVG Export Plug-In . SVG Version: 6.00 Build 0)  -->
<!DOCTYPE svg PUBLIC "-//W3C//DTD SVG 1.1//EN" "http://www.w3.org/Graphics/SVG/1.1/DTD/svg11.dtd">
<svg version="1.1" id="Layer_1" xmlns="http://www.w3.org/2000/svg" xmlns:xlink="http://www.w3.org/1999/xlink" x="0px" y="0px"
	 width="168px" height="108px" viewBox="0 0 168 108" enable-background="new 0 0 168 108" xml:space="preserve">
<g>
	<path fill="#FFFFFF" d="M47.708,46.86l0.361,1.179h0.08l0.282-1.219l1.927-4.729h1.339l-2.625,6.119
		c-0.259,0.592-0.486,1.093-0.682,1.504c-0.197,0.411-0.399,0.745-0.609,1c-0.21,0.255-0.435,0.441-0.677,0.557
		c-0.24,0.114-0.534,0.171-0.883,0.171c-0.321,0-0.578-0.024-0.769-0.073c-0.192-0.047-0.378-0.126-0.556-0.231l0.388-1.085
		c0.188,0.104,0.364,0.169,0.529,0.192c0.166,0.022,0.319,0.033,0.462,0.033c0.258,0,0.479-0.113,0.662-0.338
		c0.183-0.225,0.346-0.563,0.488-1.014l-3.814-6.834h1.539L47.708,46.86z"/>
	<path fill="#FFFFFF" d="M62.377,44.237c0,0.23-0.039,0.457-0.113,0.682c-0.076,0.226-0.193,0.437-0.349,0.636
		c-0.155,0.199-0.354,0.373-0.595,0.522c-0.242,0.151-0.528,0.262-0.856,0.332v0.052c0.285,0.037,0.562,0.106,0.829,0.213
		c0.268,0.106,0.504,0.252,0.708,0.436c0.206,0.186,0.371,0.411,0.496,0.676c0.125,0.265,0.188,0.579,0.188,0.941
		c0,0.476-0.111,0.89-0.335,1.238c-0.223,0.349-0.516,0.636-0.881,0.861c-0.367,0.226-0.78,0.391-1.24,0.497
		c-0.459,0.106-0.92,0.158-1.385,0.158c-0.161,0-0.356-0.001-0.589-0.006c-0.233-0.004-0.475-0.012-0.729-0.027
		c-0.254-0.013-0.509-0.03-0.764-0.052c-0.253-0.022-0.479-0.056-0.675-0.1V42.17c0.366-0.062,0.794-0.111,1.285-0.146
		c0.491-0.035,1.018-0.052,1.58-0.052c0.383,0,0.779,0.033,1.185,0.098c0.406,0.066,0.775,0.184,1.105,0.352
		c0.329,0.167,0.602,0.397,0.816,0.688C62.27,43.402,62.377,43.778,62.377,44.237z M58.158,46.144c0.168,0,0.364-0.006,0.587-0.021
		c0.221-0.013,0.409-0.029,0.56-0.046c0.223-0.062,0.433-0.139,0.633-0.233s0.375-0.205,0.527-0.334
		c0.15-0.129,0.271-0.28,0.359-0.454c0.09-0.173,0.133-0.372,0.133-0.595c0-0.303-0.06-0.545-0.18-0.728s-0.277-0.322-0.473-0.421
		c-0.195-0.098-0.418-0.165-0.667-0.2c-0.249-0.036-0.502-0.054-0.761-0.054c-0.311,0-0.598,0.008-0.859,0.021
		c-0.263,0.013-0.46,0.029-0.593,0.046v3.02H58.158z M57.426,50.303c0.061,0.018,0.154,0.03,0.279,0.041
		c0.123,0.009,0.258,0.017,0.406,0.026c0.146,0.008,0.292,0.016,0.438,0.019c0.146,0.005,0.28,0.008,0.406,0.008
		c0.301,0,0.592-0.032,0.871-0.094c0.279-0.062,0.524-0.16,0.737-0.293c0.214-0.134,0.383-0.303,0.512-0.508
		c0.129-0.204,0.192-0.45,0.192-0.734c0-0.357-0.077-0.64-0.232-0.849c-0.154-0.208-0.356-0.368-0.605-0.48
		c-0.248-0.111-0.527-0.183-0.836-0.213c-0.311-0.032-0.615-0.047-0.917-0.047h-1.249V50.303z"/>
	<path fill="#FFFFFF" d="M74.118,45.23l0.081-1.02h-0.055l-0.642,1.047l-4.805,6.106H67.88v-9.272h1.339v6.173l-0.121,1.006h0.066
		l0.67-1.045l4.791-6.133h0.831v9.272h-1.339V45.23z"/>
	<path fill="#FFFFFF" d="M89.336,53.058h-0.925l-0.228-1.695h-7.121l-0.213,1.695h-0.924v-2.861h1.044
		c0.08-0.097,0.202-0.319,0.367-0.668s0.331-0.847,0.496-1.496s0.306-1.465,0.421-2.444c0.116-0.98,0.17-2.147,0.161-3.498h5.581
		v8.106h1.341V53.058z M86.656,50.197v-6.941h-3.011c-0.036,0.937-0.091,1.774-0.167,2.511c-0.075,0.738-0.17,1.388-0.281,1.953
		c-0.112,0.567-0.237,1.052-0.375,1.458c-0.138,0.407-0.284,0.746-0.435,1.02H86.656z"/>
	<path fill="#FFFFFF" d="M94.113,42.091h5.662v1.165h-4.323v2.796h3.947v1.165h-3.947v2.98h4.39v1.166h-5.729V42.091z"/>
	<path fill="#FFFFFF" d="M111.875,43.256h-3.159v8.107h-1.337v-8.107h-3.16v-1.165h7.656V43.256z"/>
	<path fill="#FFFFFF" d="M116.532,42.091h1.34v3.537c0.043-0.009,0.121-0.021,0.234-0.033c0.109-0.014,0.235-0.026,0.373-0.034
		c0.141-0.009,0.279-0.017,0.423-0.027c0.141-0.008,0.271-0.013,0.388-0.013c0.465,0,0.92,0.044,1.365,0.132
		c0.446,0.089,0.845,0.239,1.198,0.451c0.353,0.212,0.639,0.501,0.856,0.868c0.22,0.367,0.328,0.829,0.328,1.384
		c0,0.53-0.104,0.991-0.314,1.383c-0.21,0.394-0.495,0.719-0.857,0.975c-0.361,0.255-0.787,0.447-1.277,0.576
		c-0.491,0.128-1.021,0.192-1.593,0.192c-0.135,0-0.302-0.001-0.502-0.006c-0.201-0.004-0.416-0.016-0.644-0.033
		c-0.228-0.018-0.454-0.04-0.683-0.066c-0.226-0.026-0.439-0.062-0.636-0.105V42.091z M119.144,50.317
		c0.328,0,0.645-0.038,0.942-0.111c0.3-0.075,0.562-0.191,0.792-0.346c0.227-0.157,0.406-0.353,0.54-0.588
		c0.134-0.235,0.202-0.518,0.202-0.848c0-0.349-0.072-0.636-0.216-0.861c-0.143-0.228-0.332-0.405-0.568-0.537
		c-0.236-0.13-0.506-0.219-0.809-0.267c-0.306-0.047-0.612-0.073-0.924-0.073c-0.08,0-0.185,0.005-0.308,0.015
		c-0.126,0.008-0.248,0.017-0.369,0.025c-0.121,0.01-0.232,0.022-0.336,0.041c-0.102,0.017-0.176,0.029-0.219,0.038v3.434
		c0.125,0.035,0.308,0.057,0.549,0.064C118.66,50.313,118.902,50.317,119.144,50.317z"/>
	<path fill="#FFFFFF" d="M48.392,57.987h5.675v1.164H49.73v2.517c0.161-0.025,0.359-0.053,0.595-0.08
		c0.236-0.024,0.471-0.039,0.702-0.039c0.501,0,0.976,0.044,1.426,0.134c0.45,0.087,0.848,0.237,1.191,0.45
		c0.343,0.211,0.619,0.493,0.824,0.848c0.206,0.353,0.309,0.795,0.309,1.324c0,0.528-0.106,0.986-0.316,1.37
		c-0.208,0.385-0.487,0.703-0.835,0.953c-0.349,0.253-0.756,0.439-1.219,0.563c-0.463,0.124-0.951,0.187-1.459,0.187
		c-0.16,0-0.35-0.002-0.568-0.008c-0.219-0.005-0.444-0.016-0.676-0.032c-0.232-0.018-0.462-0.041-0.689-0.067
		c-0.228-0.024-0.435-0.062-0.622-0.104V57.987z M51.108,66.212c0.304,0,0.591-0.034,0.864-0.104c0.272-0.069,0.51-0.176,0.715-0.32
		c0.205-0.143,0.368-0.324,0.489-0.541c0.121-0.218,0.182-0.475,0.182-0.771c0-0.382-0.068-0.688-0.201-0.919
		c-0.135-0.231-0.316-0.408-0.542-0.535c-0.228-0.125-0.492-0.208-0.79-0.247c-0.299-0.041-0.609-0.06-0.931-0.06
		c-0.089,0-0.189,0.005-0.301,0.013c-0.112,0.01-0.226,0.018-0.341,0.027c-0.116,0.008-0.222,0.021-0.314,0.038
		c-0.093,0.017-0.164,0.029-0.207,0.04v3.3c0.062,0.019,0.146,0.03,0.253,0.04c0.107,0.008,0.223,0.018,0.348,0.025
		c0.125,0.009,0.255,0.014,0.388,0.014C50.854,66.212,50.983,66.212,51.108,66.212z"/>
	<path fill="#FFFFFF" d="M59.298,62.622c0-0.76,0.097-1.437,0.289-2.033c0.191-0.597,0.468-1.101,0.829-1.511
		c0.362-0.409,0.803-0.724,1.326-0.939c0.522-0.216,1.113-0.325,1.774-0.325c0.704,0,1.322,0.117,1.854,0.353
		c0.53,0.232,0.971,0.56,1.324,0.979c0.353,0.419,0.616,0.924,0.791,1.517c0.172,0.592,0.259,1.245,0.259,1.96
		c0,0.759-0.096,1.438-0.287,2.034c-0.192,0.595-0.472,1.099-0.837,1.509c-0.365,0.41-0.81,0.726-1.331,0.941
		c-0.522,0.216-1.114,0.324-1.773,0.324c-0.715,0-1.334-0.117-1.861-0.353c-0.527-0.232-0.964-0.56-1.312-0.979
		c-0.348-0.421-0.609-0.925-0.782-1.517C59.385,63.991,59.298,63.338,59.298,62.622z M60.717,62.622c0,0.5,0.057,0.969,0.167,1.406
		c0.112,0.438,0.282,0.824,0.51,1.157c0.226,0.334,0.517,0.597,0.87,0.79c0.352,0.192,0.77,0.289,1.252,0.289
		c0.865,0,1.548-0.294,2.054-0.881c0.504-0.587,0.757-1.507,0.757-2.762c0-0.491-0.056-0.956-0.168-1.395
		c-0.111-0.438-0.28-0.823-0.508-1.156s-0.518-0.599-0.871-0.797c-0.353-0.196-0.773-0.295-1.264-0.295
		c-0.858,0-1.538,0.298-2.041,0.894C60.969,60.47,60.717,61.388,60.717,62.622z"/>
	<path fill="#FFFFFF" d="M78.346,59.151H75.4c-0.044,0.874-0.096,1.669-0.154,2.385c-0.057,0.716-0.131,1.362-0.221,1.941
		c-0.087,0.577-0.194,1.088-0.313,1.529c-0.121,0.44-0.27,0.824-0.448,1.152c-0.232,0.424-0.5,0.725-0.803,0.9
		c-0.303,0.177-0.62,0.266-0.951,0.266c-0.188,0-0.341-0.012-0.461-0.034c-0.121-0.021-0.244-0.055-0.367-0.1l0.173-1.112
		c0.107,0.027,0.215,0.039,0.321,0.039c0.107,0,0.216-0.019,0.329-0.059c0.11-0.039,0.221-0.105,0.327-0.199
		c0.107-0.093,0.21-0.223,0.308-0.391c0.135-0.23,0.26-0.537,0.375-0.927c0.116-0.389,0.218-0.884,0.308-1.483
		c0.09-0.601,0.164-1.318,0.222-2.153c0.058-0.834,0.101-1.808,0.126-2.919h5.515v9.271h-1.338V59.151z"/>
	<path fill="#FFFFFF" d="M85.277,57.987h1.34v3.536c0.043-0.01,0.122-0.021,0.233-0.033c0.11-0.015,0.236-0.025,0.374-0.033
		c0.141-0.011,0.278-0.019,0.422-0.027c0.142-0.008,0.272-0.013,0.389-0.013c0.464,0,0.92,0.045,1.364,0.132
		c0.447,0.089,0.846,0.239,1.199,0.45c0.353,0.213,0.639,0.502,0.856,0.868c0.22,0.366,0.328,0.829,0.328,1.384
		c0,0.53-0.105,0.992-0.314,1.384c-0.21,0.394-0.495,0.719-0.858,0.975c-0.36,0.255-0.787,0.447-1.276,0.576
		c-0.492,0.128-1.021,0.192-1.593,0.192c-0.135,0-0.302-0.002-0.503-0.008c-0.2-0.005-0.414-0.016-0.643-0.032
		c-0.228-0.018-0.455-0.041-0.683-0.067c-0.227-0.024-0.439-0.062-0.636-0.104V57.987z M87.889,66.212
		c0.328,0,0.645-0.037,0.942-0.11c0.301-0.074,0.562-0.19,0.791-0.347c0.228-0.156,0.407-0.352,0.542-0.588
		c0.133-0.234,0.201-0.518,0.201-0.848c0-0.35-0.073-0.637-0.216-0.862c-0.143-0.227-0.332-0.403-0.568-0.535
		c-0.236-0.131-0.506-0.22-0.809-0.268c-0.306-0.047-0.613-0.072-0.924-0.072c-0.081,0-0.185,0.004-0.308,0.014
		c-0.126,0.008-0.249,0.019-0.369,0.026c-0.121,0.009-0.233,0.021-0.336,0.039c-0.103,0.017-0.176,0.03-0.219,0.038v3.434
		c0.125,0.035,0.308,0.058,0.549,0.065C87.405,66.207,87.646,66.212,87.889,66.212z"/>
	<path fill="#FFFFFF" d="M96.641,67.258v-9.271h1.339v8.104h3.224v-8.104h1.339v8.104h3.212v-8.104h1.34v9.271H96.641z"/>
	<path fill="#FFFFFF" d="M112.688,57.987h5.663v1.164h-4.323v2.795h3.948v1.165h-3.948v2.98h4.39v1.166h-5.729V57.987z"/>
</g>
<g>
	<polygon fill="none" points="24.292,13.639 28.545,17.129 45.545,17.129 41.293,13.639 	"/>
	<path fill="none" d="M109.921,13.594c0.147,1.97,2.153,3.545,4.599,3.545h13.274l4.312-3.545H109.921z"/>
	<polygon fill="none" points="132.281,17.139 138.997,17.139 143.316,13.594 136.604,13.594 	"/>
	<polygon fill="none" points="133.042,13.594 128.718,17.139 131.354,17.139 135.669,13.594 	"/>
	<path fill="none" d="M117.501,9.562h-2.981c-2.419,0-4.41,1.541-4.594,3.491h11.83L117.501,9.562z"/>
	<polygon fill="none" points="143.247,13.053 138.997,9.562 121.995,9.562 126.247,13.053 	"/>
	<polygon fill="none" points="125.319,13.053 121.066,9.562 118.434,9.562 122.688,13.053 	"/>
	<path fill="none" d="M109.905,13.419v-0.138c-0.003,0.022-0.003,0.038-0.003,0.068C109.902,13.372,109.902,13.397,109.905,13.419z"
		/>
	<polygon fill="none" points="42.22,13.639 46.475,17.129 49.108,17.129 44.853,13.639 	"/>
	<polygon fill="none" points="35.26,9.554 28.545,9.554 24.224,13.098 30.936,13.098 	"/>
	<polygon fill="none" points="34.497,13.098 38.822,9.554 36.187,9.554 31.871,13.098 	"/>
	<path fill="none" d="M57.62,13.098c-0.146-1.968-2.152-3.544-4.599-3.544H39.746l-4.313,3.544H57.62z"/>
	<path fill="none" d="M57.634,13.273v0.137c0.003-0.021,0.003-0.038,0.003-0.068C57.637,13.32,57.637,13.296,57.634,13.273z"/>
	<path fill="none" d="M50.04,17.129h2.98c2.42,0,4.412-1.539,4.594-3.491H45.784L50.04,17.129z"/>
	<path fill="#FFFFFF" d="M153.144,12.98l-5.04-4.137H114.52c-3.034,0-5.493,2.02-5.493,4.507c0,2.487,2.459,4.504,5.493,4.504
		h33.584l5.08-4.167h14.207v-0.005h0.116v61.882l-84.751,26.622L0.71,75.569V13.683h13.651l5.075,4.167h33.585
		c3.036,0,5.494-2.022,5.494-4.508c0-2.487-2.458-4.505-5.494-4.505H19.436l-5.049,4.143H0v63.097l82.754,26.85l85.464-26.85V12.98
		H153.144z M138.997,9.562l4.25,3.491h-17l-4.252-3.491H138.997z M121.066,9.562l4.253,3.491h-2.631l-4.255-3.491H121.066z
		 M114.52,9.562h2.981l4.255,3.491h-11.83C110.109,11.103,112.101,9.562,114.52,9.562z M109.905,13.419
		c-0.003-0.022-0.003-0.047-0.003-0.069c0-0.03,0-0.046,0.003-0.068V13.419z M114.52,17.139c-2.445,0-4.451-1.575-4.599-3.545
		h22.186l-4.312,3.545H114.52z M128.718,17.139l4.324-3.545h2.627l-4.315,3.545H128.718z M138.997,17.139h-6.716l4.322-3.545h6.713
		L138.997,17.139z M28.545,17.129l-4.252-3.491h17l4.252,3.491H28.545z M46.475,17.129l-4.255-3.491h2.633l4.255,3.491H46.475z
		 M53.021,17.129h-2.98l-4.256-3.491h11.831C57.432,15.59,55.44,17.129,53.021,17.129z M57.634,13.273
		c0.003,0.022,0.003,0.046,0.003,0.068c0,0.03,0,0.048-0.003,0.068V13.273z M53.021,9.554c2.447,0,4.453,1.576,4.599,3.544H35.432
		l4.313-3.544H53.021z M38.822,9.554l-4.325,3.544h-2.626l4.316-3.544H38.822z M28.545,9.554h6.715l-4.325,3.544h-6.711
		L28.545,9.554z"/>
</g>
<polygon fill="none" points="24.292,18.513 28.545,22.004 45.545,22.004 41.293,18.513 "/>
<path fill="none" d="M109.921,18.469c0.147,1.969,2.153,3.545,4.599,3.545h13.274l4.312-3.545H109.921z"/>
<polygon fill="none" points="132.281,22.014 138.997,22.014 143.316,18.469 136.604,18.469 "/>
<polygon fill="none" points="133.042,18.469 128.718,22.014 131.354,22.014 135.669,18.469 "/>
<path fill="none" d="M117.501,14.437h-2.981c-2.419,0-4.41,1.541-4.594,3.491h11.83L117.501,14.437z"/>
<polygon fill="none" points="143.247,17.928 138.997,14.437 121.995,14.437 126.247,17.928 "/>
<polygon fill="none" points="125.319,17.928 121.066,14.437 118.434,14.437 122.688,17.928 "/>
<path fill="none" d="M109.905,18.294v-0.138c-0.003,0.022-0.003,0.038-0.003,0.068C109.902,18.247,109.902,18.272,109.905,18.294z"
	/>
<polygon fill="none" points="42.22,18.513 46.475,22.004 49.108,22.004 44.853,18.513 "/>
<polygon fill="none" points="35.26,14.429 28.545,14.429 24.224,17.972 30.936,17.972 "/>
<polygon fill="none" points="34.497,17.972 38.822,14.429 36.187,14.429 31.871,17.972 "/>
<path fill="none" d="M57.62,17.972c-0.146-1.967-2.152-3.543-4.599-3.543H39.746l-4.313,3.543H57.62z"/>
<path fill="none" d="M57.634,18.148v0.137c0.003-0.021,0.003-0.038,0.003-0.068C57.637,18.194,57.637,18.17,57.634,18.148z"/>
<path fill="none" d="M50.04,22.004h2.98c2.42,0,4.412-1.539,4.594-3.491H45.784L50.04,22.004z"/>
<path fill="#FFFFFF" d="M167.507,74.104v6.336l-84.751,26.624L0.71,80.444v-7.399c-0.237,0-0.473,0-0.71,0v7.907l82.754,26.849
	l85.464-26.849v-6.837C167.98,74.11,167.745,74.107,167.507,74.104z"/>
<g>
	<path fill="#FFFFFF" d="M83.586,10.022c-1.822,0-3.298,1.458-3.298,3.258c0,1.8,1.477,3.261,3.298,3.261
		c1.815,0,3.29-1.46,3.29-3.261C86.876,11.48,85.401,10.022,83.586,10.022"/>
	<path fill="#FFFFFF" d="M99.933,7.187c-0.062,0.416-0.142,0.827-0.231,1.233c-0.314,1.358-0.799,2.663-1.447,3.891
		c-0.579-0.87-1.239-1.7-1.977-2.464c0.312-1.357,0.503-2.772,0.554-4.218c0.011-0.289,0.02-0.578,0.02-0.863
		c0-0.127-0.005-0.249-0.005-0.378C96.514,4.142,96.172,3.9,95.828,3.67c0.017,0.363,0.029,0.729,0.029,1.095
		c0,0.038-0.003,0.083-0.003,0.121C95.845,6.32,95.7,7.704,95.43,9.029c-0.901-0.82-1.87-1.539-2.904-2.145
		c0.045-0.7,0.067-1.404,0.067-2.119c0-0.611-0.018-1.214-0.049-1.811c-0.019-0.373-0.046-0.743-0.076-1.107
		c-0.104-0.043-0.205-0.089-0.31-0.134c-0.242-0.1-0.483-0.195-0.729-0.287c0.038,0.359,0.069,0.722,0.095,1.084
		c0.05,0.743,0.076,1.493,0.076,2.255c0,0.532-0.014,1.063-0.038,1.59c-1.031-0.522-2.113-0.942-3.226-1.253
		c0-0.113,0-0.225,0-0.336c0-1.109-0.028-2.204-0.08-3.272C88.24,1.154,88.222,0.812,88.2,0.479c-0.336-0.07-0.673-0.133-1.01-0.187
		c0.023,0.333,0.042,0.667,0.06,1.003c0.062,1.128,0.094,2.291,0.094,3.47v0.093c-1.062-0.227-2.155-0.359-3.266-0.392V0.988V0.005
		C83.914,0,83.75,0,83.586,0c-0.167,0-0.335,0-0.5,0.005v0.983v3.479c-1.107,0.032-2.197,0.165-3.263,0.392
		c0-0.03-0.003-0.062-0.003-0.093c0-1.179,0.033-2.342,0.094-3.47c0.019-0.336,0.036-0.67,0.061-1.003
		c-0.34,0.054-0.672,0.117-1.006,0.187c-0.025,0.333-0.043,0.675-0.063,1.014c-0.048,1.068-0.076,2.163-0.076,3.272
		c0,0.111,0,0.224,0,0.336c-1.116,0.311-2.195,0.731-3.223,1.253c-0.024-0.527-0.04-1.058-0.04-1.59
		c0-0.762,0.024-1.512,0.075-2.255c0.026-0.362,0.057-0.725,0.093-1.084c-0.243,0.092-0.488,0.188-0.728,0.287
		c-0.104,0.045-0.206,0.091-0.307,0.134c-0.034,0.365-0.058,0.734-0.079,1.107c-0.032,0.597-0.048,1.2-0.048,1.811
		c0,0.714,0.019,1.418,0.066,2.119c-1.032,0.606-2.006,1.325-2.904,2.145c-0.269-1.325-0.415-2.708-0.427-4.143
		c0-0.038,0-0.083,0-0.121c0-0.366,0.012-0.731,0.029-1.095c-0.344,0.23-0.685,0.471-1.019,0.721
		c-0.003,0.125-0.003,0.247-0.003,0.374c0,0.286,0.004,0.575,0.017,0.863c0.053,1.446,0.243,2.861,0.559,4.218
		c-0.739,0.765-1.401,1.595-1.98,2.464c-0.648-1.228-1.13-2.533-1.443-3.891c-0.096-0.406-0.174-0.817-0.235-1.233
		c-0.289,0.319-0.569,0.641-0.837,0.975c0.08,0.414,0.181,0.822,0.292,1.228c0.378,1.36,0.923,2.666,1.624,3.891
		c0.192,0.332,0.39,0.653,0.6,0.971c0.654,0.989,1.419,1.915,2.279,2.771c3.255,3.22,7.56,5.018,12.153,5.078
		c0.078,0.003,0.16,0.003,0.242,0.003c0.077,0,0.157,0,0.237-0.003c4.589-0.061,8.896-1.858,12.151-5.078
		c0.859-0.855,1.625-1.782,2.279-2.771c0.208-0.317,0.408-0.639,0.599-0.971c0.702-1.225,1.249-2.531,1.623-3.891
		c0.116-0.406,0.214-0.814,0.293-1.228C100.502,7.828,100.222,7.506,99.933,7.187 M95.271,16.33
		c-1.449,1.433-3.122,2.569-4.938,3.372c-1.027,0.454-2.105,0.808-3.215,1.042c-0.586,0.129-1.183,0.221-1.787,0.286
		c-0.414,0.043-0.833,0.073-1.253,0.083v-0.006c-0.165,0.009-0.329,0.015-0.492,0.015c-0.167,0-0.335-0.005-0.5-0.015v0.006
		c-0.42-0.01-0.837-0.04-1.25-0.083c-0.604-0.065-1.203-0.157-1.79-0.286c-1.108-0.235-2.183-0.588-3.213-1.042
		c-1.815-0.803-3.486-1.939-4.936-3.372c-0.942-0.93-1.752-1.955-2.429-3.049c0.5-0.81,1.079-1.579,1.724-2.303
		c0.226-0.252,0.462-0.5,0.705-0.745c0.03-0.03,0.063-0.06,0.097-0.091c0.842-0.821,1.76-1.544,2.735-2.158
		c0.31-0.195,0.625-0.38,0.948-0.554c1.007-0.543,2.068-0.983,3.167-1.308c0.329-0.095,0.658-0.177,0.989-0.255
		c1.057-0.246,2.147-0.384,3.253-0.417c0.165-0.003,0.333-0.003,0.5-0.003c0.163,0,0.327,0,0.492,0.003
		c1.11,0.033,2.198,0.171,3.253,0.417c0.336,0.078,0.664,0.161,0.992,0.255c1.099,0.325,2.159,0.765,3.167,1.308
		c0.325,0.174,0.638,0.358,0.949,0.554c0.974,0.614,1.891,1.337,2.734,2.158c0.032,0.032,0.064,0.062,0.098,0.091
		c0.241,0.245,0.477,0.492,0.706,0.745c0.645,0.724,1.22,1.493,1.725,2.303C97.022,14.375,96.211,15.4,95.271,16.33"/>
	<path fill="#FFFFFF" d="M91.35,8.627c-2.344-1.358-5.029-2.081-7.763-2.081c-2.741,0-5.428,0.722-7.771,2.081
		c-1.888,1.088-3.554,2.603-4.817,4.37l-0.206,0.283l0.206,0.286c1.263,1.769,2.929,3.279,4.817,4.372
		c2.342,1.359,5.03,2.077,7.771,2.077c2.734,0,5.419-0.717,7.763-2.077c1.888-1.092,3.554-2.603,4.815-4.372l0.208-0.286
		l-0.208-0.283C94.903,11.23,93.237,9.716,91.35,8.627 M90.852,17.088c-2.197,1.271-4.709,1.942-7.265,1.942
		c-2.563,0-5.075-0.671-7.272-1.942c-1.661-0.963-3.142-2.272-4.3-3.808c1.159-1.532,2.639-2.844,4.3-3.804
		c2.197-1.272,4.709-1.943,7.272-1.943c2.556,0,5.068,0.671,7.265,1.943c1.661,0.96,3.141,2.272,4.301,3.804
		C93.992,14.816,92.513,16.125,90.852,17.088"/>
</g>
</svg>
