<?xml version="1.0" encoding="utf-8"?>
<!-- Generator: Adobe Illustrator 15.0.0, SVG Export Plug-In . SVG Version: 6.00 Build 0)  -->
<!DOCTYPE svg PUBLIC "-//W3C//DTD SVG 1.1//EN" "http://www.w3.org/Graphics/SVG/1.1/DTD/svg11.dtd">
<svg version="1.1" id="Layer_1" xmlns="http://www.w3.org/2000/svg" xmlns:xlink="http://www.w3.org/1999/xlink" x="0px" y="0px"
	 width="168px" height="108px" viewBox="0 0 168 108" enable-background="new 0 0 168 108" xml:space="preserve">
<path fill="none" d="M109.498,18.217v-0.138c-0.003,0.022-0.003,0.038-0.003,0.068C109.495,18.169,109.495,18.194,109.498,18.217z"
	/>
<path fill="none" d="M57.42,18.071v0.136c0.003-0.021,0.003-0.038,0.003-0.068C57.424,18.117,57.424,18.093,57.42,18.071z"/>
<g>
	<g>
		<polygon fill="none" points="24.203,13.581 28.439,17.057 45.376,17.057 41.14,13.581 		"/>
		<path fill="none" d="M109.514,13.537c0.146,1.96,2.146,3.53,4.582,3.53h13.226l4.297-3.53H109.514z"/>
		<polygon fill="none" points="131.791,17.066 138.481,17.066 142.785,13.537 136.098,13.537 		"/>
		<polygon fill="none" points="132.55,13.537 128.241,17.066 130.868,17.066 135.167,13.537 		"/>
		<path fill="none" d="M117.066,9.521h-2.971c-2.409,0-4.394,1.534-4.577,3.476h11.787L117.066,9.521z"/>
		<polygon fill="none" points="142.716,12.998 138.481,9.521 121.543,9.521 125.78,12.998 		"/>
		<polygon fill="none" points="124.855,12.998 120.618,9.521 117.994,9.521 122.234,12.998 		"/>
		<path fill="none" d="M109.498,13.363v-0.138c-0.003,0.022-0.003,0.038-0.003,0.068C109.495,13.315,109.495,13.34,109.498,13.363z"
			/>
		<polygon fill="none" points="42.063,13.581 46.303,17.057 48.926,17.057 44.687,13.581 		"/>
		<polygon fill="none" points="35.13,9.514 28.439,9.514 24.134,13.042 30.821,13.042 		"/>
		<polygon fill="none" points="34.37,13.042 38.678,9.514 36.054,9.514 31.752,13.042 		"/>
		<path fill="none" d="M57.406,13.042c-0.145-1.959-2.144-3.528-4.582-3.528H39.598l-4.297,3.528H57.406z"/>
		<path fill="none" d="M57.42,13.217v0.136c0.003-0.021,0.003-0.038,0.003-0.068C57.424,13.263,57.424,13.239,57.42,13.217z"/>
		<path fill="none" d="M49.855,17.057h2.969c2.411,0,4.395-1.532,4.577-3.476H45.615L49.855,17.057z"/>
		<path fill="#FFFFFF" d="M152.577,12.925l-5.021-4.119h-33.46c-3.023,0-5.472,2.012-5.472,4.487c0,2.478,2.448,4.486,5.472,4.486
			h33.46l5.061-4.149h14.155v-0.005h0.116v61.619l-84.438,26.511L0.708,75.249V13.625h13.6l5.056,4.149h33.46
			c3.024,0,5.474-2.013,5.474-4.489s-2.449-4.486-5.474-4.486h-33.46l-5.031,4.125H0v62.83l82.448,26.735l85.147-26.735v-62.83
			H152.577z M138.481,9.521l4.234,3.476H125.78l-4.237-3.476H138.481z M120.618,9.521l4.237,3.476h-2.621l-4.24-3.476H120.618z
			 M114.096,9.521h2.971l4.239,3.476h-11.787C109.702,11.056,111.687,9.521,114.096,9.521z M109.498,13.363
			c-0.003-0.022-0.003-0.047-0.003-0.07c0-0.03,0-0.046,0.003-0.068V13.363z M114.096,17.066c-2.437,0-4.436-1.569-4.582-3.53
			h22.104l-4.297,3.53H114.096z M128.241,17.066l4.309-3.53h2.617l-4.299,3.53H128.241z M138.481,17.066h-6.69l4.307-3.53h6.688
			L138.481,17.066z M28.439,17.057l-4.237-3.476H41.14l4.237,3.476H28.439z M46.303,17.057l-4.24-3.476h2.623l4.24,3.476H46.303z
			 M52.824,17.057h-2.969l-4.24-3.476h11.787C57.219,15.524,55.235,17.057,52.824,17.057z M57.42,13.217
			c0.003,0.022,0.003,0.046,0.003,0.068c0,0.03,0,0.047-0.003,0.068V13.217z M52.824,9.514c2.438,0,4.437,1.569,4.582,3.528H35.301
			l4.297-3.528H52.824z M38.678,9.514l-4.308,3.528h-2.617l4.301-3.528H38.678z M28.439,9.514h6.69l-4.309,3.528h-6.687
			L28.439,9.514z"/>
	</g>
	<path fill="#FFFFFF" d="M166.888,73.789v6.31l-84.438,26.511L0.708,80.104v-7.368c-0.236,0-0.472,0-0.708,0v7.874l82.448,26.734
		l85.147-26.734v-6.809C167.358,73.796,167.124,73.793,166.888,73.789z"/>
	<g>
		<path fill="#FFFFFF" d="M83.277,9.979c-1.814,0-3.286,1.452-3.286,3.244c0,1.793,1.472,3.247,3.286,3.247
			c1.808,0,3.278-1.454,3.278-3.247C86.555,11.432,85.085,9.979,83.277,9.979"/>
		<path fill="#FFFFFF" d="M99.562,7.156c-0.062,0.414-0.141,0.823-0.23,1.228c-0.313,1.353-0.797,2.651-1.442,3.875
			c-0.577-0.866-1.233-1.692-1.97-2.454c0.312-1.351,0.502-2.76,0.552-4.2c0.013-0.288,0.021-0.575,0.021-0.859
			c0-0.126-0.005-0.248-0.005-0.376c-0.331-0.245-0.672-0.485-1.016-0.714c0.018,0.362,0.031,0.725,0.031,1.09
			c0,0.038-0.003,0.082-0.003,0.12c-0.011,1.428-0.153,2.806-0.424,4.125c-0.897-0.817-1.862-1.533-2.894-2.136
			c0.045-0.697,0.067-1.398,0.067-2.109c0-0.608-0.018-1.209-0.049-1.803c-0.019-0.371-0.045-0.739-0.075-1.103
			c-0.104-0.043-0.204-0.088-0.309-0.133c-0.241-0.1-0.482-0.194-0.728-0.286c0.039,0.357,0.069,0.719,0.095,1.079
			c0.05,0.74,0.075,1.487,0.075,2.246c0,0.529-0.013,1.059-0.036,1.583c-1.028-0.52-2.106-0.938-3.215-1.248
			c0-0.112,0-0.225,0-0.335c0-1.104-0.029-2.195-0.08-3.258c-0.016-0.338-0.034-0.678-0.056-1.01
			c-0.334-0.069-0.669-0.133-1.005-0.187c0.022,0.332,0.041,0.664,0.06,0.999c0.062,1.124,0.094,2.282,0.094,3.456v0.093
			c-1.059-0.226-2.148-0.359-3.254-0.391V0.984V0.005C83.603,0,83.44,0,83.277,0c-0.166,0-0.334,0-0.499,0.005v0.979v3.463
			c-1.104,0.032-2.188,0.165-3.251,0.391c0-0.03-0.003-0.062-0.003-0.093c0-1.174,0.034-2.333,0.094-3.456
			c0.02-0.335,0.037-0.667,0.061-0.999c-0.339,0.054-0.669,0.117-1.002,0.187c-0.025,0.332-0.043,0.671-0.062,1.01
			c-0.048,1.063-0.077,2.154-0.077,3.258c0,0.11,0,0.223,0,0.335c-1.112,0.31-2.187,0.729-3.211,1.248
			c-0.023-0.524-0.04-1.054-0.04-1.583c0-0.759,0.024-1.506,0.075-2.246c0.026-0.36,0.056-0.722,0.093-1.079
			c-0.241,0.092-0.486,0.187-0.725,0.286c-0.104,0.044-0.205,0.09-0.305,0.133c-0.034,0.363-0.058,0.731-0.079,1.103
			c-0.031,0.594-0.048,1.195-0.048,1.803c0,0.711,0.02,1.413,0.066,2.109c-1.027,0.604-1.999,1.319-2.893,2.136
			c-0.269-1.319-0.414-2.697-0.425-4.125c0-0.038,0-0.083,0-0.12c0-0.365,0.012-0.729,0.029-1.09
			c-0.344,0.229-0.682,0.469-1.015,0.717c-0.003,0.125-0.003,0.247-0.003,0.373c0,0.284,0.005,0.572,0.016,0.859
			c0.053,1.439,0.243,2.849,0.558,4.2c-0.736,0.762-1.396,1.588-1.973,2.454c-0.646-1.223-1.126-2.522-1.438-3.875
			c-0.096-0.404-0.174-0.813-0.235-1.228c-0.288,0.317-0.567,0.638-0.833,0.97c0.08,0.412,0.18,0.818,0.291,1.223
			c0.377,1.354,0.92,2.655,1.619,3.875c0.19,0.33,0.388,0.651,0.597,0.967c0.652,0.984,1.414,1.907,2.27,2.759
			c3.243,3.206,7.532,4.997,12.108,5.057c0.079,0.003,0.16,0.003,0.241,0.003c0.077,0,0.157,0,0.236-0.003
			c4.573-0.06,8.864-1.851,12.106-5.057c0.857-0.852,1.618-1.774,2.271-2.759c0.208-0.316,0.407-0.637,0.598-0.967
			c0.698-1.22,1.244-2.521,1.616-3.875c0.115-0.404,0.213-0.811,0.292-1.223C100.129,7.794,99.85,7.474,99.562,7.156 M94.918,16.261
			c-1.442,1.427-3.11,2.558-4.919,3.357c-1.024,0.452-2.098,0.804-3.203,1.038c-0.584,0.128-1.179,0.22-1.781,0.284
			c-0.412,0.043-0.829,0.073-1.248,0.083v-0.006c-0.164,0.009-0.327,0.014-0.49,0.014c-0.166,0-0.334-0.005-0.499-0.014v0.006
			c-0.418-0.01-0.834-0.04-1.246-0.083c-0.602-0.064-1.198-0.156-1.783-0.284c-1.104-0.234-2.174-0.586-3.201-1.038
			c-1.809-0.799-3.474-1.931-4.917-3.357c-0.94-0.926-1.747-1.947-2.42-3.037c0.498-0.806,1.075-1.572,1.717-2.293
			c0.226-0.251,0.46-0.498,0.703-0.741c0.03-0.03,0.062-0.06,0.096-0.092c0.838-0.817,1.754-1.538,2.726-2.149
			c0.308-0.194,0.623-0.377,0.944-0.551c1.003-0.541,2.061-0.978,3.156-1.302c0.327-0.095,0.654-0.177,0.985-0.254
			c1.053-0.245,2.139-0.382,3.241-0.416c0.165-0.003,0.333-0.003,0.499-0.003c0.163,0,0.326,0,0.49,0.003
			c1.106,0.033,2.191,0.171,3.241,0.416c0.335,0.078,0.662,0.16,0.988,0.254c1.095,0.324,2.152,0.762,3.155,1.302
			c0.323,0.174,0.636,0.357,0.945,0.551c0.971,0.611,1.884,1.332,2.724,2.149c0.033,0.032,0.066,0.062,0.098,0.092
			c0.241,0.243,0.476,0.49,0.705,0.741c0.642,0.721,1.216,1.487,1.717,2.293C96.663,14.314,95.854,15.334,94.918,16.261"/>
		<path fill="#FFFFFF" d="M91.012,8.591C88.677,7.238,86,6.52,83.277,6.52c-2.73,0-5.408,0.719-7.742,2.071
			c-1.88,1.084-3.54,2.591-4.799,4.352l-0.204,0.281l0.204,0.284c1.259,1.762,2.919,3.266,4.799,4.354
			c2.334,1.354,5.011,2.068,7.742,2.068c2.723,0,5.4-0.714,7.735-2.068c1.88-1.087,3.541-2.592,4.798-4.354l0.206-0.284
			l-0.206-0.281C94.553,11.182,92.892,9.675,91.012,8.591 M90.516,17.016c-2.189,1.266-4.692,1.934-7.239,1.934
			c-2.553,0-5.056-0.668-7.245-1.934c-1.655-0.959-3.129-2.263-4.285-3.792c1.155-1.525,2.63-2.832,4.285-3.788
			C78.221,8.169,80.724,7.5,83.277,7.5c2.546,0,5.049,0.668,7.239,1.936c1.654,0.956,3.13,2.263,4.284,3.788
			C93.646,14.753,92.17,16.057,90.516,17.016"/>
	</g>
</g>
<g>
	<path fill="#FFFFFF" d="M46.235,54.998c0-0.429-0.129-0.779-0.387-1.05c-0.259-0.27-0.58-0.51-0.968-0.719
		c-0.386-0.21-0.807-0.406-1.262-0.591c-0.454-0.184-0.874-0.405-1.26-0.666c-0.388-0.261-0.711-0.582-0.968-0.965
		c-0.259-0.382-0.387-0.871-0.387-1.461c0-0.837,0.294-1.501,0.882-1.991c0.588-0.49,1.425-0.735,2.508-0.735
		c0.63,0,1.203,0.046,1.719,0.137c0.516,0.092,0.918,0.208,1.208,0.353l-0.388,1.133c-0.236-0.115-0.585-0.228-1.045-0.332
		c-0.458-0.105-0.978-0.158-1.556-0.158c-0.68,0-1.192,0.15-1.532,0.452c-0.34,0.3-0.511,0.656-0.511,1.063
		c0,0.398,0.129,0.73,0.387,0.996c0.259,0.266,0.582,0.502,0.968,0.712c0.386,0.209,0.807,0.416,1.262,0.62
		c0.454,0.206,0.874,0.442,1.262,0.712c0.387,0.271,0.709,0.594,0.966,0.972c0.259,0.379,0.388,0.849,0.388,1.409
		c0,0.46-0.083,0.873-0.248,1.241c-0.166,0.368-0.409,0.684-0.729,0.949s-0.706,0.47-1.161,0.613
		c-0.454,0.142-0.97,0.213-1.548,0.213c-0.773,0-1.414-0.059-1.92-0.175c-0.505-0.117-0.898-0.248-1.176-0.391l0.433-1.133
		c0.238,0.128,0.588,0.256,1.053,0.379c0.465,0.125,0.986,0.187,1.564,0.187c0.34,0,0.66-0.033,0.96-0.1
		c0.299-0.066,0.558-0.174,0.775-0.32c0.216-0.148,0.388-0.335,0.517-0.56S46.235,55.304,46.235,54.998z"/>
	<path fill="#FFFFFF" d="M52.352,47.004h5.898v1.133h-4.614v3.506h4.228v1.134h-4.228v3.812h4.692v1.133h-5.977V47.004z"/>
	<path fill="#FFFFFF" d="M63.437,47.004h5.898v1.133h-4.613v3.506h4.227v1.134h-4.227v3.812h4.692v1.133h-5.977V47.004z"/>
	<path fill="#FFFFFF" d="M89.772,50.526l0.154-1.608h-0.078l-0.587,1.471l-2.818,4.838h-0.387l-2.989-4.854l-0.556-1.455h-0.078
		l0.217,1.593v7.212h-1.208V47.004h0.96l3.39,5.481l0.512,1.194h0.03l0.48-1.225l3.235-5.451h1.006v10.719h-1.284V50.526z"/>
	<path fill="#FFFFFF" d="M96.026,52.364c0-1.787,0.383-3.157,1.146-4.112c0.765-0.954,1.854-1.431,3.268-1.431
		c0.763,0,1.423,0.133,1.98,0.398c0.558,0.266,1.02,0.64,1.388,1.125c0.365,0.485,0.637,1.066,0.812,1.746
		c0.175,0.678,0.262,1.437,0.262,2.274c0,1.787-0.384,3.157-1.153,4.111c-0.769,0.955-1.866,1.432-3.289,1.432
		c-0.755,0-1.408-0.133-1.959-0.398c-0.553-0.265-1.011-0.64-1.378-1.125c-0.367-0.484-0.639-1.066-0.814-1.745
		C96.114,53.959,96.026,53.201,96.026,52.364z M97.39,52.364c0,0.592,0.059,1.153,0.178,1.684c0.117,0.531,0.302,0.999,0.549,1.401
		c0.248,0.403,0.565,0.726,0.953,0.964c0.386,0.24,0.843,0.36,1.37,0.36c0.96,0,1.712-0.36,2.26-1.079
		c0.547-0.721,0.819-1.83,0.819-3.331c0-0.582-0.059-1.141-0.177-1.677c-0.118-0.537-0.305-1.006-0.558-1.409
		s-0.571-0.726-0.96-0.965c-0.387-0.239-0.849-0.359-1.385-0.359c-0.951,0-1.695,0.359-2.238,1.079
		C97.66,49.753,97.39,50.862,97.39,52.364z"/>
	<path fill="#FFFFFF" d="M109.854,47.111c0.392-0.071,0.844-0.128,1.355-0.169c0.511-0.041,0.977-0.062,1.4-0.062
		c0.475,0,0.927,0.052,1.354,0.153c0.428,0.103,0.805,0.271,1.13,0.505c0.326,0.235,0.586,0.542,0.783,0.919
		c0.194,0.378,0.293,0.836,0.293,1.378c0,0.837-0.23,1.516-0.696,2.037c-0.465,0.52-1.052,0.868-1.765,1.042l0.742,0.565
		l2.695,4.242h-1.504l-2.986-4.625l-1.518-0.229v4.854h-1.285V47.111z M112.641,47.983c-0.135,0-0.274,0-0.418,0
		c-0.146,0-0.284,0.005-0.419,0.016c-0.134,0.009-0.26,0.021-0.38,0.03c-0.118,0.011-0.214,0.025-0.285,0.046v3.952h1.207
		c0.712,0,1.301-0.174,1.766-0.521c0.464-0.346,0.696-0.888,0.696-1.623c0-0.551-0.191-1.005-0.572-1.364
		C113.853,48.162,113.321,47.983,112.641,47.983z"/>
	<path fill="#FFFFFF" d="M121.853,47.004h5.898v1.133h-4.614v3.506h4.227v1.134h-4.227v3.812h4.692v1.133h-5.977V47.004z"/>
</g>
</svg>
