<?xml version="1.0" encoding="utf-8"?>
<!-- Generator: Adobe Illustrator 15.0.0, SVG Export Plug-In . SVG Version: 6.00 Build 0)  -->
<!DOCTYPE svg PUBLIC "-//W3C//DTD SVG 1.1//EN" "http://www.w3.org/Graphics/SVG/1.1/DTD/svg11.dtd">
<svg version="1.1" id="Layer_1" xmlns="http://www.w3.org/2000/svg" xmlns:xlink="http://www.w3.org/1999/xlink" x="0px" y="0px"
	 width="49px" height="19px" viewBox="0 0 49 19" enable-background="new 0 0 49 19" xml:space="preserve">
<path fill="#FFFFFF" d="M11.604,18.153c0,0-0.158,0.016-0.459,0.046c-0.3,0.03-0.751,0.068-1.337,0.09
	c-0.589,0.022-1.316,0.026-2.166-0.035c-0.851-0.062-1.831-0.193-2.886-0.521c-1.046-0.327-2.195-0.855-3.137-1.812
	c-0.942-0.934-1.585-2.393-1.355-3.947c0.206-1.547,1.299-3.044,2.881-3.877C3.93,7.674,4.817,7.393,5.746,7.259
	c0.464-0.069,0.935-0.1,1.419-0.096C7.395,7.165,7.626,7.167,7.86,7.167c0.241,0.015,0.482,0.029,0.726,0.045
	c3.885,0.302,7.784,1.914,11.627,3.795c3.864,1.878,7.806,4.039,12.205,5.5c1.102,0.353,2.226,0.662,3.379,0.899
	c1.152,0.228,2.334,0.389,3.518,0.471c1.196,0.067,2.393,0.031,3.576-0.2c1.173-0.233,2.327-0.648,3.326-1.312
	c0.993-0.664,1.819-1.6,2.237-2.708c0.429-1.102,0.358-2.383-0.231-3.408c-0.589-1.032-1.655-1.744-2.809-2.068
	c-1.161-0.333-2.397-0.353-3.603-0.205c-2.427,0.286-4.649,1.361-6.809,2.497c-2.166,1.142-4.289,2.43-6.587,3.44
	c-2.272,1.021-4.819,1.688-7.331,1.486c-1.249-0.108-2.457-0.43-3.569-0.913c-1.117-0.465-2.152-1.131-2.984-1.966
	c-0.819-0.849-1.457-1.862-1.755-2.972c-0.297-1.104-0.297-2.28,0.057-3.358C13,5.647,13.256,5.134,13.58,4.665
	c0.165-0.256,0.339-0.442,0.509-0.666c0.175-0.212,0.381-0.419,0.572-0.628c0.79-0.798,1.713-1.464,2.702-1.98
	c1.979-1.043,4.219-1.495,6.349-1.396c2.131,0.086,4.173,0.693,5.862,1.702c1.704,0.99,3.053,2.351,3.982,3.823
	c0.234,0.368,0.45,0.741,0.635,1.118c0.091,0.194,0.182,0.386,0.272,0.576C34.54,7.4,34.612,7.586,34.686,7.77
	c0.292,0.779,0.477,1.55,0.558,2.316c0.162,1.534-0.151,2.999-0.769,4.175c-0.615,1.182-1.481,2.087-2.366,2.736
	c-1.795,1.303-3.546,1.706-4.696,1.884c-0.584,0.078-1.035,0.105-1.34,0.112C25.769,18.997,25.611,19,25.611,19v-0.035
	c0,0,0.157-0.006,0.459-0.017c0.303-0.015,0.751-0.053,1.328-0.146c1.137-0.2,2.867-0.647,4.558-1.994
	c0.835-0.664,1.63-1.571,2.166-2.713c0.539-1.137,0.773-2.519,0.562-3.944c-0.1-0.71-0.312-1.438-0.604-2.133
	c-0.083-0.182-0.167-0.363-0.251-0.546c-0.094-0.168-0.188-0.338-0.28-0.509c-0.197-0.343-0.413-0.682-0.661-1.003
	c-0.962-1.314-2.347-2.387-3.929-3.174c-1.599-0.766-3.411-1.253-5.327-1.384c-1.91-0.119-3.936,0.087-5.862,0.828
	c-0.958,0.375-1.886,0.884-2.717,1.549c-0.195,0.177-0.396,0.339-0.589,0.531c-0.184,0.195-0.404,0.398-0.557,0.589
	c-0.342,0.408-0.614,0.875-0.811,1.376c-0.387,1.006-0.435,2.158-0.118,3.219c0.296,1.069,0.923,2.054,1.756,2.829
	c0.831,0.785,1.855,1.353,2.964,1.722c1.098,0.39,2.259,0.613,3.426,0.634c2.353,0.036,4.623-0.785,6.777-1.829
	c2.164-1.052,4.268-2.337,6.524-3.453c2.245-1.101,4.722-2.032,7.319-2.161c1.285-0.065,2.606,0.05,3.825,0.496
	c1.208,0.44,2.33,1.237,2.923,2.374c0.624,1.117,0.645,2.475,0.22,3.642c-0.43,1.176-1.289,2.164-2.316,2.865
	c-1.022,0.721-2.209,1.184-3.418,1.459c-1.209,0.277-2.461,0.383-3.678,0.366c-1.232-0.026-2.441-0.133-3.639-0.31
	c-1.195-0.187-2.367-0.448-3.516-0.756c-4.606-1.244-8.685-3.367-12.515-5.23c-3.822-1.865-7.484-3.6-11.13-4.068
	C8.276,8.046,8.053,8.02,7.831,7.991C7.598,7.977,7.368,7.963,7.138,7.948c-0.435-0.029-0.877-0.021-1.303,0.02
	c-0.856,0.08-1.682,0.287-2.411,0.646c-1.469,0.698-2.52,2.01-2.771,3.422c-0.285,1.417,0.283,2.802,1.154,3.716
	c0.872,0.938,1.979,1.487,2.998,1.836c2.073,0.68,3.837,0.675,5,0.663c0.586-0.015,1.037-0.045,1.339-0.07
	c0.301-0.026,0.457-0.039,0.457-0.039L11.604,18.153z"/>
<path fill="#FFFFFF" d="M7.226,4.21c0,0,0.566-0.01,1.559-0.029c0.496-0.003,1.097-0.037,1.791,0.046
	c0.347,0.03,0.716,0.062,1.105,0.094c0.391,0.034,0.806,0.057,1.225,0.146c0.423,0.073,0.863,0.149,1.318,0.228
	c0.228,0.042,0.462,0.078,0.694,0.127c0.233,0.059,0.466,0.122,0.704,0.182c0.477,0.124,0.967,0.249,1.468,0.378
	c0.493,0.152,0.989,0.325,1.5,0.492c0.255,0.085,0.514,0.169,0.772,0.256c0.253,0.099,0.509,0.199,0.764,0.302
	c0.508,0.207,1.031,0.407,1.545,0.63c1.026,0.45,2.049,0.95,3.059,1.46c1.017,0.5,1.993,1.053,2.978,1.562
	c0.49,0.253,0.967,0.522,1.443,0.777c0.479,0.248,0.951,0.493,1.417,0.732c0.461,0.25,0.926,0.471,1.385,0.679
	c0.458,0.207,0.898,0.435,1.343,0.611c0.894,0.34,1.728,0.71,2.54,0.921c0.4,0.123,0.786,0.24,1.151,0.351
	c0.373,0.087,0.73,0.15,1.066,0.222c0.336,0.068,0.649,0.132,0.94,0.19c0.29,0.059,0.564,0.062,0.809,0.093
	c0.983,0.105,1.548,0.165,1.548,0.165v0.055c0,0-0.569-0.002-1.564-0.005c-0.248-0.012-0.529,0.007-0.827-0.028
	c-0.298-0.037-0.621-0.076-0.967-0.118c-0.345-0.044-0.716-0.081-1.103-0.14c-0.383-0.082-0.782-0.171-1.202-0.263
	c-0.851-0.153-1.725-0.465-2.67-0.745c-0.471-0.146-0.933-0.343-1.419-0.52c-0.484-0.178-0.976-0.367-1.462-0.585
	c-0.984-0.417-1.982-0.88-2.981-1.371c-0.989-0.501-1.995-1.012-2.996-1.521c-0.99-0.536-2.002-1.004-2.979-1.516
	c-0.492-0.243-0.988-0.463-1.475-0.694c-0.244-0.114-0.486-0.229-0.726-0.343c-0.245-0.102-0.488-0.201-0.729-0.301
	c-0.483-0.196-0.957-0.401-1.427-0.582c-0.477-0.161-0.943-0.317-1.399-0.47C15.194,5.6,14.97,5.524,14.749,5.451
	c-0.225-0.067-0.449-0.116-0.669-0.172c-0.44-0.112-0.863-0.217-1.27-0.321c-0.409-0.117-0.805-0.168-1.183-0.23
	c-0.38-0.06-0.738-0.119-1.077-0.173c-0.672-0.135-1.28-0.141-1.773-0.185c-0.99-0.078-1.555-0.123-1.555-0.123L7.226,4.21z"/>
</svg>
