<?xml version="1.0" encoding="utf-8"?>
<!-- Generator: Adobe Illustrator 15.0.0, SVG Export Plug-In . SVG Version: 6.00 Build 0)  -->
<!DOCTYPE svg PUBLIC "-//W3C//DTD SVG 1.1//EN" "http://www.w3.org/Graphics/SVG/1.1/DTD/svg11.dtd">
<svg version="1.1" id="Layer_1" xmlns="http://www.w3.org/2000/svg" xmlns:xlink="http://www.w3.org/1999/xlink" x="0px" y="0px"
	 width="106px" height="27px" viewBox="0 0 106 27" enable-background="new 0 0 106 27" xml:space="preserve">
<path fill="#FFFFFF" d="M65.13,11.684l-1.996-0.816l1.401-4.199l-4.198,1.4L59.52,6.073l-2.594,2.593v-5.54l-1.988,0.833L52.959,0
	L50.98,3.959l-1.989-0.833v5.54l-2.592-2.593l-0.818,1.995l-4.197-1.4l1.4,4.199l-1.996,0.816l6.561,6.561l-2.395,2.394h7.79v6.434
	h0.429v-6.434h7.791l-2.395-2.394L65.13,11.684z M59.928,20.209h-6.755v-1.913l2.337-2.336h1.916v-0.429h-1.487l1.788-1.788h1.916
	v-0.429h-1.487l1.639-1.639l-0.303-0.303l-1.576,1.575v-1.36h-0.429v1.789l-1.788,1.787v-1.36H55.27v1.79l-2.097,2.097v-4.086
	l1.311-1.31l-0.303-0.304l-1.008,1.006v-2.528l1.311-1.311l-0.303-0.303l-1.008,1.007V6.914h-0.429v2.948l-1.007-1.007l-0.303,0.303
	l1.31,1.311v2.528l-1.007-1.006l-0.303,0.304l1.31,1.31v4.086l-2.096-2.097v-1.79H50.22v1.36l-1.788-1.787v-1.789h-0.429v1.36
	l-1.575-1.575l-0.304,0.303l1.639,1.639h-1.487v0.429h1.916l1.788,1.788h-1.487v0.429h1.916l2.336,2.336v1.913h-6.755l1.966-1.965
	l-6.407-6.407l1.77-0.726l-1.256-3.765l3.766,1.256l0.725-1.771l2.868,2.87V3.771l1.765,0.739l1.774-3.55l1.774,3.55l1.764-0.739
	v5.932l2.869-2.87l0.725,1.771l3.765-1.256l-1.255,3.765l1.77,0.726l-6.406,6.407L59.928,20.209z"/>
<path fill="#FFFFFF" d="M24.13,11.684l-1.996-0.816l1.401-4.199l-4.198,1.4L18.52,6.073l-2.594,2.593v-5.54l-1.988,0.833L11.959,0
	L9.98,3.959L7.991,3.126v5.54L5.399,6.073L4.581,8.068l-4.197-1.4l1.4,4.199l-1.996,0.816l6.561,6.561l-2.395,2.394h7.79v6.434
	h0.429v-6.434h7.791l-2.395-2.394L24.13,11.684z M18.928,20.209h-6.755v-1.913l2.337-2.336h1.916v-0.429h-1.487l1.788-1.788h1.916
	v-0.429h-1.487l1.639-1.639l-0.303-0.303l-1.576,1.575v-1.36h-0.429v1.789l-1.788,1.787v-1.36H14.27v1.79l-2.097,2.097v-4.086
	l1.311-1.31l-0.303-0.304l-1.008,1.006v-2.528l1.311-1.311l-0.303-0.303l-1.008,1.007V6.914h-0.429v2.948l-1.007-1.007l-0.303,0.303
	l1.31,1.311v2.528l-1.007-1.006l-0.303,0.304l1.31,1.31v4.086l-2.096-2.097v-1.79H9.22v1.36l-1.788-1.787v-1.789H7.003v1.36
	l-1.575-1.575l-0.304,0.303l1.639,1.639H5.275v0.429h1.916l1.788,1.788H7.492v0.429h1.916l2.336,2.336v1.913H4.989l1.966-1.965
	l-6.407-6.407l1.77-0.726L1.062,7.347l3.766,1.256l0.725-1.771l2.868,2.87V3.771l1.765,0.739l1.774-3.55l1.774,3.55l1.764-0.739
	v5.932l2.869-2.87l0.725,1.771l3.765-1.256l-1.255,3.765l1.77,0.726l-6.406,6.407L18.928,20.209z"/>
<path fill="#FFFFFF" d="M106,11.684l-1.996-0.816l1.401-4.199l-4.198,1.4l-0.817-1.995l-2.594,2.593v-5.54l-1.988,0.833L93.829,0
	l-1.979,3.959l-1.989-0.833v5.54L87.27,6.073l-0.818,1.995l-4.197-1.4l1.4,4.199l-1.996,0.816l6.561,6.561l-2.395,2.394h7.79v6.434
	h0.429v-6.434h7.791l-2.395-2.394L106,11.684z M100.798,20.209h-6.755v-1.913l2.337-2.336h1.916v-0.429h-1.487l1.788-1.788h1.916
	v-0.429h-1.487l1.639-1.639l-0.303-0.303l-1.576,1.575v-1.36h-0.429v1.789l-1.788,1.787v-1.36H96.14v1.79l-2.097,2.097v-4.086
	l1.311-1.31l-0.303-0.304l-1.008,1.006v-2.528l1.311-1.311l-0.303-0.303l-1.008,1.007V6.914h-0.429v2.948l-1.007-1.007l-0.303,0.303
	l1.31,1.311v2.528l-1.007-1.006l-0.303,0.304l1.31,1.31v4.086l-2.096-2.097v-1.79H91.09v1.36l-1.788-1.787v-1.789h-0.429v1.36
	l-1.575-1.575l-0.304,0.303l1.639,1.639h-1.487v0.429h1.916l1.788,1.788h-1.487v0.429h1.916l2.336,2.336v1.913h-6.755l1.966-1.965
	l-6.407-6.407l1.77-0.726l-1.256-3.765l3.766,1.256l0.725-1.771l2.868,2.87V3.771l1.765,0.739l1.774-3.55l1.774,3.55l1.764-0.739
	v5.932l2.869-2.87l0.725,1.771l3.765-1.256l-1.255,3.765l1.77,0.726l-6.406,6.407L100.798,20.209z"/>
</svg>
