<?xml version="1.0" encoding="utf-8"?>
<!-- Generator: Adobe Illustrator 15.0.0, SVG Export Plug-In . SVG Version: 6.00 Build 0)  -->
<!DOCTYPE svg PUBLIC "-//W3C//DTD SVG 1.1//EN" "http://www.w3.org/Graphics/SVG/1.1/DTD/svg11.dtd">
<svg version="1.1" id="Layer_1" xmlns="http://www.w3.org/2000/svg" xmlns:xlink="http://www.w3.org/1999/xlink" x="0px" y="0px"
	 width="78px" height="11px" viewBox="0 0 78 11" enable-background="new 0 0 78 11" xml:space="preserve">
<path d="M44.348,10.47c-0.002,0.021-0.006,0.039-0.004,0.059c0,0.003-0.002,0.005-0.002,0.007c0.003,0.028,0.015,0.053,0.026,0.08
	c0.004,0.011,0.004,0.023,0.011,0.035l0.002,0.001c0.021,0.039,0.05,0.071,0.086,0.101c0.016,0.013,0.037,0.02,0.053,0.029
	c0.023,0.012,0.045,0.026,0.069,0.035c0.021,0.008,0.045,0.008,0.066,0.01c0.022,0.005,0.047,0.011,0.068,0.011h29.251
	c3.009,0,4.083-1.457,4.083-2.824c0-1.219-0.997-2.479-2.662-2.479c-0.82,0-1.556,0.247-2.065,0.695
	c-0.463,0.407-0.714,0.949-0.704,1.52c0.007,0.186,0.176,0.343,0.391,0.332c0.211-0.004,0.381-0.155,0.38-0.339
	c-0.007-0.393,0.165-0.765,0.481-1.046c0.369-0.323,0.894-0.494,1.518-0.494c1.309,0,1.891,1.06,1.891,1.811
	c0,0.508-0.237,2.158-3.312,2.158h-25.17C53.321,9.413,60.281,8.2,62.312,7.613c2.624-0.759,2.906-2.286,2.906-2.907
	c0-1.439-1.266-2.19-2.515-2.19c-0.717,0-1.346,0.277-1.771,0.782c-0.433,0.511-0.574,1.179-0.367,1.74
	c0.061,0.177,0.275,0.271,0.48,0.219c0.201-0.056,0.314-0.244,0.25-0.418c-0.13-0.359-0.028-0.808,0.258-1.146
	c0.158-0.19,0.524-0.509,1.149-0.509c0.84,0,1.747,0.476,1.747,1.523c0,0.592-0.312,1.675-2.381,2.273
	C59.86,7.62,51.369,9.065,47.114,9.772c2.925-1.46,7.676-4.23,7.676-6.819c0-1.438-1.264-2.19-2.514-2.19
	c-0.717,0-1.345,0.278-1.77,0.783c-0.433,0.513-0.572,1.179-0.366,1.741c0.063,0.175,0.276,0.272,0.48,0.217
	c0.203-0.056,0.314-0.243,0.251-0.418c-0.13-0.357-0.032-0.807,0.255-1.146c0.162-0.19,0.523-0.509,1.149-0.509
	c0.841,0,1.747,0.478,1.747,1.523c0,2.689-6.834,6.145-9.468,7.25c-0.007,0.003-0.011,0.01-0.019,0.011
	c-0.021,0.015-0.043,0.028-0.065,0.047c-0.015,0.012-0.029,0.02-0.043,0.033c-0.02,0.021-0.03,0.043-0.044,0.065
	c-0.007,0.014-0.019,0.027-0.024,0.044C44.35,10.425,44.35,10.448,44.348,10.47"/>
<path d="M4.792,10.837h28.315c0.017,0,0.032-0.003,0.05-0.006c0.016-0.003,0.033-0.006,0.049-0.008
	c0.032-0.009,0.057-0.021,0.084-0.033c0.014-0.008,0.027-0.015,0.041-0.023c0.023-0.018,0.043-0.037,0.063-0.059
	c0.008-0.011,0.02-0.015,0.026-0.026c0.003-0.004,0.003-0.007,0.006-0.012c0.013-0.02,0.018-0.043,0.027-0.063
	c0.005-0.02,0.018-0.037,0.02-0.058c0,0,0.001-0.003,0.001-0.004c0.003-0.019-0.002-0.035-0.002-0.053
	c0-0.023,0.001-0.044-0.004-0.064c-0.011-0.042-0.029-0.079-0.057-0.113c-0.002-0.005-0.008-0.008-0.011-0.013
	c-0.026-0.028-0.055-0.054-0.091-0.075c0-0.002-0.002-0.004-0.004-0.006c-0.084-0.047-8.354-4.748-8.354-8.014
	c0-1.047,0.876-1.523,1.691-1.523c0.606,0,0.958,0.318,1.112,0.508c0.277,0.339,0.375,0.789,0.248,1.146
	c-0.062,0.174,0.048,0.361,0.244,0.418c0.194,0.056,0.404-0.043,0.465-0.219c0.198-0.561,0.062-1.229-0.355-1.74
	c-0.412-0.505-1.021-0.784-1.714-0.784c-1.212,0-2.434,0.753-2.434,2.192c0,2.645,4.424,5.879,6.967,7.521
	c-3.916-0.881-12.357-2.796-14.564-3.456c-2.002-0.597-2.302-1.68-2.302-2.274c0-1.044,0.877-1.522,1.69-1.522
	c0.605,0,0.958,0.32,1.114,0.51c0.276,0.338,0.371,0.788,0.247,1.144c-0.061,0.177,0.046,0.364,0.244,0.42
	c0.196,0.055,0.404-0.041,0.464-0.218c0.2-0.562,0.064-1.227-0.355-1.74c-0.413-0.505-1.021-0.784-1.714-0.784
	c-1.21,0-2.435,0.753-2.435,2.19c0,0.624,0.276,2.15,2.812,2.909c2.097,0.627,9.507,2.319,13.702,3.265H4.792
	c-2.976,0-3.205-1.651-3.205-2.158c0-0.751,0.564-1.811,1.831-1.811c0.604,0,1.111,0.171,1.467,0.494
	C5.192,6.978,5.358,7.35,5.353,7.741C5.35,7.926,5.514,8.077,5.718,8.081h0.006c0.203,0,0.369-0.147,0.372-0.331
	c0.011-0.571-0.232-1.113-0.682-1.521C4.923,5.781,4.214,5.534,3.417,5.534c-1.613,0-2.577,1.261-2.577,2.479
	C0.841,9.38,1.879,10.837,4.792,10.837"/>
<path d="M38.91,7.073c-2.177,0-3.947,1.541-3.947,3.431c0,0.185,0.171,0.333,0.382,0.333h7.128c0.213,0,0.383-0.148,0.383-0.333
	C42.856,8.614,41.087,7.073,38.91,7.073 M35.752,10.171c0.19-1.367,1.534-2.43,3.158-2.43s2.966,1.062,3.154,2.43H35.752z"/>
<path d="M38.91,5.989c0.212,0,0.385-0.148,0.385-0.333V1.397c0-0.184-0.172-0.333-0.385-0.333c-0.213,0-0.386,0.149-0.386,0.333
	v4.258C38.524,5.84,38.697,5.989,38.91,5.989"/>
<path d="M35.828,6.211c0.107,0.163,0.339,0.218,0.522,0.127c0.185-0.092,0.249-0.294,0.148-0.455l-1.486-2.278
	c-0.072-0.109-0.202-0.17-0.336-0.17c-0.064,0-0.127,0.013-0.189,0.043c-0.183,0.092-0.248,0.295-0.145,0.456L35.828,6.211z"/>
<path d="M41.469,6.338c0.187,0.091,0.42,0.035,0.525-0.127l1.483-2.276c0.105-0.161,0.038-0.364-0.146-0.456
	c-0.059-0.03-0.123-0.043-0.188-0.043c-0.134,0-0.264,0.062-0.336,0.17l-1.484,2.278C41.221,6.044,41.285,6.246,41.469,6.338"/>
</svg>
