<?xml version="1.0" encoding="utf-8"?>
<!-- Generator: Adobe Illustrator 15.0.0, SVG Export Plug-In . SVG Version: 6.00 Build 0)  -->
<!DOCTYPE svg PUBLIC "-//W3C//DTD SVG 1.1//EN" "http://www.w3.org/Graphics/SVG/1.1/DTD/svg11.dtd">
<svg version="1.1" id="Layer_1" xmlns="http://www.w3.org/2000/svg" xmlns:xlink="http://www.w3.org/1999/xlink" x="0px" y="0px"
	 width="71px" height="15px" viewBox="0 0 71 15" enable-background="new 0 0 71 15" xml:space="preserve">
<path d="M54.104,10.229l0.002,2.586c0,1.176,1.099,2.133,2.449,2.133c1.35,0,2.448-0.957,2.448-2.133v-2.554l0.002-0.032
	c0.017-0.284,0.285-0.505,0.61-0.505c0.324,0,0.593,0.221,0.61,0.505l0.002,2.586c0,1.176,1.098,2.133,2.448,2.133
	c1.35,0,2.449-0.957,2.449-2.133V10.14c0-0.292,0.274-0.532,0.612-0.532h2.812C69.9,9.607,71,8.651,71,7.474
	c0-1.177-1.1-2.132-2.449-2.132h-2.812c-0.338,0-0.612-0.24-0.612-0.534V2.133c0-1.177-1.1-2.133-2.449-2.133
	c-1.351,0-2.448,0.957-2.448,2.133v2.556l-0.001,0.035c-0.011,0.289-0.279,0.516-0.611,0.516s-0.601-0.227-0.611-0.516l-0.001-2.591
	C59.004,0.957,57.905,0,56.556,0c-1.351,0-2.449,0.957-2.449,2.133v2.556l-0.002,0.035c-0.009,0.289-0.277,0.516-0.609,0.516
	s-0.602-0.227-0.611-0.516l-0.002-2.591C52.882,0.957,51.783,0,50.434,0c-1.351,0-2.448,0.957-2.448,2.133v5.113h-6.385v0.457h6.385
	v5.113c0,1.176,1.098,2.133,2.448,2.133c1.35,0,2.448-0.957,2.448-2.133v-2.554l0.002-0.032c0.019-0.284,0.286-0.505,0.611-0.505
	C53.818,9.725,54.087,9.945,54.104,10.229 M52.401,9.987h-0.045v2.828c0,0.924-0.862,1.676-1.923,1.676
	c-1.062,0-1.925-0.752-1.925-1.676V7.703h14.198V7.246H48.509V2.133c0-0.925,0.863-1.677,1.925-1.677
	c1.061,0,1.923,0.752,1.923,1.677v2.598l0.002,0.229h0.037c0.127,0.427,0.57,0.737,1.1,0.737c0.528,0,0.97-0.31,1.099-0.737h0.038
	V2.133c0-0.925,0.862-1.677,1.924-1.677c1.061,0,1.925,0.752,1.925,1.677v2.598l0.001,0.229h0.036
	c0.128,0.427,0.568,0.737,1.099,0.737c0.529,0,0.972-0.31,1.1-0.737h0.037V2.133c0-0.925,0.863-1.677,1.924-1.677
	s1.925,0.752,1.925,1.677v2.674c0,0.547,0.51,0.991,1.137,0.991h2.812c1.061,0,1.924,0.752,1.924,1.676
	c0,0.925-0.863,1.677-1.924,1.677h-2.812c-0.627,0-1.137,0.444-1.137,0.989v2.676c0,0.924-0.864,1.676-1.925,1.676
	s-1.924-0.752-1.924-1.676v-2.599l-0.002-0.229h-0.042c-0.135-0.418-0.575-0.72-1.093-0.72s-0.958,0.302-1.093,0.72H58.48v2.828
	c0,0.924-0.864,1.676-1.925,1.676c-1.062,0-1.924-0.752-1.924-1.676v-2.599l-0.003-0.229h-0.041c-0.135-0.418-0.575-0.72-1.093-0.72
	C52.977,9.268,52.536,9.569,52.401,9.987"/>
<path d="M16.895,4.72l-0.002-2.587c0-1.176-1.098-2.132-2.449-2.132c-1.349,0-2.449,0.957-2.449,2.132v2.554L11.994,4.72
	c-0.017,0.283-0.286,0.505-0.61,0.505c-0.324,0-0.592-0.222-0.609-0.505l-0.002-2.587c0-1.176-1.099-2.132-2.45-2.132
	c-1.35,0-2.448,0.957-2.448,2.132v2.676c0,0.292-0.275,0.532-0.613,0.532H2.449C1.099,5.341,0,6.298,0,7.476
	c0,1.177,1.099,2.132,2.449,2.132h2.813c0.338,0,0.613,0.24,0.613,0.534v2.674c0,1.177,1.099,2.134,2.448,2.134
	c1.351,0,2.45-0.957,2.45-2.134V10.26l0.001-0.035c0.01-0.289,0.278-0.516,0.61-0.516c0.332,0,0.6,0.227,0.611,0.516l0,2.591
	c0,1.177,1.1,2.134,2.449,2.134c1.351,0,2.449-0.957,2.449-2.134V10.26l0.002-0.035c0.01-0.289,0.278-0.516,0.61-0.516
	s0.601,0.227,0.61,0.516l0.002,2.591c0,1.177,1.099,2.134,2.449,2.134c1.351,0,2.448-0.957,2.448-2.134V7.703h6.385V7.246h-6.385
	V2.133c0-1.176-1.098-2.132-2.448-2.132c-1.35,0-2.449,0.957-2.449,2.132v2.554L18.116,4.72c-0.018,0.283-0.285,0.505-0.61,0.505
	C17.182,5.225,16.913,5.003,16.895,4.72 M18.599,4.961h0.044V2.133c0-0.924,0.862-1.676,1.923-1.676s1.924,0.752,1.924,1.676v5.113
	H8.294v0.457h14.197v5.113c0,0.925-0.863,1.677-1.924,1.677s-1.923-0.752-1.923-1.677v-2.598l-0.002-0.229h-0.036
	c-0.127-0.427-0.57-0.736-1.099-0.736s-0.971,0.31-1.099,0.736h-0.039v2.827c0,0.925-0.862,1.677-1.923,1.677
	c-1.06,0-1.924-0.752-1.924-1.677v-2.598L12.52,9.988h-0.037c-0.127-0.427-0.569-0.736-1.099-0.736c-0.529,0-0.971,0.31-1.099,0.736
	h-0.038v2.827c0,0.925-0.863,1.677-1.924,1.677c-1.06,0-1.924-0.752-1.924-1.677v-2.674c0-0.547-0.509-0.99-1.137-0.99H2.449
	c-1.061,0-1.924-0.752-1.924-1.676c0-0.925,0.863-1.677,1.924-1.677h2.813c0.627,0,1.137-0.444,1.137-0.99V2.133
	c0-0.924,0.864-1.676,1.924-1.676c1.061,0,1.924,0.752,1.924,1.676v2.599l0.002,0.229h0.042c0.135,0.418,0.575,0.72,1.093,0.72
	c0.518,0,0.958-0.302,1.093-0.72h0.044V2.133c0-0.924,0.864-1.676,1.924-1.676c1.062,0,1.923,0.752,1.923,1.676v2.599l0.003,0.229
	h0.042c0.134,0.418,0.575,0.72,1.093,0.72C18.024,5.682,18.463,5.379,18.599,4.961"/>
<ellipse cx="35.609" cy="7.329" rx="1.499" ry="1.432"/>
</svg>
