<?xml version="1.0" encoding="utf-8"?>
<!-- Generator: Adobe Illustrator 15.0.0, SVG Export Plug-In . SVG Version: 6.00 Build 0)  -->
<!DOCTYPE svg PUBLIC "-//W3C//DTD SVG 1.1//EN" "http://www.w3.org/Graphics/SVG/1.1/DTD/svg11.dtd">
<svg version="1.1" id="Layer_1" xmlns="http://www.w3.org/2000/svg" xmlns:xlink="http://www.w3.org/1999/xlink" x="0px" y="0px"
	 width="25px" height="25px" viewBox="0 0 25 25" enable-background="new 0 0 25 25" xml:space="preserve">
<path fill="#FFFFFF" d="M12.311,0.807c-0.668,0-1.325,0.057-1.962,0.169C9.323,0.328,8.111-0.047,6.811-0.047
	c-3.674,0-6.652,2.979-6.652,6.651c0,1.229,0.335,2.375,0.915,3.363c-0.153,0.745-0.232,1.518-0.232,2.307
	c0,6.333,5.134,11.468,11.469,11.468c0.717,0,1.418-0.066,2.1-0.191c0.936,0.504,2.007,0.789,3.143,0.789
	c3.673,0,6.652-2.977,6.652-6.651c0-1.061-0.25-2.064-0.692-2.953c0.173-0.794,0.265-1.616,0.265-2.461
	C23.777,5.941,18.643,0.807,12.311,0.807z"/>
<path fill="#4CC1EC" d="M17.234,11.81c-0.536-0.349-1.198-0.65-1.961-0.895c-0.755-0.242-1.607-0.466-2.536-0.664
	c-0.733-0.171-1.268-0.301-1.586-0.389c-0.312-0.085-0.621-0.207-0.924-0.36c-0.29-0.144-0.52-0.318-0.684-0.519
	C9.39,8.796,9.314,8.576,9.314,8.316c0-0.424,0.234-0.786,0.712-1.099c0.497-0.326,1.165-0.492,1.986-0.492
	c0.886,0,1.53,0.151,1.917,0.446c0.395,0.301,0.741,0.729,1.028,1.273c0.246,0.422,0.469,0.721,0.684,0.908
	c0.23,0.205,0.562,0.311,0.987,0.311c0.469,0,0.864-0.167,1.178-0.495c0.313-0.322,0.472-0.696,0.472-1.106
	c0-0.425-0.123-0.866-0.358-1.307c-0.236-0.441-0.612-0.861-1.117-1.254c-0.499-0.393-1.138-0.708-1.893-0.947
	c-0.752-0.233-1.652-0.353-2.677-0.353c-1.28,0-2.413,0.182-3.364,0.533C7.905,5.093,7.156,5.613,6.643,6.281
	C6.125,6.955,5.864,7.735,5.864,8.602c0,0.909,0.249,1.68,0.743,2.3c0.483,0.604,1.146,1.089,1.969,1.439
	c0.803,0.342,1.815,0.642,3.005,0.899c0.876,0.184,1.583,0.358,2.103,0.521c0.501,0.158,0.912,0.386,1.225,0.676
	c0.298,0.28,0.443,0.636,0.443,1.089c0,0.574-0.276,1.039-0.849,1.431c-0.585,0.399-1.362,0.602-2.311,0.602
	c-0.688,0-1.25-0.101-1.666-0.296c-0.414-0.197-0.736-0.446-0.962-0.746c-0.234-0.309-0.455-0.701-0.658-1.166
	c-0.183-0.428-0.408-0.76-0.673-0.981c-0.275-0.235-0.615-0.354-1.01-0.354c-0.48,0-0.882,0.15-1.198,0.446
	c-0.317,0.297-0.478,0.663-0.478,1.083c0,0.672,0.248,1.371,0.734,2.071c0.482,0.695,1.117,1.26,1.887,1.675
	c1.079,0.572,2.459,0.864,4.107,0.864c1.373,0,2.578-0.215,3.584-0.632c1.015-0.424,1.798-1.019,2.329-1.766
	c0.533-0.757,0.803-1.617,0.803-2.562c0-0.788-0.157-1.47-0.466-2.02C18.219,12.628,17.784,12.167,17.234,11.81z"/>
</svg>
